<?xml version="1.0" encoding="UTF-8"?>
<!-- Generator: visioncortex VTracer 0.6.3 -->
<svg version="1.1" xmlns="http://www.w3.org/2000/svg" width="207" height="47">
<path d="M0 0 C0.86 0 1.73 0 2.62 0.01 C29.67 0.1 56.61 2.69 82.25 11.81 C83.03 12.08 83.8 12.36 84.6 12.64 C89.24 14.4 92.85 16.03 95.62 20.31 C96.22 24.6 96.09 28.8 95.94 33.12 C95.9 34.88 95.9 34.88 95.87 36.67 C95.81 39.55 95.73 42.43 95.62 45.31 C95.01 45.23 94.4 45.15 93.77 45.07 C32.56 37.24 -30.54 37.96 -91.73 45.41 C-98.27 46.21 -104.81 46.83 -111.38 47.31 C-112.87 31.44 -112.87 31.44 -109.82 27.1 C-107.09 25.47 -104.35 24.43 -101.38 23.31 C-99.99 22.63 -98.62 21.94 -97.25 21.23 C-81.8 13.29 -65.54 8.29 -48.62 4.5 C-47.33 4.21 -47.33 4.21 -46.02 3.91 C-30.81 0.7 -15.5 -0.07 0 0 Z " fill="#808080" transform="translate(111.375,-0.3125)"/>
<path d="M0 0 C0.88 -0 1.77 -0 2.68 -0 C76.11 0.09 76.11 0.09 95.12 18.25 C95.12 18.91 95.12 19.57 95.12 20.25 C89.51 19.81 83.89 19.33 78.29 18.77 C77.42 18.69 76.55 18.6 75.65 18.51 C73.95 18.34 72.26 18.17 70.57 18 C55.85 16.54 41.11 16.08 26.32 16.05 C25.52 16.04 24.71 16.04 23.88 16.04 C19.6 16.02 15.32 16.01 11.03 16.01 C7.57 16.01 4.11 15.99 0.65 15.97 C-37.41 15.72 -75.2 17.66 -110.88 32.25 C-110.52 29.64 -110.25 28.54 -108.14 26.9 C-107.38 26.5 -106.63 26.11 -105.85 25.7 C-104.58 25.03 -104.58 25.03 -103.29 24.34 C-102.37 23.88 -101.45 23.42 -100.5 22.94 C-99.55 22.45 -98.6 21.97 -97.62 21.47 C-76.13 10.71 -52.7 4.16 -28.88 1.25 C-27.83 1.11 -27.83 1.11 -26.77 0.96 C-17.89 -0.11 -8.93 0.01 0 0 Z " fill="#C0C0C0" transform="translate(110.875,-0.24999999999999997)"/>
</svg>
