<?xml version="1.0" encoding="UTF-8"?>
<!-- Generator: visioncortex VTracer 0.6.3 -->
<svg version="1.1" xmlns="http://www.w3.org/2000/svg" width="99" height="22">
<path d="M0 0 C0.66 0 1.32 0 2 0 C37.21 0.15 37.21 0.15 45.38 8.31 C45.45 10.5 45.46 12.69 45.44 14.88 C45.43 16.07 45.42 17.27 45.41 18.5 C45.4 19.43 45.39 20.36 45.38 21.31 C44.12 21.22 44.12 21.22 42.83 21.13 C14.77 19.14 -12.54 19.07 -40.62 21.31 C-43.08 21.5 -45.53 21.69 -47.98 21.88 C-49.07 21.96 -50.15 22.05 -51.26 22.13 C-52.04 22.19 -52.82 22.25 -53.62 22.31 C-53.62 19.34 -53.62 16.37 -53.62 13.31 C-36.06 4.66 -19.73 -0.09 0 0 Z " fill="#808080" transform="translate(53.625,-0.3125)"/>
<path d="M0 0 C0.66 0 1.32 0 2 0 C16.46 0.06 31 1.24 44.38 7.31 C44.87 8.3 44.87 8.3 45.38 9.31 C44.52 9.24 43.67 9.17 42.78 9.1 C30.84 8.24 18.91 8.09 6.94 8.07 C3.51 8.06 0.09 8.03 -3.34 8 C-20.92 7.92 -36.95 9.51 -53.62 15.31 C-53.62 14.65 -53.62 13.99 -53.62 13.31 C-36.06 4.66 -19.73 -0.09 0 0 Z " fill="#C0C0C0" transform="translate(53.625,-0.3125)"/>
</svg>
