<?xml version="1.0" encoding="UTF-8"?>
<!-- Generator: visioncortex VTracer 0.6.3 -->
<svg version="1.1" xmlns="http://www.w3.org/2000/svg" width="806" height="599">
<path d="M0 0 C0.49 2.92 0.49 2.92 0.31 6.19 C0.27 7.27 0.22 8.36 0.18 9.48 C0.12 10.31 0.06 11.14 0 12 C0.58 12.09 1.16 12.17 1.76 12.26 C5.93 13.01 9.06 13.67 12.25 16.56 C17.18 20.93 23.26 20.22 29.57 20.39 C30.49 20.41 31.41 20.44 32.35 20.46 C34.29 20.52 36.22 20.57 38.16 20.61 C41.12 20.69 44.09 20.78 47.05 20.87 C48.93 20.92 50.81 20.97 52.7 21.01 C54.03 21.06 54.03 21.06 55.38 21.1 C56.21 21.12 57.03 21.13 57.88 21.15 C58.97 21.18 58.97 21.18 60.08 21.21 C62.33 21.11 62.33 21.11 65 19 C67.02 18.75 67.02 18.75 69.39 18.75 C70.3 18.75 71.2 18.74 72.13 18.74 C73.62 18.74 73.62 18.74 75.14 18.75 C76.2 18.75 77.25 18.75 78.34 18.75 C81.89 18.74 85.44 18.75 88.99 18.76 C91.53 18.76 94.07 18.75 96.61 18.75 C102.8 18.75 108.99 18.75 115.18 18.76 C122.39 18.77 129.59 18.77 136.79 18.77 C149.64 18.77 162.5 18.78 175.35 18.79 C187.83 18.81 200.3 18.82 212.78 18.81 C213.94 18.81 213.94 18.81 215.11 18.81 C216.26 18.81 216.26 18.81 217.44 18.81 C231.63 18.81 245.83 18.82 260.02 18.83 C265.05 18.83 270.07 18.83 275.1 18.83 C281.86 18.83 288.62 18.84 295.38 18.85 C297.86 18.85 300.35 18.85 302.84 18.85 C306.22 18.85 309.6 18.86 312.99 18.87 C314.48 18.86 314.48 18.86 316 18.86 C316.9 18.86 317.8 18.87 318.73 18.87 C319.51 18.87 320.3 18.87 321.1 18.87 C323 19 323 19 325 20 C328.05 20.11 331.08 20.16 334.14 20.17 C335.05 20.17 335.96 20.17 336.9 20.18 C338.84 20.18 340.77 20.19 342.71 20.19 C345.66 20.19 348.61 20.21 351.55 20.22 C353.43 20.23 355.32 20.23 357.2 20.23 C358.08 20.24 358.95 20.24 359.85 20.25 C364.95 20.23 369.2 19.77 374 18 C374.64 17.34 375.28 16.68 375.94 16 C378.97 13.06 381.9 12.82 386 12 C386.06 10.86 386.06 10.86 386.11 9.7 C386.18 8.71 386.24 7.71 386.31 6.69 C386.4 5.21 386.4 5.21 386.49 3.7 C387.07 0.64 387.48 -0.22 390 -2 C397.33 -5.18 405.11 -6.91 413 -8 C413.8 -8.11 414.6 -8.22 415.43 -8.34 C436.65 -10.75 458.12 -9.02 478 -1 C479.1 -0.56 480.2 -0.12 481.34 0.34 C488.5 3.66 488.5 3.66 489.89 7.38 C490.16 9.66 490.22 11.72 490 14 C490.91 14.06 491.82 14.12 492.75 14.19 C496.85 15.21 497.6 16.59 500 20 C500.88 21.71 501.71 23.44 502.5 25.19 C505.13 30.6 508.23 35.47 511.62 40.44 C531.03 68.97 543.57 98.61 551.57 132.08 C555.29 147.59 559.04 163.06 563.94 178.25 C575.67 214.74 582.38 252.89 589.5 290.5 C589.71 291.62 589.93 292.74 590.15 293.9 C594.37 316.19 597.13 337.96 597.27 360.66 C597.28 361.9 597.28 361.9 597.29 363.16 C597.32 367.53 597.34 371.9 597.35 376.26 C597.36 379.83 597.39 383.39 597.43 386.96 C597.48 391.31 597.51 395.67 597.51 400.03 C597.52 401.67 597.53 403.31 597.56 404.94 C597.91 430.16 588.89 457.28 571.29 475.77 C565.3 481.61 558.89 485.79 551.56 489.75 C550.87 490.13 550.18 490.5 549.47 490.89 C538.8 496.47 528.75 497.64 516.88 497.62 C516.14 497.63 515.41 497.63 514.65 497.63 C503.07 497.6 493.86 496.35 484 490 C483 489.43 482 488.85 480.97 488.26 C474.53 484.42 468.72 479.83 463 475 C461.78 474 461.78 474 460.54 472.98 C425.26 442.94 410 388.06 394.67 345.68 C390.08 330.01 390.08 330.01 379.21 319.12 C375.66 318.92 373.68 321.31 371.12 323.5 C353.26 337.94 333.43 341.83 311 340 C295.15 338.09 279.28 330.28 268 319 C265.59 318.89 263.2 318.84 260.79 318.83 C260.07 318.83 259.34 318.83 258.6 318.82 C257.06 318.82 255.53 318.81 253.99 318.81 C251.64 318.81 249.29 318.79 246.95 318.78 C245.46 318.77 243.97 318.77 242.48 318.77 C241.42 318.76 241.42 318.76 240.35 318.75 C236.67 318.76 235.15 318.9 232 321 C229.5 321.19 227.12 321.27 224.62 321.26 C223.5 321.26 223.5 321.26 222.36 321.27 C219.88 321.28 217.41 321.27 214.93 321.27 C213.22 321.27 211.5 321.27 209.78 321.27 C206.18 321.27 202.58 321.27 198.99 321.26 C194.37 321.25 189.75 321.26 185.13 321.27 C181.58 321.28 178.04 321.27 174.49 321.27 C172.79 321.27 171.08 321.27 169.38 321.27 C167 321.28 164.63 321.27 162.25 321.26 C161.54 321.26 160.83 321.27 160.1 321.27 C155.23 321.23 155.23 321.23 153 319 C150.58 318.74 148.29 318.6 145.87 318.56 C144.8 318.54 144.8 318.54 143.71 318.52 C142.21 318.49 140.7 318.48 139.19 318.46 C136.9 318.44 134.62 318.36 132.34 318.29 C123.18 317.99 123.18 317.99 115.36 322.28 C114.23 323.51 113.11 324.75 112 326 C94.67 338.96 72.65 342.2 51.59 339.72 C37.73 337.38 25.7 330.95 15 322 C12.52 319.82 12.52 319.82 10 319 C5.21 320.56 2.87 322.97 0 327 C-1.32 329.91 -1.32 329.91 -2.34 333.11 C-2.76 334.32 -3.17 335.54 -3.6 336.78 C-3.82 337.43 -4.04 338.07 -4.26 338.74 C-5.44 342.23 -6.65 345.7 -7.87 349.18 C-8.12 349.9 -8.38 350.63 -8.64 351.37 C-16.03 372.37 -24.54 393.01 -33.76 413.27 C-34.56 415.04 -35.36 416.81 -36.15 418.58 C-43.36 434.7 -51.32 451.14 -63.84 463.81 C-66.06 465.98 -66.06 465.98 -67.98 468.52 C-74.78 476.86 -84.96 483.26 -94.09 488.83 C-95.31 489.58 -96.51 490.34 -97.7 491.12 C-107.4 497.37 -117.53 497.66 -128.75 497.69 C-129.82 497.7 -129.82 497.7 -130.9 497.7 C-140.2 497.73 -148.33 496.64 -157 493 C-157.69 492.71 -158.38 492.43 -159.09 492.13 C-166.8 488.73 -173.72 484.6 -180 479 C-180.99 478.15 -180.99 478.15 -182.01 477.27 C-190.89 469.09 -196.59 458.6 -201.31 447.62 C-201.63 446.91 -201.94 446.19 -202.26 445.45 C-208.17 431.08 -209.59 417.6 -209.46 402.26 C-209.46 400.4 -209.46 398.53 -209.46 396.67 C-209.46 392.79 -209.44 388.92 -209.41 385.04 C-209.38 380.12 -209.37 375.21 -209.37 370.29 C-209.37 366.45 -209.36 362.61 -209.35 358.77 C-209.34 356.96 -209.34 355.15 -209.33 353.34 C-209.3 335.75 -207.38 318.83 -204.09 301.57 C-203.81 300.05 -203.53 298.53 -203.24 297.02 C-202.49 293.02 -201.73 289.02 -200.97 285.03 C-200.5 282.54 -200.02 280.06 -199.55 277.57 C-192.64 241.25 -184.97 205.21 -174.11 169.83 C-173.45 167.66 -172.78 165.49 -172.12 163.31 C-171.79 162.22 -171.46 161.13 -171.12 160.01 C-168.39 150.81 -166.21 141.53 -164.07 132.18 C-155.82 96.11 -141.21 63.68 -119.69 33.44 C-116.28 28.6 -113.68 23.7 -111.32 18.26 C-109.79 15.64 -108.85 14.93 -106 14 C-104.68 14 -103.36 14 -102 14 C-102.17 12.78 -102.33 11.57 -102.5 10.31 C-102.48 7.7 -102.44 6.47 -100.64 4.53 C-98.49 3.15 -96.33 2.06 -94 1 C-92.71 0.37 -92.71 0.37 -91.39 -0.27 C-68.98 -10.48 -20.9 -17.51 0 0 Z " fill="#F9B745" transform="translate(209,102)"/>
<path d="M0 0 C1.35 -0.01 1.35 -0.01 2.74 -0.02 C3.73 -0.01 4.72 -0.01 5.75 -0 C6.8 -0.01 7.85 -0.01 8.94 -0.01 C12.49 -0.02 16.04 -0.01 19.59 -0.01 C22.12 -0.01 24.66 -0.01 27.2 -0.02 C33.39 -0.03 39.57 -0.02 45.76 -0.02 C50.79 -0.01 55.81 -0.01 60.84 -0.02 C61.56 -0.02 62.27 -0.02 63.01 -0.02 C64.46 -0.02 65.91 -0.02 67.36 -0.02 C80.99 -0.02 94.61 -0.02 108.23 -0.01 C119.93 0 131.62 0 143.32 -0.01 C156.89 -0.02 170.47 -0.02 184.04 -0.02 C185.49 -0.02 186.93 -0.02 188.38 -0.02 C189.09 -0.02 189.8 -0.02 190.54 -0.02 C195.56 -0.01 200.58 -0.02 205.6 -0.02 C212.36 -0.03 219.12 -0.02 225.87 -0.01 C228.36 -0.01 230.84 -0.01 233.33 -0.01 C236.71 -0.02 240.09 -0.01 243.47 -0 C244.47 -0.01 245.46 -0.01 246.48 -0.02 C247.39 -0.01 248.29 -0.01 249.22 0 C250 0 250.78 0 251.59 0 C253.61 0.25 253.61 0.25 256.61 2.25 C256.99 4.63 256.99 4.63 257 7.68 C257.01 9.41 257.01 9.41 257.03 11.18 C257.02 12.45 257.02 13.72 257.01 15.04 C257.02 16.38 257.03 17.73 257.03 19.08 C257.05 22.75 257.05 26.42 257.05 30.09 C257.04 33.15 257.05 36.22 257.05 39.28 C257.07 46.51 257.07 53.75 257.06 60.98 C257.04 68.43 257.06 75.89 257.09 83.34 C257.11 89.74 257.11 96.15 257.11 102.55 C257.1 106.37 257.11 110.19 257.12 114.02 C257.14 117.61 257.14 121.21 257.12 124.81 C257.11 126.76 257.13 128.7 257.14 130.65 C257.07 138.91 255.89 143.06 250.8 149.56 C245.28 153.82 238.54 153.54 231.89 153.51 C230.45 153.51 230.45 153.51 228.98 153.52 C225.77 153.52 222.56 153.52 219.35 153.51 C217.05 153.51 214.74 153.52 212.44 153.52 C206.19 153.53 199.93 153.53 193.68 153.52 C187.13 153.52 180.59 153.52 174.04 153.52 C162.34 153.53 150.65 153.52 138.95 153.51 C128.35 153.5 117.75 153.5 107.16 153.51 C94.84 153.52 82.52 153.53 70.21 153.52 C63.69 153.52 57.17 153.52 50.66 153.52 C44.53 153.53 38.4 153.53 32.28 153.51 C30.03 153.51 27.78 153.51 25.53 153.52 C22.46 153.52 19.4 153.52 16.33 153.51 C14.99 153.51 14.99 153.51 13.63 153.52 C8.19 153.48 2.34 153.44 -2.1 149.88 C-5.79 144.85 -7.64 141.8 -7.65 135.51 C-7.66 133.75 -7.66 133.75 -7.67 131.96 C-7.67 130.03 -7.67 130.03 -7.66 128.07 C-7.67 126.7 -7.67 125.34 -7.68 123.97 C-7.69 120.26 -7.69 116.55 -7.69 112.84 C-7.69 109.75 -7.7 106.66 -7.7 103.56 C-7.71 96.26 -7.71 88.97 -7.71 81.67 C-7.7 74.14 -7.71 66.6 -7.73 59.07 C-7.75 52.6 -7.76 46.14 -7.75 39.67 C-7.75 35.81 -7.75 31.95 -7.77 28.08 C-7.78 24.45 -7.78 20.82 -7.77 17.19 C-7.76 15.22 -7.77 13.25 -7.79 11.28 C-7.78 10.11 -7.77 8.94 -7.76 7.74 C-7.76 6.72 -7.76 5.71 -7.76 4.66 C-7.64 3.86 -7.52 3.07 -7.39 2.25 C-4.26 0.16 -3.56 0 0 0 Z " fill="#9C292E" transform="translate(278.3900451660156,120.74831771850586)"/>
<path d="M0 0 C1.08 0 2.15 0 3.26 0 C4.49 0 5.72 0 6.99 -0 C8.36 0 9.74 0.01 11.11 0.01 C12.55 0.01 13.99 0.01 15.43 0.01 C19.35 0.01 23.26 0.01 27.18 0.02 C31.27 0.03 35.36 0.03 39.45 0.03 C47.2 0.03 54.95 0.04 62.69 0.05 C73.16 0.06 83.63 0.07 94.1 0.08 C110.6 0.08 127.1 0.1 143.6 0.12 C143.6 38.4 143.6 76.68 143.6 116.12 C156.14 116.12 168.68 116.12 181.6 116.12 C181.6 121.73 181.6 127.34 181.6 133.12 C168.73 133.12 155.86 133.12 142.6 133.12 C142.6 127.51 142.6 121.9 142.6 116.12 C118.18 116.12 93.76 116.12 68.6 116.12 C68.6 121.07 68.6 126.02 68.6 131.12 C74.87 131.12 81.14 131.12 87.6 131.12 C87.6 137.06 87.6 143 87.6 149.12 C71.76 149.12 55.92 149.12 39.6 149.12 C39.6 143.18 39.6 137.24 39.6 131.12 C48.84 131.12 58.08 131.12 67.6 131.12 C67.6 126.17 67.6 121.22 67.6 116.12 C44.17 116.12 20.74 116.12 -3.4 116.12 C-3.44 87.42 -3.44 87.42 -3.45 73.3 C-3.46 65.64 -3.47 57.99 -3.48 50.33 C-3.49 43.63 -3.5 36.92 -3.5 30.22 C-3.5 27.65 -3.5 25.09 -3.51 22.53 C-3.52 18.95 -3.52 15.37 -3.52 11.79 C-3.52 10.72 -3.52 9.65 -3.53 8.55 C-3.53 7.58 -3.52 6.61 -3.52 5.61 C-3.52 4.76 -3.53 3.91 -3.53 3.04 C-3.34 0.14 -2.91 0.15 0 0 Z " fill="#01BFBF" transform="translate(278.40318393707275,120.87695217132568)"/>
<path d="M0 0 C24.42 0 48.84 0 74 0 C74 38.28 74 76.56 74 116 C49.58 116 25.16 116 0 116 C0 77.72 0 39.44 0 0 Z " fill="#BF02BD" transform="translate(422,121)"/>
<path d="M0 0 C1.24 0 2.48 0 3.76 0.01 C4.46 0.01 5.15 0.01 5.86 0.01 C8.12 0.01 10.38 0.01 12.63 0.02 C14.02 0.02 15.41 0.03 16.8 0.03 C21.96 0.03 27.12 0.04 32.28 0.06 C43.81 0.08 55.34 0.1 67.22 0.12 C67.22 38.4 67.22 76.68 67.22 116.12 C43.79 116.12 20.36 116.12 -3.78 116.12 C-3.82 87.42 -3.82 87.42 -3.83 73.29 C-3.83 65.64 -3.84 57.98 -3.85 50.33 C-3.86 43.62 -3.87 36.92 -3.87 30.22 C-3.87 27.65 -3.88 25.09 -3.88 22.52 C-3.89 18.95 -3.89 15.37 -3.89 11.79 C-3.89 10.72 -3.9 9.65 -3.9 8.54 C-3.9 7.57 -3.9 6.6 -3.9 5.61 C-3.9 4.76 -3.9 3.91 -3.9 3.04 C-3.7 -0.06 -3.14 0.14 0 0 Z " fill="#BFBF03" transform="translate(278.77772521972656,120.87974548339844)"/>
<path d="M0 0 C2.42 1.45 4.48 3.02 6.61 4.87 C7.31 5.32 8.01 5.78 8.73 6.25 C17.9 12.3 24.56 23.22 27.08 33.84 C30.86 52.48 32.07 71.88 31.61 90.87 C31.06 90.84 30.5 90.81 29.92 90.78 C-0.36 89.21 -31.06 88.51 -61.26 91.68 C-63.97 91.92 -66.66 91.94 -69.39 91.87 C-70.51 87.73 -70.18 84.84 -69.2 80.7 C-68.77 78.88 -68.77 78.88 -68.34 77.03 C-68.02 75.73 -67.71 74.42 -67.39 73.12 C-67.06 71.77 -66.74 70.42 -66.41 69.08 C-65.58 65.65 -64.74 62.24 -63.88 58.82 C-63.41 56.97 -62.95 55.12 -62.49 53.27 C-57.78 34.55 -52.64 14.26 -35.2 3.43 C-33.62 2.53 -32.01 1.68 -30.39 0.87 C-29.33 0.31 -29.33 0.31 -28.25 -0.26 C-19.92 -2.8 -8.24 -2.76 0 0 Z " fill="#FAB846" transform="translate(177.38671875,1.1328125)"/>
<path d="M0 0 C1 -0.04 2.01 -0.07 3.04 -0.11 C14.31 -0.24 21.74 4.38 29.75 12.01 C40.37 23.18 44.41 38.67 48.13 53.26 C48.69 55.44 49.26 57.62 49.83 59.79 C56.39 84.91 56.39 84.91 56 92.38 C55.67 92.7 55.34 93.03 55 93.38 C52.42 93.31 49.88 93.18 47.31 93 C46.62 92.96 45.93 92.91 45.22 92.87 C41.82 92.65 38.42 92.41 35.02 92.12 C24.43 91.24 13.88 91.22 3.25 91.25 C2.31 91.25 1.37 91.25 0.4 91.25 C-12.37 91.26 -25.1 91.44 -37.85 92.11 C-38.8 92.16 -39.75 92.2 -40.73 92.25 C-41.94 92.32 -41.94 92.32 -43.18 92.4 C-45 92.38 -45 92.38 -46 91.38 C-45.97 89.23 -45.86 87.09 -45.73 84.95 C-45.69 84.29 -45.65 83.63 -45.61 82.95 C-45.47 80.8 -45.33 78.65 -45.19 76.5 C-45.12 75.41 -45.12 75.41 -45.04 74.29 C-44.71 69.32 -44.36 64.35 -44 59.38 C-43.92 58.33 -43.85 57.29 -43.77 56.21 C-42.67 41.99 -40.35 29.27 -32 17.38 C-31.58 16.76 -31.17 16.15 -30.74 15.52 C-22.93 5.27 -12.44 0.17 0 0 Z " fill="#FAB846" transform="translate(642,-0.375)"/>
<path d="M0 0 C11.88 0 23.76 0 36 0 C36 38.28 36 76.56 36 116 C24.12 116 12.24 116 0 116 C0 77.72 0 39.44 0 0 Z " fill="#BF0000" transform="translate(460,121)"/>
<path d="M0 0 C10.89 0 21.78 0 33 0 C33 38.28 33 76.56 33 116 C21.78 116 10.56 116 -1 116 C-1.02 101.02 -1.04 86.05 -1.05 71.07 C-1.06 64.12 -1.06 57.16 -1.08 50.21 C-1.09 43.5 -1.09 36.8 -1.09 30.1 C-1.1 27.53 -1.1 24.97 -1.11 22.4 C-1.11 18.83 -1.11 15.25 -1.11 11.67 C-1.12 10.6 -1.12 9.53 -1.12 8.42 C-1.12 7.45 -1.12 6.48 -1.12 5.49 C-1.12 4.64 -1.12 3.79 -1.12 2.92 C-1 1 -1 1 0 0 Z " fill="#BEBDBC" transform="translate(276,121)"/>
<path d="M0 0 C11.22 0 22.44 0 34 0 C34 37.95 34 75.9 34 115 C22.78 115 11.56 115 0 115 C0 77.05 0 39.1 0 0 Z " fill="#00C000" transform="translate(386,121)"/>
<path d="M0 0 C10.56 0 21.12 0 32 0 C33.2 2.39 33.12 3.86 33.12 6.53 C33.12 7.48 33.12 8.44 33.12 9.42 C33.12 10.99 33.12 10.99 33.11 12.6 C33.11 13.7 33.11 14.8 33.11 15.94 C33.11 19.6 33.11 23.26 33.1 26.91 C33.1 29.44 33.09 31.98 33.09 34.51 C33.09 40.49 33.08 46.48 33.07 52.47 C33.06 59.29 33.06 66.11 33.05 72.92 C33.04 86.95 33.02 100.97 33 115 C22.11 115 11.22 115 0 115 C0 77.05 0 39.1 0 0 Z " fill="#0200BF" transform="translate(497,121)"/>
<path d="M0 0 C4.06 3.79 7.1 7.8 10.12 12.44 C10.55 13.08 10.98 13.72 11.43 14.38 C18 24.35 18 24.35 18 28 C18.7 27.99 19.41 27.99 20.13 27.98 C33.46 27.9 46.71 27.88 60 29 C60.24 28.17 60.48 27.33 60.73 26.48 C62.2 22.46 64.11 19.02 66.31 15.38 C66.88 14.39 66.88 14.39 67.46 13.39 C69.83 9.43 72.11 6.64 76 4 C76.33 4 76.66 4 77 4 C76.86 5.24 76.71 6.47 76.57 7.75 C75.93 13.51 75.43 19.28 74.94 25.06 C74.85 26.12 74.76 27.18 74.66 28.26 C74.44 30.84 74.22 33.42 74 36 C75.36 35.5 75.36 35.5 76.75 35 C80 34 80 34 84 34 C82.2 38.76 79.9 43.23 77.57 47.74 C75.69 51.42 74.21 55.05 73 59 C77.95 58.5 77.95 58.5 83 58 C81.35 68.61 73.32 80.3 65.38 87.32 C63 89 63 89 61 89 C61.55 85.63 62.05 83.92 64 81 C64.38 79.34 64.73 77.68 65 76 C64.31 75.77 63.62 75.54 62.9 75.3 C59.39 73.73 56.55 71.56 53.56 69.19 C53.02 68.76 52.47 68.34 51.9 67.9 C49.68 66.16 47.47 64.41 45.35 62.56 C42.31 59.66 42.31 59.66 38.31 59.12 C37.55 59.41 36.79 59.7 36 60 C32.05 61.32 29.91 60.21 26 59 C25.34 59 24.68 59 24 59 C23.5 59.66 23.01 60.32 22.5 61 C22 61.66 21.51 62.32 21 63 C20.34 63 19.68 63 19 63 C19 63.99 19 64.98 19 66 C19.56 65.46 20.11 64.93 20.69 64.38 C21.45 63.92 22.21 63.47 23 63 C25.75 63.81 25.75 63.81 28 65 C23.56 69.59 18.8 73.79 14 78 C14.76 81.48 16.15 83.95 18 87 C18 87.66 18 88.32 18 89 C13.04 88.45 10.64 84.92 7.56 81.31 C2.55 75.04 -3 67.18 -3 59 C-0.36 59 2.28 59 5 59 C2.9 50.8 0.24 44.11 -4.61 37.14 C-6 35 -6 35 -6 33 C-2.7 33.66 0.6 34.32 4 35 C3.72 30.96 3.42 26.92 3.12 22.88 C3.05 21.73 2.97 20.59 2.89 19.41 C2.8 18.31 2.72 17.2 2.63 16.05 C2.56 15.04 2.49 14.02 2.41 12.98 C1.97 9.8 1.02 7.04 0 4 C0 2.68 0 1.36 0 0 Z " fill="#2F385D" transform="translate(363,292)"/>
<path d="M0 0 C11.88 0 23.76 0 36 0 C36 5.61 36 11.22 36 17 C48.87 17 61.74 17 75 17 C75 11.39 75 5.78 75 0 C86.88 0 98.76 0 111 0 C111.5 7.92 111.5 7.92 112 16 C128.34 16.5 128.34 16.5 145 17 C144.04 22.77 143.36 25.87 139.06 29.75 C135.63 31.83 132.46 32.12 128.49 32.12 C127.6 32.12 126.7 32.12 125.78 32.12 C124.31 32.12 124.31 32.12 122.82 32.11 C121.78 32.11 120.75 32.11 119.68 32.11 C116.26 32.11 112.84 32.11 109.42 32.1 C107.05 32.1 104.68 32.09 102.31 32.09 C96.07 32.09 89.83 32.08 83.59 32.07 C77.22 32.06 70.85 32.05 64.48 32.05 C51.99 32.04 39.49 32.02 27 32 C27.33 26.72 27.66 21.44 28 16 C18.76 16 9.52 16 0 16 C0 10.72 0 5.44 0 0 Z " fill="#151313" transform="translate(385,237)"/>
<path d="M0 0 C0.33 0 0.66 0 1 0 C1 37.95 1 75.9 1 115 C13.21 115 25.42 115 38 115 C38 77.05 38 39.1 38 0 C38.66 0 39.32 0 40 0 C40 37.95 40 75.9 40 115 C51.22 115 62.44 115 74 115 C74 77.05 74 39.1 74 0 C74.66 0 75.32 0 76 0 C76 38.28 76 76.56 76 116 C88.54 116 101.08 116 114 116 C114 121.61 114 127.22 114 133 C101.13 133 88.26 133 75 133 C75 127.39 75 121.78 75 116 C50.58 116 26.16 116 1 116 C1 120.95 1 125.9 1 131 C7.27 131 13.54 131 20 131 C20 136.94 20 142.88 20 149 C4.16 149 -11.68 149 -28 149 C-28 143.06 -28 137.12 -28 131 C-18.76 131 -9.52 131 0 131 C0 87.77 0 44.54 0 0 Z " fill="#43A156" transform="translate(346,121)"/>
<path d="M0 0 C23.1 0 46.2 0 70 0 C70 4.95 70 9.9 70 15 C60.76 15 51.52 15 42 15 C42 20.61 42 26.22 42 32 C37.68 32.05 33.35 32.09 29.03 32.11 C27.56 32.12 26.09 32.13 24.62 32.15 C22.5 32.18 20.39 32.19 18.27 32.2 C16.36 32.21 16.36 32.21 14.41 32.23 C10.89 31.99 9 31.84 6 30 C0 22 0 22 0 0 Z " fill="#07214E" transform="translate(276,237)"/>
<path d="M0 0 C12.54 0 25.08 0 38 0 C38 5.28 38 10.56 38 16 C47.24 16 56.48 16 66 16 C66.02 18.45 66.04 20.91 66.06 23.44 C66.07 24.21 66.08 24.99 66.09 25.78 C66.1 27.52 66.05 29.26 66 31 C65 32 65 32 63.13 32.12 C62.32 32.12 61.5 32.12 60.66 32.11 C59.28 32.11 59.28 32.11 57.87 32.11 C56.87 32.11 55.87 32.1 54.84 32.1 C53.82 32.1 52.8 32.09 51.75 32.09 C48.48 32.09 45.21 32.08 41.94 32.06 C39.73 32.06 37.51 32.05 35.3 32.05 C29.87 32.04 24.43 32.02 19 32 C19 26.39 19 20.78 19 15 C12.73 15 6.46 15 0 15 C0 10.05 0 5.1 0 0 Z " fill="#350268" transform="translate(347,237)"/>
<path d="M0 0 C2.64 0 5.28 0 8 0 C9.65 4.48 11.1 8.73 11.56 13.5 C11.71 14.66 11.85 15.81 12 17 C12.66 17.33 13.32 17.66 14 18 C14 12.06 14 6.12 14 0 C16.64 0 19.28 0 22 0 C22.03 3.1 22.05 6.21 22.06 9.31 C22.07 10.19 22.08 11.07 22.09 11.98 C22.09 12.83 22.09 13.68 22.1 14.55 C22.1 15.33 22.11 16.11 22.11 16.92 C22 19 22 19 21 22 C20.7 24.86 20.49 27.73 20.28 30.6 C20 33 20 33 19 34 C16 34.14 13.01 34.04 10 34 C8.68 30.37 7.36 26.74 6 23 C5.67 23 5.34 23 5 23 C4.01 26.63 3.02 30.26 2 34 C-1.3 34 -4.6 34 -8 34 C-11.08 25.43 -11.08 25.43 -11.44 20.94 C-12.09 16.37 -13.62 11.38 -17 8 C-17.04 5.67 -17.04 3.33 -17 1 C-13.7 1 -10.4 1 -7 1 C-6.89 2.06 -6.78 3.12 -6.67 4.21 C-6.51 5.6 -6.35 6.99 -6.19 8.38 C-6.12 9.07 -6.05 9.77 -5.97 10.49 C-5.75 12.34 -5.38 14.18 -5 16 C-4.01 16.66 -3.02 17.32 -2 18 C-2.02 17.37 -2.05 16.74 -2.07 16.09 C-2.19 10.33 -1.64 5.53 0 0 Z " fill="#A32C22" transform="translate(567,144)"/>
<path d="M0 0 C0.7 0 1.39 0.01 2.11 0.01 C3.83 0.03 5.54 0.04 7.25 0.06 C7.25 2.7 7.25 5.34 7.25 8.06 C4.94 8.06 2.63 8.06 0.25 8.06 C0.25 7.4 0.25 6.74 0.25 6.06 C-1.73 6.06 -3.71 6.06 -5.75 6.06 C-5.58 7.18 -5.42 8.29 -5.25 9.44 C-4.63 14.32 -4.66 19.15 -4.75 24.06 C-3.1 24.06 -1.45 24.06 0.25 24.06 C0.25 23.4 0.25 22.74 0.25 22.06 C2.89 22.06 5.53 22.06 8.25 22.06 C8.23 20.76 8.21 19.46 8.19 18.12 C8.17 16.77 8.18 15.41 8.25 14.06 C8.58 13.73 8.91 13.4 9.25 13.06 C9.32 10.88 9.33 8.69 9.31 6.5 C9.3 5.3 9.29 4.1 9.29 2.87 C9.27 1.94 9.26 1.02 9.25 0.06 C11.89 0.06 14.53 0.06 17.25 0.06 C17.25 4.02 17.25 7.98 17.25 12.06 C19.56 12.06 21.87 12.06 24.25 12.06 C24.25 8.1 24.25 4.14 24.25 0.06 C26.89 0.06 29.53 0.06 32.25 0.06 C32.75 14.42 32.75 14.42 33.25 29.06 C30.28 29.06 27.31 29.06 24.25 29.06 C24.25 26.09 24.25 23.12 24.25 20.06 C21.61 20.06 18.97 20.06 16.25 20.06 C16.25 22.7 16.25 25.34 16.25 28.06 C12.92 28.06 9.58 28.06 6.25 28.06 C5.92 28.39 5.59 28.72 5.25 29.06 C2.59 29.19 -0.03 29.25 -2.69 29.25 C-3.43 29.26 -4.17 29.27 -4.94 29.29 C-6.88 29.29 -8.81 29.18 -10.75 29.06 C-12.75 27.06 -12.75 27.06 -12.99 25.05 C-12.99 24.24 -12.98 23.43 -12.98 22.6 C-12.98 21.72 -12.98 20.83 -12.97 19.92 C-12.96 18.54 -12.96 18.54 -12.94 17.12 C-12.94 16.21 -12.94 15.29 -12.94 14.34 C-12.89 7.48 -12.89 7.48 -11.75 4.06 C-11.75 3.07 -11.75 2.08 -11.75 1.06 C-7.88 -0.2 -4.02 -0.05 0 0 Z " fill="#A32B22" transform="translate(115.75,267.9375)"/>
<path d="M0 0 C2.64 0 5.28 0 8 0 C9.86 6.11 11.43 11.59 11 18 C11.66 18 12.32 18 13 18 C13.33 12.39 13.66 6.78 14 1 C16.31 1 18.62 1 21 1 C21.03 4.12 21.05 7.25 21.06 10.38 C21.07 11.26 21.08 12.15 21.09 13.07 C21.09 13.92 21.09 14.77 21.1 15.65 C21.1 16.43 21.11 17.22 21.11 18.03 C21 20 21 20 20 22 C19.77 24.04 19.59 26.08 19.44 28.12 C19.35 29.22 19.27 30.32 19.18 31.45 C19.09 32.71 19.09 32.71 19 34 C16.03 34 13.06 34 10 34 C7.53 28.06 7.53 28.06 5 22 C3.5 25 2.61 27.09 1.88 30.25 C1.59 31.49 1.3 32.72 1 34 C-2.3 34 -5.6 34 -9 34 C-9.5 31.73 -10 29.46 -10.5 27.19 C-10.78 25.92 -11.06 24.66 -11.34 23.36 C-12 20 -12 20 -12 17 C-12.66 17 -13.32 17 -14 17 C-16.45 11.28 -17.33 7.21 -17 1 C-15.35 0.97 -13.71 0.95 -12.06 0.94 C-11.15 0.93 -10.23 0.91 -9.29 0.9 C-7 1 -7 1 -6 2 C-5.93 4.86 -5.91 7.7 -5.94 10.56 C-5.94 11.37 -5.95 12.18 -5.95 13.01 C-5.96 15 -5.98 17 -6 19 C-4.68 19 -3.36 19 -2 19 C-2.03 17.95 -2.03 17.95 -2.07 16.88 C-2.19 10.84 -1.74 5.78 0 0 Z " fill="#A22A22" transform="translate(164,143)"/>
<path d="M0 0 C-0.48 5.57 -1.3 10.67 -3 16 C-2.34 16 -1.68 16 -1 16 C-0.67 15.01 -0.34 14.02 0 13 C2.25 11.4 4.46 9.93 6.81 8.5 C8.07 7.72 9.33 6.94 10.58 6.16 C11.47 5.61 11.47 5.61 12.39 5.04 C14.15 3.94 14.15 3.94 16.26 2.22 C18 1 18 1 21 1 C20.86 3.13 20.71 5.25 20.56 7.38 C20.48 8.56 20.4 9.74 20.32 10.96 C20 14 20 14 19 16 C16.54 17.32 14.08 18.55 11.56 19.75 C5.81 22.54 0.3 25.49 -5.08 28.97 C-7 30 -7 30 -10 30 C-9.88 28.67 -9.76 27.33 -9.62 26 C-9.56 25.26 -9.49 24.51 -9.41 23.75 C-8.86 20.09 -7.93 16.58 -7 13 C-9.5 14.35 -11.97 15.73 -14.44 17.12 C-15.14 17.5 -15.85 17.88 -16.58 18.27 C-20.99 20.75 -20.99 20.75 -22.97 25.3 C-22.98 26.19 -22.99 27.08 -23 28 C-21.14 28.15 -21.14 28.15 -19.25 28.31 C-15.74 28.75 -13.52 29.37 -11 32 C-11 32.66 -11 33.32 -11 34 C-17.49 34.24 -23.8 34.16 -30 32 C-30.66 31.34 -31.32 30.68 -32 30 C-31.86 26.95 -31.86 26.95 -31.31 23.12 C-31.22 22.46 -31.12 21.8 -31.02 21.11 C-30.1 14.97 -28.67 8.98 -27 3 C-25.68 3.33 -24.36 3.66 -23 4 C-22.92 8.18 -23.11 11.92 -24 16 C-21.27 14.09 -18.54 12.17 -15.81 10.25 C-14.66 9.44 -14.66 9.44 -13.48 8.62 C-10.27 6.35 -7.12 4.1 -4.07 1.61 C-2 0 -2 0 0 0 Z " fill="#FEF8F2" transform="translate(323,353)"/>
<path d="M0 0 C13.63 0.78 13.63 0.78 20 3 C19.53 12.59 18.06 21.64 16 31 C14.68 30.67 13.36 30.34 12 30 C11.91 25.53 12.14 21.39 13 17 C12.5 17.38 12.01 17.75 11.5 18.14 C9.34 19.76 7.17 21.38 5 23 C4.33 23.5 3.67 24 2.98 24.51 C-1.77 28 -1.77 28 -4 28 C-4 28.66 -4 29.32 -4 30 C-8.47 34 -8.47 34 -11 34 C-11.23 28.58 -10.47 24.23 -9 19 C-10.05 19.67 -10.05 19.67 -11.12 20.36 C-12.07 20.96 -13.02 21.56 -14 22.19 C-15 22.82 -16 23.46 -17.02 24.12 C-20.17 26.11 -23.34 28.05 -26.54 29.96 C-28.17 30.95 -28.17 30.95 -29 33 C-29.99 33 -30.98 33 -32 33 C-31.86 31.25 -31.71 29.5 -31.56 27.75 C-31.48 26.78 -31.4 25.8 -31.32 24.8 C-31.21 23.87 -31.11 22.95 -31 22 C-30.95 21.28 -30.89 20.57 -30.84 19.83 C-29.47 16.85 -26.91 16.29 -24 15 C-20.95 13.24 -17.93 11.43 -14.9 9.62 C-12.31 8.17 -9.76 7.09 -7 6 C-6.01 5.34 -5.02 4.68 -4 4 C-3.01 4 -2.02 4 -1 4 C-1.14 4.57 -1.29 5.14 -1.44 5.72 C-1.62 6.49 -1.81 7.27 -2 8.06 C-2.19 8.82 -2.37 9.57 -2.56 10.35 C-3.1 13.59 -3.06 16.72 -3 20 C-2.08 19.42 -1.17 18.85 -0.23 18.25 C0.97 17.5 2.17 16.75 3.38 16 C3.98 15.62 4.58 15.24 5.2 14.84 C9.77 12 9.77 12 12 12 C12 10.02 12 8.04 12 6 C11.39 5.95 10.77 5.9 10.14 5.85 C8.92 5.74 8.92 5.74 7.69 5.62 C6.89 5.56 6.09 5.49 5.26 5.41 C3 5 3 5 0 3 C0 2.01 0 1.02 0 0 Z " fill="#FDF7EF" transform="translate(493,328)"/>
<path d="M0 0 C15.51 0 31.02 0 47 0 C47 5.28 47 10.56 47 16 C31.49 16 15.98 16 0 16 C0 10.72 0 5.44 0 0 Z " fill="#FAF9F9" transform="translate(318,253)"/>
<path d="M0 0 C5.17 -0.03 5.17 -0.03 10.44 -0.06 C11.52 -0.07 12.61 -0.08 13.73 -0.09 C15.01 -0.09 15.01 -0.09 16.31 -0.1 C17.62 -0.11 17.62 -0.11 18.96 -0.11 C21 0 21 0 22 1 C22.07 2.85 22.08 4.71 22.06 6.56 C22.05 7.57 22.04 8.59 22.04 9.63 C22.02 10.41 22.01 11.19 22 12 C21.2 12.29 20.39 12.58 19.56 12.88 C16.87 13.73 16.87 13.73 16 16 C17.98 16 19.96 16 22 16 C22.92 21.38 23.11 26.54 23 32 C20.55 33.23 18.95 33.11 16.21 33.1 C15.36 33.1 14.52 33.09 13.64 33.09 C12.56 33.08 11.49 33.07 10.38 33.06 C6.95 33.04 3.53 33.02 0 33 C0 22.11 0 11.22 0 0 Z " fill="#A42D22" transform="translate(550,324)"/>
<path d="M0 0 C3 1.53 5.42 3.65 7.93 5.86 C10.98 8.52 13.99 11.01 17.39 13.2 C20.05 15.05 20.05 15.05 20.74 17.8 C19.81 22.22 17.65 25.4 15.05 29.05 C12.45 26.53 10.16 24 8.05 21.05 C4.12 21.63 4.12 21.63 1.05 24.05 C-1.55 23.8 -2.66 23.36 -4.45 21.43 C-4.94 20.97 -5.44 20.52 -5.95 20.05 C-7.95 20.08 -7.95 20.08 -9.95 21.05 C-11.51 23.12 -11.51 23.12 -12.7 25.61 C-13.12 26.44 -13.55 27.27 -13.99 28.12 C-14.31 28.76 -14.62 29.39 -14.95 30.05 C-18.51 26.57 -20.68 23.79 -21.45 18.73 C-20.92 14.86 -20.81 14.47 -18.06 12.1 C-16.81 11.17 -15.54 10.25 -14.26 9.36 C-13.63 8.9 -13.01 8.44 -12.36 7.97 C-11.13 7.07 -9.9 6.18 -8.65 5.3 C-6.72 3.93 -6.72 3.93 -4.24 1.66 C-1.95 0.05 -1.95 0.05 0 0 Z " fill="#262F4C" transform="translate(402.9453125,353.94921875)"/>
<path d="M0 0 C2.98 -0.03 5.96 -0.05 8.94 -0.06 C9.79 -0.07 10.64 -0.08 11.51 -0.09 C12.32 -0.09 13.13 -0.09 13.96 -0.1 C14.71 -0.1 15.46 -0.11 16.23 -0.11 C18 0 18 0 19 1 C19.15 3.25 19.22 5.5 19.25 7.75 C19.28 8.98 19.3 10.21 19.33 11.48 C18.98 15.18 18.15 17.03 16 20 C17.65 20.33 19.3 20.66 21 21 C21.33 24.96 21.66 28.92 22 33 C19.03 33 16.06 33 13 33 C13 30.03 13 27.06 13 24 C11.35 23.67 9.7 23.34 8 23 C8 26.3 8 29.6 8 33 C5.03 33 2.06 33 -1 33 C-1.02 28.62 -1.04 24.24 -1.05 19.87 C-1.06 18.38 -1.07 16.89 -1.08 15.4 C-1.09 13.26 -1.09 11.12 -1.1 8.98 C-1.1 7.69 -1.11 6.4 -1.11 5.07 C-1 2 -1 2 0 0 Z " fill="#A42E23" transform="translate(551,265)"/>
<path d="M0 0 C12.21 0 24.42 0 37 0 C37 5.28 37 10.56 37 16 C24.79 16 12.58 16 0 16 C0 10.72 0 5.44 0 0 Z " fill="#03BEBE" transform="translate(422,237)"/>
<path d="M0 0 C1.68 0.29 3.34 0.62 5 1 C5.28 1.85 5.55 2.71 5.84 3.59 C6.2 4.69 6.56 5.8 6.94 6.94 C7.3 8.04 7.66 9.14 8.03 10.28 C8.74 12.88 8.74 12.88 10 14 C10.33 9.71 10.66 5.42 11 1 C13.64 1 16.28 1 19 1 C19 10.9 19 20.8 19 31 C10 30 10 30 7.62 28 C5.84 24.7 4.72 21.49 3.71 17.89 C3.17 15.8 3.17 15.8 1 15 C1 19.95 1 24.9 1 30 C-0.65 30 -2.3 30 -4 30 C-7.4 26.6 -6.06 16.58 -6.07 11.86 C-6.06 8.24 -6.04 4.62 -6 1 C-4.79 1.03 -4.79 1.03 -3.56 1.06 C-1.07 1.3 -1.07 1.3 0 0 Z " fill="#A32A22" transform="translate(157,266)"/>
<path d="M0 0 C2.86 1.35 2.98 2 4.06 4.88 C4.51 6.29 4.95 7.7 5.38 9.12 C6.49 12.91 6.49 12.91 9.38 15.12 C9.38 10.5 9.38 5.88 9.38 1.12 C11.69 1.12 14 1.12 16.38 1.12 C16.38 11.03 16.38 20.93 16.38 31.12 C13.07 31.12 9.78 31.12 6.38 31.12 C5.95 29.07 5.53 27.02 5.11 24.97 C4.74 24.06 4.74 24.06 4.38 23.12 C3.38 22.8 2.4 22.47 1.38 22.12 C1.04 21.13 0.72 20.15 0.38 19.12 C0.04 22.75 -0.28 26.38 -0.62 30.12 C-2.62 30.17 -4.63 30.17 -6.62 30.12 C-7.62 29.12 -7.62 29.12 -7.74 26.53 C-7.73 25.41 -7.73 24.28 -7.72 23.12 C-7.72 21.91 -7.72 20.69 -7.71 19.44 C-7.7 18.16 -7.7 16.88 -7.69 15.56 C-7.68 14.28 -7.68 13 -7.67 11.67 C-7.66 8.49 -7.65 5.31 -7.62 2.12 C-4.95 0.99 -2.93 0.14 0 0 Z " fill="#A32C22" transform="translate(215.625,205.875)"/>
<path d="M0 0 C12.21 0 24.42 0 37 0 C37 5.28 37 10.56 37 16 C24.62 16.1 12.36 15.77 0 15 C0 10.05 0 5.1 0 0 Z " fill="#BE03BF" transform="translate(347,237)"/>
<path d="M0 0 C6.6 0 13.2 0 20 0 C20.29 8.4 20.29 8.4 20 11 C19.01 11.66 18.02 12.32 17 13 C17.99 13.33 18.98 13.66 20 14 C20.19 16.31 20.38 18.62 20.56 20.94 C20.67 22.23 20.77 23.51 20.88 24.84 C20.92 25.88 20.96 26.93 21 28 C20 29 20 29 18.14 29.11 C17.35 29.11 16.56 29.1 15.75 29.1 C14.89 29.09 14.04 29.09 13.16 29.09 C12.26 29.08 11.36 29.07 10.44 29.06 C9.54 29.06 8.63 29.05 7.71 29.05 C5.47 29.04 3.24 29.02 1 29 C0.3 19.31 -0.11 9.72 0 0 Z " fill="#A22A22" transform="translate(550,208)"/>
<path d="M0 0 C12.21 0 24.42 0 37 0 C37 4.95 37 9.9 37 15 C25.12 15.33 13.24 15.66 1 16 C0.67 10.72 0.34 5.44 0 0 Z " fill="#161513" transform="translate(309,237)"/>
<path d="M0 0 C1.19 0.01 2.38 0.02 3.6 0.03 C4.52 0.04 5.43 0.05 6.38 0.06 C8.56 4.62 9.01 9.04 9.5 14 C9.59 14.79 9.67 15.57 9.76 16.38 C10.21 20.63 10.47 24.79 10.38 29.06 C7.5 29.25 7.5 29.25 4.38 29.06 C3.72 28.07 3.06 27.08 2.38 26.06 C-0.68 24.85 -0.68 24.85 -3.62 24.06 C-3.62 26.04 -3.62 28.02 -3.62 30.06 C-6.59 30.06 -9.56 30.06 -12.62 30.06 C-12.32 26.92 -12 23.77 -11.69 20.62 C-11.6 19.73 -11.51 18.83 -11.42 17.9 C-11.34 17.05 -11.25 16.2 -11.16 15.32 C-11.08 14.53 -11 13.73 -10.92 12.92 C-10.62 11.06 -10.62 11.06 -9.62 10.06 C-9.34 7.74 -9.18 5.42 -9 3.09 C-8.88 2.42 -8.75 1.75 -8.62 1.06 C-5.74 -0.38 -3.21 -0.03 0 0 Z " fill="#A22921" transform="translate(158.625,206.9375)"/>
<path d="M0 0 C10.89 0 21.78 0 33 0 C33 5.28 33 10.56 33 16 C22.11 16 11.22 16 0 16 C0 10.72 0 5.44 0 0 Z " fill="#BEBEBE" transform="translate(497,237)"/>
<path d="M0 0 C10.89 0 21.78 0 33 0 C33 5.28 33 10.56 33 16 C22.11 16 11.22 16 0 16 C0 10.72 0 5.44 0 0 Z " fill="#0404BE" transform="translate(276,237)"/>
<path d="M0 0 C7.53 -0.03 15.06 -0.04 22.59 -0.05 C25.15 -0.06 27.72 -0.07 30.28 -0.08 C33.96 -0.09 37.63 -0.09 41.31 -0.1 C42.46 -0.1 43.62 -0.11 44.81 -0.11 C46.4 -0.11 46.4 -0.11 48.02 -0.11 C48.96 -0.12 49.9 -0.12 50.87 -0.12 C53 0 53 0 54 1 C54.1 2.68 54.14 4.36 54.15 6.04 C54.15 7.11 54.16 8.19 54.16 9.3 C54.17 10.46 54.17 11.63 54.17 12.84 C54.17 14.63 54.17 14.63 54.18 16.45 C54.18 18.98 54.19 21.51 54.19 24.04 C54.19 27.92 54.21 31.8 54.22 35.68 C54.23 38.13 54.23 40.58 54.23 43.03 C54.24 44.2 54.24 45.36 54.25 46.57 C54.25 47.64 54.25 48.72 54.24 49.83 C54.24 50.78 54.25 51.74 54.25 52.72 C54 55 54 55 52 57 C51.01 57 50.02 57 49 57 C49 39.84 49 22.68 49 5 C32.83 5 16.66 5 0 5 C0 3.35 0 1.7 0 0 Z " fill="#9E2020" transform="translate(268,298)"/>
<path d="M0 0 C1.19 0.01 2.38 0.02 3.6 0.03 C4.52 0.04 5.43 0.05 6.38 0.06 C8.37 5.22 8.98 10.16 9.5 15.62 C9.59 16.46 9.67 17.3 9.76 18.16 C10.16 22.14 10.49 26.06 10.38 30.06 C6.94 29.25 6.94 29.25 3.38 28.06 C3.04 27.07 2.72 26.08 2.38 25.06 C0.39 24.73 -1.59 24.4 -3.62 24.06 C-3.62 25.71 -3.62 27.36 -3.62 29.06 C-6.6 29.06 -9.57 29.06 -12.62 29.06 C-12.32 26.08 -12 23.1 -11.69 20.12 C-11.6 19.27 -11.51 18.42 -11.42 17.55 C-11.34 16.74 -11.25 15.93 -11.16 15.1 C-11.08 14.35 -11 13.6 -10.92 12.83 C-10.62 11.06 -10.62 11.06 -9.62 10.06 C-9.34 7.74 -9.18 5.42 -9 3.09 C-8.88 2.42 -8.75 1.75 -8.62 1.06 C-5.74 -0.38 -3.21 -0.03 0 0 Z " fill="#A12821" transform="translate(587.625,326.9375)"/>
<path d="M0 0 C4.18 -0.03 4.18 -0.03 8.44 -0.06 C9.76 -0.08 9.76 -0.08 11.1 -0.09 C13.07 -0.1 15.03 -0.05 17 0 C18.85 1.85 18.22 4.77 18.25 7.25 C18.28 8.39 18.3 9.53 18.33 10.7 C17.97 14.26 17.06 16.12 15 19 C16.65 19.33 18.3 19.66 20 20 C20 23.3 20 26.6 20 30 C17.69 30 15.38 30 13 30 C13 27.36 13 24.72 13 22 C11.35 22 9.7 22 8 22 C8 24.97 8 27.94 8 31 C5.36 31 2.72 31 0 31 C0 20.77 0 10.54 0 0 Z " fill="#A52F23" transform="translate(216,147)"/>
<path d="M0 0 C1.78 0.03 1.78 0.03 3.59 0.07 C5.37 0.1 5.37 0.1 7.19 0.12 C8.1 0.15 9.02 0.17 9.96 0.2 C12.14 4.75 12.59 9.18 13.09 14.13 C13.17 14.92 13.26 15.7 13.35 16.51 C13.8 20.76 14.06 24.92 13.96 29.2 C11.98 29.2 10 29.2 7.96 29.2 C7.63 27.55 7.3 25.9 6.96 24.2 C4.65 24.2 2.34 24.2 -0.04 24.2 C-0.04 25.85 -0.04 27.5 -0.04 29.2 C-2.68 29.2 -5.32 29.2 -8.04 29.2 C-8.15 23.09 -8.03 17.23 -7.04 11.2 C-6.71 10.87 -6.38 10.54 -6.04 10.2 C-5.81 8.17 -5.59 6.14 -5.42 4.11 C-4.73 0.63 -3.39 0.22 0 0 Z " fill="#A12721" transform="translate(221.0390625,266.8046875)"/>
<path d="M0 0 C2.64 0 5.28 0 8 0 C8.33 7.26 8.66 14.52 9 22 C10.32 22.33 11.64 22.66 13 23 C13 15.41 13 7.82 13 0 C15.64 0 18.28 0 21 0 C21.09 4.25 21.14 8.5 21.19 12.75 C21.21 13.96 21.24 15.16 21.26 16.41 C21.27 17.57 21.28 18.73 21.29 19.92 C21.31 20.99 21.32 22.06 21.34 23.16 C20.95 26.38 20.29 27.73 18 30 C15 30.53 15 30.53 11.56 30.5 C9.86 30.52 9.86 30.52 8.13 30.53 C4.38 29.89 3.21 29.06 1 26 C0.39 23.73 0.39 23.73 0.25 21.19 C0.19 20.24 0.14 19.28 0.08 18.3 C-0.07 12.2 -0.07 6.11 0 0 Z " fill="#A42E22" transform="translate(193,327)"/>
<path d="M0 0 C2.31 0 4.62 0 7 0 C7 3.96 7 7.92 7 12 C9.64 12 12.28 12 15 12 C15 8.04 15 4.08 15 0 C17.31 0 19.62 0 22 0 C22.03 0.69 22.05 1.38 22.08 2.1 C22.19 5.21 22.31 8.32 22.44 11.44 C22.48 12.53 22.52 13.61 22.56 14.74 C22.6 15.77 22.64 16.81 22.68 17.87 C22.72 18.83 22.76 19.79 22.79 20.78 C22.76 22.97 22.76 22.97 24 24 C24.04 25.67 24.04 27.33 24 29 C21.03 29 18.06 29 15 29 C15 25.7 15 22.4 15 19 C12.36 19 9.72 19 7 19 C7 21.97 7 24.94 7 28 C4.36 28 1.72 28 -1 28 C-1.12 18.6 -0.88 9.37 0 0 Z " fill="#A12821" transform="translate(611,269)"/>
<path d="M0 0 C2.64 0 5.28 0 8 0 C8 4.29 8 8.58 8 13 C10.31 13 12.62 13 15 13 C15 9.04 15 5.08 15 1 C17.31 1 19.62 1 22 1 C22.06 2.27 22.12 3.53 22.18 4.84 C22.27 6.54 22.35 8.24 22.44 9.94 C22.48 10.77 22.52 11.6 22.56 12.46 C22.84 18 23.34 23.48 24 29 C17.85 29.1 17.85 29.1 16 29 C13.95 26.95 14.3 22.7 14 20 C12.02 20 10.04 20 8 20 C7.67 22.64 7.34 25.28 7 28 C4.69 28 2.38 28 0 28 C0 18.76 0 9.52 0 0 Z " fill="#A12721" transform="translate(120,208)"/>
<path d="M0 0 C2.5 1.06 2.5 1.06 3.5 2.06 C3.54 4.06 3.54 6.06 3.5 8.06 C1.19 8.06 -1.12 8.06 -3.5 8.06 C-3.5 7.07 -3.5 6.08 -3.5 5.06 C-5.15 5.06 -6.8 5.06 -8.5 5.06 C-8.5 10.67 -8.5 16.28 -8.5 22.06 C-7.18 21.73 -5.86 21.4 -4.5 21.06 C-4.83 18.09 -5.16 15.12 -5.5 12.06 C-2.2 12.06 1.1 12.06 4.5 12.06 C4.36 13.81 4.21 15.56 4.06 17.31 C3.98 18.29 3.9 19.26 3.82 20.27 C3.55 22.63 3.15 24.78 2.5 27.06 C-0.82 27.95 -4.15 28.29 -7.56 28.5 C-8.4 28.56 -9.24 28.62 -10.1 28.68 C-13.04 27.92 -14.23 26.67 -15.77 24.07 C-17.29 19.91 -16.9 15.55 -16.75 11.19 C-16.73 10.21 -16.71 9.24 -16.7 8.23 C-16.65 5.84 -16.58 3.45 -16.5 1.06 C-11 -1.84 -5.96 -1.6 0 0 Z " fill="#A32B22" transform="translate(603.5,268.9375)"/>
<path d="M0 0 C0.8 0 1.6 0.01 2.42 0.01 C3.22 0.01 4.01 0 4.84 0 C10.79 0.01 10.79 0.01 11.92 1.14 C12.06 3.81 11.96 6.46 11.92 9.14 C9.61 9.14 7.3 9.14 4.92 9.14 C4.92 7.82 4.92 6.5 4.92 5.14 C3.27 5.14 1.62 5.14 -0.08 5.14 C-0.41 7.78 -0.74 10.42 -1.08 13.14 C-0.24 13.19 0.6 13.23 1.47 13.29 C3.12 13.4 3.12 13.4 4.79 13.51 C5.88 13.58 6.97 13.65 8.1 13.72 C10.92 14.14 10.92 14.14 12.92 16.14 C13.15 19.14 13.15 19.14 13.11 22.7 C13.1 23.88 13.09 25.05 13.09 26.27 C12.92 29.14 12.92 29.14 11.92 30.14 C10.59 30.24 9.25 30.27 7.92 30.27 C7.11 30.27 6.31 30.27 5.48 30.27 C4.63 30.27 3.79 30.27 2.92 30.26 C2.07 30.27 1.23 30.27 0.36 30.27 C-0.45 30.27 -1.25 30.27 -2.08 30.27 C-2.82 30.27 -3.57 30.27 -4.33 30.27 C-6.08 30.14 -6.08 30.14 -7.08 29.14 C-7.12 26.8 -7.12 24.47 -7.08 22.14 C-4.77 22.14 -2.46 22.14 -0.08 22.14 C-0.08 22.8 -0.08 23.46 -0.08 24.14 C1.57 24.14 3.22 24.14 4.92 24.14 C4.59 22.49 4.26 20.84 3.92 19.14 C3.21 19 2.5 18.87 1.77 18.73 C0.85 18.56 -0.07 18.38 -1.02 18.2 C-2.39 17.94 -2.39 17.94 -3.8 17.67 C-6.08 17.14 -6.08 17.14 -7.08 16.14 C-7.18 13.63 -7.22 11.15 -7.21 8.64 C-7.21 7.93 -7.21 7.23 -7.22 6.51 C-7.21 -0.16 -6.59 0.01 0 0 Z " fill="#A42E22" transform="translate(243.08203125,326.86328125)"/>
<path d="M0 0 C1.98 0 3.96 0 6 0 C6.33 3.3 6.66 6.6 7 10 C8.32 9.67 9.64 9.34 11 9 C11.33 6.03 11.66 3.06 12 0 C14.64 0.33 17.28 0.66 20 1 C20.43 4.64 19.97 6.05 18.12 9.31 C17.42 10.2 16.72 11.09 16 12 C15.34 12 14.68 12 14 12 C14.33 12.66 14.66 13.32 15 14 C15.99 14.33 16.98 14.66 18 15 C19.53 19.76 20.37 23.96 20 29 C19 30 19 30 17.15 30.1 C15.1 30.07 13.05 30.03 11 30 C11 25.71 11 21.42 11 17 C9.68 17 8.36 17 7 17 C7 20.96 7 24.92 7 29 C4.69 29 2.38 29 0 29 C0 19.43 0 9.86 0 0 Z " fill="#A22A22" transform="translate(623,328)"/>
<path d="M0 0 C2.06 1.81 2.06 1.81 3 4 C3 5.32 3 6.64 3 8 C0.69 8 -1.62 8 -4 8 C-4 7.01 -4 6.02 -4 5 C-5.65 5.33 -7.3 5.66 -9 6 C-9.33 11.28 -9.66 16.56 -10 22 C-8.35 22 -6.7 22 -5 22 C-5.33 19.03 -5.66 16.06 -6 13 C-2.7 13 0.6 13 4 13 C3.89 14.75 3.76 16.5 3.62 18.25 C3.56 19.22 3.49 20.2 3.41 21.2 C3 23.97 2.62 25.73 1 28 C-2.14 29.33 -5.39 29.1 -8.75 29.06 C-9.73 29.05 -10.72 29.04 -11.73 29.04 C-12.48 29.02 -13.23 29.01 -14 29 C-17.53 23.45 -17.42 18.6 -17.31 12.25 C-17.32 11.29 -17.32 10.33 -17.32 9.35 C-17.27 2.27 -17.27 2.27 -15 0 C-10.02 -1.34 -4.99 -1.27 0 0 Z " fill="#A22A22" transform="translate(252,208)"/>
<path d="M0 0 C6.75 -0.12 6.75 -0.12 9 1 C10.54 1.07 12.08 1.08 13.62 1.06 C14.44 1.05 15.26 1.04 16.1 1.04 C16.73 1.02 17.35 1.01 18 1 C18.05 2.92 18.09 4.83 18.12 6.75 C18.15 7.82 18.17 8.88 18.2 9.98 C18 12.98 17.46 14.44 16 17 C15.62 18.99 15.27 20.99 15 23 C18.96 23.33 22.92 23.66 27 24 C26.67 26.31 26.34 28.62 26 31 C20.06 31 14.12 31 8 31 C8 24.4 8 17.8 8 11 C5.69 11 3.38 11 1 11 C-0.28 7.15 -0.07 4.05 0 0 Z " fill="#A22B22" transform="translate(611,147)"/>
<path d="M0 0 C0.66 0 1.32 0 2 0 C1.89 4.21 1.76 8.42 1.62 12.62 C1.59 13.81 1.56 15 1.53 16.23 C1.49 17.38 1.45 18.54 1.41 19.73 C1.38 20.78 1.35 21.84 1.32 22.93 C0.74 28.48 -0.84 32.3 -4.62 36.38 C-5.26 37.06 -5.89 37.75 -6.54 38.46 C-7.02 38.97 -7.5 39.48 -8 40 C-11.43 38.45 -14.23 36.44 -17.19 34.12 C-18.07 33.45 -18.95 32.77 -19.86 32.07 C-22.04 29.96 -22.66 28.97 -23 26 C-21.78 25.75 -20.57 25.5 -19.31 25.25 C-15.31 24.21 -12.88 23.11 -10 20 C-8.12 16.76 -6.57 13.4 -5 10 C-4.07 8.12 -3.13 6.25 -2.19 4.38 C-1.77 3.54 -1.35 2.7 -0.92 1.84 C-0.46 0.93 -0.46 0.93 0 0 Z " fill="#98272A" transform="translate(431,325)"/>
<path d="M0 0 C0.8 0 1.6 0.01 2.42 0.01 C3.22 0.01 4.01 0 4.84 0 C10.79 0.01 10.79 0.01 11.92 1.14 C12.06 3.81 11.96 6.46 11.92 9.14 C9.61 9.14 7.3 9.14 4.92 9.14 C5.25 7.49 5.58 5.84 5.92 4.14 C4.27 4.47 2.62 4.8 0.92 5.14 C0.26 7.78 -0.4 10.42 -1.08 13.14 C-0.24 13.19 0.6 13.23 1.47 13.29 C3.12 13.4 3.12 13.4 4.79 13.51 C5.88 13.58 6.97 13.65 8.1 13.72 C10.92 14.14 10.92 14.14 12.92 16.14 C13.15 19.14 13.15 19.14 13.11 22.7 C13.1 23.88 13.09 25.05 13.09 26.27 C12.92 29.14 12.92 29.14 11.92 30.14 C10.58 30.22 9.23 30.24 7.88 30.23 C7.07 30.23 6.27 30.23 5.43 30.22 C4.58 30.22 3.73 30.21 2.86 30.2 C2 30.19 1.15 30.19 0.27 30.19 C-1.85 30.17 -3.97 30.16 -6.08 30.14 C-6.08 27.83 -6.08 25.52 -6.08 23.14 C-4.42 23.09 -2.75 23.1 -1.08 23.14 C-0.75 23.47 -0.42 23.8 -0.08 24.14 C1.58 24.18 3.25 24.18 4.92 24.14 C4.92 22.49 4.92 20.84 4.92 19.14 C4.22 19.09 3.52 19.04 2.8 18.99 C1.89 18.91 0.98 18.84 0.04 18.76 C-0.86 18.69 -1.77 18.62 -2.7 18.55 C-5.08 18.14 -5.08 18.14 -7.08 16.14 C-7.25 13.57 -7.31 11.13 -7.27 8.57 C-7.27 7.88 -7.27 7.18 -7.27 6.46 C-7.21 -0.17 -6.54 0.01 0 0 Z " fill="#A12821" transform="translate(156.08203125,326.86328125)"/>
<path d="M0 0 C0.98 0 1.96 0 2.97 0 C4.03 0.01 5.1 0.01 6.19 0.02 C7.82 0.02 7.82 0.02 9.48 0.02 C12.95 0.03 16.43 0.04 19.9 0.05 C22.25 0.06 24.6 0.06 26.95 0.06 C32.73 0.08 38.5 0.09 44.27 0.11 C44.27 1.76 44.27 3.41 44.27 5.11 C29.09 5.11 13.91 5.11 -1.73 5.11 C-1.73 14.68 -1.73 24.25 -1.73 34.11 C-3.38 34.77 -5.03 35.43 -6.73 36.11 C-6.73 24.56 -6.73 13.01 -6.73 1.11 C-4.29 -0.11 -2.73 -0.01 0 0 Z " fill="#A12A22" transform="translate(491.72509765625,297.886474609375)"/>
<path d="M0 0 C2.81 -0.03 5.62 -0.05 8.44 -0.06 C9.24 -0.07 10.04 -0.08 10.87 -0.09 C12.91 -0.1 14.96 -0.05 17 0 C18 1 18 1 18.1 2.85 C18.07 4.9 18.03 6.95 18 9 C15.69 9 13.38 9 11 9 C11.33 7.35 11.66 5.7 12 4 C10.35 4.33 8.7 4.66 7 5 C6.34 7.64 5.68 10.28 5 13 C5.84 13.05 6.69 13.1 7.55 13.15 C9.2 13.26 9.2 13.26 10.88 13.38 C11.97 13.44 13.06 13.51 14.18 13.59 C17 14 17 14 19 16 C19.23 19 19.23 19 19.19 22.56 C19.18 23.74 19.17 24.92 19.17 26.13 C19 29 19 29 18 30 C16.66 30.09 15.31 30.11 13.96 30.1 C13.16 30.09 12.35 30.09 11.51 30.09 C10.66 30.08 9.81 30.07 8.94 30.06 C8.08 30.06 7.23 30.05 6.35 30.05 C4.23 30.04 2.12 30.02 0 30 C0 27.69 0 25.38 0 23 C1.67 22.96 3.33 22.96 5 23 C5.33 23.33 5.66 23.66 6 24 C7.67 24.04 9.33 24.04 11 24 C11 22.35 11 20.7 11 19 C10.3 18.95 9.6 18.9 8.88 18.85 C7.97 18.78 7.06 18.7 6.12 18.62 C5.22 18.56 4.32 18.49 3.38 18.41 C1 18 1 18 -1 16 C-1.23 12.81 -1.23 12.81 -1.19 9 C-1.18 7.74 -1.17 6.48 -1.17 5.19 C-1 2 -1 2 0 0 Z " fill="#A12821" transform="translate(172,327)"/>
<path d="M0 0 C0.99 0 1.98 0 3 0 C3.03 4.31 3.05 8.62 3.06 12.94 C3.07 14.17 3.08 15.4 3.09 16.67 C3.09 17.84 3.09 19.01 3.1 20.21 C3.1 21.3 3.11 22.38 3.11 23.5 C3 26 3 26 2 27 C0.56 27.09 -0.89 27.12 -2.34 27.11 C-3.72 27.11 -3.72 27.11 -5.13 27.11 C-6.13 27.11 -7.13 27.1 -8.16 27.1 C-9.18 27.1 -10.2 27.09 -11.25 27.09 C-14.52 27.09 -17.79 27.08 -21.06 27.06 C-23.27 27.06 -25.49 27.05 -27.7 27.05 C-33.13 27.04 -38.57 27.02 -44 27 C-44.33 26.34 -44.66 25.68 -45 25 C-47.02 24.35 -47.02 24.35 -49 24 C-48.67 24.99 -48.34 25.98 -48 27 C-50.97 27 -53.94 27 -57 27 C-57.33 25.35 -57.66 23.7 -58 22 C-39.52 22 -21.04 22 -2 22 C-2 15.4 -2 8.8 -2 2 C-1.34 1.34 -0.68 0.68 0 0 Z " fill="#A22D24" transform="translate(487,358)"/>
<path d="M0 0 C5.94 0 11.88 0 18 0 C18 1.65 18 3.3 18 5 C17.34 5 16.68 5 16 5 C16.99 6.49 16.99 6.49 18 8 C20.41 12.2 20.49 15.22 20 20 C17.18 22.82 15.07 22.29 11.22 22.32 C10.34 22.32 9.46 22.32 8.56 22.31 C7.69 22.33 6.82 22.34 5.92 22.36 C4.66 22.36 4.66 22.36 3.38 22.36 C2.61 22.37 1.84 22.37 1.05 22.37 C-1.55 21.9 -2.42 21.09 -4 19 C-4.46 15.48 -4.2 13.44 -2.75 10.19 C-1 8 -1 8 0.94 7 C3.74 7 4.8 8.35 7 10 C9.11 10.08 9.11 10.08 11 9 C11.99 7.68 12.98 6.36 14 5 C9.38 5 4.76 5 0 5 C0 3.35 0 1.7 0 0 Z " fill="#30344C" transform="translate(394,380)"/>
<path d="M0 0 C-0.14 1.94 -0.29 3.88 -0.44 5.81 C-0.52 6.89 -0.6 7.97 -0.68 9.08 C-1 12 -1 12 -2 15 C-2.66 15 -3.32 15 -4 15 C-4.09 16.5 -4.09 16.5 -4.18 18.03 C-4.27 19.32 -4.35 20.61 -4.44 21.94 C-4.52 23.23 -4.6 24.51 -4.68 25.84 C-5 29 -5 29 -6 30 C-12.53 30.24 -12.53 30.24 -15 29 C-16.11 26.67 -17.08 24.4 -18 22 C-18.27 21.33 -18.54 20.65 -18.82 19.96 C-21.15 13.73 -21.68 7.61 -22 1 C-19.69 1 -17.38 1 -15 1 C-14.93 2.1 -14.93 2.1 -14.85 3.23 C-14.78 4.21 -14.7 5.18 -14.62 6.19 C-14.56 7.15 -14.49 8.11 -14.41 9.11 C-13.99 12.05 -13.31 14.34 -12 17 C-11.34 17.33 -10.68 17.66 -10 18 C-10.01 16.86 -10.02 15.71 -10.04 14.54 C-10.04 13.04 -10.05 11.55 -10.06 10.06 C-10.07 9.31 -10.08 8.55 -10.09 7.78 C-10.1 5.85 -10.05 3.92 -10 2 C-7.76 -0.24 -3.06 0 0 0 Z " fill="#A12821" transform="translate(194,207)"/>
<path d="M0 0 C0.75 0 1.51 0.01 2.29 0.01 C4.15 0.03 6.01 0.04 7.88 0.06 C7.88 3.03 7.88 6 7.88 9.06 C5.56 9.06 3.25 9.06 0.88 9.06 C0.88 8.4 0.88 7.74 0.88 7.06 C-1.1 7.06 -3.09 7.06 -5.12 7.06 C-4.96 8.18 -4.79 9.29 -4.62 10.44 C-4 15.32 -4.03 20.15 -4.12 25.06 C-2.47 25.06 -0.82 25.06 0.88 25.06 C0.88 24.4 0.88 23.74 0.88 23.06 C3.19 23.06 5.5 23.06 7.88 23.06 C7 27.81 7 27.81 5.88 30.06 C3.25 30.12 0.63 30.16 -2 30.19 C-2.75 30.2 -3.49 30.22 -4.26 30.24 C-6.22 30.26 -8.17 30.17 -10.12 30.06 C-12.12 28.06 -12.12 28.06 -12.37 26.05 C-12.36 25.24 -12.36 24.43 -12.36 23.6 C-12.35 22.72 -12.35 21.83 -12.35 20.92 C-12.33 19.54 -12.33 19.54 -12.31 18.12 C-12.31 17.21 -12.31 16.29 -12.31 15.34 C-12.27 8.48 -12.27 8.48 -11.12 5.06 C-10.98 4.36 -10.84 3.66 -10.69 2.94 C-10.5 2.32 -10.32 1.7 -10.12 1.06 C-6.94 -0.53 -3.5 -0.04 0 0 Z " fill="#A52F23" transform="translate(203.125,266.9375)"/>
<path d="M0 0 C4.95 0 9.9 0 15 0 C15 1.98 15 3.96 15 6 C13.02 6.33 11.04 6.66 9 7 C8.67 8.32 8.34 9.64 8 11 C9.98 11 11.96 11 14 11 C14 13.31 14 15.62 14 18 C11.69 18 9.38 18 7 18 C7 19.65 7 21.3 7 23 C10.3 23 13.6 23 17 23 C17 25.31 17 27.62 17 30 C11.39 30 5.78 30 0 30 C0 20.1 0 10.2 0 0 Z " fill="#A52F23" transform="translate(217,327)"/>
<path d="M0 0 C0.99 0.66 1.98 1.32 3 2 C5.72 2.67 8.18 2.82 11 3 C11.66 2.34 12.32 1.68 13 1 C17.97 1.11 21.11 4.15 24.75 7.19 C29.49 11.06 34.18 14.57 39.52 17.59 C41 19 41 19 41.35 21.39 C40.98 24.12 40.3 25.91 39 28.31 C38.63 29.01 38.26 29.71 37.88 30.43 C37.44 31.21 37.44 31.21 37 32 C37.99 32.5 37.99 32.5 39 33 C38.01 33 37.02 33 36 33 C34.94 30.62 34.94 30.62 34 28 C34.33 27.34 34.66 26.68 35 26 C35.51 23.08 35.51 23.08 35 20 C32.85 17.75 32.85 17.75 29.94 16 C26.41 13.65 23.19 11.37 20.12 8.44 C17.35 5.73 17.35 5.73 14.61 6.08 C11.33 7.24 9.56 8.9 7.06 11.31 C4.27 13.96 1.76 16.3 -1.62 18.12 C-4.37 19.86 -4.37 19.86 -4.56 23.44 C-3.99 27.06 -3.05 29.01 -1 32 C-1 32.66 -1 33.32 -1 34 C-3.31 33.67 -5.62 33.34 -8 33 C-7.01 32.5 -7.01 32.5 -6 32 C-6.56 31.2 -6.56 31.2 -7.13 30.39 C-7.6 29.68 -8.08 28.98 -8.56 28.25 C-9.04 27.55 -9.51 26.86 -10 26.14 C-11 24 -11 24 -10.96 22.02 C-9.58 19.1 -7.55 17.48 -5.12 15.38 C-4.24 14.6 -3.36 13.82 -2.45 13.02 C0 11 0 11 3 9 C1.23 7.78 1.23 7.78 -1 7 C-3.23 7.78 -3.23 7.78 -5 9 C-5 6 -5 6 -3.06 3.94 C-2.38 3.3 -1.7 2.66 -1 2 C-0.67 1.34 -0.34 0.68 0 0 Z " fill="#D69D47" transform="translate(387,349)"/>
<path d="M0 0 C4.95 0 9.9 0 15 0 C15 1.98 15 3.96 15 6 C14.03 6.27 13.06 6.54 12.06 6.81 C11.05 7.2 10.04 7.6 9 8 C8.67 8.99 8.34 9.98 8 11 C9.98 11 11.96 11 14 11 C14 13.31 14 15.62 14 18 C12.02 18 10.04 18 8 18 C8 19.65 8 21.3 8 23 C10.97 23 13.94 23 17 23 C17 25.31 17 27.62 17 30 C11.72 30 6.44 30 1 30 C1.01 28.5 1.02 26.99 1.04 25.44 C1.04 23.48 1.05 21.52 1.06 19.56 C1.07 18.57 1.08 17.58 1.09 16.55 C1.09 15.61 1.09 14.66 1.1 13.69 C1.1 12.82 1.11 11.94 1.11 11.04 C1.23 9.01 1.23 9.01 0 8 C-0.14 5.33 -0.04 2.68 0 0 Z " fill="#A32D22" transform="translate(573,208)"/>
<path d="M0 0 C0.98 0.01 1.97 0.02 2.98 0.03 C4.11 0.04 4.11 0.04 5.25 0.06 C4.92 2.04 4.59 4.02 4.25 6.06 C2.6 6.39 0.95 6.72 -0.75 7.06 C-1.08 8.38 -1.41 9.7 -1.75 11.06 C0.23 11.06 2.21 11.06 4.25 11.06 C4.25 13.37 4.25 15.68 4.25 18.06 C1.94 18.06 -0.37 18.06 -2.75 18.06 C-2.75 19.71 -2.75 21.36 -2.75 23.06 C0.22 23.06 3.19 23.06 6.25 23.06 C6.25 25.37 6.25 27.68 6.25 30.06 C0.97 30.06 -4.31 30.06 -9.75 30.06 C-9.75 20.49 -9.75 10.92 -9.75 1.06 C-6.2 0.18 -3.61 -0.04 0 0 Z " fill="#A42D22" transform="translate(601.75,147.9375)"/>
<path d="M0 0 C5.61 0 11.22 0 17 0 C17 2.64 17 5.28 17 8 C15.02 8 13.04 8 11 8 C11 7.34 11 6.68 11 6 C9.02 6 7.04 6 5 6 C5.16 7.11 5.33 8.23 5.5 9.38 C6.12 14.26 6.09 19.09 6 24 C7.65 24 9.3 24 11 24 C11 23.34 11 22.68 11 22 C13.31 22 15.62 22 18 22 C17.69 24.38 17.69 24.38 17 27 C13.31 29.46 11.33 29.27 6.94 29.25 C5.69 29.26 4.44 29.26 3.15 29.27 C0 29 0 29 -2 27 C-2.24 24.98 -2.24 24.98 -2.23 22.54 C-2.23 21.65 -2.23 20.77 -2.22 19.86 C-2.21 18.48 -2.21 18.48 -2.19 17.06 C-2.19 16.14 -2.19 15.22 -2.19 14.28 C-2.14 7.42 -2.14 7.42 -1 4 C-0.67 2.68 -0.34 1.36 0 0 Z " fill="#A22A22" transform="translate(603,328)"/>
<path d="M0 0 C0.88 0.01 1.77 0.02 2.68 0.03 C3.67 0.04 3.67 0.04 4.69 0.06 C4.69 2.37 4.69 4.68 4.69 7.06 C3.55 7.33 2.42 7.6 1.25 7.88 C0.07 8.27 -1.1 8.66 -2.31 9.06 C-2.64 10.05 -2.97 11.04 -3.31 12.06 C-1.33 12.06 0.65 12.06 2.69 12.06 C2.69 14.04 2.69 16.02 2.69 18.06 C0.71 18.06 -1.27 18.06 -3.31 18.06 C-2.98 19.71 -2.65 21.36 -2.31 23.06 C0.33 23.39 2.97 23.72 5.69 24.06 C5.69 26.04 5.69 28.02 5.69 30.06 C0.41 30.06 -4.87 30.06 -10.31 30.06 C-10.31 20.49 -10.31 10.92 -10.31 1.06 C-6.54 0.31 -3.75 -0.05 0 0 Z " fill="#A22A22" transform="translate(94.3125,266.9375)"/>
<path d="M0 0 C0.88 0.01 1.77 0.02 2.68 0.03 C3.67 0.04 3.67 0.04 4.69 0.06 C4.69 2.37 4.69 4.68 4.69 7.06 C3.55 7.33 2.42 7.6 1.25 7.88 C0.07 8.27 -1.1 8.66 -2.31 9.06 C-2.64 10.05 -2.97 11.04 -3.31 12.06 C-1.33 12.06 0.65 12.06 2.69 12.06 C2.69 14.04 2.69 16.02 2.69 18.06 C0.71 18.06 -1.27 18.06 -3.31 18.06 C-2.98 19.71 -2.65 21.36 -2.31 23.06 C0.33 23.39 2.97 23.72 5.69 24.06 C5.69 26.04 5.69 28.02 5.69 30.06 C0.41 30.06 -4.87 30.06 -10.31 30.06 C-10.31 20.49 -10.31 10.92 -10.31 1.06 C-6.54 0.31 -3.75 -0.05 0 0 Z " fill="#A22A21" transform="translate(249.3125,146.9375)"/>
<path d="M0 0 C13.43 1.43 13.43 1.43 17 5 C16.96 6.77 16.84 8.55 16.69 10.31 C16.57 11.76 16.57 11.76 16.45 13.24 C16 15.98 15.67 17.77 14 20 C11.79 20.54 11.79 20.54 9.19 20.62 C5.4 20.85 2.45 21.28 -1 23 C-0.81 23.97 -0.63 24.94 -0.44 25.94 C-0.29 26.95 -0.15 27.96 0 29 C-1 30 -1 30 -3.56 30.06 C-4.37 30.04 -5.17 30.02 -6 30 C-6.21 24.22 -5.72 19.54 -4 14 C-2 12 -2 12 0.6 11.8 C1.6 11.83 2.6 11.85 3.62 11.88 C5.13 11.9 5.13 11.9 6.66 11.93 C7.43 11.95 8.21 11.98 9 12 C9.33 10.68 9.66 9.36 10 8 C6.04 7.67 2.08 7.34 -2 7 C-1 2 -1 2 0 0 Z " fill="#363D5D" transform="translate(457,286)"/>
<path d="M0 0 C3 1 3 1 4.25 3.48 C4.64 4.52 5.03 5.55 5.44 6.62 C8.67 15.45 8.67 15.45 15 22 C14.75 24.38 14.75 24.38 14 27 C11.94 28.31 11.94 28.31 10 29 C10 29.99 10 30.98 10 32 C10.56 31.46 11.11 30.93 11.69 30.38 C12.83 29.69 12.83 29.69 14 29 C16.75 29.81 16.75 29.81 19 31 C15.89 34.29 12.98 36.84 9 39 C-1.49 28.15 -0.19 14.29 0 0 Z " fill="#982428" transform="translate(372,326)"/>
<path d="M0 0 C4.95 0 9.9 0 15 0 C15 1.65 15 3.3 15 5 C14.05 5.25 13.1 5.5 12.12 5.75 C8.91 6.69 8.91 6.69 7.62 9.12 C7.42 9.74 7.21 10.36 7 11 C8.98 11 10.96 11 13 11 C13 12.98 13 14.96 13 17 C11.02 17 9.04 17 7 17 C7.33 18.65 7.66 20.3 8 22 C10.64 22.33 13.28 22.66 16 23 C16 24.98 16 26.96 16 29 C11.05 29 6.1 29 1 29 C0.67 19.43 0.34 9.86 0 0 Z " fill="#A02520" transform="translate(188,148)"/>
<path d="M0 0 C6.93 0 13.86 0 21 0 C21 2.31 21 4.62 21 7 C19.35 7.33 17.7 7.66 16 8 C15.67 14.93 15.34 21.86 15 29 C12.36 29 9.72 29 7 29 C7 21.41 7 13.82 7 6 C4.69 5.67 2.38 5.34 0 5 C0 3.35 0 1.7 0 0 Z " fill="#A32C22" transform="translate(637,268)"/>
<path d="M0 0 C6.93 0 13.86 0 21 0 C21 1.98 21 3.96 21 6 C19.35 6.33 17.7 6.66 16 7 C15.97 7.63 15.95 8.26 15.92 8.91 C15.81 11.75 15.69 14.6 15.56 17.44 C15.52 18.43 15.48 19.42 15.44 20.45 C15.4 21.39 15.36 22.34 15.32 23.31 C15.26 24.62 15.26 24.62 15.21 25.96 C15 28 15 28 14 29 C11.69 29 9.38 29 7 29 C7 21.41 7 13.82 7 6 C5.35 6 3.7 6 2 6 C2 5.34 2 4.68 2 4 C1.34 4 0.68 4 0 4 C0 2.68 0 1.36 0 0 Z " fill="#A22A22" transform="translate(61,268)"/>
<path d="M0 0 C2.97 0.33 5.94 0.66 9 1 C9.18 6.33 8.73 9.93 7 15 C6.75 18.71 6.75 18.71 7 22 C8.58 23.58 10.38 23.35 12.56 23.56 C13.39 23.65 14.22 23.73 15.07 23.82 C16.02 23.91 16.02 23.91 17 24 C17 25.98 17 27.96 17 30 C11.39 30 5.78 30 0 30 C0 20.1 0 10.2 0 0 Z " fill="#A22A21" transform="translate(640,148)"/>
<path d="M0 0 C2.64 0 5.28 0 8 0 C8.18 5.33 7.73 8.93 6 14 C5.75 17.71 5.75 17.71 6 21 C7.58 22.58 9.38 22.35 11.56 22.56 C12.39 22.65 13.22 22.73 14.07 22.82 C15.02 22.91 15.02 22.91 16 23 C16 24.98 16 26.96 16 29 C10.39 29 4.78 29 -1 29 C-1.03 25.1 -1.05 21.21 -1.06 17.31 C-1.07 16.21 -1.08 15.11 -1.09 13.97 C-1.09 12.9 -1.09 11.84 -1.1 10.74 C-1.1 9.76 -1.11 8.78 -1.11 7.77 C-1 5.08 -0.61 2.62 0 0 Z " fill="#A12721" transform="translate(239,268)"/>
<path d="M0 0 C0.82 0 1.64 0 2.49 0 C3.36 0.01 4.24 0.01 5.14 0.02 C6.5 0.02 6.5 0.02 7.88 0.02 C10.77 0.03 13.65 0.04 16.53 0.05 C18.49 0.06 20.45 0.06 22.4 0.06 C27.2 0.08 31.99 0.09 36.78 0.11 C36.45 1.1 36.12 2.09 35.78 3.11 C38.09 3.11 40.4 3.11 42.78 3.11 C42.78 2.12 42.78 1.13 42.78 0.11 C45.09 0.11 47.4 0.11 49.78 0.11 C50.28 2.59 50.28 2.59 50.78 5.11 C31.31 5.11 11.84 5.11 -8.22 5.11 C-8.22 3.79 -8.22 2.47 -8.22 1.11 C-5.41 0.32 -2.92 -0.01 0 0 Z " fill="#A22F26" transform="translate(325.2177734375,379.886474609375)"/>
<path d="M0 0 C1.24 0.02 1.24 0.02 2.5 0.04 C3.32 0.04 4.15 0.05 5 0.06 C5.64 0.07 6.28 0.09 6.93 0.1 C7 3.59 6.97 6.89 6.43 10.35 C5.91 14.29 5.84 18.06 5.87 22.04 C5.88 22.72 5.88 23.4 5.88 24.11 C5.9 25.77 5.91 27.43 5.93 29.1 C3.29 29.1 0.65 29.1 -2.07 29.1 C-2.23 25.13 -2.39 21.16 -2.55 17.19 C-2.6 15.84 -2.66 14.49 -2.71 13.14 C-2.8 11.2 -2.87 9.26 -2.95 7.32 C-2.99 6.15 -3.04 4.98 -3.09 3.78 C-3.06 0.14 -3.06 0.14 0 0 Z " fill="#A22B22" transform="translate(198.06640625,207.90234375)"/>
<path d="M0 0 C2.97 0 5.94 0 9 0 C9.07 3.5 9.03 6.79 8.5 10.25 C7.97 14.19 7.9 17.96 7.94 21.94 C7.94 22.62 7.95 23.31 7.95 24.01 C7.96 25.67 7.98 27.34 8 29 C5.36 29 2.72 29 0 29 C0 19.43 0 9.86 0 0 Z " fill="#A22921" transform="translate(179,268)"/>
<path d="M0 0 C0.09 4.3 -0.18 8.26 -0.78 12.54 C-1.27 18 -1.07 23.52 -1 29 C-3.31 29 -5.62 29 -8 29 C-9.21 19.66 -9.09 10.4 -9 1 C-6.04 -0.48 -3.26 -0.06 0 0 Z " fill="#A12721" transform="translate(585,268)"/>
<path d="M0 0 C2.97 0 5.94 0 9 0 C9.07 3.9 8.95 7.24 8 11 C7.86 12.44 7.76 13.88 7.68 15.33 C7.64 16.13 7.6 16.93 7.56 17.75 C7.5 18.99 7.5 18.99 7.44 20.25 C7.39 21.09 7.35 21.93 7.31 22.8 C7.2 24.86 7.1 26.93 7 29 C5.02 29 3.04 29 1 29 C-0.1 22.83 -0.12 16.82 -0.06 10.56 C-0.06 9.54 -0.05 8.53 -0.05 7.48 C-0.04 4.99 -0.02 2.49 0 0 Z " fill="#A12621" transform="translate(138,327)"/>
<path d="M0 0 C8.58 0 17.16 0 26 0 C26 2.64 26 5.28 26 8 C17.42 8 8.84 8 0 8 C0 5.36 0 2.72 0 0 Z " fill="#CF7E34" transform="translate(646,350)"/>
<path d="M0 0 C2 0.88 2 0.88 3.5 2.5 C4 2.95 4.49 3.41 5 3.88 C7.97 3.6 8.85 3.02 11 0.88 C13.38 0.94 13.38 0.94 16 1.88 C20 6.09 20 6.09 20 8.88 C19.01 8.88 18.02 8.88 17 8.88 C16.88 9.68 16.75 10.48 16.62 11.31 C16.32 12.58 16.32 12.58 16 13.88 C15.01 14.37 15.01 14.37 14 14.88 C14 13.88 14 12.89 14 11.88 C14.66 11.88 15.32 11.88 16 11.88 C16 10.23 16 8.57 16 6.88 C10.06 6.88 4.12 6.88 -2 6.88 C-2 8.52 -2 10.18 -2 11.88 C2.62 11.88 7.24 11.88 12 11.88 C10 15.88 10 15.88 8 17.88 C3.88 17.31 -0.07 15.81 -3 12.88 C-3.4 10.89 -3.74 8.89 -4 6.88 C-4.33 7.54 -4.66 8.19 -5 8.88 C-5.66 8.88 -6.32 8.88 -7 8.88 C-4.36 -0.27 -4.36 -0.27 0 0 Z " fill="#D69A43" transform="translate(396,373.125)"/>
<path d="M0 0 C0 0.33 0 0.66 0 1 C-2.31 1 -4.62 1 -7 1 C-6.99 1.76 -6.98 2.53 -6.96 3.32 C-6.89 11.93 -7.34 20.42 -8 29 C-8.33 29 -8.66 29 -9 29 C-9.22 27.39 -9.22 27.39 -9.44 25.75 C-9.88 22.24 -9.88 22.24 -10.62 19.88 C-11.12 17.39 -10.61 15.43 -10 13 C-13.3 13 -16.6 13 -20 13 C-19.65 13.72 -19.3 14.44 -18.94 15.19 C-17.9 18.31 -18.11 19.88 -19 23 C-20.32 23 -21.64 23 -23 23 C-23 17.39 -23 11.78 -23 6 C-21.35 6 -19.7 6 -18 6 C-18 6.99 -18 7.98 -18 9 C-15.69 9 -13.38 9 -11 9 C-11.06 8.26 -11.12 7.51 -11.19 6.75 C-11 4 -11 4 -10 1.69 C-6.84 -0.98 -4.05 -0.27 0 0 Z " fill="#E49B3D" transform="translate(618,268)"/>
<path d="M0 0 C18.15 0 36.3 0 55 0 C55 0.33 55 0.66 55 1 C37.84 1 20.68 1 3 1 C3 2.65 3 4.3 3 6 C19.17 6 35.34 6 52 6 C52 23.16 52 40.32 52 58 C52.99 58.5 52.99 58.5 54 59 C53.01 59.33 52.02 59.66 51 60 C51 42.51 51 25.02 51 7 C34.96 7.04 34.96 7.04 18.93 7.09 C16.92 7.09 14.92 7.1 12.91 7.1 C11.34 7.11 11.34 7.11 9.74 7.11 C8.74 7.11 7.75 7.11 6.73 7.11 C5.43 7.12 5.43 7.12 4.1 7.12 C2 7 2 7 0 6 C0 4.02 0 2.04 0 0 Z " fill="#D18437" transform="translate(265,297)"/>
<path d="M0 0 C7.53 -0.03 15.06 -0.04 22.59 -0.05 C25.15 -0.06 27.72 -0.07 30.28 -0.08 C33.96 -0.09 37.63 -0.09 41.31 -0.1 C42.46 -0.1 43.62 -0.11 44.81 -0.11 C46.4 -0.11 46.4 -0.11 48.02 -0.11 C48.96 -0.12 49.9 -0.12 50.87 -0.12 C53 0 53 0 54 1 C54.09 2.69 54.12 4.38 54.11 6.07 C54.11 7.15 54.11 8.23 54.11 9.35 C54.11 10.52 54.1 11.7 54.1 12.91 C54.1 14.11 54.09 15.3 54.09 16.54 C54.09 20.38 54.08 24.22 54.06 28.06 C54.06 30.66 54.05 33.26 54.05 35.85 C54.04 42.24 54.02 48.62 54 55 C53.67 55 53.34 55 53 55 C52.67 37.51 52.34 20.02 52 2 C27.75 1.5 27.75 1.5 3 1 C3 1.99 3 2.98 3 4 C17.85 4 32.7 4 48 4 C48 4.33 48 4.66 48 5 C32.16 5 16.32 5 0 5 C0 3.35 0 1.7 0 0 Z " fill="#AD4827" transform="translate(268,298)"/>
<path d="M0 0 C1.32 0.33 2.64 0.66 4 1 C3.34 10.24 2.68 19.48 2 29 C1.34 28.67 0.68 28.34 0 28 C0.01 27.07 0.02 26.15 0.04 25.19 C0.05 23.4 0.05 23.4 0.06 21.56 C0.07 20.37 0.09 19.17 0.1 17.94 C0.34 15.11 0.34 15.11 -1 14 C-3.01 13.6 -5.04 13.26 -7.06 12.94 C-8.72 12.67 -8.72 12.67 -10.41 12.4 C-11.26 12.27 -12.12 12.14 -13 12 C-13.25 6.38 -13.25 6.38 -11 3 C-8.38 2.81 -8.38 2.81 -6 3 C-6 4.32 -6 5.64 -6 7 C-3.03 7.5 -3.03 7.5 0 8 C0 5.36 0 2.72 0 0 Z " fill="#E59C3D" transform="translate(168,328)"/>
<path d="M0 0 C7.21 -0.03 14.42 -0.04 21.62 -0.05 C24.08 -0.06 26.53 -0.07 28.98 -0.08 C32.51 -0.09 36.03 -0.09 39.55 -0.1 C41.2 -0.11 41.2 -0.11 42.88 -0.11 C43.91 -0.11 44.93 -0.11 45.98 -0.11 C46.88 -0.12 47.78 -0.12 48.7 -0.12 C51 0 51 0 54 1 C54 2.65 54 4.3 54 6 C51.15 6.95 49.4 7.12 46.44 7.11 C45.52 7.11 44.6 7.11 43.65 7.11 C42.66 7.11 41.67 7.1 40.64 7.1 C39.63 7.1 38.61 7.09 37.56 7.09 C34.31 7.09 31.06 7.08 27.81 7.06 C25.61 7.06 23.41 7.05 21.21 7.05 C15.8 7.04 10.4 7.02 5 7 C5 16.24 5 25.48 5 35 C4.67 35 4.34 35 4 35 C4 25.43 4 15.86 4 6 C19.18 6 34.36 6 50 6 C50 4.35 50 2.7 50 1 C24.75 1.5 24.75 1.5 -1 2 C-0.67 1.34 -0.34 0.68 0 0 Z " fill="#D98F39" transform="translate(486,297)"/>
<path d="M0 0 C0.66 0 1.32 0 2 0 C2 0.99 2 1.98 2 3 C7.61 3 13.22 3 19 3 C19 5.31 19 7.62 19 10 C17.02 10 15.04 10 13 10 C13 9.67 13 9.34 13 9 C14.65 9 16.3 9 18 9 C18 7.35 18 5.7 18 4 C13.05 4 8.1 4 3 4 C3.16 5.09 3.33 6.19 3.5 7.31 C4.15 12.54 4.11 17.73 4.06 23 C4.06 23.97 4.05 24.93 4.05 25.93 C4.04 28.28 4.02 30.64 4 33 C3.67 33 3.34 33 3 33 C2.34 29.37 1.68 25.74 1 22 C-0.74 23.74 -0.37 26.19 -0.56 28.56 C-0.65 29.57 -0.73 30.59 -0.82 31.63 C-0.88 32.41 -0.94 33.19 -1 34 C-4.3 34 -7.6 34 -11 34 C-11 33.67 -11 33.34 -11 33 C-8.03 33 -5.06 33 -2 33 C-2.02 31.74 -2.02 31.74 -2.04 30.45 C-2.04 29.35 -2.05 28.25 -2.06 27.12 C-2.07 26.03 -2.09 24.94 -2.1 23.82 C-2 21 -2 21 -1 19 C-0.85 17.55 -0.75 16.1 -0.68 14.65 C-0.64 13.8 -0.6 12.95 -0.56 12.07 C-0.52 11.18 -0.48 10.29 -0.44 9.38 C-0.39 8.48 -0.35 7.58 -0.31 6.66 C-0.2 4.44 -0.1 2.22 0 0 Z " fill="#D88B38" transform="translate(185,144)"/>
<path d="M0 0 C0.66 0.33 1.32 0.66 2 1 C2 3.67 2 6.33 2 9 C2.33 9.33 2.66 9.66 3 10 C3.04 12 3.04 14 3 16 C2.34 15.67 1.68 15.34 1 15 C1.33 13.68 1.66 12.36 2 11 C-1.3 11 -4.6 11 -8 11 C-7.67 13.97 -7.34 16.94 -7 20 C-8.65 20 -10.3 20 -12 20 C-12.03 17.35 -12.05 14.71 -12.06 12.06 C-12.07 11.31 -12.08 10.55 -12.09 9.78 C-12.1 7.85 -12.05 5.92 -12 4 C-11 3 -11 3 -8.44 2.94 C-7.23 2.97 -7.23 2.97 -6 3 C-6 3.99 -6 4.98 -6 6 C-3.69 6 -1.38 6 1 6 C0.67 4.02 0.34 2.04 0 0 Z " fill="#D98C39" transform="translate(254,210)"/>
<path d="M0 0 C2.42 3.64 2.39 5.86 2.62 10.19 C2.7 11.46 2.77 12.73 2.85 14.04 C2.9 15.02 2.95 15.99 3 17 C2.01 17 1.02 17 0 17 C0.01 17.85 0.02 18.71 0.04 19.59 C0.04 20.69 0.05 21.8 0.06 22.94 C0.07 24.04 0.09 25.14 0.1 26.28 C0 29 0 29 -1 30 C-2.81 30.13 -2.81 30.13 -5 30.12 C-5.72 30.13 -6.44 30.13 -7.19 30.13 C-9 30 -9 30 -10 29 C-10.09 26.93 -10.11 24.85 -10.1 22.78 C-10.09 21.52 -10.09 20.26 -10.09 18.96 C-10.08 17.62 -10.07 16.28 -10.06 14.94 C-10.06 13.59 -10.05 12.25 -10.05 10.9 C-10.04 7.6 -10.02 4.3 -10 1 C-9.67 1 -9.34 1 -9 1 C-8.67 10.24 -8.34 19.48 -8 29 C-6.02 29 -4.04 29 -2 29 C-2.02 27.83 -2.05 26.66 -2.07 25.45 C-2.19 16.75 -2.1 8.51 0 0 Z " fill="#D38336" transform="translate(147,327)"/>
<path d="M0 0 C3.38 -0.12 3.38 -0.12 7 0 C9 2 9 2 9.23 4.89 C9.21 6.7 9.21 6.7 9.2 8.54 C9.19 9.84 9.18 11.14 9.18 12.48 C9.16 13.86 9.14 15.24 9.12 16.62 C9.11 18.01 9.11 19.4 9.1 20.79 C9.07 24.19 9.04 27.6 9 31 C8.67 31 8.34 31 8 31 C8 24.4 8 17.8 8 11 C5.69 11 3.38 11 1 11 C-0.28 7.15 -0.07 4.05 0 0 Z " fill="#D48537" transform="translate(611,147)"/>
<path d="M0 0 C8.25 0 16.5 0 25 0 C25 3.3 25 6.6 25 10 C26.32 10.33 27.64 10.66 29 11 C27.06 11.56 27.06 11.56 25 12 C24 11 24 11 23.9 8.71 C23.91 7.8 23.93 6.88 23.94 5.94 C23.95 5.02 23.96 4.1 23.96 3.15 C23.98 2.44 23.99 1.73 24 1 C22.02 1 20.04 1 18 1 C18 10.57 18 20.14 18 30 C20.31 30 22.62 30 25 30 C25.33 29.01 25.66 28.02 26 27 C26 28.32 26 29.64 26 31 C23.03 31 20.06 31 17 31 C16.67 24.07 16.34 17.14 16 10 C13.69 10 11.38 10 9 10 C9 9.67 9 9.34 9 9 C10.98 9 12.96 9 15 9 C15 6.36 15 3.72 15 1 C10.05 1 5.1 1 0 1 C0 0.67 0 0.34 0 0 Z " fill="#D18135" transform="translate(605,327)"/>
<path d="M0 0 C2.81 -0.03 5.62 -0.05 8.44 -0.06 C9.24 -0.07 10.04 -0.08 10.87 -0.09 C12.91 -0.1 14.96 -0.05 17 0 C18 1 18 1 18.1 3.29 C18.09 4.2 18.07 5.12 18.06 6.06 C18.05 6.98 18.04 7.9 18.04 8.85 C18.02 9.56 18.01 10.27 18 11 C15.69 11.33 13.38 11.66 11 12 C14.47 13.49 14.47 13.49 18 15 C17.67 15.66 17.34 16.32 17 17 C16.67 16.67 16.34 16.34 16 16 C13.99 15.6 11.96 15.26 9.94 14.94 C8.28 14.67 8.28 14.67 6.59 14.4 C5.74 14.27 4.88 14.14 4 14 C3.75 8.38 3.75 8.38 6 5 C8.62 4.81 8.62 4.81 11 5 C11 6.32 11 7.64 11 9 C13.97 9.5 13.97 9.5 17 10 C16.67 7.36 16.34 4.72 16 2 C10.72 1.67 5.44 1.34 0 1 C0 0.67 0 0.34 0 0 Z " fill="#DE933B" transform="translate(173,326)"/>
<path d="M0 0 C3.96 0 7.92 0 12 0 C11.67 7.26 11.34 14.52 11 22 C10.34 21.67 9.68 21.34 9 21 C8.67 23.97 8.34 26.94 8 30 C7.67 30 7.34 30 7 30 C5.48 10.03 5.48 10.03 8 1 C5.36 1 2.72 1 0 1 C0 0.67 0 0.34 0 0 Z " fill="#EBA540" transform="translate(197,207)"/>
<path d="M0 0 C5.94 0 11.88 0 18 0 C18 1.65 18 3.3 18 5 C17.34 5 16.68 5 16 5 C16 5.66 16 6.32 16 7 C15.34 7 14.68 7 14 7 C14 6.34 14 5.68 14 5 C9.38 5 4.76 5 0 5 C0 3.35 0 1.7 0 0 Z " fill="#A23023" transform="translate(394,380)"/>
<path d="M0 0 C0.99 0.33 1.98 0.66 3 1 C2.34 1 1.68 1 1 1 C0.67 10.57 0.34 20.14 0 30 C5.61 30 11.22 30 17 30 C17 30.33 17 30.66 17 31 C8.09 31 -0.82 31 -10 31 C-9.67 29.68 -9.34 28.36 -9 27 C-9 27.66 -9 28.32 -9 29 C-7.02 29 -5.04 29 -3 29 C-3.33 25.04 -3.66 21.08 -4 17 C-3.34 17.33 -2.68 17.66 -2 18 C-1.34 12.06 -0.68 6.12 0 0 Z " fill="#D98D39" transform="translate(238,267)"/>
<path d="M0 0 C6.05 -0.2 6.05 -0.2 8 0 C10 2 10 2 10.23 4.89 C10.21 6.7 10.21 6.7 10.2 8.54 C10.19 9.84 10.18 11.14 10.18 12.48 C10.16 13.86 10.14 15.24 10.12 16.62 C10.11 18.01 10.11 19.4 10.1 20.79 C10.07 24.19 10.04 27.6 10 31 C9.01 31 8.02 31 7 31 C7 21.1 7 11.2 7 1 C4.69 1 2.38 1 0 1 C0 0.67 0 0.34 0 0 Z " fill="#E1973C" transform="translate(169,266)"/>
<path d="M0 0 C0.33 0 0.66 0 1 0 C1 6.27 1 12.54 1 19 C-17.48 19 -35.96 19 -55 19 C-55.33 19.66 -55.66 20.32 -56 21 C-56.66 20.34 -57.32 19.68 -58 19 C-57.01 18.01 -56.02 17.02 -55 16 C-54.34 16.33 -53.68 16.66 -53 17 C-51.31 17.12 -49.61 17.18 -47.91 17.21 C-46.85 17.23 -45.79 17.25 -44.69 17.27 C-43.54 17.28 -42.39 17.3 -41.21 17.32 C-39.45 17.35 -39.45 17.35 -37.65 17.38 C-33.89 17.44 -30.13 17.5 -26.38 17.56 C-23.83 17.61 -21.29 17.65 -18.74 17.69 C-12.49 17.8 -6.25 17.9 0 18 C0 12.06 0 6.12 0 0 Z " fill="#D6913C" transform="translate(484,361)"/>
<path d="M0 0 C2.08 3.12 2.25 3.9 2.31 7.46 C2.33 8.32 2.36 9.19 2.38 10.08 C2.42 11.89 2.45 13.7 2.48 15.51 C2.64 20.75 3.16 24.42 6 29 C4.68 28.34 3.36 27.68 2 27 C2 26.34 2 25.68 2 25 C1.34 25 0.68 25 0 25 C-0.33 26.32 -0.66 27.64 -1 29 C-2.57 9.66 -2.57 9.66 0 0 Z " fill="#E79F3E" transform="translate(585,268)"/>
<path d="M0 0 C-0.66 0.66 -1.32 1.32 -2 2 C-5.62 1.62 -5.62 1.62 -9 1 C-9 1.99 -9 2.98 -9 4 C-11.31 4 -13.62 4 -16 4 C-16 3.34 -16 2.68 -16 2 C-29.86 2 -43.72 2 -58 2 C-57.67 1.34 -57.34 0.68 -57 0 C-49.36 -0.17 -41.73 -0.33 -34.09 -0.48 C-31.49 -0.54 -28.9 -0.59 -26.3 -0.65 C-22.57 -0.73 -18.84 -0.81 -15.11 -0.88 C-13.36 -0.92 -13.36 -0.92 -11.57 -0.96 C-9.95 -0.99 -9.95 -0.99 -8.3 -1.02 C-7.34 -1.04 -6.39 -1.06 -5.41 -1.08 C-3 -1 -3 -1 0 0 Z " fill="#D99E60" transform="translate(377,379)"/>
<path d="M0 0 C1.46 -0.03 2.92 -0.05 4.38 -0.06 C5.19 -0.07 6 -0.09 6.84 -0.1 C9 0 9 0 11 1 C13.23 10.27 11.67 20.59 11 30 C9.52 28.87 9.52 28.87 8 27 C7.66 24.27 7.66 24.27 7.71 21.02 C7.72 19.86 7.73 18.69 7.74 17.49 C7.76 16.28 7.79 15.06 7.81 13.81 C7.83 12.59 7.84 11.36 7.85 10.1 C7.89 7.06 7.94 4.03 8 1 C5.36 1 2.72 1 0 1 C0 0.67 0 0.34 0 0 Z " fill="#E59D3D" transform="translate(206,326)"/>
<path d="M0 0 C0.33 0.99 0.66 1.98 1 3 C3.64 2.67 6.28 2.34 9 2 C9 1.34 9 0.68 9 0 C10.65 0.33 12.3 0.66 14 1 C14 1.66 14 2.32 14 3 C29.51 2.67 45.02 2.34 61 2 C61 2.66 61 3.32 61 4 C40.87 4 20.74 4 0 4 C0 2.68 0 1.36 0 0 Z " fill="#D6934B" transform="translate(429,382)"/>
<path d="M0 0 C0.33 0 0.66 0 1 0 C1 1.65 1 3.3 1 5 C2.98 5 4.96 5 7 5 C7 4.01 7 3.02 7 2 C11.16 1.92 14.95 2.02 19 3 C19 3.33 19 3.66 19 4 C18.34 4.05 17.67 4.1 16.99 4.15 C10.29 4.71 10.29 4.71 4 7 C4.19 7.97 4.37 8.94 4.56 9.94 C4.71 10.95 4.85 11.96 5 13 C4 14 4 14 1.44 14.06 C0.63 14.04 -0.17 14.02 -1 14 C-1.08 9.17 -0.95 4.76 0 0 Z " fill="#CD9A4D" transform="translate(452,302)"/>
<path d="M0 0 C0.99 0 1.98 0 3 0 C3.34 2.98 3.34 2.98 3.68 5.96 C3.97 8.19 3.97 8.19 5 11 C5.02 12.48 4.97 13.97 4.88 15.45 C4.83 16.3 4.78 17.14 4.73 18.02 C4.68 18.9 4.62 19.78 4.56 20.69 C4.51 21.58 4.46 22.47 4.4 23.39 C4.27 25.6 4.14 27.8 4 30 C9.28 30 14.56 30 20 30 C20 30.33 20 30.66 20 31 C14.39 31 8.78 31 3 31 C2.67 24.73 2.34 18.46 2 12 C1.34 12.66 0.68 13.32 0 14 C-2.12 13.62 -2.12 13.62 -4 13 C-3.01 12.34 -2.02 11.68 -1 11 C-0.42 8.34 -0.42 8.34 -0.31 5.38 C-0.25 4.37 -0.18 3.37 -0.11 2.34 C-0.06 1.18 -0.06 1.18 0 0 Z " fill="#E59D3D" transform="translate(570,208)"/>
<path d="M0 0 C0.33 0 0.66 0 1 0 C1 2.97 1 5.94 1 9 C-1.31 9.33 -3.62 9.66 -6 10 C-3.53 10.99 -3.53 10.99 -1 12 C-1 12.33 -1 12.66 -1 13 C-9.57 13.14 -9.57 13.14 -13 12 C-12.67 9.36 -12.34 6.72 -12 4 C-10.35 4 -8.7 4 -7 4 C-7 5.32 -7 6.64 -7 8 C-4.69 8 -2.38 8 0 8 C0 5.36 0 2.72 0 0 Z " fill="#E59D3E" transform="translate(255,328)"/>
<path d="M0 0 C0.66 0.33 1.32 0.66 2 1 C1.8 1.71 1.59 2.41 1.38 3.14 C-1.31 13.38 -1.7 23.46 -2 34 C2.45 33.5 2.45 33.5 7 33 C6.67 33.66 6.34 34.32 6 35 C3.71 35.41 3.71 35.41 0.94 35.62 C0.02 35.7 -0.9 35.77 -1.85 35.85 C-2.56 35.9 -3.27 35.95 -4 36 C-4.21 28.01 -4.01 20.48 -2.44 12.62 C-2 10.03 -1.92 7.62 -2 5 C-2.66 4.67 -3.32 4.34 -4 4 C-2.68 2.68 -1.36 1.36 0 0 Z " fill="#A78053" transform="translate(441,292)"/>
<path d="M0 0 C0.33 0.99 0.66 1.98 1 3 C2.98 3 4.96 3 7 3 C5.68 3.33 4.36 3.66 3 4 C3.19 5.28 3.37 6.56 3.56 7.88 C4.4 15.91 3.57 23.97 3 32 C2.67 32 2.34 32 2 32 C2 27.05 2 22.1 2 17 C1.34 17 0.68 17 0 17 C0 11.39 0 5.78 0 0 Z " fill="#DF963B" transform="translate(589,145)"/>
<path d="M0 0 C2.64 0 5.28 0 8 0 C9.72 2.99 10.24 5.11 10.2 8.55 C10.19 9.81 10.19 9.81 10.18 11.11 C10.16 11.98 10.14 12.85 10.12 13.75 C10.12 14.64 10.11 15.53 10.1 16.44 C10.07 18.63 10.04 20.81 10 23 C9.34 21.68 8.68 20.36 8 19 C7.34 19.33 6.68 19.66 6 20 C6.33 13.73 6.66 7.46 7 1 C4.69 1 2.38 1 0 1 C0 0.67 0 0.34 0 0 Z " fill="#DE933B" transform="translate(225,206)"/>
<path d="M0 0 C6.15 -0.1 6.15 -0.1 8 0 C9 1 9 1 9.12 3.5 C9 6 9 6 8 7 C3.93 7.35 0.8 6.41 -3 5 C-3 6.98 -3 8.96 -3 11 C-3.33 11 -3.66 11 -4 11 C-4 8.69 -4 6.38 -4 4 C-2.02 3.34 -0.04 2.68 2 2 C1.34 1.34 0.68 0.68 0 0 Z " fill="#E1963C" transform="translate(175,345)"/>
<path d="M0 0 C1.98 0 3.96 0 6 0 C6 3.3 6 6.6 6 10 C4.35 10 2.7 10 1 10 C0 9 0 9 -0.1 6.93 C-0.09 6.11 -0.07 5.29 -0.06 4.44 C-0.05 3.61 -0.04 2.78 -0.04 1.93 C-0.02 1.3 -0.01 0.66 0 0 Z " fill="#A53223" transform="translate(208,147)"/>
<path d="M0 0 C1.67 -0.04 3.33 -0.04 5 0 C6 1 6 1 6.1 3.07 C6.09 3.89 6.07 4.71 6.06 5.56 C6.05 6.39 6.04 7.22 6.04 8.07 C6.02 9.02 6.02 9.02 6 10 C4.33 10.04 2.67 10.04 1 10 C0 9 0 9 -0.1 6.93 C-0.09 6.11 -0.07 5.29 -0.06 4.44 C-0.05 3.61 -0.04 2.78 -0.04 1.93 C-0.02 1.3 -0.01 0.66 0 0 Z " fill="#E2973C" transform="translate(557,342)"/>
<path d="M0 0 C0.99 0.66 1.98 1.32 3 2 C4.99 2.39 6.99 2.73 9 3 C8 6 8 6 5 8 C4.03 7.83 3.06 7.67 2.06 7.5 C-1.23 6.96 -2.28 7.22 -5 9 C-5 6 -5 6 -3.06 3.94 C-2.38 3.3 -1.7 2.66 -1 2 C-0.67 1.34 -0.34 0.68 0 0 Z " fill="#9C2F2F" transform="translate(387,349)"/>
<path d="M0 0 C3.63 0 7.26 0 11 0 C11 1.32 11 2.64 11 4 C11.99 4 12.98 4 14 4 C14 8.29 14 12.58 14 17 C11.24 14.24 11.42 11.79 11 8 C8.36 8.33 5.72 8.66 3 9 C3.33 8.34 3.66 7.68 4 7 C5.98 7 7.96 7 10 7 C10 5.02 10 3.04 10 1 C6.7 1 3.4 1 0 1 C0 0.67 0 0.34 0 0 Z " fill="#DC903A" transform="translate(222,326)"/>
<path d="M0 0 C0.33 0 0.66 0 1 0 C1.03 0.6 1.05 1.19 1.08 1.8 C1.19 4.49 1.31 7.18 1.44 9.88 C1.48 10.81 1.52 11.75 1.56 12.71 C1.62 14.06 1.62 14.06 1.68 15.43 C1.72 16.26 1.76 17.08 1.79 17.94 C1.88 20.06 1.88 20.06 3 22 C-0.68 23.18 -4.16 23.21 -8 23 C-8.66 22.34 -9.32 21.68 -10 21 C-9.62 18.88 -9.62 18.88 -9 17 C-8.67 17.99 -8.34 18.98 -8 20 C-6.02 20.66 -4.04 21.32 -2 22 C-1.34 14.74 -0.68 7.48 0 0 Z " fill="#E0963B" transform="translate(600,335)"/>
<path d="M0 0 C1.68 0.29 3.34 0.62 5 1 C5 3.64 5 6.28 5 9 C3.33 9.04 1.67 9.04 0 9 C-1 8 -1 8 -1.12 4.5 C-1 1 -1 1 0 0 Z " fill="#DF943B" transform="translate(557,224)"/>
<path d="M0 0 C7.75 -0.12 7.75 -0.12 10 1 C9.67 2.65 9.34 4.3 9 6 C5.7 5.67 2.4 5.34 -1 5 C-0.67 3.35 -0.34 1.7 0 0 Z " fill="#D6A04B" transform="translate(457,293)"/>
<path d="M0 0 C0.33 0 0.66 0 1 0 C1.05 1.92 1.09 3.83 1.12 5.75 C1.15 6.82 1.17 7.88 1.2 8.98 C1 12 1 12 -1 16 C-6.28 16 -11.56 16 -17 16 C-17 15.67 -17 15.34 -17 15 C-12.05 15 -7.1 15 -2 15 C-2 13.02 -2 11.04 -2 9 C-4.64 9 -7.28 9 -10 9 C-10 8.67 -10 8.34 -10 8 C-6.7 8 -3.4 8 0 8 C0 5.36 0 2.72 0 0 Z " fill="#DA8F39" transform="translate(102,282)"/>
<path d="M0 0 C3.96 0 7.92 0 12 0 C11.67 7.26 11.34 14.52 11 22 C10.67 22 10.34 22 10 22 C10 17.38 10 12.76 10 8 C9.34 8 8.68 8 8 8 C8 5.69 8 3.38 8 1 C5.36 1 2.72 1 0 1 C0 0.67 0 0.34 0 0 Z " fill="#D08035" transform="translate(197,207)"/>
<path d="M0 0 C1.98 0 3.96 0 6 0 C6.04 2.33 6.04 4.67 6 7 C5 8 5 8 2.44 8.06 C1.63 8.04 0.83 8.02 0 8 C0 5.36 0 2.72 0 0 Z " fill="#DE923B" transform="translate(222,152)"/>
<path d="M0 0 C8.87 0.74 8.87 0.74 12 4 C12 4.66 12 5.32 12 6 C5.35 6.25 -0.57 5.74 -7 4 C-3.73 2.97 -1.14 3.04 2.25 3.44 C3.14 3.54 4.03 3.64 4.95 3.75 C5.63 3.83 6.3 3.91 7 4 C7 3.34 7 2.68 7 2 C4.69 1.67 2.38 1.34 0 1 C0 0.67 0 0.34 0 0 Z " fill="#FDEDD9" transform="translate(300,381)"/>
<path d="M0 0 C0.33 0 0.66 0 1 0 C1 5.28 1 10.56 1 16 C-3.04 17.01 -6.64 17.11 -10.75 17.06 C-11.45 17.06 -12.14 17.05 -12.86 17.05 C-14.58 17.04 -16.29 17.02 -18 17 C-18 16.67 -18 16.34 -18 16 C-16.54 15.93 -16.54 15.93 -15.04 15.85 C-13.77 15.78 -12.5 15.7 -11.19 15.62 C-9.29 15.52 -9.29 15.52 -7.36 15.41 C-3.87 15.24 -3.87 15.24 -1 13 C-0.28 10.94 -0.28 10.94 0 9 C-2.31 9 -4.62 9 -7 9 C-7 8.67 -7 8.34 -7 8 C-4.69 8 -2.38 8 0 8 C0 5.36 0 2.72 0 0 Z " fill="#E39A3D" transform="translate(621,341)"/>
<path d="M0 0 C1.65 0 3.3 0 5 0 C5 2.97 5 5.94 5 9 C3.35 9 1.7 9 0 9 C0 6.03 0 3.06 0 0 Z " fill="#A02520" transform="translate(612,148)"/>
<path d="M0 0 C2.33 -0.04 4.67 -0.04 7 0 C8 1 8 1 8.12 3.5 C8 6 8 6 7 7 C2.93 7.35 -0.2 6.41 -4 5 C-4 6.98 -4 8.96 -4 11 C-4.33 11 -4.66 11 -5 11 C-5 8.69 -5 6.38 -5 4 C2.43 3.86 2.43 3.86 6 5 C6 4.01 6 3.02 6 2 C3.03 1.5 3.03 1.5 0 1 C0 0.67 0 0.34 0 0 Z " fill="#D78938" transform="translate(154,345)"/>
<path d="M0 0 C0.99 0.33 1.98 0.66 3 1 C4.19 4.56 4.19 4.56 5 8 C4.34 7.67 3.68 7.34 3 7 C2.67 9.64 2.34 12.28 2 15 C1.34 15 0.68 15 0 15 C0 10.05 0 5.1 0 0 Z " fill="#D68737" transform="translate(158,281)"/>
<path d="M0 0 C0.33 0 0.66 0 1 0 C1 4.62 1 9.24 1 14 C0.01 13.67 -0.98 13.34 -2 13 C-2 11.68 -2 10.36 -2 9 C-3.65 9 -5.3 9 -7 9 C-7 9.99 -7 10.98 -7 12 C-8.65 11.67 -10.3 11.34 -12 11 C-10.68 10.67 -9.36 10.34 -8 10 C-8 9.34 -8 8.68 -8 8 C-5.36 8 -2.72 8 0 8 C0 5.36 0 2.72 0 0 Z " fill="#BC5F2D" transform="translate(124,282)"/>
<path d="M0 0 C0.66 0 1.32 0 2 0 C2.33 2.97 2.66 5.94 3 9 C1.35 9 -0.3 9 -2 9 C-2.12 5.62 -2.12 5.62 -2 2 C-1.34 1.34 -0.68 0.68 0 0 Z " fill="#DE933B" transform="translate(586,336)"/>
<path d="M0 0 C0.33 0 0.66 0 1 0 C1.33 3.3 1.66 6.6 2 10 C2.99 9.67 3.98 9.34 5 9 C5 11.64 5 14.28 5 17 C3.06 16.44 3.06 16.44 1 15 C-0.19 10.02 -0.09 5.09 0 0 Z " fill="#DD913A" transform="translate(560,145)"/>
<path d="M0 0 C0.66 0 1.32 0 2 0 C2 3.3 2 6.6 2 10 C0.68 10 -0.64 10 -2 10 C-2.2 3.95 -2.2 3.95 -2 2 C-1.34 1.34 -0.68 0.68 0 0 Z " fill="#E0963C" transform="translate(224,275)"/>
<path d="M0 0 C0.66 0 1.32 0 2 0 C2 3.3 2 6.6 2 10 C0.68 10 -0.64 10 -2 10 C-2.2 3.95 -2.2 3.95 -2 2 C-1.34 1.34 -0.68 0.68 0 0 Z " fill="#DF943B" transform="translate(158,215)"/>
<path d="M0 0 C2.05 0.03 4.1 0.07 6.15 0.1 C6.15 0.43 6.15 0.76 6.15 1.1 C3.84 1.43 1.53 1.76 -0.85 2.1 C-1.18 7.38 -1.51 12.66 -1.85 18.1 C-2.84 17.77 -3.83 17.44 -4.85 17.1 C-5.18 15.45 -5.51 13.8 -5.85 12.1 C-4.86 12.43 -3.87 12.76 -2.85 13.1 C-2.86 12.24 -2.87 11.39 -2.88 10.51 C-2.9 8.85 -2.9 8.85 -2.91 7.16 C-2.92 6.06 -2.93 4.96 -2.95 3.82 C-2.81 0.15 -2.81 0.15 0 0 Z " fill="#D58737" transform="translate(185.84765625,206.90234375)"/>
<path d="M0 0 C1.98 0 3.96 0 6 0 C6 1.98 6 3.96 6 6 C4.02 6 2.04 6 0 6 C0 4.02 0 2.04 0 0 Z " fill="#A02520" transform="translate(665,351)"/>
<path d="M0 0 C1.98 0 3.96 0 6 0 C6 1.98 6 3.96 6 6 C4.02 6 2.04 6 0 6 C0 4.02 0 2.04 0 0 Z " fill="#A02520" transform="translate(656,351)"/>
<path d="M0 0 C1.98 0 3.96 0 6 0 C6 1.98 6 3.96 6 6 C4.02 6 2.04 6 0 6 C0 4.02 0 2.04 0 0 Z " fill="#A02520" transform="translate(647,351)"/>
<path d="M0 0 C2.97 0 5.94 0 9 0 C9 3.96 9 7.92 9 12 C8.67 12 8.34 12 8 12 C7.67 8.7 7.34 5.4 7 2 C3.19 3.17 3.19 3.17 0.69 6.12 C0.46 6.74 0.23 7.36 0 8 C0 5.36 0 2.72 0 0 Z " fill="#B5522A" transform="translate(620,148)"/>
<path d="M0 0 C1.65 0 3.3 0 5 0 C5 2.31 5 4.62 5 7 C3.35 7 1.7 7 0 7 C0 4.69 0 2.38 0 0 Z " fill="#F2AD42" transform="translate(558,271)"/>
<path d="M0 0 C1.65 0 3.3 0 5 0 C5.38 1.66 5.71 3.32 6 5 C5 6 5 6 2.44 6.06 C1.23 6.03 1.23 6.03 0 6 C0 4.02 0 2.04 0 0 Z " fill="#43445C" transform="translate(451,310)"/>
<path d="M0 0 C1.68 0.29 3.34 0.62 5 1 C5.33 2.32 5.66 3.64 6 5 C3.36 5 0.72 5 -2 5 C-1.12 1.12 -1.12 1.12 0 0 Z " fill="#E8AB46" transform="translate(407,374)"/>
<path d="M0 0 C-0.11 2.13 -0.24 4.25 -0.38 6.38 C-0.44 7.56 -0.51 8.74 -0.59 9.96 C-1 13 -1 13 -3 15 C-2.67 11.04 -2.34 7.08 -2 3 C-3.98 3.66 -5.96 4.32 -8 5 C-3.38 0 -3.38 0 0 0 Z " fill="#FCDDB3" transform="translate(344,354)"/>
<path d="M0 0 C1.12 3.75 1.12 3.75 0 6 C2.97 6 5.94 6 9 6 C8.67 7.32 8.34 8.64 8 10 C8 9.01 8 8.02 8 7 C4.7 7.33 1.4 7.66 -2 8 C-1.12 2.25 -1.12 2.25 0 0 Z " fill="#C3934F" transform="translate(438,343)"/>
<path d="M0 0 C1.07 3.27 0.89 5.43 0.06 8.75 C-0.13 9.55 -0.33 10.35 -0.53 11.17 C-0.76 12.08 -0.76 12.08 -1 13 C-1.33 13 -1.66 13 -2 13 C-2 10.36 -2 7.72 -2 5 C-3.32 5.33 -4.64 5.66 -6 6 C-4 4 -2 2 0 0 Z " fill="#FAC77A" transform="translate(506,344)"/>
<path d="M0 0 C0.33 0 0.66 0 1 0 C1.03 1.6 1.05 3.21 1.06 4.81 C1.07 5.71 1.09 6.6 1.1 7.52 C1 10 1 10 0 13 C-0.99 12.67 -1.98 12.34 -3 12 C-3 10.35 -3 8.7 -3 7 C-2.34 6.67 -1.68 6.34 -1 6 C-0.34 2.97 -0.34 2.97 0 0 Z " fill="#DD933A" transform="translate(581,149)"/>
<path d="M0 0 C2 1 4 2 6 3 C6 3.99 6 4.98 6 6 C5.07 5.65 4.14 5.3 3.19 4.94 C0.02 3.68 0.02 3.68 -3 5 C-1.12 1.12 -1.12 1.12 0 0 Z " fill="#D3B4B4" transform="translate(416,352)"/>
<path d="M0 0 C1.94 0.81 1.94 0.81 4 2 C4.33 2.99 4.66 3.98 5 5 C4.26 4.79 3.51 4.59 2.75 4.38 C-0.32 3.96 -1.43 4.38 -4 6 C-4 5.01 -4 4.02 -4 3 C-2 1.31 -2 1.31 0 0 Z " fill="#D3B4B4" transform="translate(386,352)"/>
<path d="M0 0 C4 4.5 4 4.5 4 9 C2.68 9 1.36 9 0 9 C0 6.03 0 3.06 0 0 Z " fill="#F1AD42" transform="translate(243,221)"/>
<path d="M0 0 C1.65 0 3.3 0 5 0 C4.67 1.65 4.34 3.3 4 5 C2.68 5 1.36 5 0 5 C0 3.35 0 1.7 0 0 Z " fill="#EEA841" transform="translate(557,331)"/>
<path d="M0 0 C1.65 0 3.3 0 5 0 C4.67 1.65 4.34 3.3 4 5 C2.68 5 1.36 5 0 5 C0 3.35 0 1.7 0 0 Z " fill="#E49B3D" transform="translate(556,213)"/>
<path d="M0 0 C4 4.75 4 4.75 4 7 C0.2 6.46 -1.47 4.8 -4 2 C-2.68 2.33 -1.36 2.66 0 3 C0 2.01 0 1.02 0 0 Z " fill="#5F535A" transform="translate(377,374)"/>
<path d="M0 0 C0.99 0.33 1.98 0.66 3 1 C3.93 5.33 3.93 8.67 3 13 C2.67 13 2.34 13 2 13 C1.34 8.71 0.68 4.42 0 0 Z " fill="#E39A3D" transform="translate(571,285)"/>
<path d="M0 0 C2.31 0.33 4.62 0.66 7 1 C7 1.33 7 1.66 7 2 C6.03 2.27 5.06 2.54 4.06 2.81 C3.05 3.2 2.04 3.6 1 4 C0.67 4.99 0.34 5.98 0 7 C-0.66 7 -1.32 7 -2 7 C-1.12 2.25 -1.12 2.25 0 0 Z " fill="#655859" transform="translate(457,286)"/>
<path d="M0 0 C0.99 0 1.98 0 3 0 C3.33 1.98 3.66 3.96 4 6 C2.68 6 1.36 6 0 6 C0 4.02 0 2.04 0 0 Z " fill="#FDE8D0" transform="translate(429,396)"/>
<path d="M0 0 C0.66 0 1.32 0 2 0 C2 1.98 2 3.96 2 6 C0.68 5.67 -0.64 5.34 -2 5 C-1.12 1.12 -1.12 1.12 0 0 Z " fill="#FCE3C4" transform="translate(376,397)"/>
<path d="M0 0 C0 0.66 0 1.32 0 2 C-3.09 3.76 -4.23 4 -8 4 C-7.67 3.01 -7.34 2.02 -7 1 C-4.52 0.09 -2.66 0 0 0 Z " fill="#FDECDA" transform="translate(448,369)"/>
<path d="M0 0 C2.31 0 4.62 0 7 0 C7 0.99 7 1.98 7 3 C5.02 3 3.04 3 1 3 C0.67 2.01 0.34 1.02 0 0 Z " fill="#9E2121" transform="translate(430,381)"/>
<path d="M0 0 C0.33 0 0.66 0 1 0 C1 4.62 1 9.24 1 14 C0.01 13.67 -0.98 13.34 -2 13 C-2 12.34 -2 11.68 -2 11 C-1.34 11 -0.68 11 0 11 C0 7.37 0 3.74 0 0 Z " fill="#DB903A" transform="translate(224,207)"/>
<path d="M0 0 C0.66 0 1.32 0 2 0 C1.67 2.97 1.34 5.94 1 9 C0.67 9 0.34 9 0 9 C0 7.02 0 5.04 0 3 C-0.66 2.67 -1.32 2.34 -2 2 C-1.34 1.34 -0.68 0.68 0 0 Z " fill="#F5E0D0" transform="translate(321,353)"/>
<path d="M0 0 C-0.33 2.31 -0.66 4.62 -1 7 C-1.33 5.68 -1.66 4.36 -2 3 C-3.32 2.67 -4.64 2.34 -6 2 C-3 0 -3 0 0 0 Z " fill="#EFD6C5" transform="translate(492,332)"/>
<path d="M0 0 C0.66 0 1.32 0 2 0 C2 3.3 2 6.6 2 10 C1.67 10 1.34 10 1 10 C1 8.02 1 6.04 1 4 C0.01 4.33 -0.98 4.66 -2 5 C-1.34 3.35 -0.68 1.7 0 0 Z " fill="#6E2B45" transform="translate(431,325)"/>
<path d="M0 0 C1.11 0.34 1.11 0.34 2.25 0.69 C1.92 2.01 1.59 3.33 1.25 4.69 C0.92 4.03 0.59 3.37 0.25 2.69 C-2.06 2.69 -4.37 2.69 -6.75 2.69 C-4.3 0.41 -3.41 -0.39 0 0 Z " fill="#B8582B" transform="translate(159.75,266.3125)"/>
<path d="M0 0 C1.23 0.01 1.23 0.01 2.48 0.03 C3.42 0.04 3.42 0.04 4.38 0.06 C4.38 0.39 4.38 0.72 4.38 1.06 C3.3 1.19 2.23 1.31 1.12 1.44 C-2 1.96 -3.96 2.46 -6.62 4.06 C-6.62 3.07 -6.62 2.08 -6.62 1.06 C-4.22 -0.14 -2.68 -0.04 0 0 Z " fill="#AF4827" transform="translate(156.625,206.9375)"/>
<path d="M0 0 C0.33 0 0.66 0 1 0 C1 2.31 1 4.62 1 7 C1.66 7.33 2.32 7.66 3 8 C1.68 8.33 0.36 8.66 -1 9 C-0.67 6.03 -0.34 3.06 0 0 Z " fill="#FAE0C0" transform="translate(314,374)"/>
</svg>
