<?xml version="1.0" encoding="UTF-8"?>
<!-- Generator: visioncortex VTracer 0.6.3 -->
<svg version="1.1" xmlns="http://www.w3.org/2000/svg" width="179" height="104">
<path d="M0 0 C4.92 2.14 8.3 5.81 11.62 9.94 C12.3 10.76 12.97 11.58 13.67 12.43 C17.88 18.7 17.75 24.76 17.69 32.06 C17.7 33.52 17.7 33.52 17.71 35.01 C17.68 44.62 17.68 44.62 15.44 49.06 C12.29 51.13 9.69 51.32 5.97 51.33 C4.93 51.33 3.88 51.33 2.8 51.34 C1.71 51.33 0.62 51.32 -0.5 51.31 C-1.58 51.32 -2.67 51.33 -3.79 51.34 C-4.84 51.33 -5.88 51.33 -6.96 51.33 C-7.92 51.33 -8.87 51.32 -9.86 51.32 C-12.81 51.04 -14.94 50.45 -17.56 49.06 C-18.72 45.58 -18.68 42.87 -18.66 39.21 C-18.66 38.55 -18.66 37.88 -18.66 37.2 C-18.65 35.09 -18.64 32.98 -18.62 30.88 C-18.62 29.44 -18.62 28.01 -18.61 26.58 C-18.6 23.07 -18.58 19.57 -18.56 16.06 C-17.9 16.06 -17.24 16.06 -16.56 16.06 C-16.15 15.18 -16.15 15.18 -15.73 14.28 C-12.9 8.93 -6.42 0.16 0 0 Z " fill="#808080" transform="translate(18.5625,52.9375)"/>
<path d="M0 0 C1.71 -0 1.71 -0 3.45 -0.01 C5.22 0 5.22 0 7.04 0.02 C8.22 0.01 9.4 0 10.61 -0.01 C11.75 -0.01 12.89 -0 14.06 0 C15.1 0 16.14 0 17.21 0.01 C20.31 0.28 22.39 0.71 25.1 2.27 C28 7.41 27.43 13.03 27.41 18.77 C27.43 19.8 27.44 20.83 27.46 21.89 C27.46 26.03 27.36 29.49 26.02 33.42 C20.81 38.42 8.97 36.43 2.04 36.29 C0.45 36.27 -1.14 36.29 -2.73 36.32 C-7.49 36.2 -9.64 34.95 -13.03 31.58 C-13.67 30.85 -14.31 30.13 -14.97 29.39 C-17.29 26.84 -19.86 24.89 -22.65 22.88 C-23.9 21.27 -23.9 21.27 -24.51 18.51 C-23.61 13.69 -20.77 11.64 -17.15 8.52 C-16.52 7.94 -15.88 7.36 -15.23 6.77 C-10.2 2.27 -6.95 0.02 0 0 Z " fill="#7F162C" transform="translate(151.90234375,-0.265625)"/>
<path d="M0 0 C1.63 -0 1.63 -0 3.3 -0.01 C4.99 0 4.99 0 6.72 0.02 C7.85 0.01 8.97 0 10.14 -0.01 C11.23 -0.01 12.32 -0 13.44 0 C14.92 0 14.92 0 16.44 0.01 C19.46 0.29 21.55 0.81 24.22 2.27 C26.37 5.25 26.48 7.9 26.48 11.51 C26.49 13.02 26.49 13.02 26.49 14.55 C26.48 15.59 26.48 16.63 26.47 17.7 C26.48 19.26 26.48 19.26 26.49 20.85 C26.49 21.85 26.49 22.85 26.48 23.89 C26.48 24.8 26.48 25.71 26.48 26.65 C26.19 29.56 25.57 31.67 24.22 34.27 C18.69 36.66 13.17 36.57 7.22 36.52 C5.92 36.53 5.92 36.53 4.6 36.54 C-3.48 36.51 -9.19 35.28 -15.47 29.89 C-16.84 28.73 -16.84 28.73 -18.23 27.55 C-24.65 21.79 -24.65 21.79 -25.47 18.45 C-24.26 12.84 -19.72 9.89 -15.47 6.33 C-13.78 5.27 -13.78 5.27 -11.78 5.27 C-11.45 4.28 -11.12 3.29 -10.78 2.27 C-7.16 0.34 -4.06 0.01 0 0 Z " fill="#808080" transform="translate(152.78125,52.734375)"/>
<path d="M0 0 C4.71 1.5 6.51 3.74 9.43 7.59 C10.37 8.77 11.31 9.96 12.26 11.14 C13.42 12.63 13.42 12.63 14.61 14.15 C15.27 14.81 15.93 15.47 16.61 16.15 C18.01 21.4 17.8 26.69 17.8 32.09 C17.81 33.06 17.83 34.04 17.84 35.04 C17.86 44.95 17.86 44.95 15.61 49.15 C12.17 50.88 9.32 51.4 5.49 51.41 C4.53 51.42 3.58 51.42 2.6 51.42 C1.61 51.41 0.63 51.41 -0.39 51.4 C-1.86 51.41 -1.86 51.41 -3.37 51.42 C-4.8 51.42 -4.8 51.42 -6.26 51.41 C-7.13 51.41 -7.99 51.41 -8.88 51.41 C-11.74 51.11 -13.83 50.45 -16.39 49.15 C-19.51 44.46 -18.87 39.5 -18.92 33.97 C-18.95 31.98 -19.02 30 -19.1 28.01 C-19.21 17.22 -19.21 17.22 -15.1 12.54 C-13.88 11.39 -12.64 10.26 -11.39 9.15 C-10.66 8.23 -9.94 7.31 -9.2 6.36 C-8.6 5.61 -8 4.86 -7.39 4.09 C-6.79 3.31 -6.19 2.54 -5.57 1.74 C-3.39 0.15 -3.39 0.15 0 0 Z " fill="#7F162C" transform="translate(18.38671875,-0.1484375)"/>
<path d="M0 0 C1.22 -0.03 2.45 -0.06 3.71 -0.09 C14.76 -0.17 14.76 -0.17 19.69 4.31 C20.77 5.16 21.85 6.01 22.93 6.86 C24 7.78 25.07 8.7 26.12 9.62 C26.68 10.07 27.23 10.52 27.8 10.98 C29.37 12.36 29.37 12.36 31.69 15.31 C31.81 19.35 31.57 21.36 28.8 24.35 C28.02 24.87 27.24 25.4 26.44 25.94 C22.8 28.51 19.74 31.07 16.69 34.31 C13.41 37.59 3.7 36.5 -0.81 36.5 C-1.52 36.51 -2.23 36.52 -2.96 36.54 C-8.06 36.55 -12.52 36.13 -17.31 34.31 C-20.12 29.56 -19.64 23.77 -19.62 18.38 C-19.64 17.51 -19.66 16.64 -19.67 15.74 C-19.68 10.19 -19.08 6.17 -16.31 1.31 C-11.06 -0.44 -5.5 0.04 0 0 Z " fill="#808080" transform="translate(94.3125,52.6875)"/>
<path d="M0 0 C2 -0.04 3.99 -0.12 5.98 -0.2 C16.85 -0.36 16.85 -0.36 21.52 3.74 C22.66 4.96 23.79 6.2 24.9 7.46 C26.26 8.56 26.26 8.56 27.65 9.68 C28.39 10.29 29.13 10.9 29.9 11.52 C30.66 12.13 31.42 12.74 32.21 13.37 C33.9 15.46 33.9 15.46 34.51 18.35 C33.68 22.59 31.34 24.5 28.15 27.15 C27.61 27.62 27.07 28.09 26.52 28.58 C25 29.9 23.45 31.18 21.9 32.46 C21.27 33 20.64 33.53 20 34.08 C17.58 35.67 16.17 35.89 13.3 36.01 C12.42 36.05 11.54 36.09 10.64 36.13 C9.71 36.16 8.79 36.18 7.84 36.21 C6.89 36.24 5.95 36.28 4.98 36.31 C-9.69 36.75 -9.69 36.75 -14.1 35.46 C-17.69 30.07 -17.31 24.37 -17.35 18.08 C-17.37 17.26 -17.39 16.43 -17.41 15.58 C-17.45 10.11 -16.73 6.29 -14.1 1.46 C-9.92 -0.63 -4.6 0.07 0 0 Z " fill="#7F162C" transform="translate(92.1015625,-0.4599609375)"/>
<path d="M0 0 C1.38 -0.02 1.38 -0.02 2.79 -0.04 C8.03 -0.01 11.98 0.3 16.44 3.38 C17.58 6.79 17.55 9.41 17.54 13.01 C17.53 14.31 17.53 15.61 17.53 16.95 C17.52 18.32 17.51 19.69 17.5 21.06 C17.49 22.45 17.49 23.83 17.49 25.21 C17.47 28.6 17.46 31.99 17.44 35.38 C16.78 35.38 16.12 35.38 15.44 35.38 C15.21 35.9 14.99 36.43 14.76 36.98 C12.97 40.22 10.68 42.92 8.25 45.69 C7.79 46.25 7.34 46.81 6.87 47.39 C5.46 48.99 5.46 48.99 2.44 51.38 C-1.41 51.46 -3.54 51.2 -6.57 48.77 C-7.08 48.11 -7.6 47.44 -8.12 46.75 C-8.64 46.1 -9.16 45.45 -9.69 44.77 C-10.31 43.98 -10.93 43.19 -11.56 42.38 C-12.06 41.89 -12.56 41.4 -13.08 40.9 C-17.96 35.96 -18.49 31.92 -18.5 25.12 C-18.52 24.2 -18.54 23.27 -18.57 22.32 C-18.68 15.97 -18.52 9.66 -17.56 3.38 C-11.61 0.28 -6.65 -0.08 0 0 Z " fill="#7F162C" transform="translate(55.5625,-0.375)"/>
<path d="M0 0 C0.78 -0.01 1.55 -0.02 2.36 -0.04 C7.32 -0.05 11.47 0.4 16.12 2.19 C19.25 6.88 18.61 11.84 18.66 17.36 C18.69 19.35 18.76 21.34 18.84 23.32 C18.95 34.12 18.95 34.12 14.84 38.8 C13.62 39.95 12.38 41.08 11.12 42.19 C10.39 43.09 9.66 44 8.9 44.94 C8.3 45.68 7.69 46.42 7.06 47.19 C6.45 47.95 5.84 48.71 5.21 49.5 C3.12 51.19 3.12 51.19 0.16 51.73 C-3.8 51.02 -4.9 49.64 -7.44 46.56 C-8.16 45.7 -8.88 44.85 -9.63 43.96 C-10.37 43.05 -11.11 42.13 -11.88 41.19 C-12.77 40.29 -13.67 39.39 -14.6 38.46 C-17.64 34.08 -17.69 30.72 -17.75 25.5 C-17.77 24.61 -17.8 23.73 -17.83 22.81 C-18.19 6.01 -18.19 6.01 -15.64 2.47 C-11.24 -0.73 -5.22 0 0 0 Z " fill="#808080" transform="translate(54.875,52.8125)"/>
<path d="M0 0 C0.99 0.33 1.98 0.66 3 1 C5.83 7.99 6.15 15.53 3.5 22.62 C3 23.74 2.51 24.85 2 26 C-3.03 23.38 -7.65 20.7 -11 16 C-11.81 13.06 -11.81 13.06 -11 10 C-8.92 7.36 -6.55 5.18 -4 3 C-3.26 2.34 -2.51 1.68 -1.75 1 C-0.88 0.51 -0.88 0.51 0 0 Z " fill="#C0C0C0" transform="translate(139,58)"/>
<path d="M0 0 C5.92 2.58 8.94 6.86 12.44 12.06 C9.61 15.16 7.59 15.99 3.33 16.27 C-8.69 16.42 -8.69 16.42 -14.56 13.06 C-5.52 0.13 -5.52 0.13 0 0 Z " fill="#C0C0C0" transform="translate(18.5625,52.9375)"/>
<path d="M0 0 C3.21 1.43 5.58 3.22 8.19 5.56 C9.23 6.49 9.23 6.49 10.29 7.44 C11.21 8.28 12.12 9.12 13 10 C13.12 12.92 13.13 14.37 12 17 C9.81 19.1 7.52 20.8 5.03 22.52 C2.89 23.84 2.89 23.84 2 26 C1.34 26 0.68 26 0 26 C-3.41 18.33 -4.48 11.41 -1.5 3.38 C-1 2.26 -0.51 1.15 0 0 Z " fill="#C0C0C0" transform="translate(113,58)"/>
<path d="M0 0 C-7.18 9.94 -7.18 9.94 -11 13 C-13.86 13.43 -13.86 13.43 -17 13 C-19.52 10.92 -19.52 10.92 -21.81 8.19 C-22.58 7.29 -23.35 6.4 -24.14 5.48 C-26 3 -26 3 -27 0 C-17.45 -4.24 -9.64 -3.91 0 0 Z " fill="#C0C0C0" transform="translate(69,91)"/>
</svg>
