<?xml version="1.0" encoding="UTF-8"?>
<!-- Generator: visioncortex VTracer 0.6.3 -->
<svg version="1.1" xmlns="http://www.w3.org/2000/svg" width="372" height="217">
<path d="M0 0 C1.84 0.01 1.84 0.01 3.72 0.01 C7.27 0.04 10.82 0.08 14.38 0.12 C15.31 0.14 16.25 0.15 17.21 0.16 C19.54 0.21 21.86 0.28 24.19 0.38 C25.43 0.42 26.68 0.47 27.96 0.52 C34.81 1.74 39.42 5.74 44.31 10.44 C45.36 11.42 46.4 12.4 47.45 13.38 C47.95 13.85 48.45 14.32 48.96 14.8 C50.84 16.56 52.75 18.25 54.69 19.94 C55.31 20.48 55.93 21.02 56.56 21.57 C57.8 22.63 59.05 23.68 60.31 24.71 C65.11 28.65 67.85 31.53 69.12 37.81 C68.86 44.78 62.21 49.46 57.49 53.89 C55.48 55.68 53.43 57.4 51.38 59.12 C50.23 60.12 49.08 61.12 47.94 62.12 C46.69 63.2 45.44 64.29 44.19 65.38 C43.59 65.89 43 66.41 42.39 66.95 C41.52 67.69 41.52 67.69 40.64 68.45 C40.14 68.9 39.63 69.34 39.1 69.79 C29.23 77.41 15.2 75.31 3.25 75.31 C0.81 75.31 -1.62 75.33 -4.05 75.35 C-24.73 75.42 -24.73 75.42 -32.69 71.69 C-42.54 58.65 -39.54 33.23 -37.6 17.85 C-36.81 12.43 -35.95 8.5 -32.62 4.12 C-23.86 -1.7 -9.98 -0.04 0 0 Z " fill="#808080" transform="translate(193.625,109.875)"/>
<path d="M0 0 C1.23 -0.01 2.46 -0.02 3.72 -0.02 C28.22 0.03 28.22 0.03 34.5 6.25 C38.93 15.73 37.89 27.23 37.78 37.4 C37.75 40.38 37.74 43.35 37.73 46.32 C37.73 48.23 37.71 50.15 37.7 52.07 C37.7 52.94 37.69 53.82 37.69 54.72 C37.49 72.57 37.49 72.57 31.06 79.19 C30.26 80.07 30.26 80.07 29.43 80.97 C28.33 82.17 27.23 83.36 26.11 84.55 C24.62 86.13 23.15 87.73 21.69 89.34 C20.03 91.18 18.36 93.02 16.68 94.84 C14.79 96.93 12.98 99.07 11.19 101.25 C8.08 104.89 5.41 106.97 0.56 107.69 C-8.27 106.43 -14.88 97.14 -20.4 90.69 C-22.09 88.73 -23.8 86.8 -25.54 84.88 C-26.63 83.65 -27.72 82.42 -28.81 81.19 C-29.34 80.61 -29.87 80.03 -30.41 79.44 C-36.27 72.77 -36.83 65.89 -37.12 57.31 C-37.16 56.38 -37.2 55.46 -37.24 54.5 C-37.34 51.75 -37.42 49 -37.5 46.25 C-37.52 45.52 -37.55 44.79 -37.57 44.04 C-37.81 35.82 -37.42 27.74 -36.69 19.56 C-36.62 18.71 -36.55 17.86 -36.48 16.99 C-36.01 12.39 -35.43 9 -32.5 5.25 C-23.53 -0.96 -10.42 -0.07 0 0 Z " fill="#7F162C" transform="translate(114.5,-0.25)"/>
<path d="M0 0 C1.11 2.05 1.11 2.05 1.75 4.31 C1.97 5.05 2.19 5.79 2.42 6.55 C3.72 12.06 4.17 17.39 4.2 23.04 C4.21 23.8 4.21 24.56 4.22 25.35 C4.23 26.96 4.24 28.57 4.24 30.17 C4.25 32.6 4.28 35.02 4.31 37.44 C4.38 47.35 4.38 57.37 -0.88 66.12 C-9.84 71.51 -22.45 70.29 -32.65 70.21 C-35 70.19 -37.35 70.19 -39.7 70.19 C-66.17 70.13 -66.17 70.13 -72 65 C-72.55 64.55 -73.09 64.1 -73.66 63.63 C-75.51 62.1 -77.32 60.53 -79.12 58.94 C-79.77 58.37 -80.42 57.8 -81.09 57.22 C-101.12 39.65 -101.12 39.65 -102.94 34.19 C-103.03 29.3 -100.63 25.81 -97.44 22.27 C-95.65 20.5 -93.81 18.81 -91.94 17.12 C-90.94 16.22 -90.94 16.22 -89.93 15.29 C-84.45 10.31 -78.81 5.58 -73 1 C-72.14 0.28 -71.27 -0.44 -70.38 -1.18 C-58.28 -10.43 -12.17 -9.23 0 0 Z " fill="#7F162C" transform="translate(368,5)"/>
<path d="M0 0 C1.37 0 1.37 0 2.78 0 C4.7 0 6.62 0.01 8.55 0.02 C11.46 0.04 14.38 0.05 17.29 0.04 C19.17 0.05 21.06 0.06 22.94 0.06 C24.22 0.06 24.22 0.06 25.54 0.07 C42.95 0.2 42.95 0.2 48.41 5.17 C49.78 6.38 49.78 6.38 51.17 7.62 C52.09 8.48 53.02 9.34 53.97 10.23 C54.91 11.08 55.86 11.93 56.83 12.8 C58.69 14.49 60.55 16.18 62.39 17.88 C64.67 19.96 66.99 21.98 69.34 23.98 C77.59 31.26 77.59 31.26 78.72 37.11 C78.36 42.54 74.68 45.61 70.97 49.23 C70.16 50.09 70.16 50.09 69.33 50.97 C65.14 55.38 60.49 59.15 55.75 62.95 C52.39 65.71 49.25 68.66 46.14 71.7 C41.29 75.12 34.43 74.52 28.66 74.79 C27.34 74.86 27.34 74.86 25.99 74.92 C-11.92 76.59 -11.92 76.59 -23.03 71.23 C-31.52 62.21 -29.42 42.12 -29.13 30.55 C-28.76 21.81 -28.11 13.1 -24.03 5.23 C-17.63 -0.51 -8.16 -0.07 0 0 Z " fill="#7F162C" transform="translate(184.03125,-0.23046875)"/>
<path d="M0 0 C0.74 0.07 1.48 0.14 2.25 0.21 C7.69 0.83 13.3 1.73 17.12 6 C21.14 12.38 20.79 20.92 20.73 28.22 C20.73 29.14 20.73 30.05 20.73 31 C20.73 32.92 20.72 34.84 20.71 36.76 C20.69 39.68 20.69 42.6 20.69 45.51 C20.68 47.39 20.67 49.27 20.67 51.16 C20.67 52.01 20.67 52.87 20.66 53.76 C20.53 71.17 20.53 71.17 15.5 76.69 C14.69 77.6 13.88 78.52 13.04 79.46 C12.2 80.36 11.36 81.26 10.5 82.19 C8.96 83.92 7.42 85.65 5.88 87.38 C4.76 88.6 4.76 88.6 3.62 89.84 C1.66 92.01 -0.23 94.21 -2.12 96.44 C-10.98 106.46 -10.98 106.46 -16.44 107 C-21.81 106.55 -24.91 102.87 -28.5 99.19 C-29.15 98.57 -29.8 97.96 -30.46 97.33 C-35.16 92.83 -39.26 87.94 -43.32 82.86 C-45.8 79.82 -48.45 76.96 -51.19 74.14 C-54.5 69.22 -53.81 62.01 -54.06 56.25 C-54.1 55.32 -54.15 54.39 -54.19 53.43 C-55.77 15.91 -55.77 15.91 -50.5 5.19 C-39.6 -5.07 -13.68 -1.39 0 0 Z " fill="#808080" transform="translate(131.5,110.8125)"/>
<path d="M0 0 C6.48 8.3 5.34 21.45 5.32 31.48 C5.31 33.86 5.34 36.25 5.36 38.64 C5.44 58.78 5.44 58.78 -0.06 67.12 C-6.8 71.42 -15.25 71.3 -23.03 71.23 C-24.41 71.23 -24.41 71.23 -25.81 71.23 C-27.73 71.23 -29.65 71.22 -31.58 71.21 C-34.49 71.19 -37.41 71.19 -40.32 71.19 C-42.21 71.18 -44.09 71.17 -45.97 71.17 C-47.26 71.17 -47.26 71.17 -48.57 71.16 C-65.97 71.03 -65.97 71.03 -71 66.5 C-71.82 65.78 -72.64 65.06 -73.49 64.32 C-74.32 63.55 -75.15 62.79 -76 62 C-76.85 61.25 -77.7 60.49 -78.57 59.71 C-80.26 58.21 -81.95 56.69 -83.62 55.16 C-85.78 53.2 -87.97 51.32 -90.19 49.44 C-94.99 45.22 -99.76 40.98 -102.25 35 C-101.44 25.34 -91.89 18.86 -85 13 C-82.18 10.64 -79.34 8.31 -76.47 6.01 C-73.78 3.82 -71.23 1.5 -68.73 -0.91 C-64.02 -3.89 -57.13 -3.31 -51.69 -3.56 C-50.37 -3.63 -50.37 -3.63 -49.02 -3.69 C-10.47 -5.39 -10.47 -5.39 0 0 Z " fill="#808080" transform="translate(367,114)"/>
<path d="M0 0 C10.5 5.52 18.81 17.52 26.05 26.61 C27.63 28.55 29.27 30.32 31 32.12 C35.26 38.25 34.16 47.13 34.17 54.37 C34.17 55.81 34.17 55.81 34.18 57.29 C34.18 59.31 34.19 61.33 34.19 63.36 C34.19 66.43 34.21 69.49 34.22 72.56 C34.23 74.54 34.23 76.52 34.23 78.5 C34.24 79.4 34.24 80.31 34.25 81.24 C34.23 88.42 34.15 96.05 29.81 102 C20.78 108.43 7.82 107.18 -2.75 107.19 C-4.04 107.2 -5.34 107.21 -6.67 107.22 C-28.41 107.26 -28.41 107.26 -36 102 C-40.99 95.64 -40.15 87.63 -40.13 79.94 C-40.13 78.88 -40.13 77.82 -40.14 76.72 C-40.14 74.48 -40.13 72.24 -40.13 70 C-40.13 66.58 -40.13 63.16 -40.14 59.74 C-40.14 57.56 -40.13 55.37 -40.13 53.19 C-40.13 52.17 -40.14 51.16 -40.14 50.11 C-40.09 35.3 -40.09 35.3 -34 28.69 C-33.51 28.13 -33.01 27.57 -32.5 26.99 C-31.02 25.32 -29.51 23.66 -28 22 C-26.77 20.62 -26.77 20.62 -25.52 19.22 C-24.04 17.57 -22.55 15.92 -21.06 14.29 C-19.09 12.1 -17.2 9.87 -15.31 7.62 C-11.02 2.74 -6.86 -1.37 0 0 Z " fill="#7F162C" transform="translate(40,0)"/>
<path d="M0 0 C2.91 2.09 5.44 4.51 8 7 C8.58 7.54 9.16 8.08 9.75 8.63 C14.14 12.84 17.93 17.48 21.71 22.23 C24.44 25.53 27.4 28.56 30.47 31.54 C34.26 37.63 33.16 46.63 33.17 53.59 C33.17 55.07 33.17 55.07 33.18 56.57 C33.18 58.64 33.19 60.71 33.19 62.78 C33.19 65.93 33.21 69.07 33.22 72.21 C33.23 74.23 33.23 76.25 33.23 78.28 C33.24 79.67 33.24 79.67 33.25 81.08 C33.2 95.94 33.2 95.94 29.19 101.52 C20.52 107.38 8.57 106.47 -1.48 106.39 C-4 106.38 -6.51 106.39 -9.02 106.41 C-30.12 106.44 -30.12 106.44 -37.19 101.45 C-41.95 95 -41.29 86.33 -41.23 78.65 C-41.23 77.59 -41.23 76.53 -41.23 75.44 C-41.23 73.22 -41.22 70.99 -41.21 68.77 C-41.19 65.38 -41.19 61.99 -41.19 58.59 C-41.18 56.42 -41.17 54.26 -41.17 52.09 C-41.17 51.08 -41.17 50.07 -41.16 49.03 C-41.07 34.43 -41.07 34.43 -37.45 30.46 C-36.92 29.86 -36.39 29.27 -35.85 28.66 C-35.28 28.05 -34.71 27.44 -34.12 26.81 C-33.54 26.17 -32.96 25.52 -32.36 24.85 C-31.16 23.53 -29.96 22.21 -28.75 20.9 C-27.14 19.15 -25.55 17.38 -23.97 15.61 C-7.93 -2.35 -7.93 -2.35 0 0 Z " fill="#808080" transform="translate(41,111)"/>
<path d="M0 0 C0.82 2.06 1.63 4.12 2.44 6.19 C2.89 7.34 3.34 8.48 3.81 9.67 C8.39 22.47 7.5 38.63 2 51 C1.03 52.69 0.04 54.36 -1 56 C-6.22 52.32 -10.99 48.31 -15.69 44 C-16.23 43.5 -16.78 43 -17.34 42.49 C-26.06 34.4 -26.06 34.4 -28.12 29.12 C-27.86 22.4 -23.49 18.3 -18.76 13.87 C-16.68 11.98 -14.58 10.12 -12.46 8.28 C-11.14 7.12 -9.84 5.93 -8.55 4.74 C-7.85 4.11 -7.15 3.47 -6.44 2.81 C-5.54 1.99 -5.54 1.99 -4.62 1.14 C-3 0 -3 0 0 0 Z " fill="#C0C0C0" transform="translate(293,120)"/>
<path d="M0 0 C2.91 2.09 5.44 4.51 8 7 C8.58 7.54 9.16 8.08 9.75 8.63 C15 13.66 19.47 19.33 24 25 C21.67 28.49 20.56 28.8 16.69 30.12 C15.74 30.46 14.8 30.79 13.82 31.13 C-0.3 35.47 -17.08 34.21 -30.38 27.87 C-31.18 27.44 -31.18 27.44 -32 27 C-30.49 21.51 -26.65 18.05 -22.81 14.06 C-22.16 13.37 -21.52 12.68 -20.85 11.97 C-7.41 -2.2 -7.41 -2.2 0 0 Z " fill="#C0C0C0" transform="translate(41,111)"/>
<path d="M0 0 C1.41 0.56 1.41 0.56 2.84 1.13 C3.91 1.56 3.91 1.56 5 2 C3.27 6.21 0.33 9.36 -2.62 12.75 C-3.16 13.37 -3.7 13.99 -4.25 14.63 C-16.46 28.65 -16.46 28.65 -22.62 29.5 C-28.33 29.42 -31.21 25.88 -35 22 C-35.66 21.37 -36.32 20.75 -37 20.11 C-42.14 15.18 -46.92 9.84 -51 4 C-51 3.34 -51 2.68 -51 2 C-49.11 1.18 -47.21 0.37 -45.31 -0.44 C-44.26 -0.89 -43.2 -1.34 -42.11 -1.81 C-29.14 -6.77 -12.62 -5.21 0 0 Z " fill="#C0C0C0" transform="translate(138,188)"/>
<path d="M0 0 C3.36 0.59 5.05 1.66 7.5 4.02 C8.14 4.63 8.78 5.24 9.44 5.87 C10.1 6.51 10.76 7.15 11.44 7.81 C12.75 9.07 14.06 10.33 15.37 11.58 C15.99 12.18 16.61 12.77 17.25 13.38 C19.41 15.38 21.7 17.18 24 19 C26.65 22.29 27.83 25.47 27.67 29.76 C25.3 37.67 16.14 43.85 10 49 C8.5 50.31 7 51.62 5.5 52.94 C4.33 53.96 3.17 54.98 2 56 C-2.98 52.68 -4.14 47.03 -5.54 41.42 C-8.22 27.31 -6.64 12.74 0 0 Z " fill="#C0C0C0" transform="translate(235,120)"/>
</svg>
