<?xml version="1.0" encoding="UTF-8"?>
<!-- Generator: visioncortex VTracer 0.6.3 -->
<svg version="1.1" xmlns="http://www.w3.org/2000/svg" width="467" height="235">
<path d="M0 0 C11.9 9.26 19.97 21.8 22.35 36.81 C23.42 48.33 22.88 59.03 18.35 69.81 C18.05 70.55 17.75 71.3 17.44 72.06 C10.93 86.48 -1.34 95.95 -15.65 101.81 C-30.7 106.49 -47.65 105.04 -61.75 98.34 C-74.81 91.35 -84.61 80.34 -89.52 66.32 C-91.54 59.62 -92.16 53.35 -92.09 46.37 C-92.08 45.37 -92.07 44.36 -92.07 43.32 C-91.91 35.9 -90.95 29.55 -87.65 22.81 C-87.12 21.64 -87.12 21.64 -86.59 20.45 C-79.95 7.09 -67.6 -3.27 -53.65 -8.19 C-34.82 -13.48 -16.26 -11.71 0 0 Z " fill="#808080" transform="translate(91.650390625,131.1884765625)"/>
<path d="M0 0 C13.27 9.58 20.65 21.73 24.51 37.5 C27.12 53.95 23.42 69.46 13.92 83.11 C5.52 94.64 -7.3 101.97 -21.08 105.11 C-24.88 105.53 -28.63 105.59 -32.45 105.55 C-33.97 105.54 -33.97 105.54 -35.52 105.52 C-42.99 105.36 -49.3 104.41 -56.08 101.11 C-56.98 100.72 -57.88 100.33 -58.81 99.93 C-72.25 93.51 -82.26 81.4 -87.39 67.58 C-92.48 50.78 -90.97 34.78 -82.97 19.12 C-75.34 5.05 -62.69 -2.81 -47.91 -8 C-31.36 -11.83 -14.33 -8.87 0 0 Z " fill="#808080" transform="translate(207.078125,129.890625)"/>
<path d="M0 0 C12.09 9.05 20.73 21.91 23 37 C24.21 55.55 21.83 71.32 9.49 85.98 C1.33 94.6 -7.6 99.86 -19 103 C-19.9 103.26 -19.9 103.26 -20.82 103.52 C-31.55 105.88 -45.9 105.24 -56 101 C-56.83 100.67 -57.66 100.34 -58.52 100 C-65.46 96.92 -70.65 92.33 -76 87 C-76.85 86.19 -76.85 86.19 -77.71 85.36 C-87.36 75.25 -91.4 61.45 -91.38 47.81 C-91.37 46.89 -91.37 45.97 -91.37 45.02 C-91.23 37.38 -90 31.07 -87 24 C-86.71 23.27 -86.42 22.54 -86.12 21.79 C-80.1 8.17 -68.5 -0.81 -55.27 -6.77 C-36.73 -13.72 -16.42 -10.92 0 0 Z " fill="#808080" transform="translate(444,131)"/>
<path d="M0 0 C0.86 0.33 1.71 0.65 2.59 0.99 C16.1 6.85 25.57 18.78 31.31 32 C36.98 47.36 36.14 63.2 29.49 78.13 C22.48 92.76 10.87 102.52 -4.32 108.18 C-19.42 112.78 -35.86 111.83 -49.94 104.46 C-64.42 95.64 -74.61 83.55 -79.25 67.06 C-82.34 50.99 -79.84 34.79 -71.09 20.88 C-62.39 8.91 -50.12 -0.58 -35.39 -3.6 C-23.07 -5.06 -11.6 -4.81 0 0 Z " fill="#26355E" transform="translate(315,6)"/>
<path d="M0 0 C13.28 9.83 22.35 21.97 25.68 38.38 C28.09 54.57 24.38 70.1 15.37 83.75 C6.65 95.16 -6.47 103.26 -20.63 105.75 C-40.82 107.25 -55.5 104.09 -71.38 91 C-81.69 81.47 -88.13 67.63 -88.89 53.68 C-89.48 36.74 -85.13 21.15 -73.41 8.4 C-53.67 -9.9 -23.27 -15.25 0 0 Z " fill="#808080" transform="translate(323.62890625,129.24609375)"/>
<path d="M0 0 C11.9 9.26 19.94 21.79 22.35 36.81 C23.99 55.27 20.34 71.03 8.45 85.62 C-1.48 96.01 -15.4 103.47 -29.95 104.11 C-47.83 104.35 -63.01 100.2 -76.3 87.45 C-89.51 72.64 -92.95 56.95 -91.88 37.39 C-91.41 32.09 -89.98 27.56 -87.65 22.81 C-87.12 21.64 -87.12 21.64 -86.59 20.45 C-79.95 7.09 -67.6 -3.27 -53.65 -8.19 C-34.82 -13.48 -16.26 -11.71 0 0 Z " fill="#26355E" transform="translate(91.650390625,11.1884765625)"/>
<path d="M0 0 C10.9 9.32 19.87 21.46 22 36 C23.21 54.55 20.84 70.31 8.49 84.98 C-3.1 97.21 -17.76 103.72 -34.56 104.25 C-51.61 104.04 -65.11 98.04 -77 86 C-77.56 85.46 -78.13 84.92 -78.71 84.36 C-90.12 72.43 -92.61 56.98 -92.31 41.21 C-91.74 28.03 -85.74 14.09 -76 5 C-68.61 -1.33 -61.24 -5.92 -52 -9 C-51.28 -9.24 -50.55 -9.49 -49.81 -9.74 C-32.99 -14.4 -13.83 -10.23 0 0 Z " fill="#24325A" transform="translate(445,14)"/>
<path d="M0 0 C13.22 9.46 21.8 23.42 24.54 39.43 C26.32 53.96 23.28 68.95 14.86 81.04 C4.9 93.78 -7.03 102.12 -23.14 105.04 C-39.26 106.59 -54.82 104.4 -67.71 93.97 C-70.26 91.73 -72.72 89.43 -75.14 87.04 C-75.72 86.48 -76.3 85.91 -76.9 85.33 C-86.85 74.7 -90.67 60.2 -90.49 45.97 C-89.99 31.61 -84.33 17.4 -74.3 7 C-53.42 -11.95 -23.99 -14.86 0 0 Z " fill="#26355E" transform="translate(207.14453125,9.95703125)"/>
<path d="M0 0 C7.79 6.41 12.98 13.38 14.13 23.65 C14.48 34.2 12.39 41.41 5.69 49.56 C-0.9 56.49 -8.99 59.76 -18.44 60.5 C-28.75 59.82 -37.42 55.52 -44.56 48.06 C-50.94 39.94 -52.44 30.32 -51.25 20.25 C-49.27 11.18 -43.37 3.56 -35.62 -1.45 C-24.06 -7.46 -10.9 -7.77 0 0 Z " fill="#808080" transform="translate(193.25,150.75)"/>
<path d="M0 0 C5.04 3.61 7.85 7.75 11 13 C11.93 14.55 11.93 14.55 12.88 16.12 C15.71 23.41 15.06 33.11 12.5 40.38 C8.47 48.87 1.84 55.66 -7 59 C-17.03 61.82 -25.96 61.23 -35.12 56.18 C-43.7 50.77 -48.21 43.72 -51 34 C-52.25 23.84 -50.43 14.91 -44.24 6.65 C-32.16 -6.43 -15.37 -8.48 0 0 Z " fill="#26355E" transform="translate(193,30)"/>
<path d="M0 0 C3.65 1.22 3.85 2 5.64 5.29 C6.15 6.2 6.65 7.11 7.18 8.05 C7.99 9.54 7.99 9.54 8.81 11.06 C9.98 13.17 11.14 15.27 12.31 17.38 C12.92 18.47 13.52 19.56 14.14 20.68 C17.13 26.02 20.22 31.29 23.31 36.56 C24.48 38.56 25.64 40.55 26.81 42.54 C29.1 46.46 29.1 46.46 31.39 50.38 C32.56 52.37 33.72 54.37 34.88 56.38 C35.49 57.43 36.11 58.49 36.74 59.59 C38 62 38 62 38 64 C13.58 64 -10.84 64 -36 64 C-34.57 59.72 -33.49 56.81 -31.27 53.08 C-30.72 52.15 -30.17 51.22 -29.61 50.26 C-29.01 49.27 -28.42 48.27 -27.81 47.25 C-26.55 45.11 -25.29 42.97 -24.02 40.83 C-23.04 39.16 -23.04 39.16 -22.03 37.46 C-19.97 33.96 -17.94 30.44 -15.91 26.92 C-15.58 26.34 -15.25 25.76 -14.9 25.16 C-13.29 22.35 -11.68 19.54 -10.06 16.73 C-6.81 11.08 -3.5 5.5 0 0 Z " fill="#BF1D5F" transform="translate(409,137)"/>
<path d="M0 0 C0.66 0 1.32 0 2 0 C2.41 0.72 2.82 1.45 3.25 2.19 C10.66 15.2 18.08 28.19 25.62 41.12 C26.18 42.08 26.73 43.03 27.31 44.01 C30.45 49.38 33.64 54.71 36.91 60 C38 62 38 62 38 64 C13.58 64 -10.84 64 -36 64 C-34.6 60.51 -33.28 57.55 -31.45 54.32 C-30.69 52.98 -30.69 52.98 -29.91 51.6 C-29.36 50.64 -28.82 49.68 -28.25 48.69 C-27.39 47.18 -27.39 47.18 -26.52 45.64 C-20.65 35.34 -14.69 25.09 -8.67 14.87 C-7.47 12.8 -6.28 10.72 -5.1 8.63 C-4.48 7.53 -3.85 6.43 -3.21 5.29 C-2.64 4.28 -2.08 3.27 -1.49 2.23 C-0.75 1.12 -0.75 1.12 0 0 Z " fill="#40E2A0" transform="translate(409,19)"/>
<path d="M0 0 C15.51 0 31.02 0 47 0 C47 15.51 47 31.02 47 47 C31.49 47 15.98 47 0 47 C0 31.49 0 15.98 0 0 Z " fill="#26355E" transform="translate(269,35)"/>
<path d="M0 0 C11.9 9.26 19.97 21.8 22.35 36.81 C23.42 48.33 22.88 59.03 18.35 69.81 C18.05 70.55 17.75 71.3 17.44 72.06 C10.93 86.48 -1.34 95.95 -15.65 101.81 C-30.7 106.49 -47.65 105.04 -61.75 98.34 C-74.81 91.35 -84.61 80.34 -89.52 66.32 C-91.54 59.62 -92.16 53.35 -92.09 46.37 C-92.08 45.37 -92.07 44.36 -92.07 43.32 C-91.91 35.9 -90.95 29.55 -87.65 22.81 C-87.12 21.64 -87.12 21.64 -86.59 20.45 C-79.95 7.09 -67.6 -3.27 -53.65 -8.19 C-34.82 -13.48 -16.26 -11.71 0 0 Z M-56.65 -1.19 C-57.51 -0.78 -58.36 -0.36 -59.24 0.06 C-71.84 6.9 -81.1 18.36 -85.59 31.94 C-88.91 46.29 -87.09 60.18 -79.9 73 C-71.06 86.75 -59.51 94.53 -43.71 98.56 C-26.45 99.97 -12.26 96.11 1.1 84.9 C10.74 75.94 16.65 63.43 17.6 50.38 C18.09 35.5 13.8 22.97 4.16 11.69 C-3.9 3.09 -14.65 -4.35 -26.75 -5.37 C-37.31 -5.65 -46.92 -5.88 -56.65 -1.19 Z " fill="#C0C0C0" transform="translate(91.650390625,131.1884765625)"/>
<path d="M0 0 C13.27 9.58 20.65 21.73 24.51 37.5 C27.12 53.95 23.42 69.46 13.92 83.11 C5.52 94.64 -7.3 101.97 -21.08 105.11 C-24.88 105.53 -28.63 105.59 -32.45 105.55 C-33.97 105.54 -33.97 105.54 -35.52 105.52 C-42.99 105.36 -49.3 104.41 -56.08 101.11 C-56.98 100.72 -57.88 100.33 -58.81 99.93 C-72.25 93.51 -82.26 81.4 -87.39 67.58 C-92.48 50.78 -90.97 34.78 -82.97 19.12 C-75.34 5.05 -62.69 -2.81 -47.91 -8 C-31.36 -11.83 -14.33 -8.87 0 0 Z M-70.08 11.11 C-80.1 23.13 -85.82 35.87 -85.02 51.8 C-83.2 67.57 -76.02 79.84 -64.08 90.11 C-52.74 98.8 -39.11 101.38 -25.08 100.11 C-11.48 97.84 0.82 90.84 9.17 79.86 C17.53 67.7 21.75 54.69 19.42 39.94 C16.28 24.7 8.78 12.75 -4.13 3.87 C-26.43 -9.44 -50.77 -5.57 -70.08 11.11 Z " fill="#C0C0C0" transform="translate(207.078125,129.890625)"/>
<path d="M0 0 C12.09 9.05 20.73 21.91 23 37 C24.21 55.55 21.83 71.32 9.49 85.98 C1.33 94.6 -7.6 99.86 -19 103 C-19.9 103.26 -19.9 103.26 -20.82 103.52 C-31.55 105.88 -45.9 105.24 -56 101 C-56.83 100.67 -57.66 100.34 -58.52 100 C-65.46 96.92 -70.65 92.33 -76 87 C-76.85 86.19 -76.85 86.19 -77.71 85.36 C-87.36 75.25 -91.4 61.45 -91.38 47.81 C-91.37 46.89 -91.37 45.97 -91.37 45.02 C-91.23 37.38 -90 31.07 -87 24 C-86.71 23.27 -86.42 22.54 -86.12 21.79 C-80.1 8.17 -68.5 -0.81 -55.27 -6.77 C-36.73 -13.72 -16.42 -10.92 0 0 Z M-66 6 C-66.65 6.47 -67.31 6.95 -67.98 7.43 C-77.79 15.08 -83.68 26.97 -86 39 C-87.67 54.22 -84.44 67.76 -75 80 C-65.24 91.89 -52.27 98.35 -37 100 C-23.05 100.37 -9.96 95.83 0.63 86.74 C11.31 76.57 17.85 64.63 18.47 49.69 C18.66 34.88 13.72 21.71 3.76 10.66 C-6.62 0.88 -19.55 -4.74 -33.81 -5.44 C-45.81 -4.97 -56.49 -1.27 -66 6 Z " fill="#C0C0C0" transform="translate(444,131)"/>
<path d="M0 0 C0.86 0.33 1.71 0.65 2.59 0.99 C16.1 6.85 25.57 18.78 31.31 32 C36.98 47.36 36.14 63.2 29.49 78.13 C22.48 92.76 10.87 102.52 -4.32 108.18 C-19.42 112.78 -35.86 111.83 -49.94 104.46 C-64.42 95.64 -74.61 83.55 -79.25 67.06 C-82.34 50.99 -79.84 34.79 -71.09 20.88 C-62.39 8.91 -50.12 -0.58 -35.39 -3.6 C-23.07 -5.06 -11.6 -4.81 0 0 Z M-61 17 C-71.25 29.35 -76.05 42.9 -75 59 C-72.89 72.83 -66.54 84.77 -56 94 C-43.03 103.41 -29.83 106.54 -14 105 C-0.24 102.43 11.45 95.12 20 84 C28.8 70.34 31.24 55.31 28.35 39.41 C24.13 25.62 15.08 14.37 2.59 7.32 C-19.88 -4.12 -42.46 0.46 -61 17 Z " fill="#1F2B4D" transform="translate(315,6)"/>
<path d="M0 0 C13.28 9.83 22.35 21.97 25.68 38.38 C28.09 54.57 24.38 70.1 15.37 83.75 C6.65 95.16 -6.47 103.26 -20.63 105.75 C-40.82 107.25 -55.5 104.09 -71.38 91 C-81.69 81.47 -88.13 67.63 -88.89 53.68 C-89.48 36.74 -85.13 21.15 -73.41 8.4 C-53.67 -9.9 -23.27 -15.25 0 0 Z M-69.63 12.75 C-79.88 25.11 -84.68 38.65 -83.63 54.75 C-81.52 68.59 -75.17 80.52 -64.63 89.75 C-51.66 99.17 -38.46 102.29 -22.63 100.75 C-8.87 98.18 2.82 90.88 11.37 79.75 C20.18 66.1 22.61 51.07 19.72 35.17 C15.5 21.38 6.46 10.13 -6.04 3.07 C-28.51 -8.37 -51.09 -3.79 -69.63 12.75 Z " fill="#C0C0C0" transform="translate(323.62890625,129.24609375)"/>
<path d="M0 0 C11.9 9.26 19.94 21.79 22.35 36.81 C23.99 55.27 20.34 71.03 8.45 85.62 C-1.48 96.01 -15.4 103.47 -29.95 104.11 C-47.83 104.35 -63.01 100.2 -76.3 87.45 C-89.51 72.64 -92.95 56.95 -91.88 37.39 C-91.41 32.09 -89.98 27.56 -87.65 22.81 C-87.12 21.64 -87.12 21.64 -86.59 20.45 C-79.95 7.09 -67.6 -3.27 -53.65 -8.19 C-34.82 -13.48 -16.26 -11.71 0 0 Z M-56.65 -1.19 C-57.51 -0.78 -58.36 -0.36 -59.24 0.06 C-71.84 6.9 -81.1 18.36 -85.59 31.94 C-88.91 46.29 -87.09 60.18 -79.9 73 C-71.06 86.75 -59.51 94.53 -43.71 98.56 C-26.45 99.97 -12.26 96.11 1.1 84.9 C10.74 75.94 16.65 63.43 17.6 50.38 C18.09 35.5 13.8 22.97 4.16 11.69 C-3.9 3.09 -14.65 -4.35 -26.75 -5.37 C-37.31 -5.65 -46.92 -5.88 -56.65 -1.19 Z " fill="#1F2B4D" transform="translate(91.650390625,11.1884765625)"/>
<path d="M0 0 C13.22 9.46 21.8 23.42 24.54 39.43 C26.32 53.96 23.28 68.95 14.86 81.04 C4.9 93.78 -7.03 102.12 -23.14 105.04 C-39.26 106.59 -54.82 104.4 -67.71 93.97 C-70.26 91.73 -72.72 89.43 -75.14 87.04 C-75.72 86.48 -76.3 85.91 -76.9 85.33 C-86.85 74.7 -90.67 60.2 -90.49 45.97 C-89.99 31.61 -84.33 17.4 -74.3 7 C-53.42 -11.95 -23.99 -14.86 0 0 Z M-70.14 11.04 C-80.17 23.06 -85.89 35.81 -85.08 51.73 C-83.27 67.5 -76.09 79.77 -64.14 90.04 C-52.81 98.73 -39.17 101.31 -25.14 100.04 C-11.55 97.77 0.75 90.77 9.11 79.79 C17.46 67.63 21.68 54.62 19.36 39.88 C16.21 24.63 8.71 12.68 -4.2 3.8 C-26.5 -9.51 -50.84 -5.64 -70.14 11.04 Z " fill="#1F2B4D" transform="translate(207.14453125,9.95703125)"/>
<path d="M0 0 C7.74 5.74 13.27 14.28 15.32 23.72 C16.18 37.97 15.32 49.17 5.65 60.43 C-2.61 68.56 -12.54 72.63 -24.05 73.16 C-35.69 72.76 -46.47 68.3 -54.49 59.81 C-62.88 49.3 -64.86 37.83 -63.68 24.72 C-61.41 14.19 -55.73 5.53 -47.05 -0.77 C-32.08 -10.27 -14.78 -9.43 0 0 Z M-49.93 11.97 C-55.6 19.07 -57.39 26.49 -57.05 35.48 C-55.95 45.01 -52.09 52.56 -44.68 58.72 C-36.38 63.84 -28.15 67.27 -18.29 65.23 C-7.75 62.37 0.04 56.98 5.64 47.48 C9.61 39 9.89 29.16 6.76 20.35 C2.63 11.54 -4.64 4.53 -13.71 0.91 C-27.76 -3.11 -40.16 1.62 -49.93 11.97 Z " fill="#009999" transform="translate(198.6796875,145.27734375)"/>
<path d="M0 0 C8.76 6.35 15.33 14.77 17.5 25.49 C18.88 37.29 17.95 47.92 10.82 57.82 C9.14 59.84 7.4 61.68 5.5 63.49 C5.01 63.97 4.51 64.45 4 64.95 C-4.27 72.39 -14.06 74.89 -25 74.37 C-37.56 73.08 -46.92 67.21 -54.96 57.64 C-61.89 47.95 -62.46 37.01 -61.5 25.49 C-59.36 14.78 -52.73 6.33 -43.99 0 C-30.6 -8.09 -13.39 -8.09 0 0 Z M-48.5 14.49 C-53.85 23 -55.31 30.5 -54.5 40.49 C-52.06 50.47 -46.33 57.97 -37.65 63.31 C-29.09 68.01 -20.68 68.17 -11.43 65.57 C-2.21 62.19 4.68 55.82 8.88 46.99 C11.66 39.25 11.99 30.85 9.33 23.04 C6.8 17.74 4.09 13.26 -0.5 9.49 C-1.22 8.81 -1.94 8.13 -2.68 7.43 C-18.31 -3.33 -36.4 0.46 -48.5 14.49 Z " fill="#FF6666" transform="translate(196.49609375,23.5078125)"/>
<path d="M0 0 C20.13 0 40.26 0 61 0 C61 20.13 61 40.26 61 61 C40.87 61 20.74 61 0 61 C0 40.87 0 20.74 0 0 Z M7 7 C7 22.51 7 38.02 7 54 C22.51 54 38.02 54 54 54 C54 38.49 54 22.98 54 7 C38.49 7 22.98 7 7 7 Z " fill="#009607" transform="translate(262,147)"/>
<path d="M0 0 C20.13 0 40.26 0 61 0 C61 20.13 61 40.26 61 61 C40.87 61 20.74 61 0 61 C0 40.87 0 20.74 0 0 Z M7 7 C7 22.51 7 38.02 7 54 C22.51 54 38.02 54 54 54 C54 38.49 54 22.98 54 7 C38.49 7 22.98 7 7 7 Z " fill="#FF69F8" transform="translate(262,28)"/>
<path d="M0 0 C3.86 1.58 6.29 4.06 9.2 7.01 C9.69 7.49 10.17 7.98 10.67 8.48 C12.2 10.02 13.72 11.57 15.25 13.12 C16.29 14.18 17.33 15.23 18.38 16.28 C20.92 18.85 23.46 21.42 26 24 C30.05 20.66 33.83 17.22 37.48 13.44 C38.25 12.64 39.02 11.85 39.82 11.03 C41.42 9.36 43.01 7.69 44.59 6.02 C45.36 5.23 46.13 4.44 46.92 3.63 C47.61 2.91 48.3 2.19 49 1.44 C51 0 51 0 53.13 0.15 C55 1 55 1 57 3 C56.87 7.24 53.73 9.66 50.87 12.42 C50.36 12.93 49.85 13.43 49.33 13.95 C47.71 15.56 46.07 17.15 44.44 18.75 C43.33 19.84 42.23 20.93 41.13 22.02 C38.43 24.69 35.72 27.35 33 30 C37.82 35.81 43.01 41.13 48.38 46.44 C49.21 47.26 50.04 48.09 50.89 48.94 C52.93 50.96 54.96 52.98 57 55 C55.63 58.16 55.01 58.99 52 61 C44.08 53.08 36.16 45.16 28 37 C24 39 21.91 40.86 18.8 44.01 C18.31 44.49 17.83 44.98 17.33 45.48 C15.8 47.02 14.28 48.57 12.75 50.12 C11.71 51.18 10.67 52.23 9.62 53.28 C7.08 55.85 4.54 58.42 2 61 C-1.78 59.49 -2.01 58.99 -4 55 C3.92 47.08 11.84 39.16 20 31 C18 27 16.14 24.91 12.99 21.8 C12.51 21.31 12.02 20.83 11.52 20.33 C9.98 18.8 8.43 17.28 6.88 15.75 C5.82 14.71 4.77 13.67 3.72 12.62 C1.15 10.08 -1.42 7.54 -4 5 C-2.68 3.35 -1.36 1.7 0 0 Z " fill="#834D17" transform="translate(30,148)"/>
<path d="M0 0 C3.85 1.28 4.13 2.52 6.04 6.04 C6.62 7.09 7.19 8.14 7.79 9.22 C8.7 10.9 8.7 10.9 9.62 12.62 C10.88 14.91 12.13 17.2 13.39 19.48 C14 20.6 14.62 21.71 15.25 22.86 C17.88 27.57 20.66 32.18 23.51 36.76 C26 40.8 26 40.8 26 43 C9.5 43 -7 43 -24 43 C-22.5 39.24 -20.98 36 -19.02 32.5 C-18.44 31.45 -17.85 30.41 -17.25 29.33 C-16.63 28.23 -16.01 27.13 -15.38 26 C-14.75 24.88 -14.12 23.76 -13.47 22.61 C-9.16 14.96 -4.74 7.4 0 0 Z " fill="#26355E" transform="translate(409,34)"/>
<path d="M0 0 C0.66 0 1.32 0 2 0 C5.2 5.61 8.41 11.21 11.61 16.82 C11.96 17.42 12.3 18.03 12.66 18.66 C13.37 19.89 14.07 21.13 14.78 22.36 C16.62 25.58 18.46 28.8 20.32 32.02 C20.69 32.66 21.06 33.31 21.44 33.98 C22.16 35.21 22.87 36.45 23.59 37.69 C26 41.89 26 41.89 26 43 C9.5 43 -7 43 -24 43 C-19.64 34.28 -15.33 25.87 -10.31 17.56 C-9.2 15.71 -8.1 13.86 -6.99 12 C-6.48 11.15 -5.96 10.29 -5.44 9.41 C-3.58 6.3 -1.78 3.16 0 0 Z " fill="#808080" transform="translate(409,151)"/>
<path d="M0 0 C3.86 1.58 6.29 4.06 9.2 7.01 C9.69 7.49 10.17 7.98 10.67 8.48 C12.2 10.02 13.72 11.57 15.25 13.12 C16.29 14.18 17.33 15.23 18.38 16.28 C20.92 18.85 23.46 21.42 26 24 C29.86 22.42 32.29 19.94 35.2 16.99 C35.93 16.26 35.93 16.26 36.67 15.52 C38.2 13.98 39.72 12.43 41.25 10.88 C42.29 9.82 43.33 8.77 44.38 7.72 C46.92 5.15 49.46 2.58 52 0 C54.47 1.98 54.47 1.98 57 4 C55.42 7.86 52.94 10.29 49.99 13.2 C49.26 13.93 49.26 13.93 48.52 14.67 C46.98 16.2 45.43 17.72 43.88 19.25 C42.82 20.29 41.77 21.33 40.72 22.38 C38.15 24.92 35.58 27.46 33 30 C36.34 34.05 39.78 37.83 43.56 41.48 C44.36 42.25 45.15 43.02 45.97 43.82 C47.64 45.42 49.31 47.01 50.98 48.59 C51.77 49.36 52.56 50.13 53.37 50.92 C54.09 51.61 54.81 52.3 55.56 53 C57 55 57 55 56.98 57.13 C56 59 56 59 52 61 C44.08 53.08 36.16 45.16 28 37 C24 39 21.91 40.86 18.8 44.01 C18.31 44.49 17.83 44.98 17.33 45.48 C15.8 47.02 14.28 48.57 12.75 50.12 C11.71 51.18 10.67 52.23 9.62 53.28 C7.08 55.85 4.54 58.42 2 61 C-1.16 59.63 -1.99 59.01 -4 56 C4.25 47.75 12.5 39.5 21 31 C17.45 26.86 14.09 22.97 10.26 19.16 C9.42 18.33 8.58 17.49 7.72 16.63 C6.86 15.78 6.01 14.94 5.12 14.06 C4.25 13.19 3.37 12.31 2.46 11.41 C0.31 9.27 -1.84 7.14 -4 5 C-2.68 3.35 -1.36 1.7 0 0 Z " fill="#7CB2E8" transform="translate(30,27)"/>
</svg>
