<?xml version="1.0" encoding="UTF-8"?>
<!-- Generator: visioncortex VTracer 0.6.3 -->
<svg version="1.1" xmlns="http://www.w3.org/2000/svg" width="806" height="599">
<path d="M0 0 C2.61 1.21 2.61 1.21 6.43 0.96 C6.43 1.62 6.43 2.28 6.43 2.96 C7.33 3.06 8.24 3.17 9.18 3.27 C12.59 4 13.97 4.55 16.43 6.96 C17.04 9.66 17.04 9.66 17.18 12.65 C17.23 13.64 17.29 14.64 17.35 15.66 C17.39 16.8 17.39 16.8 17.43 17.96 C18.09 18.13 18.75 18.3 19.44 18.48 C24.74 19.93 28.18 21.4 32.43 24.96 C37.97 26.95 43.11 27.32 48.97 27.45 C50.31 27.48 50.31 27.48 51.68 27.52 C53.55 27.57 55.43 27.61 57.31 27.65 C60.18 27.71 63.06 27.79 65.93 27.88 C67.76 27.92 69.58 27.97 71.41 28.01 C72.27 28.03 73.13 28.06 74.01 28.09 C79.02 28.19 79.02 28.19 83.43 25.96 C85.44 25.71 85.44 25.71 87.8 25.71 C88.7 25.7 89.59 25.69 90.52 25.69 C92 25.69 92 25.69 93.52 25.7 C94.57 25.7 95.61 25.69 96.7 25.69 C100.23 25.68 103.76 25.68 107.29 25.69 C109.82 25.68 112.35 25.68 114.87 25.67 C121.03 25.66 127.19 25.66 133.35 25.66 C138.36 25.66 143.36 25.66 148.37 25.65 C149.08 25.65 149.79 25.65 150.52 25.65 C151.97 25.65 153.41 25.65 154.86 25.65 C168.42 25.64 181.99 25.64 195.56 25.65 C207.97 25.65 220.39 25.64 232.8 25.62 C245.55 25.6 258.29 25.59 271.03 25.6 C278.19 25.6 285.34 25.6 292.5 25.58 C299.23 25.57 305.96 25.57 312.68 25.59 C315.16 25.59 317.63 25.58 320.1 25.58 C323.47 25.57 326.84 25.57 330.21 25.59 C331.19 25.58 332.18 25.57 333.2 25.56 C334.1 25.57 335 25.58 335.93 25.59 C336.71 25.59 337.48 25.59 338.28 25.59 C340.97 26.06 342.38 27.21 344.43 28.96 C344.76 28.3 345.09 27.64 345.43 26.96 C347.1 26.98 347.1 26.98 348.8 26.99 C352.96 27.03 357.12 27.05 361.28 27.07 C363.07 27.08 364.87 27.09 366.66 27.11 C369.25 27.14 371.84 27.15 374.43 27.16 C375.22 27.17 376.02 27.18 376.84 27.19 C382.66 27.19 388.11 26.9 392.74 23.02 C396.66 20.02 400.67 19.23 405.43 17.96 C405.76 13.67 406.09 9.38 406.43 4.96 C407.75 4.63 409.07 4.3 410.43 3.96 C411.57 3.58 412.72 3.2 413.89 2.8 C414.55 2.59 415.2 2.37 415.88 2.14 C417.22 1.7 418.55 1.24 419.88 0.78 C442.27 -6.56 475.18 -4.24 496.43 5.96 C496.76 6.62 497.09 7.28 497.43 7.96 C499.42 8.3 501.42 8.63 503.43 8.96 C504.09 9.62 504.75 10.28 505.43 10.96 C505.76 10.96 506.09 10.96 506.43 10.96 C506.76 13.93 507.09 16.9 507.43 19.96 C508.14 20.18 508.85 20.4 509.58 20.62 C512.34 21.58 514.88 22.54 517.43 23.96 C518.43 26.96 518.43 26.96 518.43 29.96 C519.52 32.59 520.39 33.93 522.43 35.96 C522.74 36.81 523.04 37.65 523.36 38.52 C523.71 39.33 524.06 40.13 524.43 40.96 C525.42 41.29 526.41 41.62 527.43 41.96 C528.61 45.02 528.61 45.02 529.43 47.96 C530.09 47.96 530.75 47.96 531.43 47.96 C531.43 48.95 531.43 49.94 531.43 50.96 C532.09 51.29 532.75 51.62 533.43 51.96 C533.43 52.95 533.43 53.94 533.43 54.96 C534.09 55.29 534.75 55.62 535.43 55.96 C536.13 57.27 536.79 58.61 537.43 59.96 C539.25 63.2 541.09 66.42 543.05 69.59 C544.45 72 545.4 74.37 546.43 76.96 C547.47 79.05 548.54 81.12 549.62 83.19 C550.43 84.96 550.43 84.96 550.43 86.96 C551.09 86.96 551.75 86.96 552.43 86.96 C552.55 87.6 552.67 88.24 552.79 88.89 C553.04 90.13 553.04 90.13 553.3 91.4 C553.46 92.22 553.63 93.05 553.79 93.89 C554 94.58 554.21 95.26 554.43 95.96 C555.09 96.29 555.75 96.62 556.43 96.96 C557.17 99.25 557.17 99.25 557.86 102.15 C558.96 106.43 560.33 110.05 562.43 113.96 C565.82 123.45 567.53 133.38 569.29 143.27 C570.12 147.75 571.29 151.92 572.86 156.19 C573.59 158.49 573.66 160.57 573.43 162.96 C574.09 163.29 574.75 163.62 575.43 163.96 C577.23 168.47 578.43 173.21 578.99 178.02 C579.13 178.99 579.28 179.96 579.43 180.96 C580.09 181.29 580.75 181.62 581.43 181.96 C581.8 183.95 582.12 185.96 582.43 187.96 C582.76 188.95 583.09 189.94 583.43 190.96 C584.43 193.96 584.43 193.96 584.93 197.09 C585.26 199.9 585.26 199.9 586.49 201.9 C587.86 204.91 587.55 207.7 587.43 210.96 C588.09 211.29 588.75 211.62 589.43 211.96 C589.83 213.95 590.14 215.95 590.43 217.96 C592.43 228.69 594.73 239.38 597.43 249.96 C597.59 250.87 597.76 251.78 597.93 252.71 C598.31 254.96 598.31 254.96 599.43 256.73 C600.68 259.53 600.74 261.83 600.86 264.9 C601.23 270.73 602.26 276.1 603.67 281.76 C604.65 285.89 605.3 290.05 605.96 294.25 C606.36 296.6 606.87 298.85 607.49 301.15 C608.17 303.93 608.61 306.28 608.86 309.09 C609.23 313.02 610.03 316.74 610.93 320.59 C612.38 327.06 612.92 333.27 613.21 339.88 C613.3 343 613.3 343 614.43 345.96 C614.53 348.48 614.58 350.97 614.59 353.49 C614.59 354.25 614.6 355.02 614.6 355.8 C614.62 358.34 614.62 360.87 614.63 363.4 C614.63 365.17 614.64 366.93 614.65 368.7 C614.66 372.4 614.66 376.11 614.67 379.82 C614.67 384.55 614.7 389.27 614.72 394 C614.74 397.65 614.75 401.3 614.75 404.95 C614.75 406.7 614.76 408.44 614.77 410.18 C614.89 426.69 614.89 426.69 612.07 434.08 C611.24 436.17 611.24 436.17 611.43 439.4 C611.43 441.96 611.43 441.96 609.99 443.46 C609.47 443.96 608.96 444.45 608.43 444.96 C608.28 445.87 608.14 446.78 607.99 447.71 C607.41 451.05 606.23 453.17 604.47 456.03 C602.94 458.87 602.11 461.85 601.23 464.95 C600.32 467.21 599.21 468.32 597.43 469.96 C597.12 470.6 596.81 471.24 596.49 471.9 C595.19 474.42 593.45 476 591.43 477.96 C589.49 480.73 589.49 480.73 588.43 482.96 C587.77 482.96 587.11 482.96 586.43 482.96 C586.1 483.62 585.77 484.28 585.43 484.96 C584.44 485.29 583.45 485.62 582.43 485.96 C582.43 486.62 582.43 487.28 582.43 487.96 C581.83 488.06 581.23 488.17 580.61 488.27 C578.34 488.8 578.34 488.8 576.86 490.52 C576.39 491 575.91 491.47 575.43 491.96 C574.44 491.96 573.45 491.96 572.43 491.96 C572.43 492.62 572.43 493.28 572.43 493.96 C571.91 494.04 571.39 494.13 570.86 494.21 C568.22 494.92 568.22 494.92 565.36 496.84 C560.71 499.6 555.64 500.71 550.43 501.96 C549.84 502.13 549.26 502.31 548.66 502.48 C543.45 503.6 537.97 503.23 532.68 503.27 C531.43 503.3 530.17 503.33 528.89 503.36 C521.5 503.41 516.71 502.9 510.43 498.96 C509.1 498.28 507.77 497.61 506.43 496.96 C503.76 495.63 501.09 494.29 498.43 492.96 C497 492.28 497 492.28 495.55 491.59 C491.99 489.74 489.25 487.79 486.43 484.96 C483.42 482.36 480.61 480.07 477.24 477.96 C474.26 475.84 473.14 474.14 471.43 470.96 C470.05 469.42 470.05 469.42 468.43 467.96 C466.72 466.33 465.05 464.67 463.43 462.96 C463.43 462.3 463.43 461.64 463.43 460.96 C462.81 460.34 462.19 459.72 461.55 459.09 C458.72 456.25 457.68 453.72 456.43 449.96 C455.77 449.63 455.11 449.3 454.43 448.96 C453.69 447.32 452.96 445.67 452.29 444 C451.4 441.91 450.42 439.9 449.38 437.88 C449.03 437.2 448.68 436.51 448.32 435.8 C447.59 434.39 446.86 432.98 446.12 431.57 C443.43 426.29 443.43 426.29 443.43 422.96 C442.77 422.63 442.11 422.3 441.43 421.96 C437.99 416.28 435.7 410.13 433.53 403.88 C432.3 400.63 430.86 397.54 429.36 394.4 C427.61 390.68 426.07 387.12 424.99 383.15 C423.54 377.83 421.31 372.93 419.03 367.93 C416.81 363.04 415.05 358.08 413.43 352.96 C412.68 350.64 411.93 348.33 411.18 346.02 C410.67 344.47 410.17 342.91 409.68 341.36 C408.32 337.21 406.83 333.64 404.43 329.96 C404.14 329.24 403.85 328.52 403.55 327.77 C401.97 325.23 400.23 324.85 397.43 323.96 C396.44 323.63 395.45 323.3 394.43 322.96 C394.18 323.6 393.93 324.24 393.68 324.9 C392.43 326.96 392.43 326.96 390.49 327.52 C389.81 327.67 389.13 327.81 388.43 327.96 C386.55 329.56 385.53 330.76 384.43 332.96 C382.43 333.64 380.43 334.31 378.43 334.96 C377.68 335.41 376.94 335.87 376.18 336.34 C369.71 340.16 362.7 342.27 355.43 343.96 C354.44 344.46 354.44 344.46 353.43 344.96 C351.25 345.05 349.07 345.07 346.89 345.06 C345.58 345.06 344.28 345.05 342.94 345.05 C341.56 345.04 340.18 345.03 338.8 345.02 C337.41 345.02 336.02 345.01 334.64 345.01 C331.23 345 327.83 344.98 324.43 344.96 C324.43 344.3 324.43 343.64 324.43 342.96 C323.11 343.29 321.79 343.62 320.43 343.96 C320.43 343.3 320.43 342.64 320.43 341.96 C319.58 341.84 318.73 341.71 317.86 341.59 C312.08 340.53 307.4 339.1 302.43 335.96 C301.52 335.61 300.61 335.26 299.68 334.9 C297.43 333.96 297.43 333.96 296.43 331.96 C295.1 331.28 293.77 330.61 292.43 329.96 C291.77 329.3 291.11 328.64 290.43 327.96 C289.72 327.47 289.02 326.97 288.3 326.46 C287.68 325.97 287.06 325.47 286.43 324.96 C286.43 324.3 286.43 323.64 286.43 322.96 C281.5 323.05 276.57 323.16 271.64 323.28 C269.96 323.32 268.28 323.35 266.61 323.38 C264.2 323.43 261.79 323.49 259.38 323.55 C258.25 323.56 258.25 323.56 257.1 323.58 C253.36 323.69 251.61 323.84 248.43 325.96 C245.28 326.21 245.28 326.21 241.34 326.2 C240.62 326.21 239.91 326.21 239.17 326.21 C236.79 326.21 234.42 326.2 232.05 326.19 C230.4 326.19 228.76 326.19 227.11 326.19 C223.65 326.19 220.2 326.18 216.75 326.17 C212.32 326.15 207.89 326.15 203.46 326.15 C200.06 326.15 196.66 326.14 193.26 326.13 C191.62 326.13 189.99 326.13 188.36 326.13 C186.07 326.13 183.79 326.12 181.51 326.11 C180.21 326.1 178.91 326.1 177.58 326.09 C174.43 325.96 174.43 325.96 171.43 324.96 C171.43 324.3 171.43 323.64 171.43 322.96 C159.88 322.96 148.33 322.96 136.43 322.96 C136.1 323.95 135.77 324.94 135.43 325.96 C134.09 326.63 132.76 327.29 131.43 327.96 C130.41 329.28 129.41 330.62 128.43 331.96 C127.77 331.96 127.11 331.96 126.43 331.96 C125.77 332.62 125.11 333.28 124.43 333.96 C121.74 336.2 119.78 337.15 116.43 337.96 C115.62 338.46 114.82 338.95 113.99 339.46 C111.35 341.01 109.41 341.44 106.43 341.96 C105.68 342.29 104.94 342.62 104.18 342.96 C96.54 345.74 87.87 345.09 79.86 345.02 C78.76 345.02 77.66 345.01 76.52 345.01 C73.82 345 71.12 344.98 68.43 344.96 C68.43 344.3 68.43 343.64 68.43 342.96 C67.11 343.29 65.79 343.62 64.43 343.96 C64.43 343.3 64.43 342.64 64.43 341.96 C63.37 341.82 62.32 341.67 61.24 341.52 C58.27 341.09 55.36 340.58 52.43 339.96 C52.43 339.3 52.43 338.64 52.43 337.96 C51.66 337.82 50.9 337.67 50.11 337.52 C47.43 336.96 47.43 336.96 44.43 335.96 C44.43 335.3 44.43 334.64 44.43 333.96 C43.66 333.84 42.9 333.71 42.11 333.59 C38.16 332.67 36.67 331.32 34.43 327.96 C33.75 327.8 33.06 327.63 32.36 327.46 C31.72 327.3 31.08 327.13 30.43 326.96 C30.1 325.97 29.77 324.98 29.43 323.96 C25.25 324.06 22.83 325.09 19.8 327.84 C15.68 332.26 14.18 337.28 12.43 342.96 C11.92 344.32 11.4 345.67 10.86 347.02 C9.78 349.89 8.89 352.77 8.05 355.71 C6.3 361.66 3.88 367.27 1.43 372.96 C-2.1 381.17 -2.1 381.17 -5.07 389.59 C-6.4 393.75 -8.3 397.47 -10.31 401.34 C-12.06 404.96 -13.35 408.7 -14.67 412.49 C-15.75 415.44 -17.15 418.17 -18.57 420.96 C-19.27 422.95 -19.95 424.95 -20.57 426.96 C-21.23 426.96 -21.89 426.96 -22.57 426.96 C-22.7 427.53 -22.83 428.1 -22.96 428.69 C-23.59 431.02 -24.44 433.08 -25.45 435.27 C-26.76 438.14 -27.99 441.02 -29.14 443.96 C-29.61 444.95 -30.09 445.94 -30.57 446.96 C-31.56 447.29 -32.55 447.62 -33.57 447.96 C-34.31 449.94 -34.97 451.94 -35.57 453.96 C-36.23 454.95 -36.89 455.94 -37.57 456.96 C-37.9 457.62 -38.23 458.28 -38.57 458.96 C-39.5 460.11 -39.5 460.11 -40.45 461.27 C-42.62 463.88 -42.62 463.88 -44.14 466.71 C-45.57 468.96 -45.57 468.96 -48.57 469.96 C-48.86 470.54 -49.15 471.12 -49.45 471.71 C-51.5 475.8 -54.82 478.46 -58.57 480.96 C-60.3 482.62 -61.93 484.34 -63.57 486.09 C-65.57 487.96 -65.57 487.96 -68.57 488.96 C-68.9 489.62 -69.23 490.28 -69.57 490.96 C-71.91 491.29 -74.24 491.63 -76.57 491.96 C-76.9 492.62 -77.23 493.28 -77.57 493.96 C-81.07 496.23 -84.62 498.5 -88.7 499.46 C-90.8 499.85 -90.8 499.85 -92.57 501.96 C-99.25 503.46 -106.08 503.22 -112.89 503.27 C-114.17 503.3 -115.45 503.33 -116.77 503.36 C-124.44 503.41 -129.85 502.62 -136.57 498.96 C-137.67 498.61 -138.76 498.26 -139.89 497.9 C-142.62 496.94 -144.3 495.71 -146.57 493.96 C-148.6 493.31 -148.6 493.31 -150.57 492.96 C-153.63 491.94 -154.76 490.88 -156.93 488.61 C-159.04 486.5 -161.27 484.56 -163.51 482.59 C-175.2 472.08 -175.2 472.08 -175.57 465.96 C-176.56 465.63 -177.55 465.3 -178.57 464.96 C-179.64 462.21 -179.64 462.21 -180.57 458.96 C-181.23 457.29 -181.9 455.62 -182.57 453.96 C-188.68 438.94 -191.74 425.3 -191.71 409.13 C-191.71 408.11 -191.71 407.09 -191.71 406.03 C-191.71 402.74 -191.71 399.44 -191.7 396.15 C-191.7 395.02 -191.69 393.9 -191.69 392.74 C-191.67 385.14 -191.63 377.55 -191.57 369.96 C-191.57 369.16 -191.56 368.35 -191.56 367.53 C-191.4 350 -189.68 333.04 -186.93 315.75 C-186.52 312.99 -186.52 312.99 -186.58 310.28 C-186.57 307.96 -186.57 307.96 -185.57 304.96 C-184.87 302.19 -184.18 299.43 -183.51 296.65 C-183.33 295.9 -183.14 295.15 -182.95 294.38 C-181.92 290.12 -181.52 286.37 -181.57 281.96 C-180.95 279.21 -180.95 279.21 -180.14 276.52 C-178.72 271.58 -177.87 266.79 -177.33 261.68 C-177.25 260.88 -177.16 260.09 -177.07 259.27 C-177 258.55 -176.93 257.82 -176.86 257.07 C-176.4 253.64 -175.42 250.37 -174.42 247.06 C-174.2 246.34 -173.98 245.61 -173.76 244.86 C-173.3 243.35 -172.85 241.84 -172.39 240.34 C-171.16 236.22 -170.19 232.22 -169.57 227.96 C-169.24 226.13 -168.91 224.29 -168.57 222.46 C-167.87 218.63 -167.2 214.8 -166.57 210.96 C-165.91 210.96 -165.25 210.96 -164.57 210.96 C-164.77 210.38 -164.96 209.79 -165.16 209.19 C-165.73 206.11 -164.56 203.99 -163.39 201.16 C-162.58 198.97 -162.08 196.88 -161.64 194.59 C-160.95 191.21 -159.93 188.25 -158.57 185.09 C-157.07 181.51 -156.17 178.23 -155.57 174.4 C-155.01 170.85 -154.26 167.94 -152.7 164.71 C-148.49 155.94 -146.62 145.97 -145 136.44 C-143.88 129.89 -142.23 123.57 -140.26 117.22 C-139.63 115.15 -139.09 113.07 -138.57 110.96 C-137.28 106.71 -135.56 102.93 -133.57 98.96 C-133.23 97.63 -132.9 96.3 -132.57 94.96 C-131.08 91.19 -129.49 87.74 -127.39 84.27 C-125.25 81.01 -125.25 81.01 -125.57 76.96 C-124.58 76.63 -123.59 76.3 -122.57 75.96 C-120.34 71.66 -120.34 71.66 -119.57 66.96 C-119.08 66.49 -118.58 66.01 -118.07 65.52 C-116.23 63.96 -116.23 63.96 -116.57 60.96 C-115.26 59.61 -113.93 58.27 -112.57 56.96 C-111.87 55.65 -111.2 54.31 -110.57 52.96 C-109.91 51.58 -109.24 50.21 -108.57 48.84 C-108.24 48.15 -107.91 47.47 -107.57 46.77 C-105.99 43.91 -103.49 41.78 -101.07 39.61 C-99.34 37.71 -98.55 35.96 -97.57 33.59 C-93.51 24.1 -93.51 24.1 -88.57 20.96 C-87.87 20.71 -87.17 20.47 -86.45 20.21 C-84.19 19 -84.19 19 -83.64 15.59 C-82.38 11.29 -81.32 10.29 -77.57 7.96 C-75.26 6.91 -72.93 5.91 -70.57 4.96 C-69.63 4.45 -68.68 3.93 -67.7 3.4 C-63.7 1.56 -59.89 0.74 -55.57 -0.04 C-54.66 -0.23 -53.74 -0.41 -52.8 -0.61 C-37.84 -3.25 -14.37 -5.8 0 0 Z " fill="#F8B645" transform="translate(191.57421875,96.0390625)"/>
<path d="M0 0 C1.05 -0.01 2.1 -0.01 3.18 -0.02 C6.71 -0.03 10.24 -0.02 13.76 -0.02 C16.29 -0.02 18.82 -0.03 21.34 -0.04 C27.5 -0.05 33.65 -0.06 39.8 -0.05 C44.8 -0.05 49.8 -0.05 54.8 -0.05 C55.87 -0.05 55.87 -0.05 56.95 -0.05 C58.4 -0.06 59.84 -0.06 61.29 -0.06 C74.84 -0.07 88.39 -0.07 101.95 -0.06 C114.35 -0.05 126.75 -0.06 139.15 -0.08 C151.89 -0.11 164.62 -0.12 177.35 -0.11 C184.5 -0.11 191.65 -0.11 198.8 -0.13 C205.52 -0.14 212.24 -0.14 218.96 -0.12 C221.43 -0.12 223.9 -0.12 226.37 -0.13 C229.74 -0.14 233.1 -0.13 236.46 -0.11 C237.45 -0.12 238.43 -0.13 239.45 -0.14 C245.96 -0.07 245.96 -0.07 249.28 2.07 C251 4.94 251.16 6.68 251.15 10.02 C251.15 11.16 251.15 12.31 251.16 13.49 C251.14 14.74 251.13 16 251.11 17.29 C251.11 18.63 251.11 19.97 251.11 21.3 C251.1 24.93 251.07 28.56 251.04 32.19 C251.01 35.23 250.99 38.26 250.98 41.3 C250.94 48.46 250.89 55.62 250.82 62.78 C250.75 70.16 250.71 77.54 250.69 84.92 C250.67 91.26 250.63 97.6 250.57 103.94 C250.54 107.72 250.51 111.51 250.51 115.29 C250.5 118.85 250.46 122.42 250.41 125.98 C250.39 127.9 250.4 129.82 250.4 131.74 C250.27 138.8 249.78 144.22 244.67 149.39 C238.55 153.19 232.75 153.97 225.69 153.9 C224.72 153.9 223.76 153.91 222.76 153.91 C219.55 153.93 216.34 153.92 213.13 153.91 C210.81 153.91 208.5 153.92 206.19 153.93 C199.93 153.94 193.66 153.94 187.4 153.92 C180.84 153.91 174.27 153.92 167.71 153.93 C155.99 153.94 144.26 153.93 132.54 153.91 C121.92 153.89 111.3 153.89 100.68 153.91 C88.34 153.93 75.99 153.94 63.64 153.93 C57.11 153.92 50.58 153.92 44.05 153.93 C37.91 153.94 31.77 153.94 25.63 153.91 C23.38 153.91 21.13 153.91 18.88 153.92 C15.8 153.93 12.73 153.92 9.65 153.9 C8.32 153.91 8.32 153.91 6.97 153.92 C0.32 153.84 -5.91 152.42 -11.01 147.9 C-14.21 144.24 -14.59 140.27 -14.64 135.57 C-14.66 134.4 -14.68 133.24 -14.7 132.04 C-14.71 130.77 -14.72 129.51 -14.73 128.2 C-14.75 126.84 -14.77 125.49 -14.78 124.13 C-14.83 120.46 -14.87 116.79 -14.9 113.11 C-14.92 110.82 -14.94 108.52 -14.97 106.23 C-15.05 98.22 -15.12 90.22 -15.18 82.22 C-15.24 74.75 -15.33 67.29 -15.42 59.82 C-15.5 53.41 -15.57 47 -15.61 40.59 C-15.64 36.76 -15.68 32.94 -15.74 29.11 C-15.79 25.51 -15.82 21.92 -15.83 18.32 C-15.84 16.37 -15.87 14.41 -15.91 12.46 C-15.91 11.31 -15.91 10.15 -15.91 8.95 C-15.92 7.95 -15.93 6.94 -15.94 5.9 C-15.33 3.39 -15.33 3.39 -13.44 1.56 C-8.94 -0.14 -4.78 -0.03 0 0 Z " fill="#82172D" transform="translate(285.33106994628906,121.61231994628906)"/>
<path d="M0 0 C2.79 2.56 5.4 5.25 8 8 C8.81 8.8 9.62 9.59 10.46 10.41 C26.58 26.83 35.38 49.69 35.56 72.56 C35.25 94.15 28.76 115.16 15 132 C14 133.41 13 134.83 12 136.25 C-0.81 153.16 -23.6 164.29 -44.14 167.64 C-70.18 170.91 -96.5 165.41 -117.57 149.34 C-136.06 134.57 -150.39 113.13 -153.76 89.35 C-156.49 63.08 -151.36 36.18 -134.56 15.19 C-128.33 7.92 -121.9 1.44 -114 -4 C-113.18 -4.58 -112.36 -5.16 -111.51 -5.75 C-77.47 -28.64 -31.69 -25.05 0 0 Z " fill="#26345D" transform="translate(213,171)"/>
<path d="M0 0 C1.57 3.13 0.36 6.13 -0.31 9.44 C-0.61 10.9 -0.9 12.37 -1.2 13.84 C-1.34 14.56 -1.48 15.27 -1.63 16.01 C-1.93 17.64 -2.16 19.29 -2.37 20.94 C-3.39 29.14 -7.07 35.83 -10.93 43.01 C-11.95 44.91 -12.95 46.82 -13.94 48.74 C-17.87 56.24 -21.95 62.05 -28 68 C-29.7 69.8 -31.39 71.61 -33.06 73.44 C-33.9 74.34 -34.74 75.25 -35.6 76.18 C-41.26 82.82 -43.07 88.3 -44.69 96.75 C-44.9 97.78 -45.11 98.82 -45.33 99.88 C-46.6 106.24 -47.49 112.54 -48 119 C-47.24 118.5 -46.47 118.01 -45.69 117.5 C-43 116 -43 116 -40 116 C-39.72 115.13 -39.44 114.26 -39.16 113.37 C-38.07 110.19 -36.83 107.15 -35.5 104.06 C-33.39 99.04 -31.38 94.15 -30.72 88.71 C-29.66 81 -26.03 76.75 -21 71 C-20.67 70.34 -20.34 69.68 -20 69 C-19.34 69 -18.68 69 -18 69 C-17.79 68.44 -17.57 67.88 -17.35 67.3 C-15.53 64.2 -13.18 62.47 -10.38 60.25 C-9.37 59.45 -8.37 58.65 -7.34 57.83 C-6.57 57.22 -5.79 56.62 -5 56 C-4 58 -4 58 -4.69 60.19 C-5.22 61.53 -5.22 61.53 -5.77 62.89 C-8 68.76 -9.4 74.6 -10.62 80.75 C-10.84 81.79 -11.05 82.83 -11.27 83.91 C-12.68 90.97 -13.8 98.01 -14.54 105.17 C-15 108 -15 108 -16.02 109.91 C-17.12 112.25 -17.23 113.75 -17.2 116.33 C-17.19 117.13 -17.18 117.93 -17.18 118.75 C-17.16 119.57 -17.14 120.4 -17.12 121.25 C-17.12 122.09 -17.11 122.93 -17.1 123.8 C-17.07 125.86 -17.04 127.93 -17 130 C-16.59 129.49 -16.18 128.99 -15.76 128.47 C-15.22 127.82 -14.68 127.17 -14.12 126.5 C-13.59 125.85 -13.06 125.2 -12.51 124.53 C-12.01 124.03 -11.51 123.52 -11 123 C-10.34 123 -9.68 123 -9 123 C-8.82 121.95 -8.64 120.9 -8.45 119.82 C-8.2 118.4 -7.94 116.98 -7.69 115.56 C-7.57 114.87 -7.45 114.19 -7.33 113.48 C-5.58 103.82 -1.86 94.94 1.81 85.88 C2.71 83.65 3.6 81.43 4.5 79.21 C5.14 77.62 5.14 77.62 5.8 75.98 C7.1 72.76 8.37 69.53 9.64 66.3 C10.74 63.52 11.86 60.76 13 58 C13.32 57.21 13.64 56.42 13.97 55.6 C16.15 50.7 19.28 47.41 23.2 43.76 C25.2 41.93 25.2 41.93 27 39 C27.66 39 28.32 39 29 39 C29.27 38.38 29.54 37.76 29.81 37.12 C31 35 31 35 34 33 C32.61 36.83 30.79 40.28 28.83 43.83 C24.46 51.72 21.19 59.21 19 68 C21.64 66.35 24.28 64.7 27 63 C25.25 69.37 23.1 75.48 20.69 81.62 C20.38 82.41 20.08 83.19 19.76 83.99 C18.58 87 17.4 90 16.21 92.99 C11.98 103.62 8.73 114.44 5.61 125.43 C5.08 127.29 4.54 129.14 4 131 C3.76 131.85 3.53 132.7 3.28 133.57 C1.86 138.34 0.54 141.05 -3.44 144.25 C-12.31 152.62 -12.53 164.23 -12.92 175.74 C-12.95 176.81 -12.97 177.89 -13 179 C-7.4 174.2 -7.4 174.2 -2.12 169.06 C-0 167 -0 167 2 167 C2.28 166.01 2.28 166.01 2.56 165 C3.98 162.05 5 161.04 7.31 158.88 C11.29 154.59 12.15 150.23 13.38 144.69 C15.41 135.83 18.53 130.51 25 124 C26.01 122.91 27.01 121.82 28 120.73 C30.05 118.48 32.12 116.25 34.2 114.02 C37.07 110.94 39.84 107.78 42.6 104.59 C44.32 102.64 46.13 100.8 48 99 C48.66 99.33 49.32 99.66 50 100 C49.56 100.74 49.56 100.74 49.12 101.49 C42.98 111.88 37.09 122.3 31.89 133.19 C31.29 134.42 30.64 135.64 29.98 136.84 C26.93 142.42 25.72 147.97 24.56 154.19 C23.35 160.44 22.14 166.66 20.5 172.82 C16.9 186.3 16.9 186.3 19 200 C22.17 199.33 22.17 199.33 23.17 196.71 C23.5 195.8 23.84 194.88 24.19 193.94 C24.7 192.56 24.7 192.56 25.23 191.15 C25.48 190.44 25.74 189.73 26 189 C28.3 192.44 28.54 194.94 29 199 C45.44 194.7 45.44 194.7 61 188 C60.09 191.9 58.77 195.4 57 199 C56.01 199.33 55.02 199.66 54 200 C53.27 201.98 52.61 203.98 52 206 C51.34 206.99 50.68 207.98 50 209 C49.67 209.66 49.34 210.32 49 211 C48.07 212.14 48.07 212.14 47.12 213.31 C44.96 215.92 44.96 215.92 43.44 218.75 C42 221 42 221 39 222 C38.57 222.87 38.57 222.87 38.12 223.75 C36.08 227.84 32.75 230.5 29 233 C27.27 234.65 25.64 236.38 24 238.12 C22 240 22 240 19 241 C18.67 241.66 18.34 242.32 18 243 C15.67 243.33 13.33 243.67 11 244 C10.67 244.66 10.34 245.32 10 246 C6.5 248.27 2.96 250.54 -1.12 251.5 C-3.23 251.89 -3.23 251.89 -5 254 C-11.68 255.5 -18.5 255.26 -25.31 255.31 C-26.59 255.34 -27.87 255.37 -29.19 255.4 C-36.87 255.45 -42.28 254.66 -49 251 C-50.09 250.65 -51.19 250.3 -52.31 249.94 C-55.05 248.98 -56.72 247.75 -59 246 C-61.02 245.35 -61.02 245.35 -63 245 C-66.06 243.98 -67.19 242.92 -69.35 240.65 C-71.46 238.54 -73.7 236.6 -75.94 234.62 C-87.63 224.12 -87.63 224.12 -88 218 C-88.99 217.67 -89.98 217.34 -91 217 C-92.06 214.25 -92.06 214.25 -93 211 C-93.65 209.33 -94.32 207.66 -95 206 C-102.17 188.38 -104.16 172.72 -104.06 153.94 C-104.06 152.29 -104.05 150.65 -104.05 149 C-104.04 145 -104.02 141 -104 137 C-101.85 141.23 -100.03 145.58 -98.21 149.96 C-96.99 152.85 -95.75 155.37 -94 158 C-93.6 157.14 -93.21 156.28 -92.8 155.39 C-90.61 151.27 -87.86 147.81 -84.94 144.21 C-77.26 134.53 -72.59 123.85 -68 112.5 C-67.38 110.97 -66.75 109.45 -66.13 107.92 C-62.98 100.17 -59.94 92.41 -57.38 84.44 C-57.15 83.74 -56.92 83.04 -56.69 82.32 C-55.84 79.69 -55.01 77.05 -54.26 74.39 C-51.39 66.06 -43.46 60.58 -37 55 C-36.16 54.26 -35.31 53.52 -34.45 52.75 C-33.19 51.65 -31.92 50.55 -30.65 49.46 C-30.1 48.98 -29.56 48.5 -29 48 C-28.35 47.45 -27.7 46.89 -27.03 46.32 C-24.28 43.17 -22.85 39.75 -21.19 35.94 C-18.44 29.86 -15.46 24.27 -11.74 18.71 C-8.5 13.66 -5.78 8.32 -3 3 C-2.34 3 -1.68 3 -1 3 C-0.67 2.01 -0.34 1.02 0 0 Z " fill="#27355E" transform="translate(104,344)"/>
<path d="M0 0 C21.85 7.02 44.67 16.09 63 30 C65.42 31.69 67.87 33.34 70.31 35 C72.23 36.31 74.13 37.63 76 39 C76 39.33 76 39.66 76 40 C70.22 39.37 64.66 38.35 59 37 C59.68 37.64 60.36 38.28 61.06 38.94 C64.08 41.95 66.6 45.29 69.18 48.68 C70.89 50.86 72.66 52.93 74.5 55 C77.57 58.46 80.42 62.05 83.23 65.73 C85.83 69.06 88.57 72.29 91.29 75.53 C98.72 84.47 104.59 93.72 110 104 C111.06 105.99 112.12 107.98 113.18 109.97 C114.43 112.34 115.68 114.72 116.92 117.1 C117.99 119.06 117.99 119.06 119.44 121 C125.13 129.24 126.24 138.33 127.88 148 C128.18 149.72 128.49 151.44 128.8 153.16 C131 165.4 131 165.4 131 168 C132.98 166.68 134.96 165.36 137 164 C136.01 152.62 136.01 152.62 135 141 C138.02 144.02 140.62 146.92 143.25 150.25 C143.96 151.14 144.66 152.03 145.39 152.95 C145.92 153.63 146.45 154.3 147 155 C150.72 150.11 153.37 145.42 155.69 139.75 C158.78 132.32 158.78 132.32 161 129 C161.07 134.51 161.13 140.03 161.16 145.54 C161.18 147.41 161.2 149.28 161.23 151.16 C161.48 170.01 161.48 170.01 158.65 177.2 C157.81 179.22 157.81 179.22 158 182.44 C158 185 158 185 156.56 186.5 C156.05 187 155.53 187.49 155 188 C154.86 188.91 154.71 189.82 154.56 190.75 C153.98 194.09 152.8 196.21 151.04 199.07 C149.51 201.9 148.68 204.89 147.81 207.98 C146.9 210.25 145.78 211.36 144 213 C143.69 213.64 143.38 214.28 143.06 214.94 C141.76 217.46 140.03 219.03 138 221 C136.06 223.77 136.06 223.77 135 226 C134.34 226 133.68 226 133 226 C132.67 226.66 132.34 227.32 132 228 C131.01 228.33 130.02 228.66 129 229 C129 229.66 129 230.32 129 231 C128.1 231.15 128.1 231.15 127.19 231.31 C124.92 231.84 124.92 231.84 123.44 233.56 C122.96 234.04 122.49 234.51 122 235 C121.01 235 120.02 235 119 235 C119 235.66 119 236.32 119 237 C118.48 237.08 117.97 237.16 117.44 237.25 C114.79 237.95 114.79 237.95 111.94 239.88 C107.29 242.64 102.22 243.75 97 245 C96.42 245.17 95.83 245.35 95.23 245.52 C90.03 246.63 84.55 246.27 79.25 246.31 C78 246.34 76.75 246.37 75.46 246.4 C68.07 246.45 63.28 245.94 57 242 C55.67 241.32 54.34 240.65 53 240 C50.33 238.67 47.67 237.33 45 236 C44.05 235.55 43.1 235.09 42.12 234.62 C38.57 232.78 35.82 230.82 33 228 C29.99 225.4 27.18 223.11 23.81 221 C20.83 218.88 19.71 217.18 18 214 C16.63 212.46 16.63 212.46 15 211 C13.29 209.37 11.62 207.71 10 206 C10 205.34 10 204.68 10 204 C9.38 203.38 8.76 202.76 8.12 202.12 C5.29 199.29 4.25 196.76 3 193 C2.34 192.67 1.68 192.34 1 192 C-0.03 189.68 -1.03 187.35 -2 185 C-2.66 184.01 -3.32 183.02 -4 182 C-4 181.01 -4 180.02 -4 179 C-1.03 180.12 1.74 181.4 4.53 182.91 C9.34 185.33 14.28 186.54 19.5 187.75 C20.88 188.08 20.88 188.08 22.28 188.42 C24.52 188.95 26.76 189.48 29 190 C28.56 188.9 28.13 187.79 27.68 186.65 C20.96 169.25 16.3 151.35 13 133 C15.45 135.22 16.87 137.38 18.35 140.32 C18.78 141.18 19.22 142.04 19.67 142.92 C20.13 143.83 20.59 144.75 21.06 145.69 C24.6 152.57 28.25 159.32 32.38 165.88 C32.77 166.5 33.16 167.12 33.56 167.76 C35.88 171.38 38.32 174.89 40.86 178.37 C43.83 182.62 46.22 187.12 48 192 C49.98 191.67 51.96 191.34 54 191 C53.66 190.4 53.32 189.8 52.97 189.17 C46.82 178.33 40.69 167.49 34.67 156.57 C32.12 151.96 29.48 147.4 26.8 142.85 C22.75 135.98 18.91 129.08 15.5 121.88 C15.19 121.21 14.87 120.55 14.55 119.87 C10.12 110.24 8.28 101.16 7.06 90.62 C6.81 88.56 6.55 86.49 6.29 84.42 C6.03 82.31 5.77 80.21 5.51 78.1 C3.17 56.8 3.17 56.8 -2.71 36.31 C-5.06 30.28 -6.51 24.14 -7.88 17.81 C-8.09 16.83 -8.31 15.85 -8.53 14.84 C-9.51 10.16 -10.27 5.81 -10 1 C-2.68 10.07 4.25 19.49 11 29 C11.69 29.92 12.37 30.84 13.08 31.79 C15.37 35.61 16.4 39.14 17.44 43.44 C17.65 44.26 17.85 45.08 18.07 45.92 C19.69 52.44 21.1 59 22.5 65.56 C28.35 92.9 37.83 117.58 52.18 141.69 C54.14 145.25 55.53 148.85 56.81 152.69 C57.32 154.18 57.84 155.67 58.35 157.16 C58.61 157.94 58.88 158.72 59.15 159.53 C60.04 162.13 60.95 164.72 61.87 167.31 C62.18 168.19 62.5 169.08 62.82 169.99 C63.43 171.71 64.03 173.42 64.64 175.14 C66.25 179.72 67.72 184.31 69 189 C70.32 188.67 71.64 188.34 73 188 C72.53 186.98 72.06 185.97 71.58 184.92 C65.94 172 64.16 159.44 62.75 145.5 C62.29 141.28 61.83 137.06 61.36 132.84 C61.25 131.83 61.14 130.82 61.02 129.77 C60.32 123.45 59.51 117.16 58.5 110.88 C58.39 110.17 58.28 109.46 58.17 108.72 C56.53 99.01 51.5 91.42 45.81 83.59 C37 71 37 71 37 66 C42.95 71.33 48.86 76.69 54.73 82.11 C57.43 84.59 60.16 86.99 63 89.31 C66 91.85 67.89 94.67 70 98 C70.47 98.45 70.95 98.9 71.43 99.37 C77.05 104.76 77.24 110.59 77.94 118.06 C78.24 120.74 78.55 123.41 78.88 126.09 C78.96 126.79 79.04 127.5 79.13 128.22 C80.12 136.43 81.52 144.55 82.99 152.68 C83.28 154.33 83.58 155.99 83.86 157.64 C85.5 167.15 87.5 175.34 92 184 C95.3 183.01 98.6 182.02 102 181 C102 176.3 99.55 172.35 97.58 168.16 C97.26 167.47 96.95 166.78 96.63 166.08 C96.34 165.46 96.05 164.85 95.76 164.22 C93.8 158.5 93.78 152.31 93.5 146.32 C93.46 145.51 93.42 144.7 93.38 143.86 C93.25 141.28 93.12 138.7 93 136.12 C92.88 133.55 92.75 130.98 92.62 128.41 C92.54 126.82 92.47 125.23 92.39 123.63 C92.09 112.07 92.09 112.07 87 102 C85.79 100.34 84.58 98.67 83.38 97 C82.69 96.06 82 95.12 81.29 94.16 C79.63 91.87 77.99 89.58 76.36 87.28 C75.92 86.65 75.47 86.03 75.02 85.38 C74.15 84.15 73.28 82.92 72.41 81.68 C70.44 78.89 68.43 76.39 66 74 C65.44 72.97 64.89 71.94 64.31 70.88 C62.06 66.72 58.96 63.51 55.71 60.11 C53.99 57.99 53.4 56.66 53 54 C52.34 54 51.68 54 51 54 C49.3 51.97 47.71 49.93 46.12 47.81 C38.59 38 30.75 28.42 20.55 21.27 C20.04 20.85 19.53 20.43 19 20 C19 19.34 19 18.68 19 18 C18.43 17.74 17.85 17.48 17.26 17.21 C14.81 15.9 12.91 14.39 10.81 12.56 C9.77 11.67 9.77 11.67 8.71 10.75 C7 9 7 9 6 6 C5.36 5.69 4.72 5.38 4.06 5.06 C1.55 3.77 1.03 2.58 0 0 Z " fill="#921930" transform="translate(645,353)"/>
<path d="M0 0 C1.4 0 1.4 0 2.83 0 C10.12 0.13 16.22 1.3 22.88 4.38 C23.58 4.65 24.29 4.93 25.02 5.21 C35.01 9.49 43.95 18.75 48.31 28.62 C49.58 31.85 50.78 35.08 51.88 38.38 C52.18 39.31 52.18 39.31 52.5 40.25 C55.02 54.48 52.35 68.14 44.88 80.38 C38.04 89.35 30.12 95.77 19.88 100.38 C19.07 100.77 18.27 101.16 17.44 101.56 C5.75 105.27 -9.08 104.44 -20.12 99.25 C-21.81 98.33 -23.48 97.37 -25.12 96.38 C-26.03 95.83 -26.94 95.29 -27.88 94.73 C-39.97 86.76 -46.77 74.98 -49.88 61 C-50.9 46.2 -49.75 33.82 -41.12 21.38 C-40.47 20.38 -39.81 19.39 -39.12 18.38 C-38.47 18.38 -37.81 18.38 -37.12 18.38 C-36.85 17.77 -36.58 17.17 -36.3 16.55 C-31.86 8.34 -21.54 4.65 -13.39 1.23 C-8.9 0.05 -4.62 -0.01 0 0 Z " fill="#202B4C" transform="translate(273.125,304.625)"/>
<path d="M0 0 C6.36 3.32 12.16 7.22 16.99 12.56 C16.99 13.22 16.99 13.88 16.99 14.56 C17.65 14.56 18.31 14.56 18.99 14.56 C28.94 27.84 31.6 40.77 29.52 57.28 C28.09 65.13 25.61 71.09 20.99 77.56 C20.51 78.32 20.03 79.08 19.54 79.86 C16.12 84.87 12.14 88.16 7.12 91.44 C6.27 91.99 6.27 91.99 5.41 92.56 C-3.38 97.98 -11.59 99.09 -21.82 99.06 C-23.47 99.11 -23.47 99.11 -25.15 99.15 C-37.45 99.18 -46.94 94.67 -56.01 86.56 C-56.65 86.01 -57.28 85.45 -57.94 84.88 C-66.49 76.93 -72.53 64.33 -73.25 52.66 C-73.47 43.21 -72.9 35.34 -69.01 26.56 C-68.59 25.5 -68.59 25.5 -68.17 24.41 C-63.26 13.01 -52.87 4.48 -41.7 -0.25 C-28.59 -5.44 -13.09 -5.53 0 0 Z " fill="#1F2B4C" transform="translate(553.0078125,308.4375)"/>
<path d="M0 0 C5.37 2.15 5.37 2.15 10.74 4.3 C11.43 4.57 12.11 4.85 12.82 5.13 C14.3 5.72 15.78 6.32 17.26 6.91 C22 8.82 26.76 10.68 31.54 12.52 C44.35 17.45 56.86 22.56 69 29 C70.77 29.84 72.54 30.67 74.31 31.5 C88.27 38.54 100.49 50.59 111 62 C111 62.33 111 62.66 111 63 C106.86 63.18 103.29 62.94 99.25 61.99 C98.45 61.81 97.65 61.62 96.83 61.43 C96.22 61.29 95.62 61.15 95 61 C95.33 61.5 95.66 62 95.99 62.51 C97.48 64.78 98.96 67.04 100.44 69.31 C100.95 70.1 101.47 70.88 102 71.69 C102.5 72.45 102.99 73.21 103.5 73.99 C103.95 74.68 104.41 75.38 104.88 76.1 C106 78 106 78 107 81 C108.49 81.5 108.49 81.5 110 82 C110.89 83.37 111.78 84.75 112.64 86.14 C114.88 89.21 117.71 91.69 120.49 94.27 C127 101.35 131.77 109.77 136.56 118.06 C140.5 124.86 144.56 131.51 149 138 C149.41 138.6 149.81 139.2 150.23 139.82 C151.37 141.49 152.52 143.16 153.69 144.81 C154.1 145.4 154.51 145.99 154.94 146.6 C158.81 151.99 163.27 156.59 168.04 161.18 C170 164 170 164 169.8 167.85 C169.54 168.89 169.27 169.93 169 171 C165.54 167.64 162.35 164.14 159.23 160.45 C158.07 159.05 158.07 159.05 157 158 C157.09 158.62 157.17 159.23 157.26 159.86 C157.64 162.66 157.98 165.45 158.31 168.25 C158.45 169.22 158.59 170.19 158.73 171.18 C159.03 173.87 159.25 176.31 159 179 C156.67 181.67 156.67 181.67 154 183 C153.34 183 152.68 183 152 183 C150.42 176.65 149.03 170.34 148 163.88 C146.07 152.06 144.14 142.2 137.26 132.3 C134.98 128.97 133.24 125.64 131.5 122 C124.75 108.24 116.74 96.59 106.56 85.12 C103.54 81.71 100.76 78.13 98 74.5 C94.18 69.48 90.22 64.68 86 60 C84.69 58.5 83.37 57 82.06 55.5 C81.48 54.83 80.89 54.16 80.29 53.47 C79.65 52.74 79.65 52.74 79 52 C82.52 50.83 83.5 51.28 86.94 52.44 C90.32 53.57 92.35 54 96 54 C95.06 53.37 94.11 52.74 93.14 52.09 C90.58 50.39 88.02 48.68 85.45 46.97 C84.75 46.51 84.06 46.05 83.34 45.57 C81.66 44.44 80 43.29 78.35 42.13 C71.04 37.04 63.58 33.2 55.45 29.63 C53.43 28.75 51.42 27.84 49.4 26.94 C42.8 23.99 36.18 21.21 29.35 18.83 C26.87 17.95 24.44 16.99 22 16 C29.93 25.75 29.93 25.75 40 33 C40 33.66 40 34.32 40 35 C40.8 35.33 40.8 35.33 41.61 35.66 C44.87 37.49 47.47 39.91 50.19 42.44 C51.05 43.23 51.05 43.23 51.93 44.05 C57.14 48.97 61.58 54.36 66 60 C67.18 61.36 68.37 62.72 69.56 64.06 C72 67 72 67 72 69 C72.66 69 73.32 69 74 69 C74.88 70.31 75.76 71.62 76.59 72.95 C79.1 76.6 82.03 79.93 84.88 83.32 C86.84 85.8 88.4 88.28 90 91 C91.31 92.81 92.65 94.6 94 96.38 C97.65 101.21 101.28 106.06 104.88 110.94 C105.34 111.56 105.8 112.19 106.28 112.84 C107.54 114.55 108.77 116.27 110 118 C110.58 118.77 111.15 119.54 111.75 120.33 C113.64 124.36 113.8 128.35 114.12 132.75 C114.2 133.7 114.28 134.66 114.37 135.64 C115.04 144.2 115.37 152.77 115.57 161.35 C115.85 171.06 117.25 179.41 121.62 188.12 C121.95 188.8 122.27 189.47 122.61 190.16 C123.4 191.78 124.2 193.39 125 195 C121.44 197.98 118.45 198.77 113.98 199.62 C113.32 199.75 112.67 199.87 112 200 C106.77 189.53 104.9 178.74 102.88 167.31 C102.52 165.39 102.17 163.46 101.81 161.53 C99.76 150.24 97.91 138.98 97.36 127.5 C96.85 120.87 94.57 117.59 89.89 112.91 C88 111 88 111 86 107.88 C83.83 104.75 81.52 102.7 78.62 100.27 C76.45 98.39 74.34 96.46 72.25 94.48 C71.58 93.84 70.92 93.21 70.23 92.56 C68.88 91.28 67.53 90 66.19 88.71 C65.57 88.12 64.94 87.52 64.29 86.91 C63.73 86.38 63.17 85.84 62.59 85.29 C60.91 83.78 60.91 83.78 58 83 C58.7 83.93 59.4 84.86 60.12 85.81 C62.96 89.76 65.18 93.95 67.46 98.23 C69.29 101.51 71.34 104.57 73.51 107.64 C77.91 114.61 79.82 120.77 80.94 128.94 C81.1 130.03 81.26 131.12 81.43 132.25 C82.35 138.66 83.13 145.07 83.83 151.51 C84.12 154.19 84.42 156.87 84.72 159.55 C85.11 163.05 85.47 166.56 85.81 170.07 C87.09 182.2 90.32 192.75 95 204 C93.35 204.33 91.7 204.66 90 205 C88.13 200.07 86.33 195.13 84.6 190.15 C83.39 186.65 82.16 183.16 80.94 179.67 C80.33 177.93 79.72 176.19 79.12 174.45 C75.83 164.86 72.26 156.15 67.04 147.43 C51.78 121.73 44.58 93.17 38.75 64.12 C37.02 55.54 35.19 48.42 29.42 41.69 C26.79 38.56 24.38 35.27 21.94 32 C21.42 31.31 20.9 30.63 20.37 29.92 C17.45 26.02 14.66 22.08 12 18 C12.71 29.16 15.02 40.24 19.17 50.63 C25.86 67.53 27.32 86.72 29.1 104.7 C31.63 129.72 43.51 149.54 56 171 C57.27 173.23 58.54 175.46 59.81 177.69 C62.17 181.82 64.54 185.93 66.95 190.04 C67.71 191.33 67.71 191.33 68.48 192.65 C69.48 194.36 70.49 196.07 71.5 197.78 C71.95 198.56 72.41 199.34 72.88 200.14 C73.28 200.84 73.69 201.53 74.12 202.25 C75 204 75 204 75 206 C73.02 206.33 71.04 206.66 69 207 C65.5 201.92 62.28 196.8 59.35 191.37 C58.07 189.12 56.69 187.01 55.22 184.87 C51.88 179.9 48.89 174.77 45.94 169.56 C45.43 168.69 44.93 167.81 44.41 166.9 C41.07 161.03 37.96 155.07 35 149 C38.36 165.64 42.47 181.68 48.25 197.66 C49.03 200.09 49.55 202.49 50 205 C47.69 204.67 45.38 204.34 43 204 C41.58 200.03 40.19 196.05 38.81 192.06 C38.43 190.98 38.04 189.91 37.64 188.79 C30.62 168.32 28.1 146.8 25.81 125.38 C25.44 122 25.07 118.62 24.69 115.24 C24.46 113.08 24.22 110.92 23.98 108.76 C22.23 92.51 22.23 92.51 19.31 76.44 C19.15 75.67 18.98 74.9 18.81 74.1 C18.21 71.4 17.61 68.7 17 66 C16.76 64.92 16.52 63.84 16.28 62.72 C12.18 44.21 7.32 26.07 1.83 7.94 C1.08 5.3 0.49 2.69 0 0 Z " fill="#FDFCFB" transform="translate(624,338)"/>
<path d="M0 0 C1.83 3.61 3.47 7.28 5.06 11 C5.33 11.62 5.6 12.23 5.88 12.87 C7.17 15.88 8.35 18.78 9 22 C9.66 22 10.32 22 11 22 C12.01 23.54 12.01 23.54 13.12 25.62 C15.58 29.79 18.43 32.13 22.43 34.77 C22.95 35.18 23.46 35.58 24 36 C24 36.66 24 37.32 24 38 C25.1 38.42 25.1 38.42 26.21 38.86 C28.75 39.9 31.14 41.05 33.57 42.31 C49.96 50.57 67 56.54 85 60 C86.14 60.23 87.28 60.46 88.45 60.7 C95.22 61.92 102.02 62.32 108.88 62.69 C109.77 62.74 110.66 62.78 111.58 62.83 C116.55 63.05 121.1 62.89 126 62 C127.98 57.05 127.98 57.05 130 52 C132.3 55.44 132.54 57.94 133 62 C149.44 57.7 149.44 57.7 165 51 C164.09 54.9 162.77 58.4 161 62 C160.01 62.33 159.02 62.66 158 63 C157.27 64.98 156.61 66.98 156 69 C155.34 69.99 154.68 70.98 154 72 C153.67 72.66 153.34 73.32 153 74 C152.07 75.14 152.07 75.14 151.12 76.31 C148.96 78.92 148.96 78.92 147.44 81.75 C146 84 146 84 143 85 C142.71 85.58 142.42 86.15 142.12 86.75 C140.08 90.84 136.75 93.5 133 96 C131.27 97.65 129.64 99.38 128 101.12 C126 103 126 103 123 104 C122.67 104.66 122.34 105.32 122 106 C119.67 106.33 117.33 106.67 115 107 C114.67 107.66 114.34 108.32 114 109 C110.5 111.27 106.96 113.54 102.88 114.5 C100.77 114.89 100.77 114.89 99 117 C92.32 118.5 85.5 118.26 78.69 118.31 C76.77 118.36 76.77 118.36 74.81 118.4 C67.13 118.45 61.72 117.66 55 114 C53.91 113.65 52.81 113.3 51.69 112.94 C48.95 111.98 47.28 110.75 45 109 C42.98 108.35 42.98 108.35 41 108 C37.94 106.98 36.81 105.92 34.65 103.65 C32.54 101.54 30.3 99.6 28.06 97.62 C16.37 87.12 16.37 87.12 16 81 C15.01 80.67 14.02 80.34 13 80 C11.94 77.25 11.94 77.25 11 74 C10.35 72.33 9.68 70.66 9 69 C1.83 51.38 -0.16 35.72 -0.06 16.94 C-0.06 15.29 -0.05 13.65 -0.05 12 C-0.04 8 -0.02 4 0 0 Z " fill="#81162D" transform="translate(0,481)"/>
<path d="M0 0 C5.13 3.51 9.22 7.21 13.2 11.97 C15.68 14.77 18.45 17.15 21.3 19.55 C23 21 23 21 25 23 C26.07 23.27 27.14 23.54 28.25 23.81 C31.92 24.97 33.44 26.22 36.19 28.77 C39.3 30.89 42.87 31.45 46.51 32.23 C49.25 33.08 50.04 34 52 36 C54.52 37.08 54.52 37.08 57.31 37.94 C63.31 40.02 68.73 42.23 72 48 C72.42 49.48 72.84 50.96 73.25 52.44 C74.63 56.91 76.45 58.49 80.36 60.89 C82.74 62.5 83.73 64.47 85 67 C85.54 67.74 86.07 68.49 86.62 69.25 C88.53 73.07 88.73 76.78 89 81 C87.51 80.5 87.51 80.5 86 80 C86.33 80.6 86.66 81.2 87 81.81 C88 84 88 84 88 87 C88.99 87.33 89.98 87.66 91 88 C92.32 89.45 92.32 89.45 93.56 91.25 C93.98 91.83 94.39 92.42 94.82 93.02 C96 95 96 95 96.77 97.21 C98.6 101.37 101.37 104.73 104.12 108.31 C104.97 109.42 104.97 109.42 105.83 110.56 C107.22 112.38 108.61 114.19 110 116 C109.01 116.5 109.01 116.5 108 117 C98.36 113.54 91.95 109.24 87 100 C85.35 100.33 83.7 100.66 82 101 C82.43 101.7 82.87 102.4 83.31 103.12 C83.87 104.03 84.43 104.94 85 105.88 C85.56 106.78 86.11 107.68 86.69 108.62 C88 111 88 111 88 113 C86.02 112.5 86.02 112.5 84 112 C84.36 112.58 84.73 113.17 85.1 113.77 C89.13 120.33 92.64 127.07 96 134 C95.34 134.33 94.68 134.66 94 135 C87.67 128.67 81.33 122.33 75 116 C77.38 119.74 79.74 122.98 83 126 C80.01 127.49 78.25 126.38 75.12 125.38 C70.23 123.69 67.93 122.34 65 118 C60.31 114.91 55.53 112.97 50.23 111.12 C48 110 48 110 46.49 107.99 C44.65 105.53 43.27 105.12 40.38 104.19 C35.71 102.45 32.49 100.2 28.67 97.06 C20.08 90.42 10.81 85.06 0.7 81.14 C-4.3 79.03 -9.85 76.58 -12.14 71.45 C-12.42 70.64 -12.71 69.83 -13 69 C-13.99 67.66 -14.99 66.33 -16 65 C-16 64.34 -16 63.68 -16 63 C-16.75 62.76 -17.49 62.53 -18.26 62.29 C-21.47 60.78 -22.75 59.25 -24.88 56.44 C-25.55 55.55 -26.23 54.66 -26.93 53.75 C-27.61 52.84 -28.3 51.93 -29 51 C-30.33 49.33 -31.67 47.67 -33 46 C-36 42.25 -36 42.25 -36 40 C-36.66 40 -37.32 40 -38 40 C-37.67 39.34 -37.34 38.68 -37 38 C-36.19 38.63 -35.38 39.26 -34.54 39.91 C-27.45 45.4 -20.29 50.77 -13 56 C-14.2 52.13 -14.2 52.13 -17.31 49.81 C-21.57 46.94 -23.27 42.75 -25 38 C-25.32 35.52 -25.32 35.52 -25.44 33.19 C-25.51 30.97 -25.51 30.97 -26 29 C-27.42 27.84 -28.86 26.68 -30.38 25.64 C-33.48 22.51 -34.5 18.15 -35.92 14.06 C-36.8 11.57 -37.75 9.32 -39 7 C-31.81 10.2 -25.4 16.05 -20.5 22.12 C-17.07 26.3 -12.97 28.82 -8.36 31.55 C-6 33 -6 33 -4 35 C-5.08 31.77 -6.13 30.92 -9.06 29.06 C-12.82 26.53 -15.26 23.25 -17.81 19.56 C-18.2 19.01 -18.58 18.46 -18.98 17.9 C-21.33 14.4 -22.85 11.05 -24 7 C-22.23 7.59 -20.46 8.2 -18.69 8.81 C-17.21 9.32 -17.21 9.32 -15.7 9.83 C-13.07 10.97 -11.89 11.92 -10 14 C-8.35 14.96 -6.69 15.91 -5.02 16.84 C-1.21 19.03 2.39 21.51 6 24 C6.76 24.52 7.53 25.04 8.32 25.58 C9.04 26.09 9.76 26.6 10.5 27.12 C11.15 27.58 11.8 28.04 12.47 28.51 C14.28 30.27 14.62 31.53 15 34 C16.98 34 18.96 34 21 34 C19.67 31.04 18.21 29.05 15.94 26.75 C11.81 22.18 9.02 17.02 6.11 11.64 C4.26 8.21 2.35 5.12 0 2 C0 1.34 0 0.68 0 0 Z " fill="#F0EEEF" transform="translate(368,129)"/>
<path d="M0 0 C0.69 -0.01 1.39 -0.02 2.11 -0.02 C8.28 -0 13.08 1.57 18.5 4.38 C19.19 4.73 19.88 5.08 20.59 5.45 C21.09 5.71 21.6 5.98 22.12 6.25 C22.12 6.91 22.12 7.57 22.12 8.25 C22.72 8.53 23.31 8.82 23.92 9.11 C36.04 15.38 39.93 28.91 43.87 41.14 C46 47.96 47.62 54.92 49.25 61.88 C49.59 63.29 49.92 64.7 50.26 66.11 C52.26 74.48 54.2 82.86 56.12 91.25 C49.66 91.36 43.33 91.17 36.9 90.54 C13.46 88.26 -9.95 88.81 -33.39 90.63 C-34.62 90.72 -35.85 90.81 -37.12 90.91 C-38.21 91 -39.3 91.09 -40.42 91.18 C-41.23 91.2 -42.04 91.23 -42.88 91.25 C-44.41 89.72 -44.02 88.37 -44.02 86.23 C-43.95 79.39 -43.36 72.6 -42.76 65.79 C-42.56 63.58 -42.38 61.38 -42.21 59.17 C-39.94 32.5 -39.94 32.5 -32.88 21.25 C-32.19 20.13 -32.19 20.13 -31.49 18.99 C-26.43 11.68 -19.25 7 -11.88 2.25 C-10.92 1.62 -10.92 1.62 -9.94 0.98 C-6.68 -0.17 -3.41 -0.04 0 0 Z " fill="#80162D" transform="translate(641.875,-0.25)"/>
<path d="M0 0 C0.63 0.46 1.27 0.91 1.92 1.38 C2.8 1.94 3.69 2.5 4.59 3.08 C11.38 7.61 15.73 12.43 19.92 19.38 C20.32 19.97 20.72 20.55 21.13 21.15 C27.86 31.51 27.83 45.35 28.86 57.28 C29.11 60.21 29.38 63.14 29.65 66.07 C29.82 67.95 29.98 69.83 30.15 71.71 C30.23 72.58 30.31 73.45 30.39 74.34 C30.79 79.04 31 83.66 30.92 88.38 C30.15 88.32 29.38 88.26 28.58 88.2 C1.47 86.12 -25.31 85.42 -52.44 87.95 C-58 88.44 -63.51 88.48 -69.08 88.38 C-67.62 79.04 -65.33 69.92 -62.98 60.77 C-62.33 58.22 -61.7 55.67 -61.06 53.12 C-56.03 33.2 -50.71 13.6 -32.57 1.75 C-23.55 -3.44 -9.31 -5.89 0 0 Z " fill="#80162D" transform="translate(177.078125,2.6171875)"/>
<path d="M0 0 C9.93 -0.28 19.2 0.46 29 2 C29.29 3.04 29.57 4.08 29.87 5.15 C35.25 23.92 47.07 40.02 60.35 54.04 C62 56 62 56 62 58 C77.36 43.11 93.22 22.56 97 1 C102.94 -0.3 108.83 -0.11 114.88 -0.06 C118.55 -0.04 122.22 -0.02 126 0 C126 9.57 126 19.14 126 29 C123.69 29.66 121.38 30.32 119 31 C99.93 37.61 85.3 49.12 70 62 C71.53 65.89 73.89 67.81 77.12 70.38 C78.12 71.17 79.12 71.96 80.14 72.77 C81.08 73.51 82.03 74.24 83 75 C83.68 75.54 84.35 76.08 85.05 76.64 C91.02 81.29 97.49 85.16 104 89 C104.71 89.43 105.42 89.85 106.16 90.29 C111.27 93.12 116.65 94.22 122.34 95.39 C125 96 125 96 126 97 C126.16 99.22 126.25 101.44 126.32 103.66 C126.35 104.88 126.39 106.09 126.43 107.34 C126.5 109.68 126.5 109.68 126.56 112.06 C126.78 119.46 126.78 119.46 127 127 C117.1 126.34 107.2 125.68 97 125 C95.68 120.38 94.36 115.76 93 111 C91.36 107.36 91.36 107.36 89.5 104.56 C88.89 103.59 88.28 102.61 87.66 101.61 C87.11 100.75 86.56 99.89 86 99 C85.33 97.78 84.66 96.55 84 95.31 C81.34 90.91 78.22 87 75 83 C74.24 82.03 73.47 81.05 72.69 80.05 C71.51 78.57 71.51 78.57 70.31 77.06 C69.22 75.69 69.22 75.69 68.11 74.29 C66.12 72.13 64.69 71.06 62 70 C60.25 72.04 58.5 74.08 56.75 76.12 C56.26 76.69 55.77 77.26 55.26 77.85 C52.22 81.42 49.54 85.05 47 89 C46.28 90.08 45.56 91.15 44.82 92.26 C37.54 103.25 33.28 112.87 30 126 C20.1 126.33 10.2 126.66 0 127 C0 110.12 0 110.12 1 103.56 C1.19 102.31 1.37 101.05 1.56 99.75 C1.71 98.85 1.85 97.94 2 97 C3.02 96.72 4.03 96.44 5.08 96.15 C14.21 93.53 22.02 90.29 30 85 C30.83 84.47 31.65 83.93 32.5 83.38 C41.26 77.51 49.66 70.57 57 63 C48.81 55.57 40.73 48.32 31 43 C30.01 42.22 29.02 41.43 28 40.62 C20.45 35.1 10.08 31.85 1 30 C0.12 23.27 -0.12 16.72 -0.06 9.94 C-0.06 8.5 -0.06 8.5 -0.05 7.03 C-0.04 4.68 -0.02 2.34 0 0 Z " fill="#FEFEFD" transform="translate(590,182)"/>
<path d="M0 0 C-0.52 5.02 -1.06 10.04 -1.6 15.05 C-1.78 16.76 -1.96 18.46 -2.14 20.17 C-2.4 22.62 -2.66 25.08 -2.93 27.54 C-3.05 28.67 -3.05 28.67 -3.16 29.83 C-3.92 36.63 -5.8 41.99 -9.38 47.88 C-12.13 52.5 -14.67 57.15 -17 62 C-18 64 -19 66 -20 68 C-19.38 67.5 -18.76 67.01 -18.12 66.5 C-16 65 -16 65 -14 65 C-13.5 63.51 -13.5 63.51 -13 62 C-10.71 60.39 -10.71 60.39 -7.94 58.81 C-7.02 58.28 -6.1 57.75 -5.15 57.21 C-4.44 56.81 -3.73 56.41 -3 56 C-6.61 73.11 -6.61 73.11 -9.06 80.75 C-13.06 93.31 -14.74 105.94 -16 119 C-15.58 117.77 -15.15 116.53 -14.71 115.26 C-11.06 104.67 -7.27 94.16 -3.09 83.77 C-1.79 80.48 -0.58 77.16 0.65 73.85 C5.87 60.01 10.51 48.7 23 40 C24.84 38.49 26.67 36.97 28.5 35.44 C31.54 33.02 34.64 30.95 38 29 C37.57 30.69 37.13 32.38 36.69 34.06 C36.44 35 36.2 35.94 35.95 36.91 C34.05 43.1 31.22 48.59 27.94 54.12 C25.66 57.99 23.54 61.77 22 66 C22.58 65.71 23.16 65.42 23.75 65.12 C25.83 64.08 27.92 63.04 30 62 C29.14 66.85 28.19 70.92 25.81 75.25 C22.62 81.27 20.68 87.66 18.59 94.12 C16.99 99.06 15.31 103.92 13.38 108.75 C11.49 113.52 9.97 118.32 8.56 123.25 C0.72 150.59 0.72 150.59 -7.06 159.31 C-11.11 164.93 -13.26 172.15 -14 179 C-13.34 179 -12.68 179 -12 179 C-11.74 178.41 -11.48 177.82 -11.21 177.21 C-9.94 174.88 -8.61 173.44 -6.69 171.62 C-5.44 170.44 -4.21 169.23 -3 168 C-2.14 167.12 -1.27 166.25 -0.38 165.35 C2.73 161.55 3.12 157.55 3.81 152.81 C5.41 144.11 7.89 138.57 14 132 C14.61 131.34 15.22 130.67 15.85 129.99 C19.29 126.26 22.77 122.57 26.29 118.92 C28.54 116.58 30.69 114.22 32.74 111.71 C34.71 109.35 36.66 107.37 39 105.38 C39.68 104.79 40.37 104.21 41.07 103.61 C41.71 103.08 42.34 102.55 43 102 C43.95 101.2 44.9 100.39 45.88 99.56 C48 98 48 98 50 98 C50.65 105.68 49.37 110.53 45.5 117.12 C44.58 118.79 43.65 120.45 42.73 122.11 C42.04 123.34 42.04 123.34 41.33 124.6 C38.32 130.03 35.58 135.6 32.88 141.2 C32.07 142.85 31.23 144.49 30.38 146.12 C24.88 157.55 22.97 170.05 20.57 182.42 C20 185 20 185 19 187 C18.96 189 18.96 191 19 193 C19.93 192.26 19.93 192.26 20.88 191.5 C23 190 23 190 25 190 C25.51 192.06 26.01 194.12 26.5 196.19 C26.92 197.91 26.92 197.91 27.34 199.67 C27.91 202.57 28.13 205.06 28 208 C26.68 208 25.36 208 24 208 C23.01 204.53 23.01 204.53 22 201 C20 203.89 20 203.89 18.56 206.69 C18.05 207.45 17.53 208.21 17 209 C16.01 209 15.02 209 14 209 C11.64 203.98 10.7 199.99 11.73 194.48 C11.93 193.43 12.12 192.38 12.32 191.3 C13.44 185.85 14.66 180.42 15.94 175 C16.19 173.91 16.44 172.83 16.7 171.71 C17.21 169.54 17.72 167.37 18.24 165.2 C18.75 163.07 19.24 160.93 19.73 158.79 C21.13 152.84 22.79 147.57 25.69 142.19 C26.03 141.52 26.38 140.86 26.74 140.17 C27.81 138.11 28.91 136.05 30 134 C30.7 132.67 31.39 131.33 32.09 130 C35.83 122.86 39.75 115.85 44 109 C37.3 114.36 31.7 120.62 26 127 C25.33 127.74 24.67 128.48 23.98 129.24 C22.85 130.52 21.72 131.81 20.62 133.12 C19 135 19 135 17.2 136.82 C11.89 142.63 10.62 148.65 8.92 156.11 C7.33 162.66 4.98 166.43 0 171 C-1.01 172.66 -2.01 174.33 -3 176 C-3.66 176 -4.32 176 -5 176 C-5.23 176.58 -5.45 177.15 -5.69 177.75 C-7.35 180.6 -9.32 182.12 -12 184 C-12.66 184 -13.32 184 -14 184 C-14.66 185.32 -15.32 186.64 -16 188 C-16.66 188 -17.32 188 -18 188 C-18.45 177.59 -18.82 167.55 -14 158 C-11.74 155.82 -11.74 155.82 -9.16 153.7 C-2.38 147.14 -0.88 139.7 1.25 130.81 C2.01 127.79 2.79 124.78 3.58 121.77 C3.87 120.66 3.87 120.66 4.16 119.53 C6.14 112.06 9.02 105.12 12 98 C13.66 93.7 15.27 89.38 16.88 85.06 C17.28 83.99 17.68 82.91 18.09 81.8 C19.06 79.2 20.03 76.6 21 74 C20.08 74.46 20.08 74.46 19.14 74.93 C17.09 75.95 15.05 76.98 13 78 C15.28 67.74 19.41 58.96 24.51 49.79 C26.08 47.03 26.08 47.03 27 44 C25.27 45.87 23.54 47.75 21.81 49.62 C21.33 50.15 20.85 50.67 20.35 51.21 C18.89 52.8 17.44 54.39 16 56 C15.54 56.51 15.07 57.02 14.6 57.55 C11.86 60.68 10.16 63.45 8.81 67.38 C6.38 74.08 3.69 80.67 0.94 87.25 C0.51 88.27 0.09 89.29 -0.35 90.33 C-2.2 94.77 -4.08 99.17 -6.14 103.52 C-8.44 108.65 -9.55 113.96 -10.69 119.44 C-11.11 121.39 -11.53 123.35 -11.95 125.31 C-12.13 126.16 -12.31 127.02 -12.49 127.9 C-13 130 -13 130 -14 132 C-14.66 132 -15.32 132 -16 132 C-16.23 132.58 -16.45 133.15 -16.69 133.75 C-18.33 136.56 -20.44 138.03 -23 140 C-23.06 136.92 -23.09 133.83 -23.12 130.75 C-23.15 129.44 -23.15 129.44 -23.18 128.11 C-23.18 127.26 -23.19 126.42 -23.2 125.55 C-23.21 124.77 -23.22 124 -23.23 123.2 C-22.97 120.71 -22.13 119.22 -21 117 C-20.63 115.17 -20.32 113.33 -20.07 111.48 C-19.92 110.41 -19.76 109.33 -19.61 108.21 C-19.45 107.07 -19.29 105.93 -19.12 104.75 C-17.18 91.43 -14.54 78.7 -10 66 C-11.8 67.43 -13.59 68.87 -15.38 70.31 C-16.37 71.11 -17.37 71.91 -18.4 72.74 C-21.13 74.92 -21.13 74.92 -23 78 C-23.66 78 -24.32 78 -25 78 C-25.21 78.68 -25.41 79.36 -25.62 80.06 C-26.92 82.82 -27.85 83.92 -29.94 86 C-33.56 90.06 -34.2 94.22 -35.23 99.45 C-36.55 105.52 -38.75 111.23 -41 117 C-41.3 117.83 -41.59 118.66 -41.89 119.52 C-43.67 123.89 -45.41 125.54 -49.75 127.5 C-51.16 128.03 -52.57 128.54 -54 129 C-54.33 122.71 -53.09 117.1 -51.62 111 C-51.4 110.04 -51.18 109.08 -50.95 108.09 C-50.32 105.39 -49.67 102.69 -49 100 C-48.83 99.3 -48.65 98.6 -48.48 97.88 C-47.61 94.61 -46.68 92.02 -44.56 89.38 C-44.04 88.72 -43.52 88.06 -42.98 87.38 C-42.32 86.59 -41.67 85.81 -41 85 C-40.58 84.49 -40.16 83.98 -39.73 83.46 C-31.02 72.93 -31.02 72.93 -27.47 69.68 C-24.16 66.09 -22.19 62.15 -20 57.81 C-19.59 57.01 -19.17 56.21 -18.75 55.39 C-17.91 53.75 -17.08 52.11 -16.26 50.47 C-15.43 48.85 -14.57 47.25 -13.67 45.67 C-9.73 38.53 -8.44 31.38 -7.19 23.38 C-6.97 22.08 -6.76 20.79 -6.53 19.46 C-6.01 16.31 -5.5 13.16 -5 10 C-5.33 10.66 -5.66 11.32 -6 12 C-6.66 12 -7.32 12 -8 12 C-8.38 13.28 -8.38 13.28 -8.77 14.58 C-10.09 18.25 -11.78 21.38 -13.75 24.75 C-14.11 25.36 -14.46 25.98 -14.83 26.61 C-16.86 30.11 -18.95 33.56 -21.06 37 C-24.18 42.1 -26.68 47.48 -29.19 52.9 C-31.1 56.18 -32.85 57.92 -36 60 C-36.66 60 -37.32 60 -38 60 C-38.26 60.59 -38.51 61.18 -38.77 61.79 C-40.13 64.23 -41.5 65.53 -43.62 67.31 C-44.34 67.92 -45.05 68.54 -45.78 69.17 C-47.2 70.34 -48.64 71.47 -50.13 72.55 C-57.29 78.03 -59.37 85.35 -61.79 93.72 C-64.34 102.37 -67.51 110.64 -70.95 118.96 C-71.88 121.19 -72.78 123.43 -73.69 125.67 C-78.13 136.52 -83.17 146.17 -90.69 155.25 C-94.06 159.33 -96.8 163.13 -99 168 C-101 165 -101 165 -100.81 162.59 C-99.92 159.75 -98.78 157.94 -97 155.56 C-93.98 151.4 -91.1 147.19 -88.31 142.88 C-87.94 142.31 -87.58 141.75 -87.2 141.17 C-82.12 133.3 -78.97 125.27 -76.06 116.38 C-72.78 106.67 -69.2 97.12 -65.21 87.68 C-64.66 86.36 -64.11 85.04 -63.57 83.72 C-60.48 76.18 -58.26 70.99 -51 67 C-49.31 65.36 -47.65 63.69 -46 62 C-45.32 61.5 -44.63 61 -43.93 60.49 C-35.35 53.89 -31.13 44.95 -26.06 35.58 C-23.19 30.28 -20.06 25.33 -16.59 20.4 C-14.8 17.7 -13.44 14.89 -12 12 C-3.99 0 -3.99 0 0 0 Z " fill="#FBF9F8" transform="translate(109,335)"/>
<path d="M0 0 C7.32 9.07 14.25 18.49 21 28 C21.69 28.92 22.37 29.84 23.08 30.79 C25.37 34.61 26.4 38.14 27.44 42.44 C27.65 43.26 27.85 44.08 28.07 44.92 C29.69 51.44 31.1 58 32.5 64.56 C38.35 91.9 47.83 116.58 62.18 140.69 C64.14 144.25 65.53 147.85 66.81 151.69 C67.32 153.18 67.84 154.67 68.35 156.16 C68.61 156.95 68.88 157.73 69.15 158.53 C70.04 161.12 70.95 163.7 71.87 166.27 C72.18 167.15 72.5 168.04 72.82 168.94 C73.42 170.65 74.03 172.35 74.64 174.05 C76.38 178.99 77.81 183.9 79 189 C75.38 189.74 71.96 190.06 68.28 190.03 C67.47 190.03 66.67 190.02 65.84 190.02 C65.24 190.01 64.63 190.01 64 190 C57.51 178.55 51.03 167.1 44.67 155.57 C42.12 150.96 39.48 146.4 36.8 141.85 C32.75 134.98 28.91 128.08 25.5 120.88 C25.19 120.21 24.87 119.55 24.55 118.87 C20.12 109.24 18.28 100.16 17.06 89.62 C16.81 87.56 16.55 85.49 16.29 83.42 C16.03 81.31 15.77 79.21 15.51 77.1 C13.17 55.8 13.17 55.8 7.29 35.31 C4.94 29.28 3.49 23.14 2.12 16.81 C1.91 15.83 1.69 14.85 1.47 13.84 C0.49 9.16 -0.27 4.81 0 0 Z " fill="#B31E36" transform="translate(635,354)"/>
<path d="M0 0 C4.86 3.36 7.3 7.07 8.62 12.81 C10.21 24.88 4.19 36.1 -2.38 45.81 C-4.11 47.99 -5.89 50.06 -7.8 52.09 C-9.47 53.91 -10.92 55.82 -12.38 57.81 C-25.66 55.91 -41.67 47.82 -50.25 37.44 C-54.03 32.2 -56.43 27.72 -56.31 21.19 C-54.85 15.92 -52.7 12.84 -48.38 9.5 C-43.58 6.8 -39.91 6.36 -34.38 6.81 C-31.27 7.95 -28.32 9.32 -25.38 10.81 C-25.07 9.73 -25.07 9.73 -24.75 8.62 C-19.99 -1.1 -9.53 -3.35 0 0 Z " fill="#B31F37" transform="translate(425.375,169.1875)"/>
<path d="M0 0 C6.64 5.12 9.87 12.27 11.14 20.46 C11.47 28.1 9.66 34.8 4.93 40.86 C-1.32 47.51 -7.63 51.08 -16.79 51.62 C-25.94 51.53 -31.51 48.13 -38.03 41.96 C-43.08 36.61 -45.34 30.54 -45.74 23.22 C-45.48 16.5 -43.25 10.03 -39.05 4.79 C-38.15 4.06 -37.24 3.34 -36.3 2.6 C-35.69 2.08 -35.08 1.57 -34.45 1.04 C-23.58 -7.73 -11.65 -7.09 0 0 Z " fill="#26355E" transform="translate(669.3046875,164.40234375)"/>
<path d="M0 0 C0.6 0.44 1.19 0.88 1.81 1.33 C2.52 1.85 3.23 2.37 3.96 2.91 C10.85 8.44 13.23 14.76 14.65 23.35 C15 29.88 13 35.8 10.25 41.64 C4.72 47.74 -2.38 52.84 -10.72 53.54 C-19.53 53.85 -26.37 51.87 -33.29 46.3 C-38.96 40.41 -41.55 33.41 -41.94 25.33 C-41.55 17.26 -38.98 10.19 -33.26 4.36 C-31.31 2.81 -29.36 1.55 -27.19 0.33 C-26.16 -0.29 -25.13 -0.91 -24.07 -1.55 C-16.73 -4.36 -6.75 -4.12 0 0 Z " fill="#26355E" transform="translate(723.19140625,219.671875)"/>
<path d="M0 0 C1.05 0.72 2.1 1.44 3.19 2.19 C9.55 8.55 12.48 16.04 13 25 C12.57 31.57 10.06 37.83 6 43 C-1.49 49.57 -8.32 52.48 -18.27 52.24 C-26.18 51.54 -32.42 47.55 -38 42 C-43.22 34.18 -43.75 26.22 -43 17 C-42 13.47 -40.68 10.26 -39 7 C-38.34 7 -37.68 7 -37 7 C-36.76 6.41 -36.52 5.81 -36.27 5.2 C-34.74 2.55 -33.19 1.47 -30.62 -0.19 C-29.47 -0.95 -29.47 -0.95 -28.29 -1.73 C-19.87 -6.4 -7.75 -5.52 0 0 Z " fill="#26355E" transform="translate(610,221)"/>
<path d="M0 0 C5.71 4.39 9.78 10.66 11.14 17.78 C12.11 26.24 10.63 33.5 6.14 40.78 C3.4 43.62 0.5 45.74 -2.86 47.78 C-3.85 48.4 -4.84 49.02 -5.86 49.66 C-12.91 52.3 -19.78 52.39 -26.86 49.78 C-34.93 45.83 -39.71 41.95 -43.11 33.53 C-46.31 24.03 -45.15 16.82 -40.86 7.78 C-37.62 2.31 -32.04 -1.79 -26.04 -3.84 C-16.94 -5.42 -7.8 -5.11 0 0 Z " fill="#26355E" transform="translate(668.859375,279.21875)"/>
<path d="M0 0 C4.31 2.63 7.65 5.53 11.16 9.15 C15 13.01 19.21 16.49 23.37 20.01 C27.68 23.73 30.98 27.11 34 32 C34.47 32.45 34.94 32.9 35.42 33.36 C41.04 38.76 41.24 44.58 41.94 52.06 C42.24 54.74 42.55 57.41 42.87 60.08 C43 61.14 43 61.14 43.12 62.22 C44.12 70.44 45.55 78.59 47.04 86.74 C47.34 88.4 47.64 90.06 47.94 91.72 C50.06 103.74 50.06 103.74 54.35 115.14 C55 117 55 117 54 120 C48.72 120.99 43.44 121.98 38 123 C35.27 116.95 35.27 116.95 34 114 C33.69 113.31 33.38 112.62 33.06 111.91 C30.34 105.6 29.12 99.75 28.4 92.94 C28.28 91.91 28.16 90.88 28.04 89.81 C27.66 86.54 27.3 83.27 26.94 80 C24.98 62.39 24.98 62.39 22.49 44.84 C22.38 44.14 22.27 43.43 22.16 42.7 C20.53 33 15.49 25.4 9.81 17.59 C6.02 12.16 2.1 6.31 0 0 Z " fill="#B31E36" transform="translate(681,419)"/>
<path d="M0 0 C0.5 0.99 0.5 0.99 1 2 C3 2.34 5 2.67 7 3 C7.99 3.99 7.99 3.99 9 5 C9.33 5 9.66 5 10 5 C10.19 6.48 10.38 7.96 10.56 9.44 C10.72 10.67 10.72 10.67 10.88 11.93 C10.94 12.96 10.94 12.96 11 14 C10.5 14.5 10.5 14.5 10 15 C8 14.93 6 14.8 4 14.62 C2.36 14.49 2.36 14.49 0.69 14.35 C-2.02 14.09 -4.71 13.81 -7.41 13.5 C-34.6 10.45 -62.84 11.07 -90 14 C-90 9.05 -90 4.1 -90 -1 C-88.68 -1.33 -87.36 -1.66 -86 -2 C-84.86 -2.38 -83.71 -2.76 -82.53 -3.16 C-81.88 -3.37 -81.22 -3.59 -80.55 -3.82 C-79.21 -4.26 -77.88 -4.72 -76.55 -5.18 C-54.15 -12.52 -21.25 -10.2 0 0 Z " fill="#7C152B" transform="translate(688,102)"/>
<path d="M0 0 C2.61 1.21 2.61 1.21 6.43 0.96 C6.43 1.62 6.43 2.28 6.43 2.96 C7.33 3.06 8.24 3.17 9.18 3.27 C12.61 4 14.01 4.46 16.43 6.96 C16.82 10.1 16.82 10.1 16.68 13.65 C16.64 14.83 16.6 16.01 16.57 17.22 C16.52 18.13 16.47 19.03 16.43 19.96 C15.15 19.82 13.87 19.67 12.55 19.52 C-15.45 16.64 -43.61 17.16 -71.58 20.07 C-72.31 20.14 -73.03 20.21 -73.78 20.29 C-75.74 20.49 -77.7 20.7 -79.66 20.91 C-80.62 20.93 -81.58 20.94 -82.57 20.96 C-83.23 20.3 -83.89 19.64 -84.57 18.96 C-83.76 15.11 -83.16 12.57 -80.39 9.71 C-77.22 7.74 -74.03 6.36 -70.57 4.96 C-69.15 4.19 -69.15 4.19 -67.7 3.4 C-63.7 1.56 -59.89 0.74 -55.57 -0.04 C-54.66 -0.23 -53.74 -0.41 -52.8 -0.61 C-37.84 -3.25 -14.37 -5.8 0 0 Z " fill="#7C152B" transform="translate(191.57421875,96.0390625)"/>
<path d="M0 0 C5.83 3.1 9.86 8.04 14 13.06 C14.54 13.7 15.09 14.34 15.65 15 C18.96 20.06 18.18 26.62 18.19 32.44 C18.2 33.36 18.21 34.28 18.22 35.23 C18.24 40.5 18.23 45.22 16 50.06 C11.16 52.8 5.5 52.4 0.06 52.38 C-1.24 52.4 -1.24 52.4 -2.57 52.42 C-8.1 52.43 -12.19 51.9 -17 49.06 C-19.12 43.6 -18.31 36.88 -18.38 31.12 C-18.41 29.85 -18.45 28.57 -18.49 27.26 C-18.58 17.83 -18.58 17.83 -15.6 13.87 C-14.31 12.98 -14.31 12.98 -13 12.06 C-12.34 11.07 -11.68 10.08 -11 9.06 C-10.34 9.06 -9.68 9.06 -9 9.06 C-8.77 8.51 -8.55 7.95 -8.31 7.38 C-6.43 4.06 -4.11 0.13 0 0 Z " fill="#7F162C" transform="translate(154,254.9375)"/>
<path d="M0 0 C0.87 -0.01 1.73 -0.01 2.62 -0.02 C8.23 0.18 11.05 2.14 15 6.04 C17.05 8.05 19.23 9.74 21.5 11.5 C24.23 13.94 24.94 14.82 26.06 18.44 C24.65 23.17 22.21 25.06 18.4 28.07 C16.02 29.85 16.02 29.85 14.48 31.8 C11.07 35.74 7.75 36.4 2.75 36.81 C-1.17 37.02 -5.08 37.04 -9 37 C-10.31 37 -11.61 37 -12.96 37 C-19.4 36.77 -19.4 36.77 -22 36 C-26.28 30.63 -26.18 24.72 -26.19 18.12 C-26.2 17.44 -26.21 16.76 -26.22 16.06 C-26.24 11.41 -25.66 7.41 -24 3 C-17.17 -1.55 -7.89 -0.17 0 0 Z " fill="#7F162D" transform="translate(117,226)"/>
<path d="M0 0 C1.05 -0 2.1 -0.01 3.19 -0.01 C4.28 -0 5.37 0.01 6.5 0.02 C7.59 0.01 8.69 0 9.81 -0.01 C10.86 -0.01 11.92 -0 13 0 C14.44 0 14.44 0 15.91 0.01 C18.63 0.28 20.24 0.74 22.5 2.27 C24.8 7.86 24.8 13.28 24.75 19.27 C24.76 20.56 24.76 20.56 24.77 21.88 C24.75 28.41 24.21 33.71 20.5 39.27 C19.84 39.27 19.18 39.27 18.5 39.27 C18.27 39.82 18.05 40.38 17.81 40.95 C16.13 43.91 13.96 45.93 11.5 48.27 C11.03 48.88 10.55 49.5 10.06 50.14 C8.5 51.27 8.5 51.27 5.44 51.2 C2.5 50.27 2.5 50.27 1.38 48.33 C1.09 47.65 0.8 46.97 0.5 46.27 C-0.1 45.98 -0.7 45.7 -1.32 45.41 C-4.05 43.98 -5.34 42.27 -7.19 39.83 C-7.79 39.05 -8.39 38.26 -9.01 37.46 C-12.61 32.16 -11.68 26.05 -11.69 19.89 C-11.7 18.75 -11.71 17.62 -11.72 16.45 C-11.73 15.35 -11.73 14.25 -11.73 13.12 C-11.73 12.12 -11.74 11.11 -11.74 10.08 C-11.48 7.03 -10.97 4.95 -9.5 2.27 C-6.46 0.05 -3.69 0.01 0 0 Z " fill="#7F162C" transform="translate(147.5,181.734375)"/>
<path d="M0 0 C1.29 0 2.57 0 3.89 0.01 C4.9 0.02 4.9 0.02 5.92 0.02 C7.96 0.04 10 0.05 12.04 0.04 C22.05 0.09 22.05 0.09 25.47 1.23 C28.23 6.51 27.8 11.86 27.78 17.67 C27.8 18.69 27.81 19.72 27.83 20.77 C27.84 30.68 27.84 30.68 24.47 35.23 C22.63 36.04 22.63 36.04 20.53 36.11 C19.74 36.14 18.94 36.18 18.12 36.21 C17.25 36.22 16.37 36.23 15.47 36.23 C14.52 36.26 13.57 36.28 12.6 36.31 C9.55 36.36 6.52 36.3 3.47 36.23 C2.02 36.24 2.02 36.24 0.54 36.25 C-5.93 36.06 -9.28 34.6 -13.88 30.02 C-14.42 29.43 -14.97 28.84 -15.53 28.23 C-17.22 26.48 -18.57 25.2 -20.66 23.92 C-23.27 21.56 -23.32 19.67 -23.53 16.23 C-22.39 12.81 -21.65 12.35 -18.78 10.36 C-15.37 7.9 -12.47 5.25 -9.53 2.23 C-5.93 -0.17 -4.28 -0.01 0 0 Z " fill="#7F162C" transform="translate(188.53125,226.76953125)"/>
<path d="M0 0 C6.19 2.83 10.63 7.19 13.7 13.26 C14.78 20.18 14.76 26.58 10.89 32.57 C8.81 35.36 8.08 36.14 4.7 37.26 C4.7 37.92 4.7 38.58 4.7 39.26 C-1.75 42.31 -9.68 42.52 -16.55 40.64 C-22.1 37.83 -26.36 32.07 -28.3 26.26 C-29.03 19.3 -28.92 13.24 -25.03 7.24 C-18.43 -0.3 -9.61 -3.09 0 0 Z " fill="#28365D" transform="translate(410.296875,341.73828125)"/>
<path d="M0 0 C3.78 1.13 6.7 2.24 9.75 4.75 C12.78 7.14 15.86 9.18 19.19 11.12 C28.26 16.48 28.26 16.48 30.31 20.69 C31.74 23.11 31.74 23.11 33.86 23.61 C37.98 24.24 39.38 24.41 43 22 C44.5 23.38 44.5 23.38 46 25 C46 25.66 46 26.32 46 27 C46.66 27 47.32 27 48 27 C47.71 26.42 47.42 25.84 47.12 25.25 C46.44 23.87 45.77 22.48 45.16 21.06 C43.82 18.68 42.39 17.49 40.25 15.81 C35.84 12.11 32.94 7.91 30 3 C33.4 4.45 35.35 6.28 37.81 9 C41.38 12.68 43.98 13.79 49 15 C50.42 16.27 51.85 17.53 53.25 18.82 C56.71 21.14 60.94 21.46 65 22 C65 22.99 65 23.98 65 25 C64.35 25.14 63.7 25.27 63.02 25.41 C56.32 27.06 52.86 29.27 49 35 C47.11 34.47 47.11 34.47 45.19 33.94 C38.86 32.57 32.59 32.29 26.63 35.13 C22.41 37.97 19.78 40.95 18.34 45.86 C17.21 53.06 19.27 57.98 23 64 C23 64.99 23 65.98 23 67 C21.05 66.15 19.12 65.27 17.19 64.38 C16.11 63.89 15.03 63.4 13.92 62.9 C10.44 60.63 9.63 58.76 8 55 C6.4 52.83 6.4 52.83 4.62 50.94 C4.02 50.27 3.41 49.59 2.79 48.9 C0.57 46.54 -1.68 44.25 -4 42 C-0.46 42 0.1 42.61 2.69 44.88 C3.31 45.41 3.93 45.94 4.57 46.49 C6 48 6 48 6 50 C6.58 50.27 7.15 50.54 7.75 50.81 C10.03 52.02 11.97 53.41 14 55 C12.68 53.02 11.36 51.04 10 49 C10.66 49 11.32 49 12 49 C11.05 47.33 10.1 45.67 9.14 44.01 C8.41 42.72 7.7 41.43 7.02 40.12 C4.86 36.04 2.57 33.82 -1 31 C-2.31 28.25 -2.31 28.25 -3 26 C-1.02 27.32 0.96 28.64 3 30 C3.33 29.67 3.66 29.34 4 29 C4.66 28.67 5.32 28.34 6 28 C6 27.34 6 26.68 6 26 C5.34 26 4.68 26 4 26 C-0.99 21.6 -4.9 16.21 -9 11 C-10.14 9.7 -10.14 9.7 -11.31 8.38 C-11.87 7.59 -12.42 6.81 -13 6 C-12.67 5.01 -12.34 4.02 -12 3 C-11.45 3.64 -10.91 4.28 -10.35 4.94 C-4.53 11.62 1.41 17.29 9.06 21.81 C9.7 22.2 10.34 22.6 11 23 C11 23.66 11 24.32 11 25 C13.64 25.33 16.28 25.66 19 26 C18.4 24.56 17.8 23.12 17.19 21.69 C16.68 20.49 16.68 20.49 16.17 19.26 C14.47 15.98 12.8 14.43 9.55 12.67 C6.43 10.62 5.1 8.5 3.19 5.31 C2.58 4.32 1.98 3.32 1.36 2.3 C0.91 1.54 0.46 0.78 0 0 Z " fill="#27365F" transform="translate(350,142)"/>
<path d="M0 0 C5 4.64 6.82 8.58 7.23 15.31 C7.26 17.5 7.26 19.69 7.25 21.88 C7.28 22.97 7.31 24.06 7.35 25.19 C7.36 31.81 6.54 35.85 2.2 40.93 C-1.37 44.34 -4.44 45.29 -9.25 46.06 C-13.86 45.89 -16.42 43.47 -19.71 40.46 C-24.44 34.72 -23.74 28.05 -23.75 21 C-23.77 19.88 -23.8 18.76 -23.82 17.61 C-23.85 11.23 -23.68 7.27 -19.38 2.44 C-18.86 1.84 -18.34 1.24 -17.81 0.62 C-13.05 -3.31 -5.2 -2.41 0 0 Z " fill="#82192D" transform="translate(574.375,143.5625)"/>
<path d="M0 0 C3.45 2.86 5.77 5.55 7.19 9.81 C7.45 13.75 7.42 17.68 7.44 21.62 C7.46 22.71 7.48 23.79 7.5 24.9 C7.54 32.37 6.78 36.9 1.69 42.62 C-1.36 45.29 -3.11 45.76 -7.12 46.06 C-12.47 45.7 -15.39 44 -19.46 40.6 C-23.58 35.5 -22.49 28.51 -22.38 22.31 C-22.39 21.01 -22.4 19.7 -22.41 18.36 C-22.36 11.45 -22.23 7.39 -17.81 1.81 C-12.36 -1.99 -6.1 -2.58 0 0 Z " fill="#80172D" transform="translate(247.8125,143.1875)"/>
<path d="M0 0 C1.88 0.94 1.88 0.94 4 3 C4.54 5.06 4.54 5.06 4.94 7.44 C5.58 10.96 5.82 11.82 8.44 14.5 C10.99 16.11 10.99 16.11 14 17 C15.17 18.74 15.17 18.74 16.19 20.88 C16.53 21.57 16.88 22.27 17.23 22.99 C18 25 18 25 18 28 C17.53 27.44 17.05 26.89 16.56 26.31 C13.08 23.17 9.15 21.16 5 19 C5.33 20.96 5.33 20.96 6 23 C7.66 24.01 9.33 25.01 11 26 C16 31.03 16 31.03 16 34 C14.35 33.67 12.7 33.34 11 33 C13.57 35.64 16.04 38.03 18.94 40.31 C24.06 44.51 27.77 49.78 30 56 C31.28 58.37 32.63 60.68 34 63 C32.21 62.81 32.21 62.81 30 62 C28.08 59.56 26.52 56.99 24.88 54.35 C22.75 51.68 21.28 50.85 18 50 C17.01 50.5 17.01 50.5 16 51 C14.83 49.47 13.66 47.94 12.48 46.41 C10.72 44.73 9.37 44.4 7 44 C7.27 44.53 7.53 45.06 7.8 45.61 C9.54 49.07 11.27 52.54 13 56 C12.59 55.61 12.18 55.23 11.75 54.83 C7.44 50.94 3.28 48.41 -2 46 C-1.55 46.4 -1.11 46.8 -0.64 47.21 C3.46 51.07 6.12 54.73 8.67 59.73 C10.55 62.94 12.97 65.5 15.55 68.18 C17.11 70.14 17.59 71.55 18 74 C13 69 13 69 10.94 66.62 C10.3 66.09 9.66 65.55 9 65 C6.78 65.14 6.78 65.14 5 66 C5.48 70.22 6.17 72.8 9 76 C5.63 75.75 4.78 74.77 2.38 72.25 C0.78 70.23 -0.06 68.84 -0.94 66.38 C-2.43 63.04 -4.86 61.64 -8 60 C-10.95 58.95 -13.96 58.18 -17 57.44 C-22.36 56.1 -27.12 54.7 -32 52 C-31.01 51.5 -31.01 51.5 -30 51 C-29.01 51.33 -28.02 51.66 -27 52 C-22.92 52.42 -20.8 52.57 -17.41 50.16 C-8.76 40.37 1.65 25.04 1.25 11.38 C1.22 10.45 1.2 9.52 1.17 8.57 C0.98 5.66 0.62 2.85 0 0 Z " fill="#27365E" transform="translate(434,175)"/>
<path d="M0 0 C4.52 2.6 7.25 4.96 8.8 10.09 C9.45 15.1 9.39 18.87 7.18 23.47 C3.06 28.03 -0.94 30.76 -7.11 31.26 C-12.3 30.85 -16.13 28.21 -19.63 24.53 C-22.38 20.25 -22.85 16.08 -22.2 11.09 C-20.41 6.28 -17.45 2.93 -13.2 0.09 C-8.61 -1.43 -4.49 -1.85 0 0 Z " fill="#26355E" transform="translate(716.1953125,229.90625)"/>
<path d="M0 0 C0.72 -0.01 1.43 -0.02 2.17 -0.02 C4.56 -0.05 6.94 -0.07 9.32 -0.08 C10.13 -0.09 10.94 -0.09 11.78 -0.1 C16.08 -0.12 20.37 -0.14 24.67 -0.16 C29.11 -0.17 33.56 -0.22 38 -0.27 C41.41 -0.3 44.82 -0.31 48.23 -0.32 C49.87 -0.33 51.51 -0.34 53.15 -0.37 C55.44 -0.4 57.73 -0.4 60.02 -0.39 C61.33 -0.4 62.63 -0.41 63.98 -0.42 C67.14 0.19 67.14 0.19 69.09 2.73 C69.43 3.54 69.78 4.36 70.14 5.19 C69.08 6.67 69.08 6.67 67.14 8.19 C63.99 8.56 63.99 8.56 60.06 8.55 C58.98 8.55 58.98 8.55 57.88 8.56 C55.51 8.56 53.14 8.54 50.77 8.52 C49.12 8.52 47.47 8.52 45.82 8.52 C42.37 8.51 38.92 8.5 35.46 8.47 C31.03 8.45 26.61 8.43 22.18 8.43 C18.77 8.43 15.37 8.42 11.97 8.4 C10.34 8.4 8.7 8.39 7.07 8.39 C4.79 8.38 2.51 8.37 0.23 8.35 C-1.07 8.35 -2.37 8.34 -3.71 8.33 C-6.86 8.19 -6.86 8.19 -9.86 7.19 C-7.63 0.2 -7.39 0.07 0 0 Z " fill="#7D1830" transform="translate(372.85888671875,413.80712890625)"/>
<path d="M0 0 C6.64 5.12 9.87 12.27 11.14 20.46 C11.47 28.1 9.66 34.8 4.93 40.86 C-1.32 47.51 -7.63 51.08 -16.79 51.62 C-25.94 51.53 -31.51 48.13 -38.03 41.96 C-43.08 36.61 -45.34 30.54 -45.74 23.22 C-45.48 16.5 -43.25 10.03 -39.05 4.79 C-38.15 4.06 -37.24 3.34 -36.3 2.6 C-35.69 2.08 -35.08 1.57 -34.45 1.04 C-23.58 -7.73 -11.65 -7.09 0 0 Z M-36.75 7.3 C-42.09 14.56 -42.08 21.85 -41.3 30.6 C-39.19 37.61 -34.5 41.96 -28.3 45.6 C-22.56 48.34 -15.97 48.69 -9.87 46.88 C-3 44.01 2.84 40.14 6 33.17 C7.88 26.23 8.1 17.7 5.13 11.04 C1.33 4.88 -4.42 0.66 -11.3 -1.4 C-20.96 -2.43 -30.16 -0.47 -36.75 7.3 Z " fill="#1E2A4B" transform="translate(669.3046875,164.40234375)"/>
<path d="M0 0 C2.45 2.22 3.87 4.38 5.35 7.32 C5.78 8.18 6.22 9.04 6.67 9.92 C7.13 10.83 7.59 11.75 8.06 12.69 C11.6 19.57 15.25 26.32 19.38 32.88 C19.77 33.5 20.16 34.12 20.56 34.76 C22.88 38.38 25.32 41.89 27.86 45.36 C30.63 49.33 32.91 53.64 35 58 C34.67 58.33 34.34 58.66 34 59 C31.13 58.91 28.3 58.76 25.44 58.56 C24.63 58.51 23.82 58.46 22.99 58.4 C21 58.27 19 58.14 17 58 C8.74 41.74 0 18.27 0 0 Z " fill="#B21E36" transform="translate(658,486)"/>
<path d="M0 0 C0.6 0.44 1.19 0.88 1.81 1.33 C2.52 1.85 3.23 2.37 3.96 2.91 C10.85 8.44 13.23 14.76 14.65 23.35 C15 29.88 13 35.8 10.25 41.64 C4.72 47.74 -2.38 52.84 -10.72 53.54 C-19.53 53.85 -26.37 51.87 -33.29 46.3 C-38.96 40.41 -41.55 33.41 -41.94 25.33 C-41.55 17.26 -38.98 10.19 -33.26 4.36 C-31.31 2.81 -29.36 1.55 -27.19 0.33 C-26.16 -0.29 -25.13 -0.91 -24.07 -1.55 C-16.73 -4.36 -6.75 -4.12 0 0 Z M-34.19 10.33 C-38.38 17.97 -39.18 25 -37 33.39 C-34.85 39.9 -31.61 43.76 -25.69 47.2 C-18.75 50.38 -11.66 50.67 -4.35 48.48 C1.75 45.78 5.45 42.04 8.81 36.33 C9.18 35.71 9.56 35.1 9.94 34.47 C12.38 28.45 11.63 20.42 9.31 14.45 C6.01 8.15 0.9 3.83 -5.75 1.39 C-16.71 -1.63 -26.56 2.05 -34.19 10.33 Z " fill="#1E2A4C" transform="translate(723.19140625,219.671875)"/>
<path d="M0 0 C1.05 0.72 2.1 1.44 3.19 2.19 C9.55 8.55 12.48 16.04 13 25 C12.57 31.57 10.06 37.83 6 43 C-1.49 49.57 -8.32 52.48 -18.27 52.24 C-26.18 51.54 -32.42 47.55 -38 42 C-43.22 34.18 -43.75 26.22 -43 17 C-42 13.47 -40.68 10.26 -39 7 C-38.34 7 -37.68 7 -37 7 C-36.76 6.41 -36.52 5.81 -36.27 5.2 C-34.74 2.55 -33.19 1.47 -30.62 -0.19 C-29.47 -0.95 -29.47 -0.95 -28.29 -1.73 C-19.87 -6.4 -7.75 -5.52 0 0 Z M-36 9 C-39.66 14.89 -41.55 20.23 -40.69 27.19 C-38.89 34.84 -35.47 40.7 -28.81 45 C-22.44 48.62 -16.2 48.72 -9 48 C-2.46 45.96 2.33 42.78 6 37 C9.62 29.21 10.26 21.95 7.44 13.81 C4.36 6.9 -0.18 3.61 -7 0.62 C-17.95 -3.32 -28.67 0.05 -36 9 Z " fill="#1E2A4C" transform="translate(610,221)"/>
<path d="M0 0 C5.71 4.39 9.78 10.66 11.14 17.78 C12.11 26.24 10.63 33.5 6.14 40.78 C3.4 43.62 0.5 45.74 -2.86 47.78 C-3.85 48.4 -4.84 49.02 -5.86 49.66 C-12.91 52.3 -19.78 52.39 -26.86 49.78 C-34.93 45.83 -39.71 41.95 -43.11 33.53 C-46.31 24.03 -45.15 16.82 -40.86 7.78 C-37.62 2.31 -32.04 -1.79 -26.04 -3.84 C-16.94 -5.42 -7.8 -5.11 0 0 Z M-38.11 10.41 C-42.39 16.21 -41.57 23.92 -40.86 30.78 C-38.6 37.27 -34.83 41.65 -28.8 44.89 C-22.02 48.01 -15.85 49.01 -8.73 46.53 C-2.45 43.86 2.31 40.57 6 34.75 C7.51 30.81 7.69 27.28 7.7 23.09 C7.71 22.37 7.71 21.64 7.71 20.9 C7.56 16.18 6.58 12.92 4.14 8.78 C3.48 8.78 2.82 8.78 2.14 8.78 C1.89 8.18 1.64 7.57 1.39 6.95 C-0.06 4.44 -1.32 3.56 -3.8 2.09 C-4.49 1.68 -5.18 1.26 -5.89 0.83 C-18.65 -5.97 -29.81 0.72 -38.11 10.41 Z " fill="#1E2A4B" transform="translate(668.859375,279.21875)"/>
<path d="M0 0 C0.66 0 1.32 0 2 0 C3.17 1.53 3.17 1.53 4.46 3.66 C4.93 4.43 5.4 5.21 5.89 6.01 C6.38 6.83 6.87 7.65 7.38 8.5 C7.86 9.29 8.34 10.08 8.84 10.9 C11.81 15.82 14.5 20.82 17 26 C17.66 27.32 18.32 28.64 19 30 C7.12 30 -4.76 30 -17 30 C-8.02 13.16 -8.02 13.16 -4.56 7.69 C-2.15 3.92 -2.15 3.92 0 0 Z " fill="#3EDA9D" transform="translate(651,168)"/>
<path d="M0 0 C5.87 4.88 11.29 10.11 16.69 15.5 C17.53 16.33 18.37 17.16 19.24 18.01 C23.35 22.12 26.94 26.02 30 31 C31.59 33.12 33.19 35.22 34.81 37.31 C35.25 37.87 35.68 38.43 36.13 39.01 C37.42 40.68 38.71 42.34 40 44 C40.73 44.94 41.46 45.88 42.21 46.84 C43.8 48.9 45.4 50.95 47 53 C46.5 53.99 46.5 53.99 46 55 C40.47 51.32 34.99 47.58 29.54 43.77 C27.95 42.66 26.36 41.56 24.76 40.46 C10.64 30.7 4.35 18.53 0 2 C0 1.34 0 0.68 0 0 Z " fill="#FAB948" transform="translate(660,376)"/>
<path d="M0 0 C7.59 0 15.18 0 23 0 C23 7.26 23 14.52 23 22 C15.41 22 7.82 22 0 22 C0 14.74 0 7.48 0 0 Z " fill="#26355E" transform="translate(583,234)"/>
<path d="M0 0 C0.33 -0.66 0.66 -1.32 1 -2 C6.98 -0.47 11.22 0.99 16 5 C21.46 6.95 26.45 7.33 32.21 7.41 C33.5 7.44 33.5 7.44 34.81 7.47 C37.52 7.53 40.23 7.58 42.94 7.62 C44.78 7.66 46.63 7.7 48.48 7.74 C52.99 7.84 57.49 7.92 62 8 C63.29 10.58 63.12 12.41 63.12 15.29 C63.12 16.97 63.12 16.97 63.12 18.69 C63.12 19.93 63.12 21.16 63.11 22.44 C63.11 23.73 63.11 25.03 63.11 26.37 C63.11 29.93 63.11 33.5 63.1 37.06 C63.1 40.78 63.09 44.5 63.09 48.23 C63.09 55.28 63.08 62.33 63.07 69.38 C63.06 77.41 63.06 85.43 63.05 93.46 C63.04 109.97 63.02 126.49 63 143 C62.67 143 62.34 143 62 143 C61.67 99.44 61.34 55.88 61 11 C49.12 11 37.24 11 25 11 C14.82 8.96 14.82 8.96 10.06 5.24 C2.83 0.89 -6.86 0.81 -15.11 0.44 C-16.4 0.38 -16.4 0.38 -17.72 0.31 C-27.85 -0.13 -37.98 -0.24 -48.12 -0.25 C-49.1 -0.25 -50.08 -0.25 -51.09 -0.26 C-65.73 -0.26 -79.97 0.41 -94.46 2.64 C-98.63 3.23 -102.81 3.62 -107 4 C-107.66 5.65 -108.32 7.3 -109 9 C-109.99 9 -110.98 9 -112 9 C-110.1 5.48 -108.51 3 -105 1 C-78.8 -4.16 -24.55 -12.27 0 0 Z " fill="#CC8A3A" transform="translate(208,116)"/>
<path d="M0 0 C0.75 0 1.49 0 2.26 0.01 C18.88 0.05 35.22 0.8 51.75 2.5 C52.91 2.61 54.07 2.73 55.27 2.84 C65.93 4.02 65.93 4.02 70.38 7.12 C71.12 10 71.12 10 71.38 13.12 C72 14.81 72.65 16.48 73.38 18.12 C72.72 18.45 72.06 18.78 71.38 19.12 C71.07 18.43 70.77 17.73 70.46 17.01 C70.04 16.1 69.62 15.19 69.19 14.25 C68.78 13.35 68.38 12.44 67.96 11.51 C65.65 8.03 63.37 7.54 59.39 6.71 C57.03 6.29 54.68 5.92 52.31 5.56 C51.14 5.37 51.14 5.37 49.94 5.18 C39.33 3.54 28.75 2.97 18.02 2.96 C16.88 2.95 15.75 2.95 14.57 2.95 C12.18 2.94 9.78 2.94 7.39 2.94 C3.78 2.94 0.17 2.92 -3.43 2.9 C-32.32 2.61 -32.32 2.61 -58.62 13.12 C-72.82 13.45 -87 13.78 -101.62 14.12 C-101.96 57.69 -102.28 101.25 -102.62 146.12 C-102.96 146.12 -103.28 146.12 -103.62 146.12 C-103.67 128.84 -103.71 111.55 -103.73 94.26 C-103.74 86.23 -103.75 78.2 -103.78 70.18 C-103.8 63.18 -103.81 56.18 -103.81 49.19 C-103.82 45.48 -103.82 41.78 -103.84 38.07 C-103.85 33.94 -103.85 29.81 -103.85 25.67 C-103.86 24.44 -103.87 23.21 -103.87 21.94 C-103.87 20.82 -103.87 19.69 -103.87 18.53 C-103.87 17.56 -103.87 16.58 -103.87 15.57 C-103.62 13.12 -103.62 13.12 -101.62 10.12 C-98.8 9.88 -96.19 9.83 -93.36 9.9 C-92.13 9.92 -92.13 9.92 -90.87 9.93 C-88.22 9.96 -85.58 10.01 -82.94 10.06 C-80.31 10.11 -77.69 10.15 -75.06 10.18 C-73.43 10.2 -71.79 10.23 -70.16 10.27 C-64.34 10.35 -58.95 10.07 -54.31 6.19 C-50.47 3.24 -46.27 2.31 -41.62 1.12 C-41.13 2.11 -41.13 2.11 -40.62 3.12 C-40.07 2.99 -39.51 2.86 -38.93 2.72 C-26.12 -0.1 -13.05 -0.05 0 0 Z " fill="#D08E3B" transform="translate(638.625,112.875)"/>
<path d="M0 0 C15.56 18.67 21.22 36.94 22 61 C14.24 51.9 10.05 40.11 6 29 C5.75 28.39 5.51 27.79 5.25 27.17 C3.21 22.07 2.13 17.1 1.31 11.69 C1.18 10.89 1.05 10.09 0.92 9.27 C0.42 6.15 0 3.16 0 0 Z " fill="#FAB949" transform="translate(676,422)"/>
<path d="M0 0 C4.32 3.02 6.39 7.53 8.02 12.41 C8.64 20.56 5.79 25.87 0.71 31.93 C-3.7 35.78 -8.67 35.84 -14.26 35.73 C-19.56 35.11 -22.72 32.81 -26.3 28.85 C-30.18 23.24 -31.74 18.91 -30.59 12.03 C-29.02 6.59 -26.6 2.74 -21.98 -0.59 C-14.8 -4.1 -7.07 -3.45 0 0 Z M-23.8 6.41 C-27.06 10.89 -27.69 14.97 -26.98 20.41 C-25.11 25.72 -22.04 28.88 -16.98 31.41 C-12.47 32.85 -9.06 32.77 -4.73 30.79 C-0.66 28.48 1.92 25.61 4.02 21.41 C4.78 14.59 4.27 9.86 0.02 4.41 C-3.35 1.54 -6.62 0.18 -11.05 -0.03 C-16.65 0.6 -20.11 2.18 -23.8 6.41 Z " fill="#F76465" transform="translate(720.984375,228.58984375)"/>
<path d="M0 0 C9.57 0 19.14 0 29 0 C29 9.57 29 19.14 29 29 C19.43 29 9.86 29 0 29 C0 19.43 0 9.86 0 0 Z M3 4 C3 11.26 3 18.52 3 26 C10.59 26 18.18 26 26 26 C26 18.74 26 11.48 26 4 C18.41 4 10.82 4 3 4 Z " fill="#F566F1" transform="translate(580,230)"/>
<path d="M0 0 C10.88 3.75 10.88 3.75 12 6 C12.04 8.33 12.04 10.67 12 13 C13.98 13.99 15.96 14.98 18 16 C18 16.99 18 17.98 18 19 C6.51 23.84 6.51 23.84 0 22 C-0.33 21.67 -0.66 21.34 -1 21 C-2.51 20.77 -4.04 20.59 -5.56 20.44 C-6.39 20.35 -7.22 20.27 -8.07 20.18 C-9.02 20.09 -9.02 20.09 -10 20 C-10 18.68 -10 17.36 -10 16 C-3.38 13 -3.38 13 0 13 C0 8.71 0 4.42 0 0 Z " fill="#E1E3E8" transform="translate(399,350)"/>
<path d="M0 0 C4.38 1.85 6.88 4.94 10 8.42 C11.83 10.2 11.83 10.2 13.95 10.02 C16.77 8.62 18.58 6.71 20.75 4.44 C21.55 3.61 22.35 2.78 23.17 1.93 C23.78 1.3 24.38 0.66 25 0 C25.66 0.33 26.32 0.66 27 1 C25.63 6.65 21.32 9.51 17 13 C18.54 16.68 20.78 18.99 23.62 21.75 C24.85 22.95 24.85 22.95 26.1 24.17 C26.73 24.78 27.35 25.38 28 26 C27.01 26.99 26.02 27.98 25 29 C21.37 25.7 17.74 22.4 14 19 C10.39 20.8 8.19 22.45 5.25 25.12 C4.45 25.85 3.65 26.57 2.83 27.32 C2.22 27.87 1.62 28.43 1 29 C0.34 28.67 -0.32 28.34 -1 28 C0.22 22.96 3.42 20.72 7.32 17.65 C7.87 17.1 8.43 16.56 9 16 C9.35 13.02 9.35 13.02 7.57 11.54 C6.95 11.05 6.33 10.56 5.69 10.06 C0.59 5.89 0.59 5.89 -1 3 C-0.67 2.01 -0.34 1.02 0 0 Z " fill="#77ABE1" transform="translate(639,288)"/>
<path d="M0 0 C0.66 0 1.32 0 2 0 C3.24 1.62 3.24 1.62 4.6 3.87 C5.09 4.67 5.58 5.47 6.09 6.3 C6.59 7.15 7.1 8 7.62 8.88 C8.14 9.72 8.66 10.56 9.19 11.43 C13 17.73 13 17.73 13 20 C5.08 20 -2.84 20 -11 20 C-9.15 15.38 -7.04 11.43 -4.5 7.19 C-4.1 6.49 -3.69 5.8 -3.28 5.09 C-2.24 3.36 -1.13 1.67 0 0 Z " fill="#26355E" transform="translate(651,175)"/>
<path d="M0 0 C3.63 0 7.26 0 11 0 C12.51 3.01 12.18 5.68 12 9 C11.34 9.66 10.68 10.32 10 11 C10.99 11.66 11.98 12.32 13 13 C13.19 16.62 13.19 16.62 13 20 C11.02 20 9.04 20 7 20 C7 18.35 7 16.7 7 15 C6.01 14.67 5.02 14.34 4 14 C4 15.98 4 17.96 4 20 C2.35 20 0.7 20 -1 20 C-1.03 17.04 -1.05 14.08 -1.06 11.12 C-1.07 10.28 -1.08 9.44 -1.09 8.57 C-1.09 7.77 -1.09 6.96 -1.1 6.13 C-1.1 5.39 -1.11 4.65 -1.11 3.88 C-1 2 -1 2 0 0 Z " fill="#A51C39" transform="translate(628,53)"/>
<path d="M0 0 C2.31 0 4.62 0 7 0 C7.33 0.99 7.66 1.98 8 3 C8.33 2.01 8.66 1.02 9 0 C11.64 0 14.28 0 17 0 C17 2.31 17 4.62 17 7 C15.35 7.33 13.7 7.66 12 8 C12 9.32 12 10.64 12 12 C7.68 12.76 4.26 13.16 0 12 C-1.53 7.92 -0.63 4.21 0 0 Z " fill="#494A5A" transform="translate(539,128)"/>
<path d="M0 0 C0.33 1.32 0.66 2.64 1 4 C0.01 4 -0.98 4 -2 4 C-2 3.34 -2 2.68 -2 2 C-2.66 2 -3.32 2 -4 2 C-4 2.99 -4 3.98 -4 5 C-1.03 5.5 -1.03 5.5 2 6 C2 4.35 2 2.7 2 1 C2.99 1 3.98 1 5 1 C5 2.65 5 4.3 5 6 C5.99 6 6.98 6 8 6 C8 4.35 8 2.7 8 1 C8.99 1 9.98 1 11 1 C11.33 4.63 11.66 8.26 12 12 C10.68 12.33 9.36 12.66 8 13 C8 11.68 8 10.36 8 9 C7.01 9 6.02 9 5 9 C5 9.99 5 10.98 5 12 C1.02 13.33 -2.85 13.07 -7 13 C-7 11.68 -7 10.36 -7 9 C-5.35 9.33 -3.7 9.66 -2 10 C-2 9.34 -2 8.68 -2 8 C-3.65 7.67 -5.3 7.34 -7 7 C-7.69 5.19 -7.69 5.19 -8 3 C-5.86 -0.33 -3.76 -0.3 0 0 Z " fill="#2F3A5C" transform="translate(224,128)"/>
<path d="M0 0 C3.63 0 7.26 0 11 0 C11.9 3.6 12.16 6.33 12 10 C11 11 11 11 7.94 11.06 C6.97 11.04 6 11.02 5 11 C5 12.32 5 13.64 5 15 C5.99 15 6.98 15 8 15 C8 14.34 8 13.68 8 13 C9.32 13 10.64 13 12 13 C12 14.32 12 15.64 12 17 C9.62 18.19 8.09 18.13 5.44 18.12 C4.23 18.13 4.23 18.13 3 18.13 C1 18 1 18 0 17 C-0.07 15.48 -0.08 13.96 -0.06 12.44 C-0.05 11.61 -0.04 10.78 -0.04 9.93 C-0.02 9.3 -0.01 8.66 0 8 C2.64 7.67 5.28 7.34 8 7 C8 6.01 8 5.02 8 4 C5.36 4.33 2.72 4.66 0 5 C0 3.35 0 1.7 0 0 Z " fill="#A81C3A" transform="translate(168,55)"/>
<path d="M0 0 C1.46 -0.03 2.92 -0.05 4.38 -0.06 C5.19 -0.07 6 -0.09 6.84 -0.1 C9 0 9 0 11 1 C12.29 8.41 12.29 8.41 11 11 C7.94 11.62 7.94 11.62 5 12 C5 13.32 5 14.64 5 16 C5.66 16 6.32 16 7 16 C7 15.34 7 14.68 7 14 C8.32 14 9.64 14 11 14 C10.67 15.32 10.34 16.64 10 18 C8.35 18.03 6.71 18.05 5.06 18.06 C4.15 18.07 3.23 18.09 2.29 18.1 C0 18 0 18 -1 17 C-1.13 15.19 -1.13 15.19 -1.12 13 C-1.13 12.28 -1.13 11.56 -1.13 10.81 C-1 9 -1 9 0 8 C2.33 7.96 4.67 7.96 7 8 C7 7.01 7 6.02 7 5 C4.36 5 1.72 5 -1 5 C-0.67 3.35 -0.34 1.7 0 0 Z " fill="#A81C3A" transform="translate(643,55)"/>
<path d="M0 0 C1.98 0 3.96 0 6 0 C6.1 4.78 5.77 9.28 5 14 C8.11 15.21 8.11 15.21 12 15 C11.67 16.65 11.34 18.3 11 20 C7.04 20 3.08 20 -1 20 C-1.03 17.42 -1.05 14.83 -1.06 12.25 C-1.07 11.52 -1.08 10.79 -1.09 10.04 C-1.1 6.51 -0.95 3.39 0 0 Z " fill="#A81C3A" transform="translate(155,53)"/>
<path d="M0 0 C-0.33 1.65 -0.66 3.3 -1 5 C-1.66 5 -2.32 5 -3 5 C-3.27 5.68 -3.54 6.36 -3.81 7.06 C-4.67 9.19 -5.6 11.29 -6.56 13.38 C-7.99 16.98 -8.61 20.15 -9 24 C-10.65 24.66 -12.3 25.32 -14 26 C-14.81 23.81 -14.81 23.81 -15 21 C-12.62 18.38 -12.62 18.38 -10 16 C-9.67 15.01 -9.34 14.02 -9 13 C-12.63 12.01 -16.26 11.02 -20 10 C-20.33 8.68 -20.66 7.36 -21 6 C-17.89 5.03 -16.52 4.74 -13.54 6.21 C-10.27 8.61 -10.27 8.61 -7 11 C-6.67 7.37 -6.34 3.74 -6 0 C-3 -1 -3 -1 0 0 Z " fill="#F2EAEB" transform="translate(424,175)"/>
<path d="M0 0 C3.01 2.91 5.66 5.96 8.25 9.25 C8.96 10.14 9.66 11.03 10.39 11.95 C10.92 12.63 11.45 13.3 12 14 C10.3 17.74 8.39 19.63 5 22 C4.34 22 3.68 22 3 22 C1.85 19.7 1.71 17.99 1.46 15.43 C1.38 14.53 1.29 13.64 1.2 12.71 C1.11 11.78 1.03 10.84 0.94 9.88 C0.8 8.46 0.8 8.46 0.66 7.01 C0.44 4.67 0.22 2.34 0 0 Z " fill="#B22138" transform="translate(780,494)"/>
<path d="M0 0 C0.33 0 0.66 0 1 0 C1.47 10.64 -0.65 19.34 -7 28 C-7.97 29.03 -8.97 30.04 -10 31 C-8.58 20.1 -6.84 8.87 0 0 Z " fill="#FABB50" transform="translate(70,424)"/>
<path d="M0 0 C1 3 1 3 0.29 5.09 C-2.61 10.8 -5.96 15.82 -9.81 20.93 C-12.76 25.06 -15.31 29.39 -17.85 33.79 C-19.99 37.44 -22.27 40.76 -25 44 C-24.33 36.9 -24.33 36.9 -21 34 C-21 33.01 -21 32.02 -21 31 C-19.69 29.64 -18.35 28.31 -17 27 C-16.29 25.69 -15.63 24.35 -15 23 C-14.34 21.62 -13.67 20.25 -13 18.88 C-12.67 18.19 -12.34 17.51 -12 16.8 C-10.42 13.95 -7.91 11.83 -5.51 9.64 C-3.82 7.81 -2.88 6.06 -1.81 3.81 C-1.47 3.1 -1.12 2.38 -0.77 1.64 C-0.39 0.83 -0.39 0.83 0 0 Z " fill="#D9A03C" transform="translate(96,126)"/>
<path d="M0 0 C4.29 0 8.58 0 13 0 C12.67 3.96 12.34 7.92 12 12 C11.01 12 10.02 12 9 12 C9 9.03 9 6.06 9 3 C8.01 3 7.02 3 6 3 C6 5.97 6 8.94 6 12 C4.68 12 3.36 12 2 12 C2 9.36 2 6.72 2 4 C1.34 3.67 0.68 3.34 0 3 C0 2.01 0 1.02 0 0 Z " fill="#313C5C" transform="translate(557,128)"/>
<path d="M0 0 C2.31 0 4.62 0 7 0 C7.96 2.88 8.11 4.7 8.06 7.69 C8.05 8.5 8.04 9.3 8.04 10.14 C8.02 10.75 8.01 11.37 8 12 C4.23 13.26 2.63 12.37 -1 11 C-1.12 3.38 -1.12 3.38 0 0 Z " fill="#29375D" transform="translate(571,128)"/>
<path d="M0 0 C1.32 0 2.64 0 4 0 C4.33 1.65 4.66 3.3 5 5 C5.66 5 6.32 5 7 5 C7 3.35 7 1.7 7 0 C7.99 0 8.98 0 10 0 C10 3.96 10 7.92 10 12 C8.35 12 6.7 12 5 12 C4.34 10.35 3.68 8.7 3 7 C2.67 8.65 2.34 10.3 2 12 C1.34 12 0.68 12 0 12 C0 8.04 0 4.08 0 0 Z " fill="#2B385D" transform="translate(580,128)"/>
<path d="M0 0 C0.34 1.6 0.67 3.21 1 4.81 C1.19 5.71 1.37 6.6 1.56 7.52 C2 10 2 10 2 13 C-1 13 -1 13 -2.69 11.5 C-3.12 11 -3.55 10.51 -4 10 C-4 10.99 -4 11.98 -4 13 C-4.99 13 -5.98 13 -7 13 C-7.03 11.56 -7.05 10.13 -7.06 8.69 C-7.07 7.89 -7.09 7.09 -7.1 6.26 C-7 4 -7 4 -6 1 C-3.9 0.25 -2.23 0 0 0 Z " fill="#3A415B" transform="translate(244,128)"/>
<path d="M0 0 C-0.33 2.31 -0.66 4.62 -1 7 C-0.34 7 0.32 7 1 7 C1 8.65 1 10.3 1 12 C-0.32 12 -1.64 12 -3 12 C-3 10.68 -3 9.36 -3 8 C-3.66 8 -4.32 8 -5 8 C-5 9.32 -5 10.64 -5 12 C-5.66 12 -6.32 12 -7 12 C-7 8.04 -7 4.08 -7 0 C-3.87 -1.04 -3.01 -0.93 0 0 Z " fill="#3A415B" transform="translate(254,129)"/>
<path d="M0 0 C2.31 0 4.62 0 7 0 C7.33 1.32 7.66 2.64 8 4 C5.83 3.49 4 3 2 2 C2 2.99 2 3.98 2 5 C2.8 4.98 3.61 4.96 4.44 4.94 C7 5 7 5 8 6 C8.04 8 8.04 10 8 12 C5.36 12 2.72 12 0 12 C0 11.01 0 10.02 0 9 C1.32 9.33 2.64 9.66 4 10 C3.67 9.34 3.34 8.68 3 8 C2.01 7.67 1.02 7.34 0 7 C0 4.69 0 2.38 0 0 Z " fill="#303B5C" transform="translate(591,128)"/>
<path d="M0 0 C0 0.99 0 1.98 0 3 C-0.99 3.5 -0.99 3.5 -2 4 C-1.67 5.32 -1.34 6.64 -1 8 C-1.66 8 -2.32 8 -3 8 C-3 8.66 -3 9.32 -3 10 C-2.01 10 -1.02 10 0 10 C0 10.99 0 11.98 0 13 C-1.98 13 -3.96 13 -6 13 C-6 9.04 -6 5.08 -6 1 C-4 0 -4 0 0 0 Z " fill="#313C5C" transform="translate(262,128)"/>
<path d="M0 0 C2.38 0.75 2.38 0.75 3.38 1.75 C3.42 3.42 3.42 5.08 3.38 6.75 C-1.25 8.88 -1.25 8.88 -4.62 7.75 C-5.31 5.44 -5.31 5.44 -5.62 2.75 C-3.97 -0.02 -3.23 -0.31 0 0 Z " fill="#353E5C" transform="translate(432.625,291.25)"/>
<path d="M0 0 C2 0.69 2 0.69 4 2.69 C3.62 5.31 3.62 5.31 3 7.69 C0.69 8.31 0.69 8.31 -2 8.69 C-2.99 8.03 -3.98 7.37 -5 6.69 C-4.62 3.75 -4.62 3.75 -4 0.69 C-2 -0.31 -2 -0.31 0 0 Z " fill="#353E5C" transform="translate(375,291.3125)"/>
<path d="M0 0 C2 1 2 1 2.94 3.5 C3.29 4.32 3.64 5.15 4 6 C4.99 6.33 5.98 6.66 7 7 C8.19 10.06 8.19 10.06 9 13 C9.66 13 10.32 13 11 13 C11 13.99 11 14.98 11 16 C11.66 16.33 12.32 16.66 13 17 C12.67 17.99 12.34 18.98 12 20 C8.36 16.54 5.45 13.06 2.62 8.88 C1.56 7.32 1.56 7.32 0.48 5.74 C-0.25 4.38 -0.25 4.38 -1 3 C-0.67 2.01 -0.34 1.02 0 0 Z " fill="#D8A13D" transform="translate(712,131)"/>
<path d="M0 0 C2.69 0.88 2.69 0.88 5 2 C5 3.98 5 5.96 5 8 C2.12 8.62 2.12 8.62 -1 9 C-3 7 -3 7 -3.31 4.5 C-3.21 3.68 -3.11 2.85 -3 2 C-2.01 1.34 -1.02 0.68 0 0 Z " fill="#2D395D" transform="translate(409,301)"/>
<path d="M0 0 C2.69 0.88 2.69 0.88 5 2 C5 3.98 5 5.96 5 8 C2.12 8.62 2.12 8.62 -1 9 C-3 7 -3 7 -3.31 4.5 C-3.21 3.68 -3.11 2.85 -3 2 C-2.01 1.34 -1.02 0.68 0 0 Z " fill="#2D3A5D" transform="translate(395,301)"/>
<path d="M0 0 C1.88 0.69 1.88 0.69 2.88 1.69 C3.06 4.12 3.06 4.12 2.88 6.69 C2.21 7.35 1.56 8.01 0.88 8.69 C-3.68 8.13 -3.68 8.13 -5.12 6.69 C-5.38 4.25 -5.38 4.25 -5.12 1.69 C-2.12 -0.31 -2.12 -0.31 0 0 Z " fill="#313C5C" transform="translate(404.125,312.3125)"/>
<path d="M0 0 C2.56 0.19 2.56 0.19 4.56 2.19 C4.01 6.74 4.01 6.74 2.56 8.19 C0.12 8.44 0.12 8.44 -2.44 8.19 C-4.44 5.19 -4.44 5.19 -4.12 3.06 C-3.12 0.32 -2.99 0.23 0 0 Z " fill="#333D5C" transform="translate(381.4375,301.8125)"/>
<path d="M0 0 C4.71 0.71 4.71 0.71 6 2 C6.19 4.44 6.19 4.44 6 7 C5.34 7.66 4.68 8.32 4 9 C2.68 9 1.36 9 0 9 C-2 6 -2 6 -1.69 3.38 C-1 1 -1 1 0 0 Z " fill="#323C5C" transform="translate(415,312)"/>
<path d="M0 0 C2.62 0.38 2.62 0.38 5 1 C5.62 3.31 5.62 3.31 6 6 C5.01 7.49 5.01 7.49 4 9 C-0.88 8.12 -0.88 8.12 -2 7 C-2.19 4.56 -2.19 4.56 -2 2 C-1.34 1.34 -0.68 0.68 0 0 Z " fill="#313C5C" transform="translate(387,312)"/>
<path d="M0 0 C3.75 1.45 3.75 1.45 4.88 3.94 C5 6 5 6 3 9 C0.44 9.25 0.44 9.25 -2 9 C-3 8 -3 8 -3.25 5.06 C-3.17 4.05 -3.08 3.04 -3 2 C-2.01 1.34 -1.02 0.68 0 0 Z " fill="#313C5C" transform="translate(424,301)"/>
<path d="M0 0 C4.88 0.88 4.88 0.88 6 2 C6.04 3.67 6.04 5.33 6 7 C4.35 7.66 2.7 8.32 1 9 C-0.56 7.75 -0.56 7.75 -2 6 C-1.72 3.68 -1.05 2.09 0 0 Z " fill="#363F5C" transform="translate(415,291)"/>
<path d="M0 0 C2.62 0.94 2.62 0.94 5 2 C5 3.65 5 5.3 5 7 C2.69 8.12 2.69 8.12 0 9 C-0.99 8.34 -1.98 7.68 -3 7 C-2.62 4.06 -2.62 4.06 -2 1 C-1.34 0.67 -0.68 0.34 0 0 Z " fill="#323C5C" transform="translate(402,291)"/>
<path d="M0 0 C1.32 0 2.64 0 4 0 C6 3 6 3 5.62 5.69 C5.42 6.45 5.21 7.21 5 8 C3.19 8.62 3.19 8.62 1 9 C0.01 8.34 -0.98 7.68 -2 7 C-2.31 4.5 -2.31 4.5 -2 2 C-1.34 1.34 -0.68 0.68 0 0 Z " fill="#353E5C" transform="translate(387,291)"/>
<path d="M0 0 C2.61 1.3 2.75 2.37 4 5 C6.28 9.04 8.6 13.04 11 17 C10.34 17.66 9.68 18.32 9 19 C7.71 16.92 6.41 14.83 5.12 12.75 C4.76 12.16 4.4 11.58 4.02 10.97 C-0.04 4.4 -0.04 4.4 -1 2 C-0.67 1.34 -0.34 0.68 0 0 Z " fill="#DFA640" transform="translate(725,151)"/>
<path d="M0 0 C2.3 3.44 2.54 5.94 3 10 C0.69 10.33 -1.62 10.66 -4 11 C-2.68 7.37 -1.36 3.74 0 0 Z " fill="#2A345C" transform="translate(130,533)"/>
<path d="M0 0 C3.63 0.33 7.26 0.66 11 1 C11.33 2.32 11.66 3.64 12 5 C10.02 5.99 10.02 5.99 8 7 C6.66 6.02 5.33 5.04 4 4.06 C3.26 3.52 2.51 2.97 1.75 2.41 C1.17 1.94 0.6 1.48 0 1 C0 0.67 0 0.34 0 0 Z " fill="#F5F2F2" transform="translate(418,188)"/>
<path d="M0 0 C1.98 0 3.96 0 6 0 C6.33 1.32 6.66 2.64 7 4 C2.55 5.49 2.55 5.49 -2 7 C-2 6.01 -2 5.02 -2 4 C-0.35 3.67 1.3 3.34 3 3 C3 2.34 3 1.68 3 1 C2.01 0.67 1.02 0.34 0 0 Z " fill="#FCFDFD" transform="translate(410,365)"/>
<path d="M0 0 C1.03 3.09 0.97 4.53 0.56 7.69 C0.46 8.5 0.36 9.3 0.25 10.14 C0.17 10.75 0.09 11.37 0 12 C1.65 12 3.3 12 5 12 C5 12.33 5 12.66 5 13 C2.36 13.33 -0.28 13.66 -3 14 C-2.75 13.26 -2.75 13.26 -2.5 12.5 C-2.03 10.15 -2 8.25 -2.06 5.88 C-2 2 -2 2 0 0 Z " fill="#D79D46" transform="translate(237,129)"/>
<path d="M0 0 C2.48 0.99 2.48 0.99 5 2 C4.34 3.65 3.68 5.3 3 7 C0.52 6.01 0.52 6.01 -2 5 C-1.34 3.35 -0.68 1.7 0 0 Z " fill="#F3EFF0" transform="translate(419,194)"/>
<path d="M0 0 C2.48 0.99 2.48 0.99 5 2 C4.69 3.94 4.69 3.94 4 6 C3.01 6.33 2.02 6.66 1 7 C0.01 6.01 -0.98 5.02 -2 4 C-1.34 2.68 -0.68 1.36 0 0 Z " fill="#F4F0F1" transform="translate(405,187)"/>
<path d="M0 0 C1.65 0.33 3.3 0.66 5 1 C4.67 2.98 4.34 4.96 4 7 C1.52 6.01 1.52 6.01 -1 5 C-0.67 3.35 -0.34 1.7 0 0 Z " fill="#F3EDEE" transform="translate(411,174)"/>
<path d="M0 0 C2.48 0.99 2.48 0.99 5 2 C4.34 3.65 3.68 5.3 3 7 C0.52 6.01 0.52 6.01 -2 5 C-1.34 3.35 -0.68 1.7 0 0 Z " fill="#F5F4F4" transform="translate(425,180)"/>
<path d="M0 0 C1 3 1 3 0.22 4.82 C-0.85 6.55 -1.93 8.27 -3 10 C-4 7 -4 7 -4 3 C-3.01 2.67 -2.02 2.34 -1 2 C-0.67 1.34 -0.34 0.68 0 0 Z " fill="#DBA23C" transform="translate(70,170)"/>
<path d="M0 0 C0.33 0 0.66 0 1 0 C1 1.65 1 3.3 1 5 C-0.98 5 -2.96 5 -5 5 C-5.33 4.34 -5.66 3.68 -6 3 C-5.67 2.34 -5.34 1.68 -5 1 C-4.34 1 -3.68 1 -3 1 C-3 1.66 -3 2.32 -3 3 C-2.01 3 -1.02 3 0 3 C0 2.01 0 1.02 0 0 Z " fill="#D4A14A" transform="translate(225,129)"/>
<path d="M0 0 C2.95 1.37 5.44 2.99 8 5 C7.67 5.99 7.34 6.98 7 8 C3.76 5.61 1.49 3.8 0 0 Z " fill="#445072" transform="translate(346,183)"/>
<path d="M0 0 C0.66 0 1.32 0 2 0 C2 2.31 2 4.62 2 7 C1.01 6.67 0.02 6.34 -1 6 C-0.67 4.02 -0.34 2.04 0 0 Z " fill="#D09E4A" transform="translate(574,131)"/>
<path d="M0 0 C0.99 0.5 0.99 0.5 2 1 C1.01 1.5 1.01 1.5 0 2 C0 1.34 0 0.68 0 0 Z " fill="#DCA23D" transform="translate(318,428)"/>
<path d="M0 0 C0.33 0.66 0.66 1.32 1 2 C0.34 1.67 -0.32 1.34 -1 1 C-0.67 0.67 -0.34 0.34 0 0 Z " fill="#6F1327" transform="translate(111,104)"/>
<path d="M0 0 C2 1 2 1 2 1 Z " fill="#DCA23D" transform="translate(577,426)"/>
<path d="" fill="#DCA23D" transform="translate(0,0)"/>
<path d="" fill="#FAB846" transform="translate(0,0)"/>
<path d="M0 0 C2 1 2 1 2 1 Z " fill="#EBAC41" transform="translate(90,133)"/>
<path d="M0 0 C2 1 2 1 2 1 Z " fill="#A55A32" transform="translate(270,123)"/>
<path d="" fill="#6F1327" transform="translate(0,0)"/>
<path d="" fill="#6F1327" transform="translate(0,0)"/>
<path d="" fill="#6F1327" transform="translate(0,0)"/>
<path d="" fill="#6F1327" transform="translate(0,0)"/>
<path d="" fill="#6F1327" transform="translate(0,0)"/>
<path d="" fill="#6F1327" transform="translate(0,0)"/>
<path d="" fill="#6F1327" transform="translate(0,0)"/>
<path d="" fill="#6F1327" transform="translate(0,0)"/>
<path d="" fill="#6F1327" transform="translate(0,0)"/>
<path d="" fill="#6F1327" transform="translate(0,0)"/>
<path d="" fill="#6F1327" transform="translate(0,0)"/>
<path d="" fill="#6F1327" transform="translate(0,0)"/>
<path d="" fill="#6F1327" transform="translate(0,0)"/>
<path d="" fill="#6F1327" transform="translate(0,0)"/>
<path d="" fill="#6F1327" transform="translate(0,0)"/>
<path d="" fill="#6F1327" transform="translate(0,0)"/>
<path d="" fill="#6F1327" transform="translate(0,0)"/>
<path d="" fill="#6F1327" transform="translate(0,0)"/>
<path d="" fill="#6F1327" transform="translate(0,0)"/>
<path d="" fill="#6F1327" transform="translate(0,0)"/>
<path d="" fill="#6F1327" transform="translate(0,0)"/>
<path d="" fill="#6F1327" transform="translate(0,0)"/>
<path d="" fill="#6F1327" transform="translate(0,0)"/>
<path d="" fill="#6F1327" transform="translate(0,0)"/>
<path d="" fill="#6F1327" transform="translate(0,0)"/>
<path d="" fill="#6F1327" transform="translate(0,0)"/>
<path d="" fill="#6F1327" transform="translate(0,0)"/>
<path d="" fill="#6F1327" transform="translate(0,0)"/>
<path d="" fill="#6F1327" transform="translate(0,0)"/>
<path d="" fill="#6F1327" transform="translate(0,0)"/>
<path d="" fill="#6F1327" transform="translate(0,0)"/>
<path d="" fill="#83172E" transform="translate(0,0)"/>
<path d="" fill="#6F1327" transform="translate(0,0)"/>
<path d="" fill="#6F1327" transform="translate(0,0)"/>
<path d="" fill="#83172E" transform="translate(0,0)"/>
<path d="" fill="#6F1327" transform="translate(0,0)"/>
<path d="" fill="#6F1327" transform="translate(0,0)"/>
<path d="" fill="#83172E" transform="translate(0,0)"/>
<path d="" fill="#6F1327" transform="translate(0,0)"/>
<path d="" fill="#6F1327" transform="translate(0,0)"/>
<path d="" fill="#6F1327" transform="translate(0,0)"/>
<path d="" fill="#6F1327" transform="translate(0,0)"/>
<path d="" fill="#83172E" transform="translate(0,0)"/>
<path d="" fill="#83172E" transform="translate(0,0)"/>
<path d="" fill="#6F1327" transform="translate(0,0)"/>
<path d="" fill="#6E1326" transform="translate(0,0)"/>
<path d="" fill="#6F1327" transform="translate(0,0)"/>
<path d="" fill="#6B1226" transform="translate(0,0)"/>
<path d="" fill="#6F1327" transform="translate(0,0)"/>
<path d="" fill="#83172E" transform="translate(0,0)"/>
<path d="" fill="#83172E" transform="translate(0,0)"/>
<path d="" fill="#83172E" transform="translate(0,0)"/>
<path d="" fill="#83172E" transform="translate(0,0)"/>
<path d="" fill="#83172E" transform="translate(0,0)"/>
<path d="" fill="#83172E" transform="translate(0,0)"/>
<path d="" fill="#83172E" transform="translate(0,0)"/>
<path d="" fill="#83172E" transform="translate(0,0)"/>
<path d="" fill="#83172E" transform="translate(0,0)"/>
<path d="" fill="#83172E" transform="translate(0,0)"/>
<path d="" fill="#83172E" transform="translate(0,0)"/>
<path d="" fill="#83172E" transform="translate(0,0)"/>
<path d="" fill="#83172E" transform="translate(0,0)"/>
<path d="" fill="#83172E" transform="translate(0,0)"/>
<path d="" fill="#83172E" transform="translate(0,0)"/>
<path d="" fill="#83172E" transform="translate(0,0)"/>
<path d="" fill="#83172E" transform="translate(0,0)"/>
<path d="" fill="#83172E" transform="translate(0,0)"/>
<path d="" fill="#83172E" transform="translate(0,0)"/>
<path d="" fill="#83172E" transform="translate(0,0)"/>
<path d="" fill="#83172E" transform="translate(0,0)"/>
<path d="" fill="#83172E" transform="translate(0,0)"/>
<path d="" fill="#83172E" transform="translate(0,0)"/>
<path d="" fill="#83172E" transform="translate(0,0)"/>
<path d="" fill="#83172E" transform="translate(0,0)"/>
<path d="" fill="#83172E" transform="translate(0,0)"/>
<path d="" fill="#83172E" transform="translate(0,0)"/>
<path d="" fill="#83172E" transform="translate(0,0)"/>
<path d="" fill="#83172E" transform="translate(0,0)"/>
<path d="" fill="#83172E" transform="translate(0,0)"/>
<path d="" fill="#83172E" transform="translate(0,0)"/>
<path d="" fill="#83172E" transform="translate(0,0)"/>
<path d="" fill="#83172E" transform="translate(0,0)"/>
<path d="" fill="#721428" transform="translate(0,0)"/>
<path d="" fill="#83172E" transform="translate(0,0)"/>
<path d="" fill="#83172E" transform="translate(0,0)"/>
<path d="" fill="#83172E" transform="translate(0,0)"/>
<path d="" fill="#83172E" transform="translate(0,0)"/>
<path d="" fill="#DCA23D" transform="translate(0,0)"/>
<path d="" fill="#DCA23D" transform="translate(0,0)"/>
<path d="" fill="#DCA23D" transform="translate(0,0)"/>
<path d="" fill="#DCA23D" transform="translate(0,0)"/>
<path d="" fill="#DCA23D" transform="translate(0,0)"/>
<path d="" fill="#DCA23D" transform="translate(0,0)"/>
<path d="" fill="#DCA23D" transform="translate(0,0)"/>
<path d="" fill="#DCA23D" transform="translate(0,0)"/>
<path d="" fill="#DCA23D" transform="translate(0,0)"/>
<path d="" fill="#DCA23D" transform="translate(0,0)"/>
<path d="" fill="#DCA23D" transform="translate(0,0)"/>
<path d="" fill="#DCA23D" transform="translate(0,0)"/>
<path d="" fill="#DCA23D" transform="translate(0,0)"/>
<path d="" fill="#DCA23D" transform="translate(0,0)"/>
<path d="" fill="#DCA23D" transform="translate(0,0)"/>
<path d="" fill="#DCA23D" transform="translate(0,0)"/>
<path d="" fill="#DCA23D" transform="translate(0,0)"/>
<path d="" fill="#DCA23D" transform="translate(0,0)"/>
<path d="" fill="#DCA23D" transform="translate(0,0)"/>
<path d="" fill="#DCA23D" transform="translate(0,0)"/>
<path d="" fill="#DCA23D" transform="translate(0,0)"/>
<path d="" fill="#DCA23D" transform="translate(0,0)"/>
<path d="" fill="#DCA23D" transform="translate(0,0)"/>
<path d="" fill="#DCA23D" transform="translate(0,0)"/>
<path d="" fill="#FAB846" transform="translate(0,0)"/>
<path d="" fill="#DCA23D" transform="translate(0,0)"/>
<path d="" fill="#DCA23D" transform="translate(0,0)"/>
<path d="" fill="#DCA23D" transform="translate(0,0)"/>
<path d="" fill="#DCA23D" transform="translate(0,0)"/>
<path d="" fill="#DCA23D" transform="translate(0,0)"/>
<path d="" fill="#DCA23D" transform="translate(0,0)"/>
<path d="" fill="#DCA23D" transform="translate(0,0)"/>
<path d="" fill="#DCA23D" transform="translate(0,0)"/>
<path d="" fill="#DCA23D" transform="translate(0,0)"/>
<path d="" fill="#DCA23D" transform="translate(0,0)"/>
<path d="" fill="#FAB846" transform="translate(0,0)"/>
<path d="" fill="#83172E" transform="translate(0,0)"/>
<path d="" fill="#DCA23D" transform="translate(0,0)"/>
<path d="" fill="#FAB846" transform="translate(0,0)"/>
<path d="" fill="#FAB846" transform="translate(0,0)"/>
<path d="" fill="#FAB846" transform="translate(0,0)"/>
<path d="" fill="#FAB846" transform="translate(0,0)"/>
<path d="" fill="#FAB846" transform="translate(0,0)"/>
<path d="" fill="#FAB846" transform="translate(0,0)"/>
<path d="" fill="#FAB846" transform="translate(0,0)"/>
<path d="" fill="#FAB846" transform="translate(0,0)"/>
<path d="" fill="#FAB846" transform="translate(0,0)"/>
<path d="" fill="#FAB846" transform="translate(0,0)"/>
<path d="" fill="#FAB846" transform="translate(0,0)"/>
<path d="" fill="#FAB846" transform="translate(0,0)"/>
<path d="" fill="#FAB846" transform="translate(0,0)"/>
<path d="" fill="#FAB846" transform="translate(0,0)"/>
<path d="" fill="#FAB846" transform="translate(0,0)"/>
<path d="" fill="#FAB846" transform="translate(0,0)"/>
<path d="" fill="#FAB846" transform="translate(0,0)"/>
<path d="" fill="#FAB846" transform="translate(0,0)"/>
<path d="" fill="#FAB846" transform="translate(0,0)"/>
<path d="" fill="#FAB846" transform="translate(0,0)"/>
<path d="" fill="#FAB846" transform="translate(0,0)"/>
<path d="" fill="#FAB846" transform="translate(0,0)"/>
<path d="" fill="#FAB846" transform="translate(0,0)"/>
<path d="" fill="#FAB846" transform="translate(0,0)"/>
<path d="" fill="#FAB846" transform="translate(0,0)"/>
<path d="" fill="#FAB846" transform="translate(0,0)"/>
<path d="" fill="#FAB846" transform="translate(0,0)"/>
<path d="" fill="#FAB846" transform="translate(0,0)"/>
<path d="" fill="#FAB846" transform="translate(0,0)"/>
<path d="" fill="#FAB846" transform="translate(0,0)"/>
<path d="" fill="#FAB846" transform="translate(0,0)"/>
<path d="" fill="#FAB846" transform="translate(0,0)"/>
<path d="" fill="#FAB846" transform="translate(0,0)"/>
<path d="" fill="#FAB846" transform="translate(0,0)"/>
<path d="" fill="#FAB846" transform="translate(0,0)"/>
<path d="" fill="#FAB846" transform="translate(0,0)"/>
<path d="" fill="#FAB846" transform="translate(0,0)"/>
<path d="" fill="#FAB846" transform="translate(0,0)"/>
<path d="" fill="#FAB846" transform="translate(0,0)"/>
<path d="" fill="#FAB846" transform="translate(0,0)"/>
<path d="" fill="#FAB846" transform="translate(0,0)"/>
<path d="" fill="#FAB846" transform="translate(0,0)"/>
<path d="" fill="#FAB846" transform="translate(0,0)"/>
<path d="" fill="#FAB846" transform="translate(0,0)"/>
<path d="" fill="#FAB846" transform="translate(0,0)"/>
<path d="" fill="#FAB846" transform="translate(0,0)"/>
<path d="" fill="#FAB846" transform="translate(0,0)"/>
<path d="" fill="#FAB846" transform="translate(0,0)"/>
<path d="" fill="#FAB846" transform="translate(0,0)"/>
<path d="" fill="#FAB846" transform="translate(0,0)"/>
<path d="" fill="#FAB846" transform="translate(0,0)"/>
<path d="" fill="#FAB846" transform="translate(0,0)"/>
<path d="" fill="#FAB846" transform="translate(0,0)"/>
<path d="" fill="#FAB846" transform="translate(0,0)"/>
<path d="" fill="#FAB846" transform="translate(0,0)"/>
<path d="" fill="#FAB846" transform="translate(0,0)"/>
<path d="" fill="#FAB846" transform="translate(0,0)"/>
<path d="" fill="#FAB846" transform="translate(0,0)"/>
<path d="" fill="#FAB846" transform="translate(0,0)"/>
<path d="" fill="#FAB846" transform="translate(0,0)"/>
<path d="" fill="#FAB846" transform="translate(0,0)"/>
<path d="" fill="#FAB846" transform="translate(0,0)"/>
<path d="" fill="#FAB846" transform="translate(0,0)"/>
<path d="" fill="#FAB846" transform="translate(0,0)"/>
<path d="" fill="#FAB644" transform="translate(0,0)"/>
<path d="" fill="#FAB846" transform="translate(0,0)"/>
<path d="" fill="#F9B846" transform="translate(0,0)"/>
<path d="" fill="#FCBA47" transform="translate(0,0)"/>
<path d="" fill="#D79E3C" transform="translate(0,0)"/>
<path d="" fill="#D9A03C" transform="translate(0,0)"/>
<path d="" fill="#DCA23D" transform="translate(0,0)"/>
<path d="" fill="#DBA23D" transform="translate(0,0)"/>
<path d="" fill="#D69E3B" transform="translate(0,0)"/>
<path d="" fill="#FAB846" transform="translate(0,0)"/>
<path d="" fill="#FABC48" transform="translate(0,0)"/>
<path d="" fill="#D9A03C" transform="translate(0,0)"/>
<path d="" fill="#DAA13C" transform="translate(0,0)"/>
<path d="" fill="#CD9939" transform="translate(0,0)"/>
<path d="" fill="#FAB846" transform="translate(0,0)"/>
<path d="" fill="#FAB846" transform="translate(0,0)"/>
<path d="" fill="#FAB846" transform="translate(0,0)"/>
<path d="" fill="#FAB745" transform="translate(0,0)"/>
<path d="" fill="#6F1327" transform="translate(0,0)"/>
<path d="" fill="#6F1327" transform="translate(0,0)"/>
<path d="" fill="#871830" transform="translate(0,0)"/>
<path d="" fill="#D59C3A" transform="translate(0,0)"/>
<path d="" fill="#DAA03C" transform="translate(0,0)"/>
<path d="" fill="#DCA23D" transform="translate(0,0)"/>
<path d="" fill="#DAA03C" transform="translate(0,0)"/>
<path d="" fill="#DCA23D" transform="translate(0,0)"/>
<path d="" fill="#6F1327" transform="translate(0,0)"/>
<path d="" fill="#6F1327" transform="translate(0,0)"/>
<path d="" fill="#6F1327" transform="translate(0,0)"/>
<path d="" fill="#9F1C38" transform="translate(0,0)"/>
<path d="" fill="#6F1327" transform="translate(0,0)"/>
<path d="" fill="#6D1326" transform="translate(0,0)"/>
<path d="" fill="#6F1327" transform="translate(0,0)"/>
<path d="" fill="#6F1327" transform="translate(0,0)"/>
<path d="" fill="#6F1327" transform="translate(0,0)"/>
<path d="" fill="#6F1327" transform="translate(0,0)"/>
<path d="" fill="#6F1327" transform="translate(0,0)"/>
<path d="" fill="#6F1327" transform="translate(0,0)"/>
<path d="" fill="#6F1327" transform="translate(0,0)"/>
<path d="" fill="#6F1327" transform="translate(0,0)"/>
</svg>
