<?xml version="1.0" encoding="UTF-8"?>
<!-- Generator: visioncortex VTracer 0.6.3 -->
<svg version="1.1" xmlns="http://www.w3.org/2000/svg" width="60" height="99">
<path d="M0 0 C7.3 4.91 11.34 12.05 13.38 20.5 C14.14 24.68 14.11 28.85 14.1 33.09 C14.11 34.05 14.11 35.02 14.11 36.01 C14.12 38.04 14.12 40.07 14.12 42.1 C14.11 45.18 14.14 48.25 14.16 51.33 C14.16 53.31 14.17 55.3 14.16 57.28 C14.17 58.18 14.18 59.09 14.19 60.03 C14.12 69.71 11.98 78.57 5.01 85.63 C-1.55 91.71 -8.21 94.79 -17.2 94.82 C-26.95 94.17 -33.99 90.56 -40.57 83.38 C-46.54 76.42 -46.67 69.22 -46.67 60.45 C-46.68 59.27 -46.68 58.08 -46.69 56.86 C-46.7 54.35 -46.7 51.84 -46.7 49.34 C-46.7 45.53 -46.74 41.72 -46.79 37.9 C-46.79 35.46 -46.79 33.02 -46.79 30.58 C-46.81 29.45 -46.83 28.32 -46.84 27.16 C-46.76 17.81 -44.18 10.94 -37.95 3.94 C-27.44 -5.81 -12.34 -6.64 0 0 Z " fill="#808080" transform="translate(46.19921875,4.18359375)"/>
<path d="M0 0 C7.3 4.91 11.34 12.05 13.38 20.5 C14.14 24.68 14.11 28.85 14.1 33.09 C14.11 34.05 14.11 35.02 14.11 36.01 C14.12 38.04 14.12 40.07 14.12 42.1 C14.11 45.18 14.14 48.25 14.16 51.33 C14.16 53.31 14.17 55.3 14.16 57.28 C14.17 58.18 14.18 59.09 14.19 60.03 C14.12 69.71 11.98 78.57 5.01 85.63 C-1.55 91.71 -8.21 94.79 -17.2 94.82 C-26.95 94.17 -33.99 90.56 -40.57 83.38 C-46.54 76.42 -46.67 69.22 -46.67 60.45 C-46.68 59.27 -46.68 58.08 -46.69 56.86 C-46.7 54.35 -46.7 51.84 -46.7 49.34 C-46.7 45.53 -46.74 41.72 -46.79 37.9 C-46.79 35.46 -46.79 33.02 -46.79 30.58 C-46.81 29.45 -46.83 28.32 -46.84 27.16 C-46.76 17.81 -44.18 10.94 -37.95 3.94 C-27.44 -5.81 -12.34 -6.64 0 0 Z M-37.59 8.7 C-42.96 15.75 -43.8 23.57 -43.73 32.16 C-43.74 33.73 -43.74 33.73 -43.74 35.34 C-43.74 37.55 -43.74 39.75 -43.72 41.96 C-43.7 45.31 -43.72 48.66 -43.75 52.01 C-43.74 54.16 -43.74 56.32 -43.73 58.47 C-43.74 59.46 -43.75 60.45 -43.76 61.47 C-43.65 69.28 -42.05 76.22 -37.12 82.44 C-29.68 88.66 -23.83 91.49 -14 91.16 C-6.61 90.25 -1.01 87.29 4.23 82.09 C9.34 74.7 10.4 67.95 10.33 59.1 C10.34 58 10.34 56.9 10.34 55.77 C10.35 53.46 10.34 51.15 10.32 48.84 C10.3 45.33 10.32 41.81 10.35 38.3 C10.35 36.04 10.34 33.79 10.33 31.54 C10.34 30.49 10.35 29.45 10.36 28.38 C10.25 19.72 8.07 12.09 1.8 5.82 C-10.54 -3.16 -26.97 -3.15 -37.59 8.7 Z " fill="#C0C0C0" transform="translate(46.19921875,4.18359375)"/>
</svg>
