<?xml version="1.0" encoding="UTF-8"?>
<!-- Generator: visioncortex VTracer 0.6.3 -->
<svg version="1.1" xmlns="http://www.w3.org/2000/svg" width="596" height="196">
<path d="M0 0 C0.9 0.43 1.79 0.86 2.72 1.3 C25.41 12.87 42.61 32.99 50.71 57.12 C58.9 83.94 56.51 111.59 43.81 136.5 C30.44 160.54 9.19 176.91 -17.14 184.49 C-43.25 191.67 -70.96 187.38 -94.25 174.16 C-101.94 169.27 -108.53 163.38 -115 157 C-115.73 156.28 -116.46 155.56 -117.21 154.82 C-134.21 136.96 -142.25 111.29 -142 87 C-141.1 62.24 -132.24 40.58 -116 22 C-115.02 20.86 -115.02 20.86 -114.01 19.7 C-85.7 -10.61 -36.78 -18.02 0 0 Z " fill="#C0C0C0" transform="translate(541,9)"/>
<path d="M0 0 C0.9 0.43 1.79 0.86 2.72 1.3 C25.41 12.87 42.61 32.99 50.71 57.12 C58.9 83.94 56.51 111.59 43.81 136.5 C30.44 160.54 9.19 176.91 -17.14 184.49 C-43.25 191.67 -70.96 187.38 -94.25 174.16 C-101.94 169.27 -108.53 163.38 -115 157 C-115.73 156.28 -116.46 155.56 -117.21 154.82 C-134.21 136.96 -142.25 111.29 -142 87 C-141.1 62.24 -132.24 40.58 -116 22 C-115.02 20.86 -115.02 20.86 -114.01 19.7 C-85.7 -10.61 -36.78 -18.02 0 0 Z " fill="#C0C0C0" transform="translate(341,9)"/>
<path d="M0 0 C0.9 0.43 1.79 0.86 2.72 1.3 C25.41 12.87 42.61 32.99 50.71 57.12 C58.9 83.94 56.51 111.59 43.81 136.5 C30.44 160.54 9.19 176.91 -17.14 184.49 C-43.25 191.67 -70.96 187.38 -94.25 174.16 C-101.94 169.27 -108.53 163.38 -115 157 C-115.73 156.28 -116.46 155.56 -117.21 154.82 C-133.74 137.45 -141.6 113.17 -141.38 89.56 C-141.39 88.36 -141.4 87.15 -141.41 85.9 C-141.33 60.87 -131.37 39.55 -115 21 C-114.46 20.38 -113.92 19.75 -113.37 19.11 C-85.42 -11.02 -36.2 -17.73 0 0 Z " fill="#83172E" transform="translate(141,9)"/>
<path d="M0 0 C11.44 8.6 18.86 20.45 22.61 34.26 C24.32 46.38 23.76 58.66 19 70 C18.7 70.74 18.4 71.48 18.09 72.25 C11.58 86.67 -0.69 96.13 -15 102 C-29.8 106.61 -46.77 105.44 -60.65 98.71 C-76.25 90.08 -85.65 77.06 -90.54 60.12 C-93.61 45.9 -91.28 30.4 -84.31 17.81 C-75.09 3.57 -63.1 -5.23 -46.71 -9.61 C-29.95 -12.01 -14.22 -9.47 0 0 Z " fill="#808080" transform="translate(532,51)"/>
<path d="M0 0 C11.44 8.6 18.86 20.45 22.61 34.26 C24.32 46.38 23.76 58.66 19 70 C18.7 70.74 18.4 71.48 18.09 72.25 C11.58 86.67 -0.69 96.13 -15 102 C-29.8 106.61 -46.77 105.44 -60.65 98.71 C-76.25 90.08 -85.65 77.06 -90.54 60.12 C-93.61 45.9 -91.28 30.4 -84.31 17.81 C-75.09 3.57 -63.1 -5.23 -46.71 -9.61 C-29.95 -12.01 -14.22 -9.47 0 0 Z " fill="#808080" transform="translate(332,51)"/>
<path d="M0 0 C11.44 8.6 18.86 20.45 22.61 34.26 C24.32 46.38 23.76 58.66 19 70 C18.7 70.74 18.4 71.48 18.09 72.25 C11.58 86.67 -0.69 96.13 -15 102 C-29.8 106.61 -46.77 105.44 -60.65 98.71 C-76.25 90.08 -85.65 77.06 -90.54 60.12 C-93.61 45.9 -91.28 30.4 -84.31 17.81 C-75.09 3.57 -63.1 -5.23 -46.71 -9.61 C-29.95 -12.01 -14.22 -9.47 0 0 Z " fill="#B31E36" transform="translate(132,51)"/>
<path d="M0 0 C0.9 0.43 1.79 0.86 2.72 1.3 C25.41 12.87 42.61 32.99 50.71 57.12 C58.9 83.94 56.51 111.59 43.81 136.5 C30.44 160.54 9.19 176.91 -17.14 184.49 C-43.25 191.67 -70.96 187.38 -94.25 174.16 C-101.94 169.27 -108.53 163.38 -115 157 C-115.73 156.28 -116.46 155.56 -117.21 154.82 C-134.21 136.96 -142.25 111.29 -142 87 C-141.1 62.24 -132.24 40.58 -116 22 C-115.02 20.86 -115.02 20.86 -114.01 19.7 C-85.7 -10.61 -36.78 -18.02 0 0 Z M-105 22 C-106.15 23.01 -106.15 23.01 -107.33 24.05 C-123.7 39.29 -133.13 61.22 -134.38 83.41 C-135.24 109.96 -126.87 133.25 -108.78 152.73 C-92.11 169.92 -69.71 179.7 -45.81 180.47 C-19.96 180.72 2.51 171.89 21.19 153.83 C39.38 135.51 48.25 112.76 48.32 87.05 C47.97 62.42 36.95 40.45 20.12 22.81 C1.54 4.87 -22.51 -2.54 -47.85 -2.21 C-69.21 -1.58 -89.28 7.85 -105 22 Z " fill="#808080" transform="translate(541,9)"/>
<path d="M0 0 C0.9 0.43 1.79 0.86 2.72 1.3 C25.41 12.87 42.61 32.99 50.71 57.12 C58.9 83.94 56.51 111.59 43.81 136.5 C30.44 160.54 9.19 176.91 -17.14 184.49 C-43.25 191.67 -70.96 187.38 -94.25 174.16 C-101.94 169.27 -108.53 163.38 -115 157 C-115.73 156.28 -116.46 155.56 -117.21 154.82 C-134.21 136.96 -142.25 111.29 -142 87 C-141.1 62.24 -132.24 40.58 -116 22 C-115.02 20.86 -115.02 20.86 -114.01 19.7 C-85.7 -10.61 -36.78 -18.02 0 0 Z M-105 22 C-106.15 23.01 -106.15 23.01 -107.33 24.05 C-123.7 39.29 -133.13 61.22 -134.38 83.41 C-135.24 109.96 -126.87 133.25 -108.78 152.73 C-92.11 169.92 -69.71 179.7 -45.81 180.47 C-19.96 180.72 2.51 171.89 21.19 153.83 C39.38 135.51 48.25 112.76 48.32 87.05 C47.97 62.42 36.95 40.45 20.12 22.81 C1.54 4.87 -22.51 -2.54 -47.85 -2.21 C-69.21 -1.58 -89.28 7.85 -105 22 Z " fill="#808080" transform="translate(341,9)"/>
<path d="M0 0 C0.9 0.43 1.79 0.86 2.72 1.3 C25.41 12.87 42.61 32.99 50.71 57.12 C58.9 83.94 56.51 111.59 43.81 136.5 C30.44 160.54 9.19 176.91 -17.14 184.49 C-43.25 191.67 -70.96 187.38 -94.25 174.16 C-101.94 169.27 -108.53 163.38 -115 157 C-115.73 156.28 -116.46 155.56 -117.21 154.82 C-133.74 137.45 -141.6 113.17 -141.38 89.56 C-141.39 88.36 -141.4 87.15 -141.41 85.9 C-141.33 60.87 -131.37 39.55 -115 21 C-114.46 20.38 -113.92 19.75 -113.37 19.11 C-85.42 -11.02 -36.2 -17.73 0 0 Z M-105 22 C-106.15 23.01 -106.15 23.01 -107.33 24.05 C-123.7 39.29 -133.13 61.22 -134.38 83.41 C-135.24 109.96 -126.87 133.25 -108.78 152.73 C-92.11 169.92 -69.71 179.7 -45.81 180.47 C-19.96 180.72 2.51 171.89 21.19 153.83 C39.38 135.51 48.25 112.76 48.32 87.05 C47.97 62.42 36.95 40.45 20.12 22.81 C1.54 4.87 -22.51 -2.54 -47.85 -2.21 C-69.21 -1.58 -89.28 7.85 -105 22 Z " fill="#B31E36" transform="translate(141,9)"/>
<path d="M0 0 C0.77 -0.01 1.55 -0.03 2.35 -0.04 C6.19 -0.05 7.98 0.01 11.25 2.19 C11.76 4.92 12.07 7.43 12.25 10.19 C12.31 10.96 12.36 11.74 12.42 12.54 C12.56 14.99 12.63 17.43 12.69 19.88 C12.73 20.7 12.78 21.53 12.83 22.38 C12.94 28.37 12.94 28.37 10.92 30.78 C9.41 31.98 7.83 33.09 6.25 34.19 C5.92 35.18 5.59 36.17 5.25 37.19 C5.96 37.32 6.67 37.45 7.4 37.59 C8.32 37.77 9.24 37.94 10.19 38.12 C11.1 38.3 12.02 38.47 12.96 38.65 C15.25 39.19 15.25 39.19 16.25 40.19 C16.41 41.89 16.5 43.6 16.57 45.32 C16.61 46.35 16.65 47.39 16.69 48.45 C16.73 49.54 16.77 50.63 16.81 51.75 C16.86 52.84 16.9 53.93 16.94 55.06 C17.05 57.77 17.15 60.48 17.25 63.19 C11.19 63.92 5.36 64.28 -0.75 64.19 C-0.84 59.64 -0.83 55.25 -0.12 50.75 C-0 49.57 0.12 48.4 0.25 47.19 C-2.23 44.3 -2.23 44.3 -9.75 44.19 C-9.75 50.46 -9.75 56.73 -9.75 63.19 C-15.03 63.19 -20.31 63.19 -25.75 63.19 C-25.77 55.69 -25.79 48.2 -25.8 40.71 C-25.81 37.23 -25.81 33.75 -25.83 30.27 C-25.84 26.27 -25.84 22.27 -25.85 18.27 C-25.85 17.02 -25.86 15.77 -25.86 14.48 C-25.86 13.32 -25.86 12.16 -25.86 10.97 C-25.87 9.94 -25.87 8.92 -25.87 7.87 C-25.76 5.48 -25.44 3.47 -24.75 1.19 C-16.5 0.51 -8.28 0.07 0 0 Z " fill="#BFBFBF" transform="translate(484.75,64.8125)"/>
<path d="M0 0 C1.3 -0.04 1.3 -0.04 2.62 -0.09 C8.32 -0.14 11.33 0.65 15.75 4.31 C15.44 7.21 15.13 10.1 14.81 13 C14.73 13.82 14.64 14.63 14.55 15.47 C14.11 19.47 13.64 23.39 12.75 27.31 C8.29 28.8 8.29 28.8 3.75 30.31 C6.88 32.84 10.15 34.55 13.75 36.31 C13.83 39.08 13.89 41.85 13.94 44.62 C13.96 45.41 13.99 46.2 14.01 47.01 C14.02 47.76 14.03 48.52 14.04 49.3 C14.06 50 14.07 50.69 14.09 51.41 C13.75 53.31 13.75 53.31 12.69 55.03 C9.78 56.96 6.84 56.79 3.46 56.82 C2.75 56.84 2.04 56.86 1.32 56.88 C-0.93 56.93 -3.19 56.97 -5.44 57 C-6.97 57.03 -8.49 57.07 -10.02 57.1 C-13.76 57.19 -17.51 57.26 -21.25 57.31 C-20.92 53.35 -20.59 49.39 -20.25 45.31 C-18.93 45.33 -17.61 45.35 -16.25 45.38 C-11.83 45.38 -7.62 44.95 -3.25 44.31 C-4.55 40.23 -4.55 40.23 -6.25 36.31 C-10.21 36.31 -14.17 36.31 -18.25 36.31 C-18.35 27.82 -18.35 27.82 -18.25 25.31 C-16.51 23.57 -14.06 23.94 -11.69 23.75 C-10.68 23.67 -9.66 23.58 -8.62 23.5 C-7.84 23.44 -7.06 23.37 -6.25 23.31 C-4.67 17.83 -4.67 17.83 -3.25 12.31 C-4.2 12.48 -5.15 12.64 -6.12 12.81 C-10.84 13.5 -15.49 13.38 -20.25 13.31 C-20.25 9.35 -20.25 5.39 -20.25 1.31 C-13.51 0.41 -6.79 0.12 0 0 Z " fill="#BEBEBE" transform="translate(525.25,70.6875)"/>
<path d="M0 0 C1.09 -0.03 2.19 -0.05 3.32 -0.08 C6.91 0.3 9.32 1.47 12.44 3.25 C12.3 5.94 12.15 8.63 12 11.31 C11.96 12.06 11.92 12.82 11.88 13.59 C11.62 18.2 11.16 22.69 10.44 27.25 C5.98 28.73 5.98 28.73 1.44 30.25 C4.57 32.78 7.83 34.49 11.44 36.25 C11.52 39.02 11.58 41.79 11.62 44.56 C11.65 45.35 11.68 46.13 11.7 46.94 C11.71 47.7 11.72 48.46 11.73 49.24 C11.75 49.93 11.76 50.63 11.78 51.35 C11.44 53.25 11.44 53.25 10.38 54.97 C7.46 56.89 4.52 56.73 1.14 56.76 C0.44 56.78 -0.27 56.8 -0.99 56.82 C-3.25 56.87 -5.5 56.9 -7.75 56.94 C-9.28 56.97 -10.81 57.01 -12.33 57.04 C-16.08 57.13 -19.82 57.19 -23.56 57.25 C-23.64 52.85 -23.64 49.55 -22.56 45.25 C-16.95 45.25 -11.34 45.25 -5.56 45.25 C-6.83 38.65 -6.83 38.65 -9.56 36.25 C-12.23 36.01 -12.23 36.01 -15.19 36.12 C-17.85 36.19 -17.85 36.19 -20.56 36.25 C-20.56 32.29 -20.56 28.33 -20.56 24.25 C-16.6 23.92 -12.64 23.59 -8.56 23.25 C-7.08 17.81 -7.08 17.81 -5.56 12.25 C-6.51 12.41 -7.46 12.58 -8.44 12.75 C-13.15 13.44 -17.81 13.32 -22.56 13.25 C-22.56 9.29 -22.56 5.33 -22.56 1.25 C-15.05 0.66 -7.54 0.16 0 0 Z " fill="#BFBFBF" transform="translate(325.5625,69.75)"/>
<path d="M0 0 C0.88 0.07 1.76 0.14 2.67 0.22 C4.41 0.36 4.41 0.36 6.19 0.5 C7.34 0.59 8.48 0.69 9.67 0.78 C12.46 0.96 15.2 1.04 18 1 C18.27 11.23 18.42 21.55 14.38 31.12 C12.58 35.52 11.95 40.34 13 45 C14.37 46.99 14.37 46.99 17 48 C20.26 48.35 23.48 48.28 26.75 48.19 C27.64 48.17 28.53 48.16 29.44 48.15 C31.63 48.11 33.81 48.06 36 48 C35.86 50.13 35.71 52.25 35.56 54.38 C35.48 55.56 35.4 56.74 35.32 57.96 C35 61 35 61 34 63 C22.12 63 10.24 63 -2 63 C-2.02 55.76 -2.04 48.52 -2.05 41.28 C-2.06 38.82 -2.07 36.36 -2.08 33.9 C-2.09 30.35 -2.09 26.8 -2.1 23.25 C-2.1 22.16 -2.11 21.07 -2.11 19.95 C-2.11 4.23 -2.11 4.23 0 0 Z " fill="#BFBFBF" transform="translate(264,64)"/>
<path d="M0 0 C3.3 0 6.6 0 10 0 C10 4.62 10 9.24 10 14 C6.7 14.33 3.4 14.66 0 15 C0 10.05 0 5.1 0 0 Z " fill="#848484" transform="translate(473,76)"/>
</svg>
