<?xml version="1.0" encoding="UTF-8"?>
<!-- Generator: visioncortex VTracer 0.6.3 -->
<svg version="1.1" xmlns="http://www.w3.org/2000/svg" width="286" height="94">
<path d="M0 0 C9.13 6.4 15.65 15.9 18.72 26.64 C21.41 42.14 19.26 55.14 10.38 68.31 C3.02 77.59 -8.18 84.81 -20.07 86.38 C-35.48 87.37 -47.57 84.55 -59.89 74.79 C-69.26 65.68 -74.81 53.98 -75.69 40.95 C-75.69 27.23 -70.76 15.26 -61.69 5.06 C-43.91 -11.22 -20.1 -12.61 0 0 Z " fill="#C0C0C0" transform="translate(266.6875,7.9375)"/>
<path d="M0 0 C10.31 7.27 16.52 17.72 19.25 29.94 C20.73 45.24 18.28 57.98 8.68 70.36 C-0.41 80.01 -11.74 85.88 -24.99 86.46 C-38.67 86.69 -49.12 83.25 -59.95 74.66 C-69.32 65.55 -74.88 53.85 -75.75 40.83 C-75.75 27.25 -70.92 14.93 -61.75 4.94 C-43.5 -10.48 -20.42 -13.45 0 0 Z " fill="#C0C0C0" transform="translate(170.75,8.0625)"/>
<path d="M0 0 C0.83 0.01 1.66 0.02 2.52 0.03 C15.22 0.39 25.14 5.27 34.69 13.44 C45.27 24.98 48.3 37.37 48.02 52.53 C47.51 63.57 42.2 73.47 34.69 81.44 C21.92 92.19 9.61 95.85 -6.96 94.7 C-17.77 93.49 -28.76 87.18 -35.66 78.8 C-45.32 65.81 -47.96 53.43 -46.31 37.44 C-43.61 24.87 -36.02 14.32 -25.31 7.38 C-17.21 2.34 -9.58 -0.13 0 0 Z " fill="#83172E" transform="translate(46.3125,-0.4375)"/>
<path d="M0 0 C6.95 4.48 10.26 9.47 12.96 17.27 C14.47 26.11 12.93 32.89 8.77 40.74 C4.88 46.19 -0.67 49.47 -7.04 51.27 C-17.23 52.44 -25.08 51.06 -33.35 45.02 C-40.14 38.07 -41.39 30.29 -41.32 20.85 C-40.73 13.36 -37.35 7.46 -32.04 2.27 C-22.23 -3.73 -10.52 -5.25 0 0 Z " fill="#808080" transform="translate(253.03515625,22.734375)"/>
<path d="M0 0 C8.02 4.26 12.03 9.63 14.94 18.25 C16.03 28.73 14.42 35.77 8.88 44.5 C3.43 50.41 -4.2 52.57 -12 52.94 C-20.01 52.63 -26.64 49.92 -32.81 44.8 C-38.98 38.11 -39.62 30.33 -39.41 21.66 C-38.65 14.25 -35.34 8.4 -30.06 3.25 C-21.06 -2.26 -9.99 -4.3 0 0 Z " fill="#808080" transform="translate(155.0625,21.75)"/>
<path d="M0 0 C5.74 5.74 8.47 12.91 8.56 20.94 C8.42 30.05 5.71 36.82 -0.81 43.19 C-8.86 48.11 -16.42 49.21 -25.81 48.19 C-34.22 45.35 -40.05 41.29 -44.06 33.25 C-47.07 26 -47.16 18.21 -44.67 10.8 C-41.12 3.2 -37.75 -0.77 -30.31 -4.62 C-19.39 -8.27 -9.34 -6.02 0 0 Z " fill="#B31E36" transform="translate(65.8125,25.8125)"/>
<path d="M0 0 C9.13 6.4 15.65 15.9 18.72 26.64 C21.41 42.14 19.26 55.14 10.38 68.31 C3.02 77.59 -8.18 84.81 -20.07 86.38 C-35.48 87.37 -47.57 84.55 -59.89 74.79 C-69.26 65.68 -74.81 53.98 -75.69 40.95 C-75.69 27.23 -70.76 15.26 -61.69 5.06 C-43.91 -11.22 -20.1 -12.61 0 0 Z M-61.87 10.73 C-69.51 20.53 -72.62 31.8 -71.69 44.06 C-70.1 56.02 -63.72 66.21 -54.69 74.06 C-44.46 81.67 -32.95 84.4 -20.32 82.75 C-8.89 80.52 1.71 73.72 8.31 64.06 C14.45 53.42 18.29 43.22 15.62 30.89 C12.3 19.11 6.85 8.46 -3.96 2.15 C-24.24 -8.64 -45.53 -6.57 -61.87 10.73 Z " fill="#808080" transform="translate(266.6875,7.9375)"/>
<path d="M0 0 C0.83 0.01 1.66 0.02 2.52 0.03 C15.22 0.39 25.14 5.27 34.69 13.44 C45.27 24.98 48.3 37.37 48.02 52.53 C47.51 63.57 42.2 73.47 34.69 81.44 C21.92 92.19 9.61 95.85 -6.96 94.7 C-17.77 93.49 -28.76 87.18 -35.66 78.8 C-45.32 65.81 -47.96 53.43 -46.31 37.44 C-43.61 24.87 -36.02 14.32 -25.31 7.38 C-17.21 2.34 -9.58 -0.13 0 0 Z M-34.31 20.44 C-41.89 30.7 -44.66 42.14 -43 54.8 C-40.38 68.25 -32.07 77.66 -21.38 85.62 C-11.7 91.35 -0.85 92.82 10.19 90.75 C21.33 87.89 31.18 81.15 37.56 71.5 C43.27 61.38 46.48 50.81 44 39.25 C40.66 27.48 35.23 16.84 24.41 10.52 C3.97 -0.35 -18.82 1.69 -34.31 20.44 Z " fill="#B31E36" transform="translate(46.3125,-0.4375)"/>
<path d="M0 0 C10.31 7.27 16.52 17.72 19.25 29.94 C20.73 45.24 18.28 57.98 8.68 70.36 C-0.41 80.01 -11.74 85.88 -24.99 86.46 C-38.67 86.69 -49.12 83.25 -59.95 74.66 C-69.32 65.55 -74.88 53.85 -75.75 40.83 C-75.75 27.25 -70.92 14.93 -61.75 4.94 C-43.5 -10.48 -20.42 -13.45 0 0 Z M-61.93 10.61 C-69.58 20.4 -72.68 31.68 -71.75 43.94 C-70.16 55.89 -63.78 66.08 -54.75 73.94 C-44.5 81.56 -33.11 84.17 -20.46 82.66 C-8.96 80.51 0.6 74.04 7.85 64.93 C14 55.64 17.32 45.07 16.25 33.94 C13.81 22.55 8.85 11.05 -0.75 3.94 C-21.81 -8.36 -44.22 -8.14 -61.93 10.61 Z " fill="#808080" transform="translate(170.75,8.0625)"/>
<path d="M0 0 C1.43 0.01 1.43 0.01 2.89 0.02 C5.19 0.19 5.19 0.19 6.19 1.19 C6.48 3.14 6.69 5.1 6.88 7.06 C6.98 8.13 7.09 9.2 7.2 10.3 C7.19 13.19 7.19 13.19 5.19 16.19 C4.53 16.19 3.87 16.19 3.19 16.19 C3.19 16.85 3.19 17.51 3.19 18.19 C4.84 18.52 6.49 18.85 8.19 19.19 C8.52 22.82 8.85 26.45 9.19 30.19 C6.22 30.52 3.25 30.85 0.19 31.19 C0.19 28.22 0.19 25.25 0.19 22.19 C-1.13 21.86 -2.45 21.53 -3.81 21.19 C-3.81 24.16 -3.81 27.13 -3.81 30.19 C-6.45 30.19 -9.09 30.19 -11.81 30.19 C-11.81 20.95 -11.81 11.71 -11.81 2.19 C-7.04 0.6 -4.72 -0.07 0 0 Z " fill="#BEBEBE" transform="translate(231.8125,30.8125)"/>
<path d="M0 0 C0.03 1.44 0.05 2.87 0.06 4.31 C0.07 5.11 0.09 5.91 0.1 6.74 C0 9 0 9 -1 12 C-1.99 12.66 -2.98 13.32 -4 14 C-2.68 14.66 -1.36 15.32 0 16 C0.2 22.05 0.2 22.05 0 24 C-2 26 -2 26 -5.48 26.2 C-6.86 26.18 -8.24 26.16 -9.62 26.12 C-10.68 26.11 -10.68 26.11 -11.77 26.1 C-13.51 26.07 -15.26 26.04 -17 26 C-17 24.02 -17 22.04 -17 20 C-14.36 20.33 -11.72 20.66 -9 21 C-9 19.35 -9 17.7 -9 16 C-11.31 16 -13.62 16 -16 16 C-16 14.35 -16 12.7 -16 11 C-14.02 10.67 -12.04 10.34 -10 10 C-9.67 8.35 -9.34 6.7 -9 5 C-11.64 5 -14.28 5 -17 5 C-17 3.35 -17 1.7 -17 0 C-11.46 -1.43 -5.45 -1.82 0 0 Z " fill="#BEBEBE" transform="translate(259,35)"/>
<path d="M0 0 C2.46 -0.03 4.92 -0.05 7.38 -0.06 C8.07 -0.07 8.77 -0.08 9.49 -0.09 C14.77 -0.11 14.77 -0.11 17 1 C17.08 5.16 16.98 8.95 16 13 C14.68 13.33 13.36 13.66 12 14 C12.82 14.33 13.65 14.66 14.5 15 C17 17 17 17 17.33 18.98 C17.31 20.99 17.16 23 17 25 C13.96 26.52 10.72 26.37 7.38 26.56 C6.67 26.61 5.96 26.65 5.23 26.69 C3.49 26.8 1.74 26.9 0 27 C0 25.02 0 23.04 0 21 C2.97 21 5.94 21 9 21 C8.34 19.68 7.68 18.36 7 17 C5.02 17 3.04 17 1 17 C0.96 15.33 0.96 13.67 1 12 C2 11 2 11 5.06 10.94 C6.52 10.97 6.52 10.97 8 11 C8.33 9.02 8.66 7.04 9 5 C4.54 5.49 4.54 5.49 0 6 C0 4.02 0 2.04 0 0 Z " fill="#BFBFBF" transform="translate(145,34)"/>
<path d="M0 0 C2.05 0.03 4.1 0.07 6.15 0.1 C6.38 6.25 5.9 11.15 4.15 17.1 C4.43 19.92 4.43 19.92 5.15 22.1 C8.45 22.43 11.75 22.76 15.15 23.1 C14.82 25.41 14.49 27.72 14.15 30.1 C8.54 30.1 2.93 30.1 -2.85 30.1 C-2.87 25.99 -2.89 21.87 -2.9 17.76 C-2.91 16.36 -2.91 14.96 -2.92 13.56 C-2.94 11.56 -2.94 9.55 -2.95 7.54 C-2.95 6.33 -2.96 5.12 -2.96 3.87 C-2.81 0.15 -2.81 0.15 0 0 Z " fill="#BFBFBF" transform="translate(128.84765625,30.90234375)"/>
<path d="M0 0 C1.65 0 3.3 0 5 0 C5 2.31 5 4.62 5 7 C3.35 7.33 1.7 7.66 0 8 C0 5.36 0 2.72 0 0 Z " fill="#878787" transform="translate(227,36)"/>
</svg>
