<?xml version="1.0" encoding="UTF-8"?>
<!-- Generator: visioncortex VTracer 0.6.3 -->
<svg version="1.1" xmlns="http://www.w3.org/2000/svg" width="200" height="91">
<path d="M0 0 C0.96 0.59 1.92 1.17 2.9 1.78 C13.18 8.74 22 19.97 24.48 32.41 C24.9 35.25 25.25 38.09 25.56 40.94 C25.75 42.5 25.75 42.5 25.93 44.09 C26.8 51.69 27.53 59.31 28.19 66.94 C28.27 67.91 28.36 68.89 28.44 69.89 C28.9 75.62 29.08 81.26 29 87 C28.07 86.94 27.14 86.88 26.18 86.82 C0.88 85.19 -24.02 84.19 -49.35 86.29 C-56.26 86.86 -63.07 87.13 -70 87 C-69.43 78.72 -67.39 70.84 -65.35 62.82 C-64.76 60.47 -64.17 58.12 -63.59 55.76 C-52.72 12.33 -52.72 12.33 -33.97 0.66 C-23.24 -5.35 -10.78 -6.69 0 0 Z " fill="#808080" transform="translate(70,4)"/>
<path d="M0 0 C15.12 8.41 22.87 21.91 27.52 38.16 C28.36 41.2 29.17 44.25 29.98 47.3 C30.39 48.82 30.81 50.34 31.22 51.86 C33.35 59.68 35.3 67.53 37.09 75.44 C37.35 76.57 37.35 76.57 37.61 77.73 C38.36 81.12 38.79 84.06 38.79 87.55 C30.69 87.7 22.73 87.22 14.66 86.55 C-10.42 84.66 -35.16 85.92 -60.21 87.55 C-60.39 79.3 -59.78 71.19 -59.04 62.98 C-58.84 60.75 -58.64 58.52 -58.45 56.29 C-56.85 38.03 -54.85 21.27 -41.21 7.55 C-38.35 5.28 -35.37 3.38 -32.21 1.55 C-31.54 1.15 -30.88 0.75 -30.19 0.33 C-20.36 -5.47 -10.18 -4.77 0 0 Z " fill="#808080" transform="translate(161.2109375,3.44921875)"/>
<path d="M0 0 C0.5 3.96 0.5 3.96 1 8 C-7.1 8.15 -15.06 7.67 -23.12 7 C-48.21 5.11 -72.95 6.37 -98 8 C-98 5.36 -98 2.72 -98 0 C-65.97 -5.96 -32.03 -6.24 0 0 Z " fill="#C0C0C0" transform="translate(199,83)"/>
<path d="M0 0 C0 2.64 0 5.28 0 8 C-1.39 7.91 -1.39 7.91 -2.82 7.82 C-28.12 6.19 -53.02 5.19 -78.35 7.29 C-85.26 7.86 -92.07 8.13 -99 8 C-98.67 5.36 -98.34 2.72 -98 0 C-65.98 -5.89 -32.02 -6.3 0 0 Z " fill="#C0C0C0" transform="translate(99,83)"/>
<path d="M0 0 C8.5 -0.1 8.5 -0.1 11 0 C12 1 12 1 12.1 3 C12.09 3.8 12.07 4.61 12.06 5.44 C12.05 6.24 12.04 7.04 12.04 7.87 C12.02 8.57 12.01 9.28 12 10 C11.87 12.13 11.87 12.13 13 14.44 C14 17 14 17 14 20 C12.02 20 10.04 20 8 20 C8 18.35 8 16.7 8 15 C7.01 14.67 6.02 14.34 5 14 C5 15.98 5 17.96 5 20 C3.35 20 1.7 20 0 20 C0 13.4 0 6.8 0 0 Z " fill="#BABABA" transform="translate(130,54)"/>
<path d="M0 0 C1.46 -0.05 2.92 -0.09 4.38 -0.12 C5.19 -0.15 6 -0.17 6.84 -0.2 C9 0 9 0 11 2 C12.27 8.46 12.27 8.46 11 11 C7.94 11.62 7.94 11.62 5 12 C5 12.99 5 13.98 5 15 C6.98 14.67 8.96 14.34 11 14 C10.67 15.32 10.34 16.64 10 18 C8.35 18.03 6.71 18.05 5.06 18.06 C4.15 18.07 3.23 18.09 2.29 18.1 C0 18 0 18 -1 17 C-1.13 15.19 -1.13 15.19 -1.12 13 C-1.13 12.28 -1.13 11.56 -1.13 10.81 C-1 9 -1 9 0 8 C2.33 7.96 4.67 7.96 7 8 C7 6.68 7 5.36 7 4 C4.36 4.33 1.72 4.66 -1 5 C-0.67 3.35 -0.34 1.7 0 0 Z " fill="#BDBDBD" transform="translate(146,56)"/>
<path d="M0 0 C1.44 -0.05 2.87 -0.09 4.31 -0.12 C5.11 -0.15 5.91 -0.17 6.74 -0.2 C9 0 9 0 12 2 C12.41 4.71 12.13 7.24 12 10 C9.09 11.26 7.2 12 4 12 C4 12.99 4 13.98 4 15 C6.64 14.67 9.28 14.34 12 14 C11.34 15.32 10.68 16.64 10 18 C8.35 18.03 6.71 18.05 5.06 18.06 C4.15 18.07 3.23 18.09 2.29 18.1 C0 18 0 18 -1 17 C-1.13 15.19 -1.13 15.19 -1.12 13 C-1.13 12.28 -1.13 11.56 -1.13 10.81 C-1 9 -1 9 0 8 C2.33 7.96 4.67 7.96 7 8 C7 6.68 7 5.36 7 4 C4.69 4.33 2.38 4.66 0 5 C0 3.35 0 1.7 0 0 Z " fill="#BDBDBD" transform="translate(59,56)"/>
<path d="M0 0 C2.97 0.49 2.97 0.49 6 1 C6.09 5.47 5.86 9.61 5 14 C8.11 15.21 8.11 15.21 12 15 C12 16.65 12 18.3 12 20 C8.04 20 4.08 20 0 20 C0 13.4 0 6.8 0 0 Z " fill="#BEBEBE" transform="translate(45,54)"/>
</svg>
