<?xml version="1.0" encoding="UTF-8"?>
<!-- Generator: visioncortex VTracer 0.6.3 -->
<svg version="1.1" xmlns="http://www.w3.org/2000/svg" width="417" height="190">
<path d="M0 0 C0.83 0.62 1.66 1.25 2.52 1.89 C4.84 3.64 7.14 5.41 9.44 7.19 C10.39 7.91 11.34 8.64 12.31 9.39 C30.18 24.09 42.05 50.43 44.94 73 C45.07 73.94 45.19 74.88 45.32 75.85 C46.89 88.22 47.94 100.64 49 113.06 C49.22 115.58 49.44 118.1 49.66 120.62 C51.19 138.46 52.52 156.31 53.44 174.19 C42.87 173.7 32.31 173.13 21.75 172.43 C-25.22 169.38 -71.65 169.33 -118.56 173.19 C-119.26 173.25 -119.97 173.3 -120.69 173.36 C-128.05 173.96 -128.05 173.96 -135.41 174.63 C-141.47 175.19 -147.47 175.26 -153.56 175.19 C-153.03 168.59 -152.08 162.26 -150.59 155.82 C-150.4 154.95 -150.2 154.08 -150 153.19 C-149.36 150.37 -148.71 147.56 -148.06 144.75 C-147.84 143.78 -147.62 142.81 -147.39 141.81 C-125.02 44.44 -125.02 44.44 -108.56 23.19 C-108.15 22.65 -107.74 22.12 -107.32 21.57 C-92.46 2.48 -72.62 -10.87 -48.38 -14.56 C-29.41 -15.81 -15.12 -11.43 0 0 Z " fill="#808080" transform="translate(153.5625,14.8125)"/>
<path d="M0 0 C21.41 -0.73 41 7.62 56.87 21.66 C58.46 23.15 60.04 24.65 61.62 26.16 C62.65 27.08 62.65 27.08 63.7 28.02 C96.52 58.38 103.48 121.66 112.8 162.97 C113.05 164.05 113.29 165.13 113.55 166.24 C114.24 169.3 114.92 172.37 115.6 175.43 C115.91 176.8 115.91 176.8 116.22 178.2 C116.5 179.47 116.5 179.47 116.78 180.76 C116.94 181.49 117.11 182.23 117.27 182.98 C117.66 185.4 117.67 187.71 117.62 190.16 C109.96 190.27 102.43 189.95 94.8 189.32 C93.7 189.23 92.61 189.15 91.48 189.06 C88 188.78 84.53 188.5 81.05 188.22 C58.09 186.38 35.35 184.93 12.3 184.91 C11.17 184.91 10.04 184.91 8.88 184.9 C-14.37 184.89 -37.5 186.07 -60.69 187.6 C-70.25 188.23 -79.81 188.71 -89.38 189.16 C-88.76 173.89 -87.62 158.68 -86.34 143.44 C-86.01 139.56 -85.69 135.68 -85.38 131.8 C-84.35 119.44 -83.23 107.09 -81.83 94.77 C-81.71 93.71 -81.59 92.66 -81.47 91.57 C-78.46 65.93 -66.59 38.98 -46.2 22.38 C-31.92 11.24 -18.53 1.25 0 0 Z " fill="#808080" transform="translate(299.3828125,-0.16015625)"/>
<path d="M0 0 C1.62 0.21 3.24 0.42 4.86 0.63 C7.1 0.92 9.35 1.23 11.59 1.54 C13.52 1.8 13.52 1.8 15.49 2.07 C18.5 2.82 18.5 2.82 20.5 5.82 C21.14 7.91 21.14 7.91 21.63 10.2 C21.88 11.32 21.88 11.32 22.14 12.47 C22.52 14.96 22.53 17.31 22.5 19.82 C14.85 19.94 7.31 19.61 -0.31 18.98 C-1.41 18.9 -2.51 18.81 -3.64 18.72 C-7.11 18.45 -10.59 18.17 -14.06 17.88 C-37.03 16.04 -59.76 14.59 -82.81 14.57 C-83.94 14.57 -85.07 14.57 -86.24 14.57 C-109.48 14.56 -132.61 15.73 -155.8 17.27 C-165.36 17.89 -174.93 18.38 -184.5 18.82 C-184.35 16.34 -184.21 13.86 -184.06 11.38 C-184.02 10.61 -183.97 9.84 -183.93 9.04 C-183.61 3.93 -183.61 3.93 -182.5 2.82 C-180.18 2.41 -177.87 2.06 -175.54 1.74 C-174.81 1.63 -174.09 1.53 -173.34 1.43 C-170.94 1.1 -168.53 0.77 -166.12 0.45 C-165.3 0.34 -164.47 0.22 -163.62 0.11 C-108.73 -7.23 -54.85 -7.26 0 0 Z " fill="#C0C0C0" transform="translate(394.4976501464844,170.1776123046875)"/>
<path d="M0 0 C0.85 0.11 1.69 0.22 2.57 0.33 C4.95 0.65 7.34 0.97 9.72 1.29 C10.44 1.38 11.16 1.48 11.9 1.58 C16.82 2.26 16.82 2.26 17.94 3.38 C18.17 5.9 18.36 8.4 18.5 10.94 C18.62 12.91 18.62 12.91 18.73 14.92 C18.8 16.06 18.87 17.2 18.94 18.38 C8.37 17.88 -2.19 17.32 -12.75 16.62 C-59.72 13.57 -106.15 13.51 -153.06 17.38 C-153.76 17.43 -154.47 17.49 -155.19 17.55 C-162.55 18.15 -162.55 18.15 -169.91 18.82 C-175.97 19.38 -181.97 19.46 -188.06 19.38 C-187.09 7.06 -187.09 7.06 -185.06 3.38 C-180.02 1.6 -174.98 0.82 -169.69 0.16 C-168.9 0.05 -168.11 -0.05 -167.3 -0.16 C-164.74 -0.49 -162.18 -0.81 -159.62 -1.12 C-158.75 -1.24 -157.87 -1.35 -156.97 -1.46 C-104.24 -8.08 -52.58 -6.87 0 0 Z " fill="#C0C0C0" transform="translate(188.0625,170.625)"/>
<path d="M0 0 C3.81 -0.03 7.62 -0.05 11.44 -0.06 C12.53 -0.07 13.61 -0.08 14.74 -0.09 C15.77 -0.09 16.81 -0.09 17.87 -0.1 C18.83 -0.1 19.79 -0.11 20.78 -0.11 C23 0 23 0 24 1 C24.83 5.25 25.13 9.42 25.25 13.75 C25.28 14.67 25.3 15.6 25.33 16.55 C25 19 25 19 23.61 20.83 C22 22 22 22 20 22 C20 22.99 20 23.98 20 25 C21.7 25.22 21.7 25.22 23.44 25.44 C27 26 27 26 28 27 C28.07 29.53 28.09 32.03 28.06 34.56 C28.06 35.27 28.05 35.98 28.05 36.72 C28.04 38.48 28.02 40.24 28 42 C22.06 42.5 22.06 42.5 16 43 C16 39.04 16 35.08 16 31 C14.02 30.34 12.04 29.68 10 29 C10 33.29 10 37.58 10 42 C6.37 42 2.74 42 -1 42 C-1.02 36.34 -1.04 30.68 -1.05 25.02 C-1.06 23.09 -1.07 21.17 -1.08 19.24 C-1.09 16.48 -1.09 13.71 -1.1 10.95 C-1.1 10.08 -1.11 9.22 -1.11 8.33 C-1.11 2.23 -1.11 2.23 0 0 Z " fill="#BDBDBD" transform="translate(272,113)"/>
<path d="M0 0 C2.88 -0.11 5.75 -0.19 8.62 -0.25 C9.43 -0.28 10.24 -0.32 11.07 -0.35 C16.72 -0.44 19.62 0.4 24 4 C23.69 5.18 23.69 5.18 23.38 6.38 C23.25 7.24 23.13 8.11 23 9 C23.66 9.66 24.32 10.32 25 11 C25.27 13.02 25.27 13.02 25.25 15.38 C25.26 16.15 25.26 16.92 25.27 17.71 C24.95 20.39 24.69 21.87 23 24 C19.96 24.61 19.96 24.61 16.38 24.75 C14.59 24.84 14.59 24.84 12.77 24.92 C11.86 24.95 10.94 24.97 10 25 C10.33 27.31 10.66 29.62 11 32 C11.99 32 12.98 32 14 32 C14.33 31.01 14.66 30.02 15 29 C17.97 29 20.94 29 24 29 C24.31 31.75 24.31 31.75 24 35 C21.21 38.05 18.98 39.25 14.93 39.53 C13.43 39.54 11.94 39.53 10.44 39.5 C9.68 39.52 8.93 39.53 8.15 39.55 C4.75 39.52 2.41 39.25 -0.5 37.45 C-2.54 34.11 -2.51 31.16 -2.38 27.38 C-2.37 26.69 -2.37 26.01 -2.37 25.31 C-2.28 20.28 -2.28 20.28 0 18 C2.57 17.69 5.05 17.49 7.62 17.38 C8.68 17.32 8.68 17.32 9.77 17.26 C11.51 17.16 13.25 17.08 15 17 C15 14.69 15 12.38 15 10 C13.02 10 11.04 10 9 10 C8.67 10.66 8.34 11.32 8 12 C5.03 12 2.06 12 -1 12 C-0.67 8.04 -0.34 4.08 0 0 Z " fill="#BCBCBC" transform="translate(304,116)"/>
<path d="M0 0 C2.88 -0.11 5.75 -0.19 8.62 -0.25 C9.43 -0.28 10.24 -0.32 11.07 -0.35 C16.72 -0.44 19.62 0.4 24 4 C23.81 4.8 23.63 5.61 23.44 6.44 C23.22 7.71 23.22 7.71 23 9 C23.33 9.33 23.66 9.66 24 10 C24.13 11.98 24.18 13.96 24.19 15.94 C24.2 17.02 24.22 18.1 24.23 19.21 C24 22 24 22 22 24 C17.69 25.27 13.45 25.08 9 25 C9 27.31 9 29.62 9 32 C10.65 32.33 12.3 32.66 14 33 C14.33 31.68 14.66 30.36 15 29 C17.97 29 20.94 29 24 29 C24.37 34.49 24.37 34.49 22.69 36.81 C18.68 39.64 14.2 39.22 9.5 39.25 C8.73 39.27 7.96 39.29 7.16 39.31 C1.48 39.35 1.48 39.35 -0.73 37.73 C-2.28 35.63 -2.35 34.58 -2.29 31.99 C-2.28 31.23 -2.27 30.47 -2.26 29.69 C-2.24 28.91 -2.21 28.12 -2.19 27.31 C-2.17 26.52 -2.16 25.72 -2.15 24.9 C-2.11 22.93 -2.06 20.97 -2 19 C0.94 17.53 3.75 18 7 18 C7.66 17.67 8.32 17.34 9 17 C11 16.96 13 16.96 15 17 C15 14.36 15 11.72 15 9 C12.69 9 10.38 9 8 9 C8 9.99 8 10.98 8 12 C5.03 12 2.06 12 -1 12 C-1.03 10.38 -1.05 8.75 -1.06 7.12 C-1.07 6.22 -1.09 5.32 -1.1 4.38 C-1 2 -1 2 0 0 Z " fill="#BDBDBD" transform="translate(123,116)"/>
<path d="M0 0 C4.29 0 8.58 0 13 0 C13.28 7.08 12.73 12.65 10.67 19.41 C9.72 23.09 9.72 26.22 10 30 C11.94 31.94 15.47 31.4 18.06 31.56 C19.35 31.65 20.64 31.73 21.97 31.82 C23.47 31.91 23.47 31.91 25 32 C24.67 35.3 24.34 38.6 24 42 C15.75 42 7.5 42 -1 42 C-0.67 28.14 -0.34 14.28 0 0 Z " fill="#BDBDBD" transform="translate(94,113)"/>
<path d="M0 0 C1.98 0 3.96 0 6 0 C6 2.97 6 5.94 6 9 C4.02 9 2.04 9 0 9 C0 6.03 0 3.06 0 0 Z " fill="#818181" transform="translate(281,121)"/>
</svg>
