<?xml version="1.0" encoding="UTF-8"?>
<!-- Generator: visioncortex VTracer 0.6.3 -->
<svg version="1.1" xmlns="http://www.w3.org/2000/svg" width="224" height="112">
<path d="M0 0 C6.23 5.38 9.27 11.33 10.31 19.44 C10.71 27.4 8.15 33.74 3.81 40.31 C0.24 43.72 -3.6 45.83 -8 48 C-8.99 48.5 -8.99 48.5 -10 49 C-19.23 49.81 -27.34 49.76 -35 44 C-40.8 38.74 -44.61 33.38 -45.31 25.51 C-45.55 18.14 -45.62 11.96 -41 6 C-40.48 5.3 -39.95 4.61 -39.41 3.89 C-28.99 -8.16 -12.65 -8.55 0 0 Z " fill="#808080" transform="translate(45,63)"/>
<path d="M0 0 C6.07 4.28 12.27 9.51 14 17 C15.07 26.29 14.69 34.32 9 42 C3.97 47.75 -2.49 51.33 -10.04 52.45 C-18.48 52.9 -25.18 51.05 -32 46 C-38.36 39.13 -41.54 32.01 -41.31 22.65 C-40.42 15.08 -36.89 7.91 -31 3 C-20.91 -3.14 -11.07 -5.2 0 0 Z " fill="#243259" transform="translate(210,4)"/>
<path d="M0 0 C6.45 4.25 11.44 10 13.32 17.53 C14.33 26.49 13.83 34.17 8.32 41.53 C2.83 47.53 -1.94 51.03 -10.19 51.9 C-18.43 52.05 -25.02 51.73 -31.68 46.53 C-37.91 40.31 -41.67 33.49 -42.11 24.66 C-41.8 16.28 -38.41 9.24 -32.64 3.23 C-23.77 -4.44 -10.45 -4.84 0 0 Z " fill="#808080" transform="translate(210.67578125,60.46875)"/>
<path d="M0 0 C6.97 4.9 11.26 10.59 13 19 C13.77 26.7 12.59 33.22 8.18 39.65 C2.39 46.71 -3.33 49.94 -12.31 51.37 C-19.66 51.81 -27.52 49.19 -33.38 44.75 C-40.03 37.78 -42.35 31.54 -42.38 21.91 C-42.2 14.47 -40.2 9.2 -34.95 3.94 C-24.55 -4.71 -11.98 -7.44 0 0 Z " fill="#26355E" transform="translate(42,4)"/>
<path d="M0 0 C6.03 4.52 10.7 10.1 12.15 17.61 C13.22 27.36 11.43 34.57 5.53 42.36 C0.71 47.49 -4.55 50.22 -11.55 51.06 C-18.87 51.28 -24.85 51.03 -30.85 46.61 C-31.78 45.98 -31.78 45.98 -32.74 45.33 C-38.67 40.85 -41.33 34.77 -42.85 27.61 C-43.45 18.89 -41.87 11.59 -36.22 4.74 C-26.68 -5.01 -11.98 -7.07 0 0 Z " fill="#808080" transform="translate(98.84765625,61.38671875)"/>
<path d="M0 0 C7.73 4.26 12.13 8.53 15.16 16.97 C17.44 25.71 16.3 33.19 11.97 41.09 C7.81 47.69 2.33 50.54 -5.05 52.67 C-12.84 54.31 -20.03 52.76 -27.03 49.09 C-33.39 44.25 -36.62 39.22 -38.71 31.59 C-39.76 23.21 -38.45 14.93 -33.48 7.9 C-24.98 -1.13 -11.69 -5.23 0 0 Z " fill="#26355E" transform="translate(95.02734375,1.9140625)"/>
<path d="M0 0 C5.75 6.01 8.48 12.84 8.89 21.14 C8.48 29.28 5.45 36.38 -0.5 42 C-8.19 47.24 -15.3 49.92 -24.69 48.31 C-32.5 46.22 -38.56 42.66 -42.81 35.69 C-46.99 27.99 -47.87 19.49 -45.41 10.98 C-42.04 3.63 -36.89 -0.87 -30.12 -5.06 C-19.37 -9.01 -9.07 -5.93 0 0 Z " fill="#26355E" transform="translate(159.25,7.125)"/>
<path d="M0 0 C7.22 3.83 11.78 8.55 14.72 16.19 C17.15 24.14 15.73 32.37 12.5 39.91 C8.85 45.76 2.57 50.3 -4 52.31 C-13.17 53.31 -21.4 53.02 -29 47.31 C-34.68 42.16 -38.51 36.8 -39.35 29.11 C-39.76 19.36 -37.82 12.8 -31.5 5.38 C-22.54 -2.02 -11.05 -4.64 0 0 Z " fill="#808080" transform="translate(152,59.6875)"/>
<path d="M0 0 C3.52 3.78 5.36 7.85 5.69 13 C5.37 18.61 3.15 22.29 -1 26 C-5.18 28.76 -8.79 29.32 -13.69 28.44 C-17.56 27.33 -20.23 26.02 -23 23 C-25.62 18.22 -26.76 14.43 -26 9 C-23.34 3.08 -20.21 -0.26 -14.19 -2.75 C-9.22 -3.32 -4.29 -2.62 0 0 Z " fill="#808080" transform="translate(94,72)"/>
<path d="M0 0 C4.3 3.03 7.22 6.07 8.2 11.37 C8.46 17.37 7.36 21.16 3.75 25.94 C-1.1 29.48 -5.28 30.43 -11.25 29.94 C-16.06 28.53 -19.3 26.58 -21.75 22.12 C-23.59 17.69 -24.34 13.7 -22.52 9.09 C-17.67 -0.22 -9.86 -3.22 0 0 Z " fill="#26355E" transform="translate(91.25,13.0625)"/>
<path d="M0 0 C2.96 2.74 4.9 5.3 6.75 8.88 C9.52 14.14 12.44 19.28 15.46 24.4 C18 28.78 18 28.78 18 31 C6.45 31 -5.1 31 -17 31 C-15.69 27.72 -14.48 24.89 -12.79 21.86 C-12.37 21.1 -11.95 20.34 -11.51 19.55 C-11.08 18.77 -10.64 17.99 -10.19 17.19 C-9.76 16.42 -9.34 15.65 -8.9 14.86 C-6.08 9.81 -3.11 4.87 0 0 Z " fill="#BF1D5F" transform="translate(196,65)"/>
<path d="M0 0 C2.96 2.74 4.9 5.3 6.75 8.88 C9.52 14.14 12.44 19.28 15.46 24.4 C18 28.78 18 28.78 18 31 C6.45 31 -5.1 31 -17 31 C-15.44 27.1 -13.88 23.94 -11.75 20.38 C-8.8 15.4 -5.99 10.37 -3.26 5.28 C-2 3 -2 3 0 0 Z " fill="#40E2A0" transform="translate(196,9)"/>
<path d="M0 0 C7.59 0 15.18 0 23 0 C23 7.26 23 14.52 23 22 C15.41 22 7.82 22 0 22 C0 14.74 0 7.48 0 0 Z " fill="#26355E" transform="translate(129,17)"/>
<path d="M0 0 C6.23 5.38 9.27 11.33 10.31 19.44 C10.71 27.4 8.15 33.74 3.81 40.31 C0.24 43.72 -3.6 45.83 -8 48 C-8.99 48.5 -8.99 48.5 -10 49 C-19.23 49.81 -27.34 49.76 -35 44 C-40.8 38.74 -44.61 33.38 -45.31 25.51 C-45.55 18.14 -45.62 11.96 -41 6 C-40.48 5.3 -39.95 4.61 -39.41 3.89 C-28.99 -8.16 -12.65 -8.55 0 0 Z M-38.11 6.54 C-42.03 11.66 -43.64 17.53 -43.35 23.96 C-42.03 31.67 -37.55 38.78 -31.19 43.29 C-25.43 46.53 -19.18 47.72 -12.64 46.59 C-5 44.38 1.02 40.34 5 33.38 C7.93 26.73 8.31 20.2 6.15 13.26 C2.89 5.95 -2.02 0.66 -9.44 -2.44 C-21.27 -4.31 -29.77 -2.45 -38.11 6.54 Z " fill="#C0C0C0" transform="translate(45,63)"/>
<path d="M0 0 C6.97 4.9 11.26 10.59 13 19 C13.77 26.7 12.59 33.22 8.18 39.65 C2.39 46.71 -3.33 49.94 -12.31 51.37 C-19.66 51.81 -27.52 49.19 -33.38 44.75 C-40.03 37.78 -42.35 31.54 -42.38 21.91 C-42.2 14.47 -40.2 9.2 -34.95 3.94 C-24.55 -4.71 -11.98 -7.44 0 0 Z M-29 3 C-30.07 3.74 -31.14 4.48 -32.25 5.25 C-37.03 10.03 -40.08 16.3 -40.31 23.12 C-40.2 30.86 -36.66 36.97 -31.51 42.56 C-25.78 48.02 -19.34 48.3 -11.79 48.22 C-5.62 47.73 -0.33 45.45 4 41 C9.07 33.09 11.15 26.46 10 17 C7.24 8.86 2.65 3.82 -5 0 C-13.14 -2.71 -21.97 -1.91 -29 3 Z " fill="#1F2B4D" transform="translate(42,4)"/>
<path d="M0 0 C6.45 4.25 11.44 10 13.32 17.53 C14.33 26.49 13.83 34.17 8.32 41.53 C2.83 47.53 -1.94 51.03 -10.19 51.9 C-18.43 52.05 -25.02 51.73 -31.68 46.53 C-37.91 40.31 -41.67 33.49 -42.11 24.66 C-41.8 16.28 -38.41 9.24 -32.64 3.23 C-23.77 -4.44 -10.45 -4.84 0 0 Z M-32.68 7.53 C-38.25 14.83 -39.64 21.39 -38.68 30.53 C-36.28 38.24 -31.85 43.75 -24.77 47.56 C-17.92 50.51 -11.53 50.42 -4.55 47.97 C2.42 44.86 6.69 40.57 9.76 33.59 C12.43 25.95 11.89 20.35 8.66 12.93 C5.45 7.16 0.58 2.7 -5.68 0.53 C-16.45 -1.44 -24.67 -0.29 -32.68 7.53 Z " fill="#C0C0C0" transform="translate(210.67578125,60.46875)"/>
<path d="M0 0 C7.73 4.26 12.13 8.53 15.16 16.97 C17.44 25.71 16.3 33.19 11.97 41.09 C7.81 47.69 2.33 50.54 -5.05 52.67 C-12.84 54.31 -20.03 52.76 -27.03 49.09 C-33.39 44.25 -36.62 39.22 -38.71 31.59 C-39.76 23.21 -38.45 14.93 -33.48 7.9 C-24.98 -1.13 -11.69 -5.23 0 0 Z M-33.03 12.09 C-36.98 18.19 -36.79 25.04 -36.03 32.09 C-34.25 38.77 -29.34 43.87 -24.03 48.09 C-17.11 51.28 -8.44 51.09 -1.21 48.96 C5.57 44.97 10.46 40.73 12.97 33.09 C14.67 25.94 13.96 19.78 10.97 13.09 C7.08 7.19 1.64 3.31 -5.03 1.09 C-17.61 0.21 -24.34 2.97 -33.03 12.09 Z " fill="#1F2B4D" transform="translate(95.02734375,1.9140625)"/>
<path d="M0 0 C6.03 4.52 10.7 10.1 12.15 17.61 C13.22 27.36 11.43 34.57 5.53 42.36 C0.71 47.49 -4.55 50.22 -11.55 51.06 C-18.87 51.28 -24.85 51.03 -30.85 46.61 C-31.78 45.98 -31.78 45.98 -32.74 45.33 C-38.67 40.85 -41.33 34.77 -42.85 27.61 C-43.45 18.89 -41.87 11.59 -36.22 4.74 C-26.68 -5.01 -11.98 -7.07 0 0 Z M-36.85 9.61 C-40.99 15.83 -40.82 23.38 -39.85 30.61 C-37.23 37.77 -32.47 42.93 -25.85 46.61 C-18.77 49.35 -12.28 49.36 -5.19 46.79 C0.52 43.93 4.91 39.7 8.15 34.24 C10.49 25.76 10.79 18.79 7.15 10.61 C3.39 4.91 -1.84 0.92 -8.35 -1.2 C-21.08 -2.15 -28.07 0.03 -36.85 9.61 Z " fill="#C0C0C0" transform="translate(98.84765625,61.38671875)"/>
<path d="M0 0 C5.75 6.01 8.48 12.84 8.89 21.14 C8.48 29.28 5.45 36.38 -0.5 42 C-8.19 47.24 -15.3 49.92 -24.69 48.31 C-32.5 46.22 -38.56 42.66 -42.81 35.69 C-46.99 27.99 -47.87 19.49 -45.41 10.98 C-42.04 3.63 -36.89 -0.87 -30.12 -5.06 C-19.37 -9.01 -9.07 -5.93 0 0 Z M-37.25 2.88 C-42.05 8.78 -44.69 15.37 -44.12 23 C-43.08 30.21 -40.42 35.7 -35.25 40.88 C-28.25 45.26 -21.23 47.01 -13.01 45.45 C-5.61 43.36 0.22 38.9 4.25 32.31 C7.11 25.67 7.12 17.72 4.71 10.96 C0.67 3.51 -5.11 -0.58 -12.94 -3.5 C-21.97 -5.2 -30.09 -2.96 -37.25 2.88 Z " fill="#1F2B4D" transform="translate(159.25,7.125)"/>
<path d="M0 0 C7.22 3.83 11.78 8.55 14.72 16.19 C17.15 24.14 15.73 32.37 12.5 39.91 C8.85 45.76 2.57 50.3 -4 52.31 C-13.17 53.31 -21.4 53.02 -29 47.31 C-34.68 42.16 -38.51 36.8 -39.35 29.11 C-39.76 19.36 -37.82 12.8 -31.5 5.38 C-22.54 -2.02 -11.05 -4.64 0 0 Z M-32.25 9.5 C-36.76 16.75 -37.82 24.01 -36 32.31 C-33.79 40.11 -28.57 44.17 -21.96 48.3 C-16.16 51.3 -9.65 50.98 -3.5 49.25 C2.87 46.89 7.95 42.55 11.5 36.75 C14.02 31.03 13.78 24.41 13 18.31 C10.16 11.59 5.75 5.45 -0.89 2.03 C-12.95 -2.07 -23.39 0.88 -32.25 9.5 Z " fill="#C0C0C0" transform="translate(152,59.6875)"/>
<path d="M0 0 C5.48 3.78 8.56 7.42 10.62 13.81 C11.49 21.64 9.16 26.58 4.38 32.69 C-0.42 36.39 -5.12 37.09 -11 36.62 C-17.11 35.67 -20.92 33.82 -24.75 28.88 C-28.17 23.33 -28.51 18.15 -27.38 11.81 C-25.39 6.32 -21.76 2.5 -16.69 -0.34 C-11.12 -2.38 -5.52 -1.94 0 0 Z M-18.38 4.81 C-20.8 7.13 -20.8 7.13 -22.38 9.81 C-22.79 10.43 -23.2 11.05 -23.62 11.69 C-25.29 16.41 -24.75 20.52 -22.75 25 C-20.63 28.84 -18.37 30.85 -14.38 32.81 C-9.53 34.16 -5.87 33.98 -1.31 32.01 C2.44 29.69 4.78 26.79 6.62 22.81 C7.78 17.55 7.18 13.12 4.62 8.38 C1.78 4.36 -1.6 2.72 -6.38 1.81 C-11 1.81 -14.29 2.69 -18.38 4.81 Z " fill="#009999" transform="translate(92.375,67.1875)"/>
<path d="M0 0 C4.97 3.12 8.33 7.42 10.19 13 C10.97 19.54 9.98 24.58 6.19 30 C1.57 35.05 -3.15 36.57 -9.81 37 C-15.91 36.76 -19.68 33.91 -24.15 29.95 C-28.18 25.22 -28.36 20.07 -28.25 14.08 C-27.53 9.03 -25.36 5.6 -21.81 2 C-15.17 -2.3 -7.44 -1.95 0 0 Z M-22.12 8.56 C-25 12.71 -25.22 16.04 -24.81 21 C-23.4 25.81 -21.45 29.05 -17 31.5 C-11.7 33.71 -7.59 33.57 -2.12 31.81 C2.37 29.35 4.57 26.85 6.19 22 C6.97 16.42 6.84 12.18 3.5 7.5 C0.3 3.81 -2.02 2.32 -6.91 1.76 C-13.79 1.37 -17.48 3.41 -22.12 8.56 Z " fill="#FF6666" transform="translate(92.8125,10)"/>
<path d="M0 0 C9.57 0 19.14 0 29 0 C29 9.57 29 19.14 29 29 C19.43 29 9.86 29 0 29 C0 19.43 0 9.86 0 0 Z M3 4 C3 11.26 3 18.52 3 26 C10.59 26 18.18 26 26 26 C26 18.74 26 11.48 26 4 C18.41 4 10.82 4 3 4 Z " fill="#FF69F8" transform="translate(126,13)"/>
<path d="M0 0 C9.57 0 19.14 0 29 0 C29 9.57 29 19.14 29 29 C19.43 29 9.86 29 0 29 C0 19.43 0 9.86 0 0 Z M3 3 C3 10.59 3 18.18 3 26 C10.59 26 18.18 26 26 26 C26 18.41 26 10.82 26 3 C18.41 3 10.82 3 3 3 Z " fill="#009607" transform="translate(126,70)"/>
<path d="M0 0 C3.11 2.86 5.1 5.64 7.06 9.38 C7.55 10.29 8.03 11.21 8.54 12.15 C10.05 15.09 11.52 18.04 13 21 C5.08 21 -2.84 21 -11 21 C-9.53 16.59 -8.42 13.73 -6.06 9.94 C-5.31 8.71 -5.31 8.71 -4.54 7.46 C-3.78 6.24 -3.78 6.24 -3 5 C-2 3.33 -1 1.67 0 0 Z " fill="#26355E" transform="translate(196,16)"/>
<path d="M0 0 C4.08 0.35 6.01 2.7 8.75 5.56 C9.95 6.8 9.95 6.8 11.17 8.07 C11.78 8.7 12.38 9.34 13 10 C17.38 8.15 19.88 5.06 23 1.58 C25 0 25 0 27.25 0.26 C27.83 0.51 28.41 0.75 29 1 C25.49 5.18 21.92 9.2 18 13 C19.54 16.68 21.78 18.99 24.62 21.75 C25.85 22.95 25.85 22.95 27.1 24.17 C27.73 24.78 28.35 25.38 29 26 C28.01 26.99 27.02 27.98 26 29 C25.44 28.31 25.44 28.31 24.86 27.61 C21.86 24 18.98 20.58 15 18 C11.24 19.25 9.76 21.18 7 24 C5.03 25.71 3.02 27.35 1 29 C0.34 28.01 -0.32 27.02 -1 26 C-0.19 25.25 0.61 24.5 1.44 23.73 C2.48 22.74 3.52 21.75 4.56 20.75 C5.1 20.26 5.63 19.77 6.18 19.26 C9.13 16.56 9.13 16.56 10.09 12.86 C8.72 10.52 7.17 9.14 5.06 7.44 C2.47 5.32 0.88 3.82 -1 1 C-0.67 0.67 -0.34 0.34 0 0 Z " fill="#834D17" transform="translate(13,71)"/>
<path d="M0 0 C3.68 1.54 5.99 3.78 8.75 6.62 C9.55 7.44 10.35 8.26 11.17 9.1 C12.08 10.04 12.08 10.04 13 11 C13.44 10.62 13.87 10.25 14.32 9.86 C18.19 6.54 22.08 3.25 26 0 C26.66 0.99 27.32 1.98 28 3 C27.11 3.68 26.23 4.36 25.31 5.06 C21.81 7.96 19.51 11.23 17 15 C17.79 15.77 18.59 16.54 19.41 17.34 C20.44 18.35 21.47 19.36 22.5 20.38 C23.02 20.88 23.55 21.39 24.09 21.91 C25.43 23.24 26.72 24.62 28 26 C28 26.66 28 27.32 28 28 C27.01 28.33 26.02 28.66 25 29 C21.37 25.37 17.74 21.74 14 18 C9.95 19.35 8.45 21.84 5.82 25.09 C3.98 27.02 2.44 27.97 0 29 C0 25 0 25 2.19 22.42 C3.12 21.54 4.04 20.66 5 19.75 C5.93 18.86 6.86 17.97 7.81 17.05 C8.53 16.37 9.26 15.7 10 15 C6.49 10.82 2.92 6.8 -1 3 C-0.67 2.01 -0.34 1.02 0 0 Z " fill="#7CB2E8" transform="translate(14,13)"/>
<path d="M0 0 C3.13 2.88 5.14 5.69 7.12 9.44 C7.62 10.36 8.12 11.29 8.63 12.25 C9.89 14.77 10.95 17.38 12 20 C4.41 20 -3.18 20 -11 20 C-7.62 13.09 -4.21 6.44 0 0 Z " fill="#808080" transform="translate(196,72)"/>
</svg>
