<?xml version="1.0" encoding="UTF-8"?>
<!-- Generator: visioncortex VTracer 0.6.3 -->
<svg version="1.1" xmlns="http://www.w3.org/2000/svg" width="28" height="47">
<path d="M0 0 C3.1 2.5 5.46 5.24 7.25 8.81 C7.55 13.22 7.53 17.64 7.56 22.06 C7.59 23.29 7.62 24.52 7.65 25.79 C7.73 37.05 7.73 37.05 3.25 41.81 C-0.03 44.65 -2.52 46.06 -6.81 46.25 C-12.49 45.62 -16.03 43.44 -19.67 38.98 C-22.19 33.94 -21.54 27.94 -21.5 22.44 C-21.54 21.15 -21.57 19.86 -21.61 18.53 C-21.61 12.31 -21.52 7.84 -17.39 2.96 C-12.54 -1.82 -6.2 -2.68 0 0 Z " fill="#808080" transform="translate(20.75,1.1875)"/>
<path d="M0 0 C3.1 2.5 5.46 5.24 7.25 8.81 C7.55 13.22 7.53 17.64 7.56 22.06 C7.59 23.29 7.62 24.52 7.65 25.79 C7.73 37.05 7.73 37.05 3.25 41.81 C-0.03 44.65 -2.52 46.06 -6.81 46.25 C-12.49 45.62 -16.03 43.44 -19.67 38.98 C-22.19 33.94 -21.54 27.94 -21.5 22.44 C-21.54 21.15 -21.57 19.86 -21.61 18.53 C-21.61 12.31 -21.52 7.84 -17.39 2.96 C-12.54 -1.82 -6.2 -2.68 0 0 Z M-17.75 5.81 C-20.38 11.22 -20.08 16.35 -20.06 22.25 C-20.08 23.27 -20.09 24.3 -20.11 25.35 C-20.12 32.28 -19.39 36.87 -14.62 42.19 C-10.6 44.46 -7.27 44.86 -2.75 43.81 C0.62 41.76 3.47 39.37 5.25 35.81 C5.52 31.38 5.48 26.94 5.5 22.5 C5.52 21.26 5.54 20.03 5.56 18.75 C5.57 17.56 5.57 16.37 5.58 15.14 C5.59 14.04 5.6 12.95 5.61 11.83 C5.2 8.43 4.32 6.52 2.25 3.81 C1.59 3.81 0.93 3.81 0.25 3.81 C0.25 3.15 0.25 2.49 0.25 1.81 C-6.49 -1.56 -13.04 0.51 -17.75 5.81 Z " fill="#C0C0C0" transform="translate(20.75,1.1875)"/>
</svg>
